<svg xmlns="http://www.w3.org/2000/svg" viewBox="0 0 1600 900"><defs><style>.cls-1,.cls-3{fill:#fff;}.cls-2,.cls-4,.cls-5{fill:none;}.cls-2,.cls-3,.cls-4,.cls-5{stroke:#000;stroke-linejoin:round;}.cls-2,.cls-3,.cls-5{stroke-linecap:round;}.cls-2,.cls-3{stroke-width:7px;}.cls-4{stroke-width:5px;}.cls-5{stroke-width:3px;}</style></defs><g id="Slide1"><g id="Man_1" data-name="Man 1"><path id="BackFill" class="cls-1" d="M381.38,462.49c-5.15,6.78-5.59,8.25-3.23,10.31s10.6,2.06,17.08,2.95c-2.21,7.95-7.37,16.63-13,19.43s-11.6,2.8-19.4,2.65l-.53-.09c-2.51,48.5-8.25,98.11-12.33,140,0,0-10.71,3-129.71,2l12.62-138.61a26.32,26.32,0,0,1-3,2.77c-10,4.19-15.46,5.59-27.2-8.51-1.08-1.16-1.56-4.62-.08-5.19,3.59-1.38,7-1.6,9.06-3.68,1.23-1.25,1.17-4.1-.33-5-14.27-8.61-52.15-27.11-62.36-44.95-4.86-9.13-17.23-23.41,17.67-48.59C204,358.1,238.71,356,247,349.42c2.5-10.9-8.1-41.38-10.31-49.77s-3.24-29.89,2.13-42.55,20.47-22.16,35.86-22.24,29.74,7.07,37,12.74,28.71,27.89,28.05,34.38c-8.32,2-6.34,1.47-17.38,3.09-1.32,13.69-7.8,48.88-9.72,58.46,10.9,4.27,50.07,25.76,57.43,32.68s29,38.14,27.83,50.36S386.54,455.72,381.38,462.49Z"/><path id="Legs" class="cls-2" d="M361.13,405.23c6.53,71.71-4.84,162.7-11.63,232.27,0,0-10.7,3-129.7,2l13.69-150.46"/><path id="LegsDivider" class="cls-3" d="M307.55,530,307,638.68"/><g id="Hammer"><path class="cls-4" d="M268.28,483.37,231,446.13c10.57-.2,18.6,2.68,26.91,7.18,7.79,4.22,14.23,11.36,21.4,19Z"/><rect class="cls-4" x="182.69" y="488.35" width="81.07" height="14.6" transform="translate(-285.1 303.02) rotate(-45)"/></g><path id="Body" class="cls-2" d="M231.1,474.29c11.67,13.43,5.08,24.07-1.66,29.41-10,4.2-15.46,5.59-27.2-8.5-1.08-1.17-1.56-4.62-.07-5.19,3.59-1.38,7-1.61,9.05-3.68,1.23-1.26,1.17-4.1-.33-5-14.26-8.6-52.14-27.11-62.36-44.95-4.86-9.12-17.22-23.41,17.67-48.58,37.25-29.89,72-32,80.25-38.58,2.5-10.9-8.1-41.38-10.31-49.77s-3.24-29.89,2.14-42.55,20.46-22.16,35.85-22.23,29.74,7.06,37,12.73,28.72,27.9,28,34.38c-8.32,2-6.33,1.48-17.38,3.1-1.32,13.69-7.8,48.88-9.71,58.45,10.89,4.27,50.06,25.77,57.42,32.69s29,38.13,27.83,50.35S386,455.52,380.88,462.29s-5.6,8.24-3.24,10.31,10.6,2.06,17.08,2.94c-2.21,7.95-7.36,16.64-13,19.44s-11.59,2.79-19.4,2.65"/><path class="cls-3" d="M210.89,481.32c1.5.91,1.56,3.75.33,5-2,2.07-5.46,2.3-9.05,3.68-1.49.57-1,4,.07,5.19,11.74,14.09,17.23,12.7,27.2,8.5,6.74-5.34,13.33-16,1.66-29.41"/><circle id="LeftEye" cx="285.72" cy="286.67" r="4.97"/><circle id="RightEye" cx="306.82" cy="280.04" r="4.97"/><path id="Mouth" class="cls-2" d="M262.15,326s5.39-5.84,25.67-4.92A182,182,0,0,1,314,326.2"/><path id="Cross" d="M421.85,448.9l-15.19-6c-38.19-15-62.79-24.69-114.33-39.25,82.59-45.2,152.83-76.61,226.84-101.48l8.53-2.86L522,282.28l-8.53,2.87c-77,25.89-149.92,58.7-236.36,106.39q-4.79,2.64-9.57,5.33c-82.83-22.08-162.55-35-214.35-34.8l-9,.05.09,18,9-.05H54.7c46.63,0,116.4,10.91,190.5,29.61C177.7,449.27,110.78,496,41.6,551.93l-7,5.66,11.32,14,7-5.66c73.83-59.64,145-108.76,217-149.76,63.1,17.17,88.39,27.11,130.13,43.52l15.22,6a701.85,701.85,0,0,1,90.76,43.28l7.74,4.58L523,498l-7.74-4.59A707.11,707.11,0,0,0,421.85,448.9Z"/></g><g id="Laptop_1" data-name="Laptop 1"><rect class="cls-3" x="528.58" y="427.25" width="167.09" height="145.75"/><rect class="cls-3" x="543.18" y="440.99" width="137.23" height="118.39"/><line class="cls-2" x1="552.16" y1="543.52" x2="584.93" y2="492.78"/><line class="cls-2" x1="584.93" y1="492.78" x2="612.42" y2="527.14"/><line class="cls-2" x1="612.42" y1="527.14" x2="659.46" y2="460.01"/><polygon class="cls-2" points="742.93 642.32 481.31 642.32 527.89 573.57 696.35 573.57 742.93 642.32"/><polygon class="cls-5" points="636.05 635.22 587.62 635.22 589.89 617.95 633.83 617.95 636.05 635.22"/><line class="cls-5" x1="518.84" y1="586.92" x2="703.53" y2="586.92"/><line class="cls-5" x1="508.13" y1="602.73" x2="714.03" y2="602.73"/><line class="cls-5" x1="528.28" y1="572.99" x2="508.72" y2="601.85"/><line class="cls-5" x1="549.24" y1="572.99" x2="534.57" y2="601.85"/><line class="cls-5" x1="570.2" y1="572.99" x2="560.42" y2="601.85"/><line class="cls-5" x1="591.16" y1="572.99" x2="586.27" y2="601.85"/><line class="cls-5" x1="612.12" y1="572.99" x2="612.12" y2="601.85"/><line class="cls-5" x1="633.08" y1="572.99" x2="637.97" y2="601.85"/><line class="cls-5" x1="654.04" y1="572.99" x2="663.82" y2="601.85"/><line class="cls-5" x1="675" y1="572.99" x2="689.67" y2="601.85"/><line class="cls-5" x1="695.96" y1="572.99" x2="715.52" y2="601.85"/></g></g></svg>