<svg id="Layer_1" data-name="Layer 1" xmlns="http://www.w3.org/2000/svg" viewBox="0 0 1600 900"><defs><style>.cls-1{fill:#fff;}.cls-1,.cls-2,.cls-3,.cls-4{stroke:#000;}.cls-1,.cls-2,.cls-3{stroke-linecap:round;stroke-linejoin:round;}.cls-1,.cls-2{stroke-width:7px;}.cls-2,.cls-3,.cls-4{fill:none;}.cls-3{stroke-width:3px;}.cls-4{stroke-miterlimit:10;stroke-width:6px;}</style></defs><rect class="cls-1" x="470.47" y="25.94" width="658.49" height="574.39"/><rect class="cls-1" x="528.01" y="80.1" width="540.82" height="466.59"/><polygon class="cls-2" points="1315.26 873.55 284.17 873.55 467.76 602.6 1131.67 602.6 1315.26 873.55"/><polygon class="cls-3" points="894.01 845.57 703.16 845.57 712.13 777.51 885.26 777.51 894.01 845.57"/><line class="cls-3" x1="432.11" y1="655.22" x2="1159.97" y2="655.22"/><line class="cls-3" x1="389.89" y1="717.53" x2="1201.34" y2="717.53"/><line class="cls-3" x1="469.3" y1="600.33" x2="392.23" y2="714.07"/><line class="cls-3" x1="551.9" y1="600.33" x2="494.1" y2="714.07"/><line class="cls-3" x1="634.51" y1="600.33" x2="595.97" y2="714.07"/><line class="cls-3" x1="717.11" y1="600.33" x2="697.84" y2="714.07"/><line class="cls-3" x1="799.72" y1="600.33" x2="799.72" y2="714.07"/><line class="cls-3" x1="882.32" y1="600.33" x2="901.59" y2="714.07"/><line class="cls-3" x1="964.92" y1="600.33" x2="1003.46" y2="714.07"/><line class="cls-3" x1="1047.53" y1="600.33" x2="1105.33" y2="714.07"/><line class="cls-3" x1="1130.13" y1="600.33" x2="1207.2" y2="714.07"/><path class="cls-4" d="M975.11,434.21c-28.19,104.38-266.2,132.63-333.43,52.73-24-28.49-24.6-67.3-25.2-105.16C616,353,615.18,300,653,263.28A112.29,112.29,0,0,1,671.18,249h0a27,27,0,0,1,3-.61c0,1.08-.09,2.12-.13,3.13-3.55,26.48,9.44,39.56,20.48,56.36q-.81-8.5-.93-17.51l.12.09a153.75,153.75,0,0,1,.82-15.63v0a181.66,181.66,0,0,1,6-31c9-31.9,26.76-64,51.54-90.46a206.89,206.89,0,0,1,42.68-35,180.45,180.45,0,0,1,76.65-26c-27.21,30.5,27.5,209.37,43.46,223.7,1.7-16.38,15.41-33,31.36-37.19-7.06,38.63,19.63,49.74,30,79.69C982.05,386.6,981.15,411.87,975.11,434.21Z"/><path class="cls-4" d="M912.66,469.09C894.42,536.6,740.47,554.88,697,503.2c-15.51-18.43-15.91-43.54-16.3-68-.29-18.62-.84-52.92,23.61-76.65a72.28,72.28,0,0,1,11.78-9.24h0a17.31,17.31,0,0,1,2-.39q0,1-.09,2c-2.29,17.13,6.11,25.6,13.25,36.46-.35-3.66-.56-7.44-.6-11.32l.08.06a99.48,99.48,0,0,1,.53-10.12h0a117.14,117.14,0,0,1,3.89-20,144.58,144.58,0,0,1,33.34-58.51A133.05,133.05,0,0,1,796,264.8,116.75,116.75,0,0,1,845.62,248c-17.6,19.73,17.79,135.44,28.11,144.7,1.1-10.59,10-21.37,20.29-24.06-4.57,25,12.7,32.18,19.4,51.56C917.14,438.29,916.56,454.64,912.66,469.09Z"/><path class="cls-4" d="M859.81,494.46c-11,40.7-103.81,51.72-130,20.56-9.36-11.11-9.6-26.24-9.83-41-.18-11.22-.51-31.9,14.23-46.2a43.4,43.4,0,0,1,7.1-5.57h0a8.22,8.22,0,0,1,1.2-.24c0,.42,0,.83-.06,1.22-1.38,10.32,3.68,15.43,8,22-.21-2.21-.34-4.49-.37-6.83l.05,0a60,60,0,0,1,.32-6.09h0a71.49,71.49,0,0,1,2.35-12.08A87.24,87.24,0,0,1,772.86,385a80.49,80.49,0,0,1,16.65-13.64,70.31,70.31,0,0,1,29.89-10.14c-10.62,11.89,10.72,81.64,16.94,87.23.66-6.39,6-12.89,12.23-14.51-2.75,15.07,7.65,19.4,11.69,31.08A63.27,63.27,0,0,1,859.81,494.46Z"/></svg>