<svg id="Layer_1" data-name="Layer 1" xmlns="http://www.w3.org/2000/svg" xmlns:xlink="http://www.w3.org/1999/xlink" viewBox="0 0 1600 900"><defs><style>.cls-1,.cls-2,.cls-3{fill:none;}.cls-2,.cls-3,.cls-4,.cls-5{stroke:#000;}.cls-2{stroke-linecap:square;stroke-width:0.3px;}.cls-3,.cls-4,.cls-5{stroke-miterlimit:10;stroke-width:3px;}.cls-4{fill:#fff;}.cls-5{fill:url(#Lines);}.cls-6{font-size:72px;font-family:Consolas;}</style><pattern id="Lines" data-name="Lines" width="72" height="72" patternUnits="userSpaceOnUse" viewBox="0 0 72 72"><rect class="cls-1" width="72" height="72"/><line class="cls-2" x1="29.44" y1="73.63" x2="29.44" y2="70.13"/><line class="cls-2" x1="71" y1="9.63" x2="93.69" y2="9.63"/><line class="cls-2" x1="78.19" y1="13.88" x2="71" y2="13.88"/><line class="cls-2" x1="71" y1="25.38" x2="94.94" y2="25.38"/><line class="cls-2" x1="71" y1="34.63" x2="101.69" y2="34.63"/><line class="cls-2" x1="71" y1="50.38" x2="102.94" y2="50.38"/><line class="cls-2" x1="71" y1="59.13" x2="73.69" y2="59.13"/><line class="cls-2" x1="71" y1="53.38" x2="107.69" y2="53.38"/><line class="cls-2" x1="81.19" y1="41.88" x2="71" y2="41.88"/><line class="cls-2" x1="71" y1="66.38" x2="81.19" y2="66.38"/><line class="cls-2" x1="71" y1="63.38" x2="95.19" y2="63.38"/><line class="cls-2" x1="-1" y1="9.63" x2="21.69" y2="9.63"/><line class="cls-2" x1="11.94" y1="3.88" x2="55.69" y2="3.88"/><line class="cls-2" x1="16.19" y1="9.63" x2="16.19" y2="3.88"/><line class="cls-2" x1="34.44" y1="5.63" x2="65.94" y2="5.63"/><line class="cls-2" x1="20.44" y1="7.38" x2="59.94" y2="7.38"/><line class="cls-2" x1="48.94" y1="16.88" x2="69.19" y2="16.88"/><line class="cls-2" x1="62.19" y1="16.88" x2="62.19" y2="13.38"/><line class="cls-2" x1="70.69" y1="13.88" x2="64.44" y2="13.88"/><line class="cls-2" x1="6.19" y1="13.88" x2="-1" y2="13.88"/><line class="cls-2" x1="4.94" y1="16.88" x2="29.19" y2="16.88"/><line class="cls-2" x1="38.19" y1="9.63" x2="71.19" y2="9.63"/><line class="cls-2" x1="18.94" y1="13.88" x2="43.19" y2="13.88"/><line class="cls-2" x1="51.44" y1="22.13" x2="73" y2="22.13"/><line class="cls-2" x1="51.19" y1="23.38" x2="73" y2="23.38"/><line class="cls-2" x1="7.19" y1="22.13" x2="25.94" y2="22.13"/><line class="cls-2" x1="6.94" y1="23.38" x2="19.44" y2="23.38"/><line class="cls-2" x1="21.69" y1="19.13" x2="45.94" y2="19.13"/><line class="cls-2" x1="33.44" y1="25.38" x2="53.69" y2="25.38"/><line class="cls-2" x1="46.69" y1="25.38" x2="46.69" y2="21.88"/><line class="cls-2" x1="-1" y1="25.38" x2="22.94" y2="25.38"/><line class="cls-2" x1="3.94" y1="25.38" x2="3.94" y2="21.88"/><line class="cls-2" x1="57.94" y1="25.38" x2="70.44" y2="25.38"/><line class="cls-2" x1="29.69" y1="22.13" x2="33.44" y2="22.13"/><line class="cls-2" x1="-1" y1="34.63" x2="29.69" y2="34.63"/><line class="cls-2" x1="19.94" y1="28.88" x2="63.69" y2="28.88"/><line class="cls-2" x1="24.19" y1="34.63" x2="24.19" y2="28.88"/><line class="cls-2" x1="42.44" y1="30.63" x2="73" y2="30.63"/><line class="cls-2" x1="28.44" y1="32.38" x2="67.94" y2="32.38"/><line class="cls-2" x1="56.94" y1="41.88" x2="73" y2="41.88"/><line class="cls-2" x1="70.19" y1="41.88" x2="70.19" y2="38.38"/><line class="cls-2" x1="55.94" y1="38.88" x2="53.94" y2="38.88"/><line class="cls-2" x1="14.19" y1="38.88" x2="7.94" y2="38.88"/><line class="cls-2" x1="12.94" y1="41.88" x2="37.19" y2="41.88"/><line class="cls-2" x1="46.69" y1="34.63" x2="73" y2="34.63"/><line class="cls-2" x1="26.94" y1="38.88" x2="51.19" y2="38.88"/><line class="cls-2" x1="59.44" y1="47.13" x2="73" y2="47.13"/><line class="cls-2" x1="59.19" y1="48.38" x2="73" y2="48.38"/><line class="cls-2" x1="15.19" y1="47.13" x2="33.94" y2="47.13"/><line class="cls-2" x1="14.94" y1="48.38" x2="27.44" y2="48.38"/><line class="cls-2" x1="29.69" y1="44.13" x2="53.94" y2="44.13"/><line class="cls-2" x1="41.44" y1="50.38" x2="61.69" y2="50.38"/><line class="cls-2" x1="54.69" y1="50.38" x2="54.69" y2="46.88"/><line class="cls-2" x1="-1" y1="50.38" x2="30.94" y2="50.38"/><line class="cls-2" x1="11.94" y1="50.38" x2="11.94" y2="46.88"/><line class="cls-2" x1="65.94" y1="50.38" x2="73" y2="50.38"/><line class="cls-2" x1="37.69" y1="47.13" x2="41.44" y2="47.13"/><line class="cls-2" x1="-1" y1="59.13" x2="1.69" y2="59.13"/><line class="cls-2" x1="-1" y1="53.38" x2="35.69" y2="53.38"/><line class="cls-2" x1="14.44" y1="55.13" x2="45.94" y2="55.13"/><line class="cls-2" x1="1.75" y1="56.88" x2="39.94" y2="56.88"/><line class="cls-2" x1="28.94" y1="66.38" x2="49.19" y2="66.38"/><line class="cls-2" x1="42.19" y1="66.38" x2="42.19" y2="62.88"/><line class="cls-2" x1="51.69" y1="63.38" x2="45.44" y2="63.38"/><line class="cls-2" x1="9.19" y1="41.88" x2="-1" y2="41.88"/><line class="cls-2" x1="-1" y1="66.38" x2="9.19" y2="66.38"/><line class="cls-2" x1="18.69" y1="59.13" x2="51.69" y2="59.13"/><line class="cls-2" x1="-1" y1="63.38" x2="23.19" y2="63.38"/><line class="cls-2" x1="58.94" y1="59.13" x2="73" y2="59.13"/><line class="cls-2" x1="37.44" y1="68.63" x2="61.44" y2="68.63"/><line class="cls-2" x1="62.44" y1="63.38" x2="73" y2="63.38"/><line class="cls-2" x1="1.69" y1="68.63" x2="25.94" y2="68.63"/><line class="cls-2" x1="29.44" y1="73.63" x2="29.44" y2="70.13"/><line class="cls-2" x1="62.44" y1="54.88" x2="73" y2="54.88"/><line class="cls-2" x1="65.19" y1="68.63" x2="68.94" y2="68.63"/><line class="cls-2" x1="16.19" y1="1.63" x2="36.44" y2="1.63"/><line class="cls-2" x1="29.44" y1="1.63" x2="29.44" y2="-1.88"/><line class="cls-2" x1="2.69" y1="4.13" x2="6.44" y2="4.13"/><line class="cls-2" x1="-20.56" y1="22.13" x2="1" y2="22.13"/><line class="cls-2" x1="-20.81" y1="23.38" x2="1" y2="23.38"/><line class="cls-2" x1="-29.56" y1="30.63" x2="1" y2="30.63"/><line class="cls-2" x1="-15.06" y1="41.88" x2="1" y2="41.88"/><line class="cls-2" x1="-25.31" y1="34.63" x2="1" y2="34.63"/><line class="cls-2" x1="-12.56" y1="47.13" x2="1" y2="47.13"/><line class="cls-2" x1="-12.81" y1="48.38" x2="1" y2="48.38"/><line class="cls-2" x1="-6.06" y1="50.38" x2="1" y2="50.38"/><line class="cls-2" x1="-13.06" y1="59.13" x2="1" y2="59.13"/><line class="cls-2" x1="-9.56" y1="63.38" x2="1" y2="63.38"/><line class="cls-2" x1="-9.56" y1="54.88" x2="1" y2="54.88"/><line class="cls-2" x1="29.44" y1="1.63" x2="29.44" y2="-1.88"/></pattern></defs><path class="cls-1" d="M285.52,120.61a164.82,164.82,0,0,0,1.3-20.06c-.43,0-.87,0-1.3.06a165.58,165.58,0,0,1-3.84,20.21Z"/><path class="cls-1" d="M281.68,160.82c-6.37,25-18.48,48.47-35.3,69.7a100.17,100.17,0,0,0-2.94-16.36,195,195,0,0,0,31.63-52.89C277.26,161.1,279.47,161,281.68,160.82Z"/><path class="cls-1" d="M285.52,140.61a164.82,164.82,0,0,0,1.3-20.06c-.43,0-.87,0-1.3.06a165.58,165.58,0,0,1-3.84,20.21C283,140.75,284.24,140.67,285.52,140.61Z"/><path class="cls-1" d="M275.07,161.27c2.19-.17,4.4-.31,6.61-.45a165.58,165.58,0,0,0,3.84-20.21c-1.28.06-2.56.14-3.84.21A172.16,172.16,0,0,1,275.07,161.27Z"/><path class="cls-1" d="M275.07,141.27c2.19-.17,4.4-.31,6.61-.45a165.58,165.58,0,0,0,3.84-20.21l-3.84.21A172.16,172.16,0,0,1,275.07,141.27Z"/><path class="cls-1" d="M285.52,100.61a165.58,165.58,0,0,1-3.84,20.21,385,385,0,0,0-109.37,22.51,100.55,100.55,0,0,0-40.17-2.2C175.92,118.11,228.51,103.54,285.52,100.61Z"/><path class="cls-1" d="M47.39,229.45c.2-1.94.47-3.87.78-5.78-1.9-2.71-3.7-5.46-5.37-8.24q-3.13,4.26-6,8.63a124.17,124.17,0,0,0,6,11.37Q45,232.41,47.39,229.45Z"/><path class="cls-1" d="M50.46,266.83c-.15-.21-.31-.41-.46-.61.07-.1.15-.19.22-.28Z"/><path class="cls-1" d="M55,200.35a99.29,99.29,0,0,0-6.86,23.32c-1.9-2.71-3.7-5.46-5.37-8.24Q48.52,207.69,55,200.35Z"/><path class="cls-1" d="M47.29,249.58c-.25-2.58-.39-5.18-.44-7.82-1.42-2.08-2.77-4.2-4.05-6.33q-3.13,4.26-6,8.63a124.17,124.17,0,0,0,6,11.37C44.26,253.46,45.75,251.51,47.29,249.58Z"/><path class="cls-1" d="M75.64,310.27a397.33,397.33,0,0,1-57,8.56,181.75,181.75,0,0,1,9.81-20.89c11.43-1.16,22.67-2.77,33.65-4.85A100.42,100.42,0,0,0,75.64,310.27Z"/><path class="cls-1" d="M94.71,325.41A392.62,392.62,0,0,1,12,339.28a172.16,172.16,0,0,1,6.61-20.45,397.33,397.33,0,0,0,57.05-8.56A100.89,100.89,0,0,0,94.71,325.41Z"/><path class="cls-1" d="M18.59,298.83A172.6,172.6,0,0,0,12,319.27c2.21-.13,4.42-.28,6.61-.44a181.75,181.75,0,0,1,9.81-20.89Q23.53,298.43,18.59,298.83Z"/><path class="cls-1" d="M50.22,265.94c-.07.09-.15.18-.22.28q-3.91-5.3-7.2-10.79c1.45-2,3-3.91,4.48-5.85A100.17,100.17,0,0,0,50.22,265.94Z"/><path class="cls-1" d="M36.77,244.06a111.4,111.4,0,0,1-4.83-12.29,174.12,174.12,0,0,0-23.8,67.72c1.28-.06,2.56-.14,3.84-.22A181.63,181.63,0,0,1,36.77,244.06Z"/><path class="cls-1" d="M50,266.22q-3.91-5.3-7.2-10.79a191.43,191.43,0,0,0-24.21,43.4q4.93-.39,9.81-.89A204,204,0,0,1,50,266.22Z"/><path class="cls-1" d="M62.05,293.09c-11,2.08-22.22,3.69-33.65,4.85A204.49,204.49,0,0,1,50,266.22c.15.2.31.4.46.61A99.51,99.51,0,0,0,62.05,293.09Z"/><path class="cls-1" d="M46.83,240.05c0,.57,0,1.14,0,1.72-1.42-2.09-2.77-4.21-4.05-6.34q2.23-3,4.59-6A100.1,100.1,0,0,0,46.83,240.05Z"/><path class="cls-1" d="M36.77,244.06A181.63,181.63,0,0,0,12,299.27c2.21-.13,4.42-.28,6.61-.44a191.43,191.43,0,0,1,24.21-43.4A124.17,124.17,0,0,1,36.77,244.06Z"/><path class="cls-1" d="M42.8,235.43a124.17,124.17,0,0,1-6-11.37c-1.68,2.54-3.28,5.12-4.83,7.71a111.4,111.4,0,0,0,4.83,12.29Q39.67,239.7,42.8,235.43Z"/><path class="cls-1" d="M219.51,354.63a363.43,363.43,0,0,1-60.77-15.29,99.41,99.41,0,0,0,33.53-10.19q11.07,2.66,22.61,4.7Q217.46,344.08,219.51,354.63Z"/><path class="cls-1" d="M8.14,299.49a164.82,164.82,0,0,0-1.3,20.06l1.3-.06A166.1,166.1,0,0,1,12,299.27C10.7,299.35,9.42,299.43,8.14,299.49Z"/><path class="cls-1" d="M276.35,339.91a411.69,411.69,0,0,1-61.47-6.06q-2.12-8.37-4.58-16.52c1.4-1.15,2.76-2.34,4.1-3.57a409.17,409.17,0,0,0,56.63,6Q273.94,329.67,276.35,339.91Z"/><path class="cls-1" d="M271,319.75a409.17,409.17,0,0,1-56.63-6,99.77,99.77,0,0,0,31.08-57.29A343.83,343.83,0,0,1,271,319.75Z"/><path class="cls-1" d="M275.07,141.27a181.75,181.75,0,0,1-9.81,20.89A394.76,394.76,0,0,0,218,169.83,100.89,100.89,0,0,0,199,154.69,391.4,391.4,0,0,1,275.07,141.27Z"/><path class="cls-1" d="M281.68,120.82a172.16,172.16,0,0,1-6.61,20.45A391.4,391.4,0,0,0,199,154.69a99.76,99.76,0,0,0-26.64-11.36A385,385,0,0,1,281.68,120.82Z"/><path class="cls-1" d="M275.07,161.27a172.16,172.16,0,0,0,6.61-20.45c-2.21.14-4.42.28-6.61.45a181.75,181.75,0,0,1-9.81,20.89Q270.14,161.67,275.07,161.27Z"/><path class="cls-1" d="M281.68,160.82c1.28-.07,2.56-.15,3.84-.21a164.82,164.82,0,0,0,1.3-20.06c-.43,0-.87,0-1.3.06A165.58,165.58,0,0,1,281.68,160.82Z"/><path class="cls-1" d="M246.27,250.64a100.1,100.1,0,0,0,.56-10.59c0-3.22-.16-6.4-.45-9.53,16.82-21.23,28.93-44.72,35.3-69.7,1.28-.07,2.56-.15,3.84-.21C281.41,193.21,267.62,223.74,246.27,250.64Z"/><path class="cls-1" d="M214.88,333.85q-11.53-2-22.61-4.7a100.07,100.07,0,0,0,18-11.82Q212.76,325.48,214.88,333.85Z"/><path class="cls-1" d="M275.07,161.27a195,195,0,0,1-31.63,52.89,99.54,99.54,0,0,0-5-14.21,207.77,207.77,0,0,0,26.8-37.79Q270.14,161.67,275.07,161.27Z"/><path class="cls-1" d="M219.51,354.63a414,414,0,0,0,61,5.37q-1.83-10.19-4.16-20.09a411.69,411.69,0,0,1-61.47-6.06Q217.46,344.08,219.51,354.63Z"/><path class="cls-1" d="M8.14,319.49a164.82,164.82,0,0,0-1.3,20.06l1.3-.06A166.1,166.1,0,0,1,12,319.27C10.7,319.35,9.42,319.43,8.14,319.49Z"/><path class="cls-1" d="M18.59,318.83c-2.19.16-4.4.31-6.61.44a166.1,166.1,0,0,0-3.84,20.22c1.28-.06,2.56-.14,3.84-.22A172.6,172.6,0,0,1,18.59,318.83Z"/><path class="cls-1" d="M18.59,298.83c-2.19.16-4.4.31-6.61.44a166.1,166.1,0,0,0-3.84,20.22c1.28-.06,2.56-.14,3.84-.22A172.6,172.6,0,0,1,18.59,298.83Z"/><path class="cls-1" d="M265.26,162.16A394.76,394.76,0,0,0,218,169.83,100.33,100.33,0,0,1,238.46,200,207.77,207.77,0,0,0,265.26,162.16Z"/><path class="cls-1" d="M121.35,336.77A385.75,385.75,0,0,1,8.14,359.49,165.58,165.58,0,0,1,12,339.28a392.62,392.62,0,0,0,82.73-13.87A99.76,99.76,0,0,0,121.35,336.77Z"/><path class="cls-1" d="M8.14,339.49a164.82,164.82,0,0,0-1.3,20.06l1.3-.06A166.1,166.1,0,0,1,12,339.27C10.7,339.35,9.42,339.43,8.14,339.49Z"/><path class="cls-3" d="M246.38,230.52q-4.45,5.59-9.32,11a254.64,254.64,0,0,1-41.24,36.42A298.15,298.15,0,0,1,160,299.77c-6.16-2.12-12.18-4.38-18-6.79q-2.69-1.11-5.31-2.26l3.8-1.64a313.64,313.64,0,0,0,48.27-26.25,263.81,263.81,0,0,0,40.71-33.31c4.93-5,9.61-10.09,14-15.36A100.17,100.17,0,0,1,246.38,230.52Z"/><path class="cls-3" d="M156.28,339.6c-3.11.29-6.26.45-9.45.45a100.08,100.08,0,0,1-96.37-73.22A163.9,163.9,0,0,0,72.73,290.9a204.85,204.85,0,0,0,19.4,15.23,241.77,241.77,0,0,0,21.6,13.34q10.93,6,23,11.25Q146,334.8,156,338.37C156.09,338.78,156.18,339.19,156.28,339.6Z"/><path class="cls-3" d="M50,246.22c-.92,1.11-1.81,2.23-2.71,3.35h0c-.06-.64-.11-1.29-.16-1.93-.1-1.3-.17-2.6-.22-3.91,0-.66,0-1.31,0-2C47.87,243.26,48.91,244.74,50,246.22Z"/><path class="cls-3" d="M243.44,214.16c-4.37,5.27-9.05,10.39-14,15.36a263.81,263.81,0,0,1-40.71,33.31,313.64,313.64,0,0,1-48.27,26.25l-3.8,1.64q-12-5.22-23-11.25,9.94-3.41,19.49-7.32a319.69,319.69,0,0,0,47.58-24.22A273.55,273.55,0,0,0,221,217.61,239.59,239.59,0,0,0,238.46,200,99.54,99.54,0,0,1,243.44,214.16Z"/><path class="cls-3" d="M50,226.22c-.89,1.07-1.75,2.15-2.61,3.24.2-2,.47-3.88.78-5.79Q49.07,224.95,50,226.22Z"/><path class="cls-3" d="M221,217.61a273.55,273.55,0,0,1-40.23,30.32,277.72,277.72,0,0,0-38-52.17,344.58,344.58,0,0,1,42.52-16.95A250,250,0,0,1,221,217.61Z"/><path class="cls-3" d="M218,169.83q-16.77,3.81-32.66,9a344.58,344.58,0,0,0-42.52,16.95,308,308,0,0,0-40.67,23.38,264.4,264.4,0,0,0-34,27.55Q63,241.76,58.41,236.6a251.56,251.56,0,0,1,33.73-30.26,294,294,0,0,1,37.37-23.81A332.75,332.75,0,0,1,167.81,165q15.09-5.79,31.14-10.33A100.89,100.89,0,0,1,218,169.83Z"/><path class="cls-3" d="M192.27,329.15a99.41,99.41,0,0,1-33.53,10.19l-2.75-1q-9.94-3.57-19.31-7.65-12-5.22-23-11.25a241.77,241.77,0,0,1-21.6-13.34,204.85,204.85,0,0,1-19.4-15.23,163.9,163.9,0,0,1-22.27-24.07l-.24-.89a100.05,100.05,0,0,1-2.94-16.35h0c.9-1.12,1.79-2.24,2.71-3.35q3.9,5.29,8.41,10.38a189.08,189.08,0,0,0,33.72,29.53,241.77,241.77,0,0,0,21.6,13.34q10.93,6,23,11.25,6.48,2.83,13.26,5.41,5,1.89,10.06,3.64C170.34,323.33,181.11,326.48,192.27,329.15Z"/><path class="cls-3" d="M180.8,247.93a319.69,319.69,0,0,1-47.58,24.22,303.73,303.73,0,0,0-31-53,308,308,0,0,1,40.67-23.38A277.72,277.72,0,0,1,180.8,247.93Z"/><path class="cls-3" d="M133.22,272.15q-9.54,3.92-19.49,7.32a217.35,217.35,0,0,1-45.57-32.78,264.4,264.4,0,0,1,34-27.55A303.73,303.73,0,0,1,133.22,272.15Z"/><path class="cls-3" d="M238.46,200A239.59,239.59,0,0,1,221,217.61a250,250,0,0,0-35.67-38.8q15.87-5.15,32.66-9A100.33,100.33,0,0,1,238.46,200Z"/><path class="cls-3" d="M172.31,143.33q-12.17,4.48-23.69,9.73a318.06,318.06,0,0,0-33.25,17.55,280,280,0,0,0-33.66,24A240.1,240.1,0,0,0,50,226.22q-.93-1.28-1.83-2.55A99.29,99.29,0,0,1,55,200.35q7.5-8.47,16-16.4a266.63,266.63,0,0,1,29.6-23.76,299,299,0,0,1,27.3-16.81q2.1-1.14,4.21-2.25a100.55,100.55,0,0,1,40.17,2.2Z"/><path class="cls-3" d="M127.93,143.38a299,299,0,0,0-27.3,16.81A266.63,266.63,0,0,0,71,184q-8.51,7.91-16,16.4a99.82,99.82,0,0,1,11.76-20.26A100.91,100.91,0,0,1,93.2,155.63a99.52,99.52,0,0,1,32.11-13.25C126.19,142.71,127.06,143,127.93,143.38Z"/><path class="cls-3" d="M132.14,141.13q-2.12,1.11-4.21,2.25c-.87-.35-1.74-.67-2.62-1Q128.69,141.64,132.14,141.13Z"/><path class="cls-3" d="M246.83,240.05a100.1,100.1,0,0,1-.56,10.59c-.77,1-1.55,2-2.34,2.92a245.71,245.71,0,0,1-41.81,39.76q-9.28,7-19.37,13.41-11.7-3.15-22.75-7a298.15,298.15,0,0,0,35.82-21.84,254.64,254.64,0,0,0,41.24-36.42q4.86-5.38,9.32-11C246.67,233.65,246.83,236.83,246.83,240.05Z"/><path class="cls-3" d="M158.74,339.34c-.82.1-1.64.19-2.46.26-.1-.41-.19-.82-.29-1.23Z"/><path class="cls-3" d="M199,154.69q-16,4.53-31.14,10.33a332.75,332.75,0,0,0-38.3,17.51,294,294,0,0,0-37.37,23.81A251.56,251.56,0,0,0,58.41,236.6q-4.5-5.08-8.41-10.38a240.1,240.1,0,0,1,31.71-31.65,280,280,0,0,1,33.66-24,318.06,318.06,0,0,1,33.25-17.55q11.52-5.25,23.69-9.73A99.76,99.76,0,0,1,199,154.69Z"/><path class="cls-3" d="M214.4,313.76c-1.34,1.23-2.7,2.42-4.1,3.57a100.07,100.07,0,0,1-18,11.82c-11.16-2.67-21.93-5.82-32.27-9.38q-5.1-1.75-10.06-3.64-6.76-2.58-13.26-5.41-12-5.22-23-11.25a241.77,241.77,0,0,1-21.6-13.34A189.08,189.08,0,0,1,58.41,256.6q-4.5-5.09-8.41-10.38c-1.09-1.48-2.13-3-3.15-4.45,0-.58,0-1.15,0-1.72a100.1,100.1,0,0,1,.56-10.59c.86-1.09,1.72-2.17,2.61-3.24q3.9,5.29,8.41,10.38t9.75,10.09a217.35,217.35,0,0,0,45.57,32.78q10.93,6,23,11.25,2.63,1.15,5.31,2.26c5.83,2.41,11.85,4.67,18,6.79q11,3.81,22.75,7,12.72,3.42,26.14,6Q211.62,313.28,214.4,313.76Z"/><path class="cls-3" d="M246.27,250.64c-.2,2-.47,3.9-.79,5.83a99.77,99.77,0,0,1-31.08,57.29q-2.78-.48-5.51-1-13.41-2.6-26.14-6,10.08-6.39,19.37-13.41a245.71,245.71,0,0,0,41.81-39.76C244.72,252.59,245.5,251.62,246.27,250.64Z"/><rect class="cls-4" x="320" y="139.77" width="1240" height="200"/><path class="cls-3" d="M214.4,313.76c51.12,9.89,56.71-68.14,105.15-73.89"/><path class="cls-1" d="M285.52,380.61a164.82,164.82,0,0,0,1.3-20.06c-.43,0-.87,0-1.3.06a165.58,165.58,0,0,1-3.84,20.21Z"/><path class="cls-1" d="M281.68,420.82c-6.37,25-18.48,48.47-35.3,69.7a100.17,100.17,0,0,0-2.94-16.36,195,195,0,0,0,31.63-52.89C277.26,421.1,279.47,421,281.68,420.82Z"/><path class="cls-1" d="M285.52,400.61a164.82,164.82,0,0,0,1.3-20.06c-.43,0-.87,0-1.3.06a165.58,165.58,0,0,1-3.84,20.21Z"/><path class="cls-1" d="M275.07,421.27c2.19-.17,4.4-.31,6.61-.45a165.58,165.58,0,0,0,3.84-20.21l-3.84.21A172.16,172.16,0,0,1,275.07,421.27Z"/><path class="cls-1" d="M275.07,401.27c2.19-.17,4.4-.31,6.61-.45a165.58,165.58,0,0,0,3.84-20.21l-3.84.21A172.16,172.16,0,0,1,275.07,401.27Z"/><path class="cls-1" d="M285.52,360.61a165.58,165.58,0,0,1-3.84,20.21,385,385,0,0,0-109.37,22.51,100.55,100.55,0,0,0-40.17-2.2C175.92,378.11,228.51,363.54,285.52,360.61Z"/><path class="cls-1" d="M47.39,489.45c.2-1.94.47-3.87.78-5.78-1.9-2.71-3.7-5.46-5.37-8.24q-3.13,4.26-6,8.63a124.17,124.17,0,0,0,6,11.37Q45,492.42,47.39,489.45Z"/><path class="cls-1" d="M50.46,526.83c-.15-.21-.31-.41-.46-.61.07-.1.15-.19.22-.28Z"/><path class="cls-1" d="M55,460.35a99.29,99.29,0,0,0-6.86,23.32c-1.9-2.71-3.7-5.46-5.37-8.24Q48.52,467.69,55,460.35Z"/><path class="cls-1" d="M47.29,509.58c-.25-2.58-.39-5.18-.44-7.82-1.42-2.08-2.77-4.2-4.05-6.33q-3.13,4.26-6,8.63a124.17,124.17,0,0,0,6,11.37C44.26,513.46,45.75,511.51,47.29,509.58Z"/><path class="cls-1" d="M75.64,570.27a397.33,397.33,0,0,1-57,8.56,181.75,181.75,0,0,1,9.81-20.89c11.43-1.16,22.67-2.77,33.65-4.85A100.42,100.42,0,0,0,75.64,570.27Z"/><path class="cls-1" d="M94.71,585.41A392.62,392.62,0,0,1,12,599.28a172.16,172.16,0,0,1,6.61-20.45,397.33,397.33,0,0,0,57.05-8.56A100.89,100.89,0,0,0,94.71,585.41Z"/><path class="cls-1" d="M18.59,558.83A172.6,172.6,0,0,0,12,579.27c2.21-.13,4.42-.28,6.61-.44a181.75,181.75,0,0,1,9.81-20.89Q23.53,558.43,18.59,558.83Z"/><path class="cls-1" d="M50.22,525.94c-.07.09-.15.18-.22.28q-3.91-5.29-7.2-10.79c1.45-2,3-3.91,4.48-5.85A100.17,100.17,0,0,0,50.22,525.94Z"/><path class="cls-1" d="M36.77,504.06a111.4,111.4,0,0,1-4.83-12.29,174.12,174.12,0,0,0-23.8,67.72c1.28-.06,2.56-.14,3.84-.22A181.63,181.63,0,0,1,36.77,504.06Z"/><path class="cls-1" d="M50,526.22q-3.91-5.29-7.2-10.79a191.43,191.43,0,0,0-24.21,43.4q4.93-.39,9.81-.89A204,204,0,0,1,50,526.22Z"/><path class="cls-1" d="M62.05,553.09c-11,2.08-22.22,3.69-33.65,4.85A204.49,204.49,0,0,1,50,526.22c.15.2.31.4.46.61A99.51,99.51,0,0,0,62.05,553.09Z"/><path class="cls-1" d="M46.83,500.05c0,.57,0,1.14,0,1.72-1.42-2.09-2.77-4.21-4.05-6.34q2.23-3,4.59-6A100.1,100.1,0,0,0,46.83,500.05Z"/><path class="cls-1" d="M36.77,504.06A181.63,181.63,0,0,0,12,559.27c2.21-.13,4.42-.28,6.61-.44a191.43,191.43,0,0,1,24.21-43.4A124.17,124.17,0,0,1,36.77,504.06Z"/><path class="cls-1" d="M42.8,495.43a124.17,124.17,0,0,1-6-11.37c-1.68,2.54-3.28,5.12-4.83,7.71a111.4,111.4,0,0,0,4.83,12.29Q39.67,499.69,42.8,495.43Z"/><path class="cls-1" d="M219.51,614.63a363.43,363.43,0,0,1-60.77-15.29,99.41,99.41,0,0,0,33.53-10.19q11.07,2.65,22.61,4.7Q217.46,604.08,219.51,614.63Z"/><path class="cls-1" d="M8.14,559.49a164.82,164.82,0,0,0-1.3,20.06l1.3-.06A166.1,166.1,0,0,1,12,559.27C10.7,559.35,9.42,559.43,8.14,559.49Z"/><path class="cls-1" d="M276.35,599.91a411.69,411.69,0,0,1-61.47-6.06q-2.12-8.37-4.58-16.52c1.4-1.15,2.76-2.34,4.1-3.57a409.17,409.17,0,0,0,56.63,6Q273.94,589.67,276.35,599.91Z"/><path class="cls-1" d="M271,579.75a409.17,409.17,0,0,1-56.63-6,99.77,99.77,0,0,0,31.08-57.29A343.83,343.83,0,0,1,271,579.75Z"/><path class="cls-1" d="M275.07,401.27a181.75,181.75,0,0,1-9.81,20.89A394.76,394.76,0,0,0,218,429.83,100.89,100.89,0,0,0,199,414.69,391.4,391.4,0,0,1,275.07,401.27Z"/><path class="cls-1" d="M281.68,380.82a172.16,172.16,0,0,1-6.61,20.45A391.4,391.4,0,0,0,199,414.69a99.76,99.76,0,0,0-26.64-11.36A385,385,0,0,1,281.68,380.82Z"/><path class="cls-1" d="M275.07,421.27a172.16,172.16,0,0,0,6.61-20.45c-2.21.14-4.42.28-6.61.45a181.75,181.75,0,0,1-9.81,20.89Q270.14,421.67,275.07,421.27Z"/><path class="cls-1" d="M281.68,420.82l3.84-.21a164.82,164.82,0,0,0,1.3-20.06c-.43,0-.87,0-1.3.06A165.58,165.58,0,0,1,281.68,420.82Z"/><path class="cls-1" d="M246.27,510.64a100.1,100.1,0,0,0,.56-10.59c0-3.22-.16-6.4-.45-9.53,16.82-21.23,28.93-44.72,35.3-69.7l3.84-.21C281.41,453.21,267.62,483.74,246.27,510.64Z"/><path class="cls-1" d="M214.88,593.85q-11.53-2-22.61-4.7a100.07,100.07,0,0,0,18-11.82Q212.76,585.47,214.88,593.85Z"/><path class="cls-1" d="M275.07,421.27a195,195,0,0,1-31.63,52.89,99.54,99.54,0,0,0-5-14.21,207.77,207.77,0,0,0,26.8-37.79Q270.14,421.67,275.07,421.27Z"/><path class="cls-1" d="M219.51,614.63a414,414,0,0,0,61,5.37q-1.83-10.18-4.16-20.09a411.69,411.69,0,0,1-61.47-6.06Q217.46,604.08,219.51,614.63Z"/><path class="cls-1" d="M8.14,579.49a164.82,164.82,0,0,0-1.3,20.06l1.3-.06A166.1,166.1,0,0,1,12,579.27C10.7,579.35,9.42,579.43,8.14,579.49Z"/><path class="cls-1" d="M18.59,578.83c-2.19.16-4.4.31-6.61.44a166.1,166.1,0,0,0-3.84,20.22c1.28-.06,2.56-.14,3.84-.22A172.6,172.6,0,0,1,18.59,578.83Z"/><path class="cls-1" d="M18.59,558.83c-2.19.16-4.4.31-6.61.44a166.1,166.1,0,0,0-3.84,20.22c1.28-.06,2.56-.14,3.84-.22A172.6,172.6,0,0,1,18.59,558.83Z"/><path class="cls-1" d="M265.26,422.16A394.76,394.76,0,0,0,218,429.83,100.33,100.33,0,0,1,238.46,460,207.77,207.77,0,0,0,265.26,422.16Z"/><path class="cls-1" d="M121.35,596.77A385.75,385.75,0,0,1,8.14,619.49,165.58,165.58,0,0,1,12,599.28a392.62,392.62,0,0,0,82.73-13.87A99.76,99.76,0,0,0,121.35,596.77Z"/><path class="cls-1" d="M8.14,599.49a164.82,164.82,0,0,0-1.3,20.06l1.3-.06A166.1,166.1,0,0,1,12,599.27C10.7,599.35,9.42,599.43,8.14,599.49Z"/><path class="cls-3" d="M246.38,490.52q-4.45,5.6-9.32,11a254.64,254.64,0,0,1-41.24,36.42A298.15,298.15,0,0,1,160,559.77c-6.16-2.12-12.18-4.38-18-6.79q-2.69-1.11-5.31-2.26l3.8-1.64a313.64,313.64,0,0,0,48.27-26.25,263.81,263.81,0,0,0,40.71-33.31c4.93-5,9.61-10.09,14-15.36A100.17,100.17,0,0,1,246.38,490.52Z"/><path class="cls-3" d="M156.28,599.6c-3.11.29-6.26.45-9.45.45a100.08,100.08,0,0,1-96.37-73.22A163.9,163.9,0,0,0,72.73,550.9a204.85,204.85,0,0,0,19.4,15.23,241.77,241.77,0,0,0,21.6,13.34q10.93,6,23,11.25Q146,594.8,156,598.37C156.09,598.78,156.18,599.19,156.28,599.6Z"/><path class="cls-3" d="M50,506.22c-.92,1.11-1.81,2.23-2.71,3.35h0c-.06-.64-.11-1.29-.16-1.93-.1-1.3-.17-2.6-.22-3.91,0-.66,0-1.31,0-2C47.87,503.26,48.91,504.74,50,506.22Z"/><path class="cls-3" d="M243.44,474.16c-4.37,5.27-9.05,10.39-14,15.36a263.81,263.81,0,0,1-40.71,33.31,313.64,313.64,0,0,1-48.27,26.25l-3.8,1.64q-12-5.22-23-11.25,9.94-3.4,19.49-7.32a319.69,319.69,0,0,0,47.58-24.22A273.55,273.55,0,0,0,221,477.61,239.59,239.59,0,0,0,238.46,460,99.54,99.54,0,0,1,243.44,474.16Z"/><path class="cls-3" d="M50,486.22c-.89,1.07-1.75,2.15-2.61,3.24.2-1.95.47-3.88.78-5.79Q49.07,484.94,50,486.22Z"/><path class="cls-3" d="M221,477.61a273.55,273.55,0,0,1-40.23,30.32,277.72,277.72,0,0,0-38-52.17,344.58,344.58,0,0,1,42.52-16.95A250,250,0,0,1,221,477.61Z"/><path class="cls-3" d="M218,429.83q-16.77,3.81-32.66,9a344.58,344.58,0,0,0-42.52,16.95,308,308,0,0,0-40.67,23.38,264.4,264.4,0,0,0-34,27.55Q63,501.76,58.41,496.6a251.56,251.56,0,0,1,33.73-30.26,294,294,0,0,1,37.37-23.81A332.75,332.75,0,0,1,167.81,425q15.09-5.79,31.14-10.33A100.89,100.89,0,0,1,218,429.83Z"/><path class="cls-3" d="M192.27,589.15a99.41,99.41,0,0,1-33.53,10.19l-2.75-1q-9.94-3.57-19.31-7.65-12-5.22-23-11.25a241.77,241.77,0,0,1-21.6-13.34,204.85,204.85,0,0,1-19.4-15.23,163.9,163.9,0,0,1-22.27-24.07l-.24-.89a100.05,100.05,0,0,1-2.94-16.35h0c.9-1.12,1.79-2.24,2.71-3.35q3.9,5.29,8.41,10.38a189.08,189.08,0,0,0,33.72,29.53,241.77,241.77,0,0,0,21.6,13.34q10.93,6,23,11.25,6.48,2.84,13.26,5.41,5,1.89,10.06,3.64C170.34,583.33,181.11,586.48,192.27,589.15Z"/><path class="cls-3" d="M180.8,507.93a319.69,319.69,0,0,1-47.58,24.22,303.73,303.73,0,0,0-31-53,308,308,0,0,1,40.67-23.38A277.72,277.72,0,0,1,180.8,507.93Z"/><path class="cls-3" d="M133.22,532.15q-9.54,3.92-19.49,7.32a217.35,217.35,0,0,1-45.57-32.78,264.4,264.4,0,0,1,34-27.55A303.73,303.73,0,0,1,133.22,532.15Z"/><path class="cls-3" d="M238.46,460A239.59,239.59,0,0,1,221,477.61a250,250,0,0,0-35.67-38.8q15.87-5.15,32.66-9A100.33,100.33,0,0,1,238.46,460Z"/><path class="cls-3" d="M172.31,403.33q-12.17,4.49-23.69,9.73a318.06,318.06,0,0,0-33.25,17.55,280,280,0,0,0-33.66,24A240.1,240.1,0,0,0,50,486.22q-.93-1.28-1.83-2.55A99.29,99.29,0,0,1,55,460.35q7.5-8.48,16-16.4a266.63,266.63,0,0,1,29.6-23.76,299,299,0,0,1,27.3-16.81q2.1-1.14,4.21-2.25a100.55,100.55,0,0,1,40.17,2.2Z"/><path class="cls-3" d="M127.93,403.38a299,299,0,0,0-27.3,16.81A266.63,266.63,0,0,0,71,444q-8.51,7.91-16,16.4a99.82,99.82,0,0,1,11.76-20.26A100.91,100.91,0,0,1,93.2,415.63a99.52,99.52,0,0,1,32.11-13.25C126.19,402.71,127.06,403,127.93,403.38Z"/><path class="cls-3" d="M132.14,401.13q-2.12,1.11-4.21,2.25c-.87-.35-1.74-.67-2.62-1Q128.69,401.65,132.14,401.13Z"/><path class="cls-3" d="M246.83,500.05a100.1,100.1,0,0,1-.56,10.59c-.77,1-1.55,2-2.34,2.92a245.71,245.71,0,0,1-41.81,39.76q-9.28,7-19.37,13.41-11.7-3.15-22.75-7a298.15,298.15,0,0,0,35.82-21.84,254.64,254.64,0,0,0,41.24-36.42q4.86-5.38,9.32-11C246.67,493.65,246.83,496.83,246.83,500.05Z"/><path class="cls-3" d="M158.74,599.34c-.82.1-1.64.19-2.46.26-.1-.41-.19-.82-.29-1.23Z"/><path class="cls-3" d="M199,414.69q-16,4.53-31.14,10.33a332.75,332.75,0,0,0-38.3,17.51,294,294,0,0,0-37.37,23.81A251.56,251.56,0,0,0,58.41,496.6q-4.5-5.09-8.41-10.38a240.1,240.1,0,0,1,31.71-31.65,280,280,0,0,1,33.66-24,318.06,318.06,0,0,1,33.25-17.55q11.52-5.25,23.69-9.73A99.76,99.76,0,0,1,199,414.69Z"/><path class="cls-3" d="M214.4,573.76c-1.34,1.23-2.7,2.42-4.1,3.57a100.07,100.07,0,0,1-18,11.82c-11.16-2.67-21.93-5.82-32.27-9.38q-5.1-1.75-10.06-3.64-6.76-2.58-13.26-5.41-12-5.22-23-11.25a241.77,241.77,0,0,1-21.6-13.34A189.08,189.08,0,0,1,58.41,516.6q-4.5-5.08-8.41-10.38c-1.09-1.48-2.13-3-3.15-4.45,0-.58,0-1.15,0-1.72a100.1,100.1,0,0,1,.56-10.59c.86-1.09,1.72-2.17,2.61-3.24q3.9,5.29,8.41,10.38t9.75,10.09a217.35,217.35,0,0,0,45.57,32.78q10.93,6,23,11.25,2.63,1.15,5.31,2.26c5.83,2.41,11.85,4.67,18,6.79q11,3.81,22.75,7,12.72,3.42,26.14,6Q211.62,573.28,214.4,573.76Z"/><path class="cls-3" d="M246.27,510.64c-.2,2-.47,3.9-.79,5.83a99.77,99.77,0,0,1-31.08,57.29q-2.78-.48-5.51-1-13.41-2.6-26.14-6,10.08-6.39,19.37-13.41a245.71,245.71,0,0,0,41.81-39.76C244.72,512.59,245.5,511.62,246.27,510.64Z"/><rect class="cls-4" x="320" y="399.77" width="1240" height="200"/><path class="cls-3" d="M214.4,573.76c51.12,9.89,56.71-68.14,105.15-73.89"/><path class="cls-1" d="M285.52,640.06a164.82,164.82,0,0,0,1.3-20.06l-1.3.06a165.74,165.74,0,0,1-3.84,20.22Z"/><path class="cls-1" d="M281.68,680.27c-6.37,25-18.48,48.47-35.3,69.7a100.17,100.17,0,0,0-2.94-16.36,195,195,0,0,0,31.63-52.89C277.26,680.55,279.47,680.41,281.68,680.27Z"/><path class="cls-1" d="M285.52,660.06a164.82,164.82,0,0,0,1.3-20.06l-1.3.06a165.74,165.74,0,0,1-3.84,20.22Z"/><path class="cls-1" d="M275.07,680.73c2.19-.17,4.4-.32,6.61-.45a165.74,165.74,0,0,0,3.84-20.22l-3.84.22A172.75,172.75,0,0,1,275.07,680.73Z"/><path class="cls-1" d="M275.07,660.73c2.19-.17,4.4-.32,6.61-.45a165.74,165.74,0,0,0,3.84-20.22l-3.84.22A172.75,172.75,0,0,1,275.07,660.73Z"/><path class="cls-1" d="M285.52,620.06a165.58,165.58,0,0,1-3.84,20.21,385,385,0,0,0-109.37,22.51,100.55,100.55,0,0,0-40.17-2.2C175.92,637.56,228.51,623,285.52,620.06Z"/><path class="cls-1" d="M47.39,748.91c.2-1.95.47-3.88.78-5.79-1.9-2.71-3.7-5.45-5.37-8.24q-3.13,4.26-6,8.63a121.61,121.61,0,0,0,6,11.37Q45,751.87,47.39,748.91Z"/><path class="cls-1" d="M50.46,786.28c-.15-.21-.31-.41-.46-.61.07-.1.15-.19.22-.28Z"/><path class="cls-1" d="M55,719.8a99.29,99.29,0,0,0-6.86,23.32c-1.9-2.71-3.7-5.46-5.37-8.24Q48.52,727.14,55,719.8Z"/><path class="cls-1" d="M47.29,769c-.25-2.58-.39-5.19-.44-7.82q-2.13-3.13-4.05-6.34-3.13,4.26-6,8.63a121.61,121.61,0,0,0,6,11.37C44.26,772.91,45.75,771,47.29,769Z"/><path class="cls-1" d="M75.64,829.72a397.33,397.33,0,0,1-57,8.56,181.75,181.75,0,0,1,9.81-20.89c11.43-1.16,22.67-2.77,33.65-4.85A100.42,100.42,0,0,0,75.64,829.72Z"/><path class="cls-1" d="M94.71,844.86A392.62,392.62,0,0,1,12,858.73a172.16,172.16,0,0,1,6.61-20.45,397.33,397.33,0,0,0,57.05-8.56A100.89,100.89,0,0,0,94.71,844.86Z"/><path class="cls-1" d="M18.59,818.28A172.16,172.16,0,0,0,12,838.73c2.21-.14,4.42-.28,6.61-.45a181.75,181.75,0,0,1,9.81-20.89Q23.53,817.9,18.59,818.28Z"/><path class="cls-1" d="M50.22,785.39c-.07.09-.15.18-.22.28q-3.91-5.29-7.2-10.79c1.45-2,3-3.91,4.48-5.85A100.17,100.17,0,0,0,50.22,785.39Z"/><path class="cls-1" d="M36.77,763.51a111.4,111.4,0,0,1-4.83-12.29,174.18,174.18,0,0,0-23.8,67.72l3.84-.21A181.57,181.57,0,0,1,36.77,763.51Z"/><path class="cls-1" d="M50,785.67q-3.91-5.29-7.2-10.79a191.43,191.43,0,0,0-24.21,43.4q4.93-.37,9.81-.89A204.49,204.49,0,0,1,50,785.67Z"/><path class="cls-1" d="M62.05,812.54c-11,2.08-22.22,3.69-33.65,4.85A204.49,204.49,0,0,1,50,785.67c.15.2.31.4.46.61A99.51,99.51,0,0,0,62.05,812.54Z"/><path class="cls-1" d="M46.83,759.5c0,.57,0,1.14,0,1.72-1.42-2.09-2.77-4.21-4.05-6.34q2.23-3,4.59-6A100.1,100.1,0,0,0,46.83,759.5Z"/><path class="cls-1" d="M36.77,763.51A181.57,181.57,0,0,0,12,818.73c2.21-.14,4.42-.28,6.61-.45a191.43,191.43,0,0,1,24.21-43.4A121.61,121.61,0,0,1,36.77,763.51Z"/><path class="cls-1" d="M42.8,754.88a121.61,121.61,0,0,1-6-11.37c-1.68,2.55-3.28,5.12-4.83,7.71a111.4,111.4,0,0,0,4.83,12.29Q39.67,759.15,42.8,754.88Z"/><path class="cls-1" d="M219.51,874.08a363.43,363.43,0,0,1-60.77-15.29,99.41,99.41,0,0,0,33.53-10.19q11.07,2.65,22.61,4.7Q217.46,863.53,219.51,874.08Z"/><path class="cls-1" d="M8.14,818.94A164.85,164.85,0,0,0,6.84,839l1.3-.07A165.94,165.94,0,0,1,12,818.73Z"/><path class="cls-1" d="M276.35,859.36a411.69,411.69,0,0,1-61.47-6.06q-2.12-8.37-4.58-16.52c1.4-1.15,2.76-2.34,4.1-3.57a409.17,409.17,0,0,0,56.63,6Q273.94,849.11,276.35,859.36Z"/><path class="cls-1" d="M271,839.2a409.17,409.17,0,0,1-56.63-6,99.77,99.77,0,0,0,31.08-57.29A343.83,343.83,0,0,1,271,839.2Z"/><path class="cls-1" d="M275.07,660.72a181.75,181.75,0,0,1-9.81,20.89A394.76,394.76,0,0,0,218,689.28,100.89,100.89,0,0,0,199,674.14,391.4,391.4,0,0,1,275.07,660.72Z"/><path class="cls-1" d="M281.68,640.27a172.16,172.16,0,0,1-6.61,20.45A391.4,391.4,0,0,0,199,674.14a99.76,99.76,0,0,0-26.64-11.36A385,385,0,0,1,281.68,640.27Z"/><path class="cls-1" d="M275.07,680.73a172.75,172.75,0,0,0,6.61-20.45c-2.21.13-4.42.28-6.61.45a182.4,182.4,0,0,1-9.81,20.88C268.51,681.28,271.78,681,275.07,680.73Z"/><path class="cls-1" d="M281.68,680.28l3.84-.22a164.82,164.82,0,0,0,1.3-20.06l-1.3.06A165.74,165.74,0,0,1,281.68,680.28Z"/><path class="cls-1" d="M246.27,770.09a100.1,100.1,0,0,0,.56-10.59c0-3.22-.16-6.4-.45-9.53,16.82-21.23,28.93-44.72,35.3-69.7l3.84-.21C281.41,712.66,267.62,743.19,246.27,770.09Z"/><path class="cls-1" d="M214.88,853.3q-11.53-2-22.61-4.7a100.07,100.07,0,0,0,18-11.82Q212.76,844.93,214.88,853.3Z"/><path class="cls-1" d="M275.07,680.72a195,195,0,0,1-31.63,52.89,99.54,99.54,0,0,0-5-14.21,207.77,207.77,0,0,0,26.8-37.79Q270.14,681.12,275.07,680.72Z"/><path class="cls-1" d="M219.51,874.09a414,414,0,0,0,61,5.36q-1.83-10.19-4.16-20.09a411.7,411.7,0,0,1-61.47-6.05Q217.46,863.53,219.51,874.09Z"/><path class="cls-1" d="M8.14,838.94A164.85,164.85,0,0,0,6.84,859l1.3-.07A165.94,165.94,0,0,1,12,838.73Z"/><path class="cls-1" d="M18.59,838.28c-2.19.17-4.4.31-6.61.45a165.94,165.94,0,0,0-3.84,20.21l3.84-.21A172.16,172.16,0,0,1,18.59,838.28Z"/><path class="cls-1" d="M18.59,818.28c-2.19.17-4.4.31-6.61.45a165.94,165.94,0,0,0-3.84,20.21l3.84-.21A172.16,172.16,0,0,1,18.59,818.28Z"/><path class="cls-1" d="M265.26,681.61A392.76,392.76,0,0,0,218,689.29a100.16,100.16,0,0,1,20.44,30.11A207.42,207.42,0,0,0,265.26,681.61Z"/><path class="cls-1" d="M121.35,856.22A385.75,385.75,0,0,1,8.14,878.94,165.58,165.58,0,0,1,12,858.73a392.62,392.62,0,0,0,82.73-13.87A99.76,99.76,0,0,0,121.35,856.22Z"/><path class="cls-1" d="M8.14,858.94A164.85,164.85,0,0,0,6.84,879l1.3-.07A165.94,165.94,0,0,1,12,858.73Z"/><path class="cls-3" d="M246.38,750q-4.45,5.6-9.32,11a254.64,254.64,0,0,1-41.24,36.42A298.15,298.15,0,0,1,160,819.22c-6.16-2.12-12.18-4.38-18-6.79q-2.69-1.11-5.31-2.26l3.8-1.64a313.64,313.64,0,0,0,48.27-26.25A263.81,263.81,0,0,0,229.46,749c4.93-5,9.61-10.09,14-15.36A100.17,100.17,0,0,1,246.38,750Z"/><path class="cls-3" d="M156.28,859.05c-3.11.29-6.26.45-9.45.45a100.08,100.08,0,0,1-96.37-73.22,163.9,163.9,0,0,0,22.27,24.07,204.85,204.85,0,0,0,19.4,15.23,241.77,241.77,0,0,0,21.6,13.34q10.93,6,23,11.25,9.34,4.08,19.31,7.65C156.09,858.23,156.18,858.64,156.28,859.05Z"/><path class="cls-3" d="M50,765.67c-.92,1.11-1.81,2.23-2.71,3.35h0c-.06-.64-.11-1.29-.16-1.93-.1-1.3-.17-2.6-.22-3.91,0-.66,0-1.31,0-2C47.87,762.71,48.91,764.19,50,765.67Z"/><path class="cls-3" d="M243.44,733.61c-4.37,5.27-9.05,10.39-14,15.36a263.81,263.81,0,0,1-40.71,33.31,313.64,313.64,0,0,1-48.27,26.25l-3.8,1.64q-12-5.22-23-11.25,9.94-3.4,19.49-7.32a319.69,319.69,0,0,0,47.58-24.22A273.55,273.55,0,0,0,221,737.06a239.59,239.59,0,0,0,17.43-17.66A99.54,99.54,0,0,1,243.44,733.61Z"/><path class="cls-3" d="M50,745.67c-.89,1.07-1.75,2.15-2.61,3.24.2-1.95.47-3.88.78-5.79Q49.07,744.4,50,745.67Z"/><path class="cls-3" d="M221,737.06a273.55,273.55,0,0,1-40.23,30.32,277.72,277.72,0,0,0-38-52.17,344.58,344.58,0,0,1,42.52-17A250,250,0,0,1,221,737.06Z"/><path class="cls-3" d="M218,689.28q-16.77,3.81-32.66,9a344.58,344.58,0,0,0-42.52,17,308,308,0,0,0-40.67,23.38,264.4,264.4,0,0,0-34,27.55q-5.16-4.93-9.75-10.09a251.56,251.56,0,0,1,33.73-30.26A294,294,0,0,1,129.51,702a332.75,332.75,0,0,1,38.3-17.51q15.09-5.79,31.14-10.33A100.89,100.89,0,0,1,218,689.28Z"/><path class="cls-3" d="M192.27,848.6a99.41,99.41,0,0,1-33.53,10.19l-2.75-1q-9.94-3.57-19.31-7.65-12-5.22-23-11.25a241.77,241.77,0,0,1-21.6-13.34,204.85,204.85,0,0,1-19.4-15.23,163.9,163.9,0,0,1-22.27-24.07l-.24-.89A100.05,100.05,0,0,1,47.28,769h0c.9-1.12,1.79-2.24,2.71-3.35q3.9,5.3,8.41,10.38a189.08,189.08,0,0,0,33.72,29.53,241.77,241.77,0,0,0,21.6,13.34q10.93,6,23,11.25,6.48,2.83,13.26,5.41,5,1.89,10.06,3.64C170.34,842.78,181.11,845.93,192.27,848.6Z"/><path class="cls-3" d="M180.8,767.38a319.69,319.69,0,0,1-47.58,24.22,303.73,303.73,0,0,0-31-53,308,308,0,0,1,40.67-23.38A277.72,277.72,0,0,1,180.8,767.38Z"/><path class="cls-3" d="M133.22,791.6q-9.54,3.92-19.49,7.32a217.35,217.35,0,0,1-45.57-32.78,264.4,264.4,0,0,1,34-27.55A303.73,303.73,0,0,1,133.22,791.6Z"/><path class="cls-3" d="M238.46,719.4A239.59,239.59,0,0,1,221,737.06a250,250,0,0,0-35.67-38.8q15.87-5.14,32.66-9A100.33,100.33,0,0,1,238.46,719.4Z"/><path class="cls-3" d="M172.31,662.78q-12.17,4.49-23.69,9.73a318.06,318.06,0,0,0-33.25,17.55,280,280,0,0,0-33.66,24A240.1,240.1,0,0,0,50,745.67q-.93-1.27-1.83-2.55A99.29,99.29,0,0,1,55,719.8q7.5-8.47,16-16.4a266.63,266.63,0,0,1,29.6-23.76,299,299,0,0,1,27.3-16.81q2.1-1.14,4.21-2.25a100.55,100.55,0,0,1,40.17,2.2Z"/><path class="cls-3" d="M127.93,662.83a299,299,0,0,0-27.3,16.81A266.63,266.63,0,0,0,71,703.4q-8.51,7.9-16,16.4a99.82,99.82,0,0,1,11.76-20.26A100.91,100.91,0,0,1,93.2,675.08a99.52,99.52,0,0,1,32.11-13.25C126.19,662.16,127.06,662.48,127.93,662.83Z"/><path class="cls-3" d="M132.14,660.58q-2.12,1.11-4.21,2.25c-.87-.35-1.74-.67-2.62-1Q128.69,661.1,132.14,660.58Z"/><path class="cls-3" d="M246.83,759.5a100.1,100.1,0,0,1-.56,10.59c-.77,1-1.55,1.95-2.34,2.92a245.71,245.71,0,0,1-41.81,39.76q-9.28,7-19.37,13.41Q171,823,160,819.22a298.15,298.15,0,0,0,35.82-21.84A254.64,254.64,0,0,0,237.06,761q4.86-5.38,9.32-11C246.67,753.1,246.83,756.28,246.83,759.5Z"/><path class="cls-3" d="M158.74,858.79c-.82.1-1.64.19-2.46.26-.1-.41-.19-.82-.29-1.23Z"/><path class="cls-3" d="M199,674.14q-16,4.53-31.14,10.33A332.75,332.75,0,0,0,129.51,702a294,294,0,0,0-37.37,23.81,251.56,251.56,0,0,0-33.73,30.26Q53.91,751,50,745.67A240.1,240.1,0,0,1,81.71,714a280,280,0,0,1,33.66-24,318.06,318.06,0,0,1,33.25-17.55q11.52-5.25,23.69-9.73A99.76,99.76,0,0,1,199,674.14Z"/><path class="cls-3" d="M214.4,833.21c-1.34,1.23-2.7,2.42-4.1,3.57a100.07,100.07,0,0,1-18,11.82c-11.16-2.67-21.93-5.82-32.27-9.38q-5.1-1.76-10.06-3.64-6.76-2.58-13.26-5.41-12-5.22-23-11.25a241.77,241.77,0,0,1-21.6-13.34,189.08,189.08,0,0,1-33.72-29.53Q53.91,771,50,765.67c-1.09-1.48-2.13-3-3.15-4.45,0-.58,0-1.15,0-1.72a100.1,100.1,0,0,1,.56-10.59c.86-1.09,1.72-2.17,2.61-3.24q3.9,5.3,8.41,10.38t9.75,10.09a217.35,217.35,0,0,0,45.57,32.78q10.93,6,23,11.25,2.63,1.16,5.31,2.26c5.83,2.41,11.85,4.67,18,6.79q11,3.81,22.75,7,12.72,3.42,26.14,6Q211.62,832.72,214.4,833.21Z"/><path class="cls-3" d="M246.27,770.09c-.2,2-.47,3.9-.79,5.83a99.77,99.77,0,0,1-31.08,57.29q-2.78-.48-5.51-1-13.41-2.6-26.14-6,10.08-6.39,19.37-13.41A245.71,245.71,0,0,0,243.93,773C244.72,772,245.5,771.07,246.27,770.09Z"/><rect class="cls-4" x="320" y="659.22" width="1240" height="200"/><path class="cls-3" d="M214.4,833.21c51.12,9.9,56.71-68.14,105.15-73.88"/><rect class="cls-3" x="460" y="140.55" width="180" height="200"/><rect class="cls-5" x="460" y="400" width="180" height="200"/><rect class="cls-5" x="460" y="660" width="180" height="200"/><rect class="cls-3" x="700" y="660" width="420" height="200"/><rect class="cls-5" x="700" y="400" width="420" height="200"/><rect class="cls-5" x="700" y="140" width="420" height="200"/><rect class="cls-5" x="1200" y="140" width="320" height="200"/><rect class="cls-3" x="1200" y="400" width="320" height="200"/><rect class="cls-5" x="1200" y="660" width="320" height="200"/><text class="cls-6" transform="translate(470.45 260.23)">lock</text><text class="cls-6" transform="translate(10.79 96.91)">Threads</text><text class="cls-6" transform="translate(830.45 779.68)">lock</text><text class="cls-6" transform="translate(1280.45 519.68)">lock</text></svg>