<svg id="Layer_1" data-name="Layer 1" xmlns="http://www.w3.org/2000/svg" xmlns:xlink="http://www.w3.org/1999/xlink" viewBox="0 0 1600 900"><defs><style>.cls-1,.cls-2,.cls-3{fill:none;}.cls-2,.cls-3,.cls-4,.cls-6{stroke:#000;}.cls-2{stroke-linecap:square;stroke-width:0.3px;}.cls-3{stroke-linecap:round;stroke-linejoin:round;stroke-width:3px;}.cls-4{fill:#fff;}.cls-4,.cls-6{stroke-miterlimit:10;stroke-width:4px;}.cls-5{font-size:72px;font-family:Consolas;}.cls-6{fill:url(#Lines);}</style><pattern id="Lines" data-name="Lines" width="72" height="72" patternUnits="userSpaceOnUse" viewBox="0 0 72 72"><rect class="cls-1" width="72" height="72"/><line class="cls-2" x1="29.44" y1="73.63" x2="29.44" y2="70.13"/><line class="cls-2" x1="71" y1="9.63" x2="93.69" y2="9.63"/><line class="cls-2" x1="78.19" y1="13.88" x2="71" y2="13.88"/><line class="cls-2" x1="71" y1="25.38" x2="94.94" y2="25.38"/><line class="cls-2" x1="71" y1="34.63" x2="101.69" y2="34.63"/><line class="cls-2" x1="71" y1="50.38" x2="102.94" y2="50.38"/><line class="cls-2" x1="71" y1="59.13" x2="73.69" y2="59.13"/><line class="cls-2" x1="71" y1="53.38" x2="107.69" y2="53.38"/><line class="cls-2" x1="81.19" y1="41.88" x2="71" y2="41.88"/><line class="cls-2" x1="71" y1="66.38" x2="81.19" y2="66.38"/><line class="cls-2" x1="71" y1="63.38" x2="95.19" y2="63.38"/><line class="cls-2" x1="-1" y1="9.63" x2="21.69" y2="9.63"/><line class="cls-2" x1="11.94" y1="3.88" x2="55.69" y2="3.88"/><line class="cls-2" x1="16.19" y1="9.63" x2="16.19" y2="3.88"/><line class="cls-2" x1="34.44" y1="5.63" x2="65.94" y2="5.63"/><line class="cls-2" x1="20.44" y1="7.38" x2="59.94" y2="7.38"/><line class="cls-2" x1="48.94" y1="16.88" x2="69.19" y2="16.88"/><line class="cls-2" x1="62.19" y1="16.88" x2="62.19" y2="13.38"/><line class="cls-2" x1="70.69" y1="13.88" x2="64.44" y2="13.88"/><line class="cls-2" x1="6.19" y1="13.88" x2="-1" y2="13.88"/><line class="cls-2" x1="4.94" y1="16.88" x2="29.19" y2="16.88"/><line class="cls-2" x1="38.19" y1="9.63" x2="71.19" y2="9.63"/><line class="cls-2" x1="18.94" y1="13.88" x2="43.19" y2="13.88"/><line class="cls-2" x1="51.44" y1="22.13" x2="73" y2="22.13"/><line class="cls-2" x1="51.19" y1="23.38" x2="73" y2="23.38"/><line class="cls-2" x1="7.19" y1="22.13" x2="25.94" y2="22.13"/><line class="cls-2" x1="6.94" y1="23.38" x2="19.44" y2="23.38"/><line class="cls-2" x1="21.69" y1="19.13" x2="45.94" y2="19.13"/><line class="cls-2" x1="33.44" y1="25.38" x2="53.69" y2="25.38"/><line class="cls-2" x1="46.69" y1="25.38" x2="46.69" y2="21.88"/><line class="cls-2" x1="-1" y1="25.38" x2="22.94" y2="25.38"/><line class="cls-2" x1="3.94" y1="25.38" x2="3.94" y2="21.88"/><line class="cls-2" x1="57.94" y1="25.38" x2="70.44" y2="25.38"/><line class="cls-2" x1="29.69" y1="22.13" x2="33.44" y2="22.13"/><line class="cls-2" x1="-1" y1="34.63" x2="29.69" y2="34.63"/><line class="cls-2" x1="19.94" y1="28.88" x2="63.69" y2="28.88"/><line class="cls-2" x1="24.19" y1="34.63" x2="24.19" y2="28.88"/><line class="cls-2" x1="42.44" y1="30.63" x2="73" y2="30.63"/><line class="cls-2" x1="28.44" y1="32.38" x2="67.94" y2="32.38"/><line class="cls-2" x1="56.94" y1="41.88" x2="73" y2="41.88"/><line class="cls-2" x1="70.19" y1="41.88" x2="70.19" y2="38.38"/><line class="cls-2" x1="55.94" y1="38.88" x2="53.94" y2="38.88"/><line class="cls-2" x1="14.19" y1="38.88" x2="7.94" y2="38.88"/><line class="cls-2" x1="12.94" y1="41.88" x2="37.19" y2="41.88"/><line class="cls-2" x1="46.69" y1="34.63" x2="73" y2="34.63"/><line class="cls-2" x1="26.94" y1="38.88" x2="51.19" y2="38.88"/><line class="cls-2" x1="59.44" y1="47.13" x2="73" y2="47.13"/><line class="cls-2" x1="59.19" y1="48.38" x2="73" y2="48.38"/><line class="cls-2" x1="15.19" y1="47.13" x2="33.94" y2="47.13"/><line class="cls-2" x1="14.94" y1="48.38" x2="27.44" y2="48.38"/><line class="cls-2" x1="29.69" y1="44.13" x2="53.94" y2="44.13"/><line class="cls-2" x1="41.44" y1="50.38" x2="61.69" y2="50.38"/><line class="cls-2" x1="54.69" y1="50.38" x2="54.69" y2="46.88"/><line class="cls-2" x1="-1" y1="50.38" x2="30.94" y2="50.38"/><line class="cls-2" x1="11.94" y1="50.38" x2="11.94" y2="46.88"/><line class="cls-2" x1="65.94" y1="50.38" x2="73" y2="50.38"/><line class="cls-2" x1="37.69" y1="47.13" x2="41.44" y2="47.13"/><line class="cls-2" x1="-1" y1="59.13" x2="1.69" y2="59.13"/><line class="cls-2" x1="-1" y1="53.38" x2="35.69" y2="53.38"/><line class="cls-2" x1="14.44" y1="55.13" x2="45.94" y2="55.13"/><line class="cls-2" x1="1.75" y1="56.88" x2="39.94" y2="56.88"/><line class="cls-2" x1="28.94" y1="66.38" x2="49.19" y2="66.38"/><line class="cls-2" x1="42.19" y1="66.38" x2="42.19" y2="62.88"/><line class="cls-2" x1="51.69" y1="63.38" x2="45.44" y2="63.38"/><line class="cls-2" x1="9.19" y1="41.88" x2="-1" y2="41.88"/><line class="cls-2" x1="-1" y1="66.38" x2="9.19" y2="66.38"/><line class="cls-2" x1="18.69" y1="59.13" x2="51.69" y2="59.13"/><line class="cls-2" x1="-1" y1="63.38" x2="23.19" y2="63.38"/><line class="cls-2" x1="58.94" y1="59.13" x2="73" y2="59.13"/><line class="cls-2" x1="37.44" y1="68.63" x2="61.44" y2="68.63"/><line class="cls-2" x1="62.44" y1="63.38" x2="73" y2="63.38"/><line class="cls-2" x1="1.69" y1="68.63" x2="25.94" y2="68.63"/><line class="cls-2" x1="29.44" y1="73.63" x2="29.44" y2="70.13"/><line class="cls-2" x1="62.44" y1="54.88" x2="73" y2="54.88"/><line class="cls-2" x1="65.19" y1="68.63" x2="68.94" y2="68.63"/><line class="cls-2" x1="16.19" y1="1.63" x2="36.44" y2="1.63"/><line class="cls-2" x1="29.44" y1="1.63" x2="29.44" y2="-1.88"/><line class="cls-2" x1="2.69" y1="4.13" x2="6.44" y2="4.13"/><line class="cls-2" x1="-20.56" y1="22.13" x2="1" y2="22.13"/><line class="cls-2" x1="-20.81" y1="23.38" x2="1" y2="23.38"/><line class="cls-2" x1="-29.56" y1="30.63" x2="1" y2="30.63"/><line class="cls-2" x1="-15.06" y1="41.88" x2="1" y2="41.88"/><line class="cls-2" x1="-25.31" y1="34.63" x2="1" y2="34.63"/><line class="cls-2" x1="-12.56" y1="47.13" x2="1" y2="47.13"/><line class="cls-2" x1="-12.81" y1="48.38" x2="1" y2="48.38"/><line class="cls-2" x1="-6.06" y1="50.38" x2="1" y2="50.38"/><line class="cls-2" x1="-13.06" y1="59.13" x2="1" y2="59.13"/><line class="cls-2" x1="-9.56" y1="63.38" x2="1" y2="63.38"/><line class="cls-2" x1="-9.56" y1="54.88" x2="1" y2="54.88"/><line class="cls-2" x1="29.44" y1="1.63" x2="29.44" y2="-1.88"/></pattern></defs><rect class="cls-3" x="40" y="140" width="200" height="200" rx="12"/><line class="cls-3" x1="40" y1="180" x2="240" y2="180"/><circle cx="60" cy="160" r="5"/><circle cx="80" cy="160" r="5"/><circle cx="100" cy="160" r="5"/><rect class="cls-3" x="40" y="400" width="200" height="200" rx="12"/><line class="cls-3" x1="40" y1="440" x2="240" y2="440"/><circle cx="60" cy="420" r="5"/><circle cx="80" cy="420" r="5"/><circle cx="100" cy="420" r="5"/><rect class="cls-3" x="40" y="660" width="200" height="200" rx="12"/><line class="cls-3" x1="40" y1="700" x2="240" y2="700"/><circle cx="60" cy="680" r="5"/><circle cx="80" cy="680" r="5"/><circle cx="100" cy="680" r="5"/><rect class="cls-4" x="320" y="140" width="1240" height="200"/><rect class="cls-4" x="320" y="400" width="1240" height="200"/><rect class="cls-4" x="320" y="660" width="1240" height="200"/><text class="cls-5" transform="translate(21.02 89.68)">Processes</text><rect class="cls-6" x="320" y="660" width="360" height="200"/><rect class="cls-6" x="680" y="400" width="40" height="200"/><rect class="cls-6" x="720" y="660" width="180" height="200"/><rect class="cls-6" x="900" y="140" width="240" height="200"/><rect class="cls-6" x="1140" y="660" width="140" height="200"/><rect class="cls-6" x="1280" y="400" width="280" height="200"/></svg>