<?xml version="1.0" encoding="utf-8"?>
<svg version="1.1" viewBox="0 0 1600 900" width="1600" height="900" style="stroke:none;stroke-linecap:butt;stroke-linejoin:miter;stroke-width:1;stroke-dasharray:none;fill:#000000;fill-opacity:1;fill-rule:evenodd" font-family="Arial" font-size="15" xmlns:xlink="http://www.w3.org/1999/xlink" xmlns="http://www.w3.org/2000/svg">
  <g transform="matrix(1,0,0,1,0,0)">
    <g id="Rectangle" transform="matrix(1,0,0,1,500,300)">
      <rect x="0" y="0" width="100" height="100" style="stroke:#000000;stroke-linecap:round;stroke-linejoin:round;fill:#009E73;" />
      <text x="23.6094" y="79.332" font-family="Consolas" font-size="48">x0</text>
    </g>
    <g id="Text" transform="matrix(1,0,0,1,25,300)">
      <rect x="0" y="0" width="450" height="100" style="stroke-linecap:round;stroke-linejoin:round;fill:none;fill-opacity:0;" />
      <text x="4" y="82.5911" font-family="Consolas" font-size="53.3333">История замеров</text>
    </g>
    <g id="Rectangle1" transform="matrix(1,0,0,1,600,300)">
      <rect x="0" y="0" width="100" height="100" style="stroke:#000000;stroke-linecap:round;stroke-linejoin:round;fill:#009E73;" />
      <text x="23.6094" y="79.332" font-family="Consolas" font-size="48">x1</text>
    </g>
    <g id="Rectangle2" transform="matrix(1,0,0,1,700,300)">
      <rect x="0" y="0" width="100" height="100" style="stroke:#000000;stroke-linecap:round;stroke-linejoin:round;fill:#009E73;" />
      <text x="23.6094" y="79.332" font-family="Consolas" font-size="48">x2</text>
    </g>
    <g id="Rectangle3" transform="matrix(1,0,0,1,800,300)">
      <rect x="0" y="0" width="100" height="100" style="stroke:#000000;stroke-linecap:round;stroke-linejoin:round;fill:#009E73;" />
      <text x="23.6094" y="79.332" font-family="Consolas" font-size="48">x3</text>
    </g>
    <g id="Rectangle4" transform="matrix(1,0,0,1,900,300)">
      <rect x="0" y="0" width="100" height="100" style="stroke:#000000;stroke-linecap:round;stroke-linejoin:round;fill:#009E73;" />
      <text x="23.6094" y="79.332" font-family="Consolas" font-size="48">x4</text>
    </g>
    <g id="Rectangle5" transform="matrix(1,0,0,1,1000,300)">
      <rect x="0" y="0" width="100" height="100" style="stroke:#000000;stroke-linecap:round;stroke-linejoin:round;fill:#009E73;" />
      <text x="23.6094" y="79.332" font-family="Consolas" font-size="48">x5</text>
    </g>
    <g id="Rectangle6" transform="matrix(1,0,0,1,1100,300)">
      <rect x="0" y="0" width="100" height="100" style="stroke:#000000;stroke-linecap:round;stroke-linejoin:round;fill:#009E73;" />
      <text x="23.6094" y="79.332" font-family="Consolas" font-size="48">x6</text>
    </g>
    <g id="Rectangle7" transform="matrix(1,0,0,1,1200,300)">
      <rect x="0" y="0" width="100" height="100" style="stroke:#000000;stroke-linecap:round;stroke-linejoin:round;fill:#009E73;" />
      <text x="23.6094" y="79.332" font-family="Consolas" font-size="48">x7</text>
    </g>
    <g id="Rectangle8" transform="matrix(1,0,0,1,1300,300)">
      <rect x="0" y="0" width="100" height="100" style="stroke:#000000;stroke-linecap:round;stroke-linejoin:round;fill:#009E73;" />
      <text x="23.6094" y="79.332" font-family="Consolas" font-size="48">x8</text>
    </g>
  </g>
</svg>