<?xml version="1.0" encoding="utf-8"?>
<svg version="1.1" viewBox="0 0 850 1400" width="850" height="1400" style="stroke:none;stroke-linecap:butt;stroke-linejoin:miter;stroke-width:1;stroke-dasharray:none;fill:#000000;fill-opacity:1;fill-rule:evenodd" font-family="Arial" font-size="15" xmlns:xlink="http://www.w3.org/1999/xlink" xmlns="http://www.w3.org/2000/svg">
  <g transform="matrix(1,0,0,1,0,0)">
    <g id="Ellipse" transform="matrix(1,0,0,1,400,650)">
      <ellipse cx="50" cy="50" rx="50" ry="50" style="stroke:#000000;stroke-linecap:round;stroke-linejoin:round;fill:#56B4E9;" />
      <path d="M33.9583,58.9193L31.6406,58.9193L31.6406,51.1068L24.4922,51.1068L24.4922,58.9193L22.1745,58.9193L22.1745,41.901L24.4922,41.901L24.4922,49.1016L31.6406,49.1016L31.6406,41.901L33.9583,41.901L33.9583,58.9193zM46.276,64.2578L39.8568,64.2578L39.8568,40.0651L46.276,40.0651L46.276,41.888L42.0182,41.888L42.0182,62.4349L46.276,62.4349L46.276,64.2578zM63.5156,50.4167Q63.5156,52.3698 63.125,53.9779Q62.7344,55.5859 61.9401,56.7383Q61.1458,57.8906 59.9674,58.5221Q58.7891,59.1536 57.2005,59.1536Q55.8333,59.1536 54.7135,58.6393Q53.5938,58.125 52.7995,57.0573Q52.0052,55.9896 51.5755,54.3359Q51.1458,52.6823 51.1458,50.4167Q51.1458,48.4635 51.543,46.849Q51.9401,45.2344 52.7279,44.082Q53.5156,42.9297 54.7005,42.2982Q55.8854,41.6667 57.4609,41.6667Q58.8281,41.6667 59.9479,42.181Q61.0677,42.6953 61.862,43.7695Q62.6563,44.8438 63.0859,46.4974Q63.5156,48.151 63.5156,50.4167zM61.224,50.4948Q61.224,50.0521 61.1914,49.6159Q61.1589,49.1797 61.1198,48.763L61.1198,48.763L53.9193,54.1146Q54.1146,54.7917 54.4141,55.3646Q54.7135,55.9375 55.1367,56.3477Q55.5599,56.7578 56.1003,56.9857Q56.6406,57.2135 57.3307,57.2135Q58.2161,57.2135 58.9388,56.7839Q59.6615,56.3542 60.1693,55.5078Q60.6771,54.6615 60.9505,53.405Q61.224,52.1484 61.224,50.4948zM53.4375,50.3385Q53.4375,50.7422 53.444,51.1458Q53.4505,51.5495 53.4896,51.9271L53.4896,51.9271L60.6901,46.6016Q60.4948,45.9375 60.1953,45.3906Q59.8958,44.8438 59.4792,44.4466Q59.0625,44.0495 58.5286,43.8281Q57.9948,43.6068 57.3307,43.6068Q56.4453,43.6068 55.7227,44.0365Q55,44.4661 54.4922,45.319Q53.9844,46.1719 53.7109,47.4284Q53.4375,48.6849 53.4375,50.3385zM74.8047,64.2578L68.3854,64.2578L68.3854,62.4349L72.6172,62.4349L72.6172,41.888L68.3854,41.888L68.3854,40.0651L74.8047,40.0651L74.8047,64.2578z" />
    </g>
    <g id="Ellipse1" transform="matrix(1,0,0,1,400,500)">
      <ellipse cx="50" cy="50" rx="50" ry="50" style="stroke:#000000;stroke-linecap:round;stroke-linejoin:round;fill:#56B4E9;" />
      <path d="M33.9583,58.9193L31.6406,58.9193L31.6406,51.1068L24.4922,51.1068L24.4922,58.9193L22.1745,58.9193L22.1745,41.901L24.4922,41.901L24.4922,49.1016L31.6406,49.1016L31.6406,41.901L33.9583,41.901L33.9583,58.9193zM46.276,64.2578L39.8568,64.2578L39.8568,40.0651L46.276,40.0651L46.276,41.888L42.0182,41.888L42.0182,62.4349L46.276,62.4349L46.276,64.2578zM62.9818,58.9193L52.2917,58.9193L52.2917,56.8099L56.6667,56.8099L56.6667,44.388L52.5911,46.6016L51.7578,44.6745L57.1745,41.8229L59.1797,41.8229L59.1797,56.8099L62.9818,56.8099L62.9818,58.9193zM74.8047,64.2578L68.3854,64.2578L68.3854,62.4349L72.6172,62.4349L72.6172,41.888L68.3854,41.888L68.3854,40.0651L74.8047,40.0651L74.8047,64.2578z" />
    </g>
    <g id="Ellipse2" transform="matrix(1,0,0,1,200,350)">
      <ellipse cx="50" cy="50" rx="50" ry="50" style="stroke:#000000;stroke-linecap:round;stroke-linejoin:round;fill:#56B4E9;" />
      <path d="M33.9583,58.9193L31.6406,58.9193L31.6406,51.1068L24.4922,51.1068L24.4922,58.9193L22.1745,58.9193L22.1745,41.901L24.4922,41.901L24.4922,49.1016L31.6406,49.1016L31.6406,41.901L33.9583,41.901L33.9583,58.9193zM46.276,64.2578L39.8568,64.2578L39.8568,40.0651L46.276,40.0651L46.276,41.888L42.0182,41.888L42.0182,62.4349L46.276,62.4349L46.276,64.2578zM63.125,58.9193L51.9141,58.9193L51.9141,56.888L56.3151,52.513Q57.3958,51.4453 58.0729,50.6641Q58.75,49.8828 59.1276,49.2383Q59.5052,48.5938 59.6354,48.0208Q59.7656,47.4479 59.7656,46.7839Q59.7656,46.1589 59.5964,45.5925Q59.4271,45.026 59.0755,44.5964Q58.724,44.1667 58.1641,43.9193Q57.6042,43.6719 56.8229,43.6719Q55.7422,43.6719 54.8568,44.1536Q53.9714,44.6354 53.2292,45.4036L53.2292,45.4036L51.9792,43.9063Q52.9427,42.8906 54.1992,42.2786Q55.4557,41.6667 57.1224,41.6667Q58.2552,41.6667 59.1862,42.0052Q60.1172,42.3438 60.7943,42.9818Q61.4714,43.6198 61.8424,44.5443Q62.2135,45.4688 62.2135,46.6276Q62.2135,47.6042 61.9531,48.4375Q61.6927,49.2708 61.1654,50.0977Q60.638,50.9245 59.8372,51.8099Q59.0365,52.6953 57.9427,53.75L57.9427,53.75L54.8568,56.7578L63.125,56.7578L63.125,58.9193zM74.8047,64.2578L68.3854,64.2578L68.3854,62.4349L72.6172,62.4349L72.6172,41.888L68.3854,41.888L68.3854,40.0651L74.8047,40.0651L74.8047,64.2578z" />
    </g>
    <g id="Ellipse3" transform="matrix(1,0,0,1,600,350)">
      <ellipse cx="50" cy="50" rx="50" ry="50" style="stroke:#000000;stroke-linecap:round;stroke-linejoin:round;fill:#56B4E9;" />
      <path d="M33.9583,58.9193L31.6406,58.9193L31.6406,51.1068L24.4922,51.1068L24.4922,58.9193L22.1745,58.9193L22.1745,41.901L24.4922,41.901L24.4922,49.1016L31.6406,49.1016L31.6406,41.901L33.9583,41.901L33.9583,58.9193zM46.276,64.2578L39.8568,64.2578L39.8568,40.0651L46.276,40.0651L46.276,41.888L42.0182,41.888L42.0182,62.4349L46.276,62.4349L46.276,64.2578zM62.7995,53.75Q62.7995,54.8698 62.3438,55.8529Q61.888,56.8359 60.9766,57.5716Q60.0651,58.3073 58.6849,58.7305Q57.3047,59.1536 55.4688,59.1536Q54.4531,59.1536 53.6458,59.0885Q52.8385,59.0234 52.1354,58.9193L52.1354,58.9193L52.1354,56.888Q52.9427,57.0313 53.8411,57.1094Q54.7396,57.1875 55.6771,57.1875Q56.9531,57.1875 57.8581,56.9596Q58.763,56.7318 59.3359,56.3021Q59.9089,55.8724 60.1693,55.2604Q60.4297,54.6484 60.4297,53.8802Q60.4297,53.1771 60.1172,52.6563Q59.8047,52.1354 59.2383,51.7839Q58.6719,51.4323 57.8841,51.2565Q57.0964,51.0807 56.1589,51.0807L56.1589,51.0807L54.2188,51.0807L54.2188,49.2188L56.1849,49.2188Q56.9531,49.2188 57.5846,49.0169Q58.2161,48.8151 58.6654,48.4375Q59.1146,48.0599 59.3555,47.5065Q59.5964,46.9531 59.5964,46.25Q59.5964,44.8828 58.763,44.2578Q57.9297,43.6328 56.3151,43.6328Q55.4557,43.6328 54.5443,43.8021Q53.6328,43.9714 52.5911,44.3099L52.5911,44.3099L52.5911,42.3307Q53.0339,42.1745 53.5352,42.0508Q54.0365,41.9271 54.5378,41.8425Q55.0391,41.7578 55.5339,41.7122Q56.0286,41.6667 56.4844,41.6667Q57.8385,41.6667 58.8672,41.9596Q59.8958,42.2526 60.5859,42.7995Q61.276,43.3464 61.6276,44.1276Q61.9792,44.9089 61.9792,45.8854Q61.9792,47.3438 61.2305,48.3333Q60.4818,49.3229 59.1797,49.9089Q59.8438,50.013 60.4883,50.3255Q61.1328,50.638 61.6471,51.1263Q62.1615,51.6146 62.4805,52.2786Q62.7995,52.9427 62.7995,53.75zM74.8047,64.2578L68.3854,64.2578L68.3854,62.4349L72.6172,62.4349L72.6172,41.888L68.3854,41.888L68.3854,40.0651L74.8047,40.0651L74.8047,64.2578z" />
    </g>
    <g id="Ellipse4" transform="matrix(1,0,0,1,400,800)">
      <ellipse cx="50" cy="50" rx="50" ry="50" style="stroke:#000000;stroke-linecap:round;stroke-linejoin:round;fill:#56B4E9;" />
      <path d="M26.6406,58.9193L24.3229,58.9193L24.3229,51.1068L17.1745,51.1068L17.1745,58.9193L14.8568,58.9193L14.8568,41.901L17.1745,41.901L17.1745,49.1016L24.3229,49.1016L24.3229,41.901L26.6406,41.901L26.6406,58.9193zM38.9583,64.2578L32.5391,64.2578L32.5391,40.0651L38.9583,40.0651L38.9583,41.888L34.7005,41.888L34.7005,62.4349L38.9583,62.4349L38.9583,64.2578zM53.9063,52.8906L46.1198,52.8906L46.1198,50.7552L53.9063,50.7552L53.9063,52.8906zM70.2995,58.9193L59.6094,58.9193L59.6094,56.8099L63.9844,56.8099L63.9844,44.388L59.9089,46.6016L59.0755,44.6745L64.4922,41.8229L66.4974,41.8229L66.4974,56.8099L70.2995,56.8099L70.2995,58.9193zM82.1224,64.2578L75.7031,64.2578L75.7031,62.4349L79.9349,62.4349L79.9349,41.888L75.7031,41.888L75.7031,40.0651L82.1224,40.0651L82.1224,64.2578z" />
    </g>
    <g id="Ellipse5" transform="matrix(1,0,0,1,200,950)">
      <ellipse cx="50" cy="50" rx="50" ry="50" style="stroke:#000000;stroke-linecap:round;stroke-linejoin:round;fill:#56B4E9;" />
      <path d="M26.6406,58.9193L24.3229,58.9193L24.3229,51.1068L17.1745,51.1068L17.1745,58.9193L14.8568,58.9193L14.8568,41.901L17.1745,41.901L17.1745,49.1016L24.3229,49.1016L24.3229,41.901L26.6406,41.901L26.6406,58.9193zM38.9583,64.2578L32.5391,64.2578L32.5391,40.0651L38.9583,40.0651L38.9583,41.888L34.7005,41.888L34.7005,62.4349L38.9583,62.4349L38.9583,64.2578zM53.9063,52.8906L46.1198,52.8906L46.1198,50.7552L53.9063,50.7552L53.9063,52.8906zM70.4427,58.9193L59.2318,58.9193L59.2318,56.888L63.6328,52.513Q64.7135,51.4453 65.3906,50.6641Q66.0677,49.8828 66.4453,49.2383Q66.8229,48.5938 66.9531,48.0208Q67.0833,47.4479 67.0833,46.7839Q67.0833,46.1589 66.9141,45.5925Q66.7448,45.026 66.3932,44.5964Q66.0417,44.1667 65.4818,43.9193Q64.9219,43.6719 64.1406,43.6719Q63.0599,43.6719 62.1745,44.1536Q61.2891,44.6354 60.5469,45.4036L60.5469,45.4036L59.2969,43.9063Q60.2604,42.8906 61.5169,42.2786Q62.7734,41.6667 64.4401,41.6667Q65.5729,41.6667 66.5039,42.0052Q67.4349,42.3438 68.112,42.9818Q68.7891,43.6198 69.1602,44.5443Q69.5313,45.4688 69.5313,46.6276Q69.5313,47.6042 69.2708,48.4375Q69.0104,49.2708 68.4831,50.0977Q67.9557,50.9245 67.155,51.8099Q66.3542,52.6953 65.2604,53.75L65.2604,53.75L62.1745,56.7578L70.4427,56.7578L70.4427,58.9193zM82.1224,64.2578L75.7031,64.2578L75.7031,62.4349L79.9349,62.4349L79.9349,41.888L75.7031,41.888L75.7031,40.0651L82.1224,40.0651L82.1224,64.2578z" />
    </g>
    <g id="Ellipse6" transform="matrix(1,0,0,1,600,950)">
      <ellipse cx="50" cy="50" rx="50" ry="50" style="stroke:#000000;stroke-linecap:round;stroke-linejoin:round;fill:#56B4E9;" />
      <path d="M26.6406,58.9193L24.3229,58.9193L24.3229,51.1068L17.1745,51.1068L17.1745,58.9193L14.8568,58.9193L14.8568,41.901L17.1745,41.901L17.1745,49.1016L24.3229,49.1016L24.3229,41.901L26.6406,41.901L26.6406,58.9193zM38.9583,64.2578L32.5391,64.2578L32.5391,40.0651L38.9583,40.0651L38.9583,41.888L34.7005,41.888L34.7005,62.4349L38.9583,62.4349L38.9583,64.2578zM53.9063,52.8906L46.1198,52.8906L46.1198,50.7552L53.9063,50.7552L53.9063,52.8906zM70.1172,53.75Q70.1172,54.8698 69.6615,55.8529Q69.2057,56.8359 68.2943,57.5716Q67.3828,58.3073 66.0026,58.7305Q64.6224,59.1536 62.7865,59.1536Q61.7708,59.1536 60.9635,59.0885Q60.1563,59.0234 59.4531,58.9193L59.4531,58.9193L59.4531,56.888Q60.2604,57.0313 61.1589,57.1094Q62.0573,57.1875 62.9948,57.1875Q64.2708,57.1875 65.1758,56.9596Q66.0807,56.7318 66.6536,56.3021Q67.2266,55.8724 67.487,55.2604Q67.7474,54.6484 67.7474,53.8802Q67.7474,53.1771 67.4349,52.6563Q67.1224,52.1354 66.556,51.7839Q65.9896,51.4323 65.2018,51.2565Q64.4141,51.0807 63.4766,51.0807L63.4766,51.0807L61.5365,51.0807L61.5365,49.2188L63.5026,49.2188Q64.2708,49.2188 64.9023,49.0169Q65.5339,48.8151 65.9831,48.4375Q66.4323,48.0599 66.6732,47.5065Q66.9141,46.9531 66.9141,46.25Q66.9141,44.8828 66.0807,44.2578Q65.2474,43.6328 63.6328,43.6328Q62.7734,43.6328 61.862,43.8021Q60.9505,43.9714 59.9089,44.3099L59.9089,44.3099L59.9089,42.3307Q60.3516,42.1745 60.8529,42.0508Q61.3542,41.9271 61.8555,41.8425Q62.3568,41.7578 62.8516,41.7122Q63.3464,41.6667 63.8021,41.6667Q65.1563,41.6667 66.1849,41.9596Q67.2135,42.2526 67.9036,42.7995Q68.5938,43.3464 68.9453,44.1276Q69.2969,44.9089 69.2969,45.8854Q69.2969,47.3438 68.5482,48.3333Q67.7995,49.3229 66.4974,49.9089Q67.1615,50.013 67.806,50.3255Q68.4505,50.638 68.9648,51.1263Q69.4792,51.6146 69.7982,52.2786Q70.1172,52.9427 70.1172,53.75zM82.1224,64.2578L75.7031,64.2578L75.7031,62.4349L79.9349,62.4349L79.9349,41.888L75.7031,41.888L75.7031,40.0651L82.1224,40.0651L82.1224,64.2578z" />
    </g>
    <path id="Connection" d="M450,650L450,600" style="stroke:#D55E00;stroke-linecap:round;stroke-linejoin:round;stroke-width:4;fill:none;" />
    <path d="M442.5,615L450,600L457.5,615L450,607.5z" style="stroke:#D55E00;stroke-linecap:round;stroke-linejoin:round;stroke-width:4;fill:#D55E00;" />
    <path id="Connection1" d="M450,500L250,450" style="stroke:#D55E00;stroke-linecap:round;stroke-linejoin:round;stroke-width:4;fill:none;" />
    <path d="M262.7331,460.9141L250,450L266.3712,446.362L257.2761,451.819z" style="stroke:#D55E00;stroke-linecap:round;stroke-linejoin:round;stroke-width:4;fill:#D55E00;" />
    <path id="Connection2" d="M450,500L650,450" style="stroke:#D55E00;stroke-linecap:round;stroke-linejoin:round;stroke-width:4;fill:none;" />
    <path d="M633.6288,446.362L650,450L637.2669,460.9141L642.7239,451.819z" style="stroke:#D55E00;stroke-linecap:round;stroke-linejoin:round;stroke-width:4;fill:#D55E00;" />
    <path id="Connection3" d="M450,750L450,800" style="stroke:#D55E00;stroke-linecap:round;stroke-linejoin:round;stroke-width:4;fill:none;" />
    <path d="M457.5,785L450,800L442.5,785L450,792.5z" style="stroke:#D55E00;stroke-linecap:round;stroke-linejoin:round;stroke-width:4;fill:#D55E00;" />
    <path id="Connection4" d="M450,900L250,950" style="stroke:#D55E00;stroke-linecap:round;stroke-linejoin:round;stroke-width:4;fill:none;" />
    <path d="M266.3712,953.638L250,950L262.7331,939.0859L257.2761,948.181z" style="stroke:#D55E00;stroke-linecap:round;stroke-linejoin:round;stroke-width:4;fill:#D55E00;" />
    <path id="Connection5" d="M450,900L650,950" style="stroke:#D55E00;stroke-linecap:round;stroke-linejoin:round;stroke-width:4;fill:none;" />
    <path d="M637.2669,939.0859L650,950L633.6288,953.638L642.7239,948.181z" style="stroke:#D55E00;stroke-linecap:round;stroke-linejoin:round;stroke-width:4;fill:#D55E00;" />
    <g id="Ellipse7" transform="matrix(1,0,0,1,100,200)">
      <ellipse cx="50" cy="50" rx="50" ry="50" style="stroke:#000000;stroke-linecap:round;stroke-linejoin:round;fill:#56B4E9;" />
      <path d="M33.9583,58.9193L31.6406,58.9193L31.6406,51.1068L24.4922,51.1068L24.4922,58.9193L22.1745,58.9193L22.1745,41.901L24.4922,41.901L24.4922,49.1016L31.6406,49.1016L31.6406,41.901L33.9583,41.901L33.9583,58.9193zM46.276,64.2578L39.8568,64.2578L39.8568,40.0651L46.276,40.0651L46.276,41.888L42.0182,41.888L42.0182,62.4349L46.276,62.4349L46.276,64.2578zM63.9714,55.1563L61.0677,55.1563L61.0677,58.9193L58.75,58.9193L58.75,55.1563L50.5599,55.1563L50.5599,53.1641L57.8125,41.901L61.0677,41.901L61.0677,53.1641L63.9714,53.1641L63.9714,55.1563zM58.75,44.0885L52.8255,53.1641L58.75,53.1641L58.75,44.0885zM74.8047,64.2578L68.3854,64.2578L68.3854,62.4349L72.6172,62.4349L72.6172,41.888L68.3854,41.888L68.3854,40.0651L74.8047,40.0651L74.8047,64.2578z" />
    </g>
    <g id="Ellipse8" transform="matrix(1,0,0,1,300,200)">
      <ellipse cx="50" cy="50" rx="50" ry="50" style="stroke:#000000;stroke-linecap:round;stroke-linejoin:round;fill:#56B4E9;" />
      <path d="M33.9583,58.9193L31.6406,58.9193L31.6406,51.1068L24.4922,51.1068L24.4922,58.9193L22.1745,58.9193L22.1745,41.901L24.4922,41.901L24.4922,49.1016L31.6406,49.1016L31.6406,41.901L33.9583,41.901L33.9583,58.9193zM46.276,64.2578L39.8568,64.2578L39.8568,40.0651L46.276,40.0651L46.276,41.888L42.0182,41.888L42.0182,62.4349L46.276,62.4349L46.276,64.2578zM62.6953,53.4766Q62.6953,54.7396 62.1484,55.7813Q61.6016,56.8229 60.6445,57.5716Q59.6875,58.3203 58.3854,58.737Q57.0833,59.1536 55.5729,59.1536Q55.1953,59.1536 54.7591,59.1341Q54.3229,59.1146 53.8932,59.082Q53.4635,59.0495 53.0534,59.0104Q52.6432,58.9714 52.3177,58.9193L52.3177,58.9193L52.3177,56.862Q53.0208,57.0313 53.9258,57.1094Q54.8307,57.1875 55.7552,57.1875Q56.7969,57.1875 57.6302,56.9401Q58.4635,56.6927 59.0495,56.2305Q59.6354,55.7682 59.9479,55.1107Q60.2604,54.4531 60.2604,53.6328Q60.2604,52.0443 59.1211,51.3216Q57.9818,50.599 55.8464,50.599L55.8464,50.599L52.6172,50.599L52.6172,41.901L61.7839,41.901L61.7839,43.8802L54.7526,43.8802L54.7526,48.6589L56.237,48.6589Q57.4609,48.6589 58.6198,48.8802Q59.7786,49.1016 60.6836,49.655Q61.5885,50.2083 62.1419,51.1393Q62.6953,52.0703 62.6953,53.4766zM74.8047,64.2578L68.3854,64.2578L68.3854,62.4349L72.6172,62.4349L72.6172,41.888L68.3854,41.888L68.3854,40.0651L74.8047,40.0651L74.8047,64.2578z" />
    </g>
    <g id="Ellipse9" transform="matrix(1,0,0,1,500,200)">
      <ellipse cx="50" cy="50" rx="50" ry="50" style="stroke:#000000;stroke-linecap:round;stroke-linejoin:round;fill:#56B4E9;" />
      <path d="M33.9583,58.9193L31.6406,58.9193L31.6406,51.1068L24.4922,51.1068L24.4922,58.9193L22.1745,58.9193L22.1745,41.901L24.4922,41.901L24.4922,49.1016L31.6406,49.1016L31.6406,41.901L33.9583,41.901L33.9583,58.9193zM46.276,64.2578L39.8568,64.2578L39.8568,40.0651L46.276,40.0651L46.276,41.888L42.0182,41.888L42.0182,62.4349L46.276,62.4349L46.276,64.2578zM63.3333,53.5286Q63.3333,54.7005 62.9102,55.7292Q62.487,56.7578 61.7057,57.5195Q60.9245,58.2813 59.8242,58.7175Q58.724,59.1536 57.3828,59.1536Q55.9766,59.1536 54.8958,58.7044Q53.8151,58.2552 53.0859,57.3242Q52.3568,56.3932 51.9792,54.974Q51.6016,53.5547 51.6016,51.6146Q51.6016,50.3125 51.7708,49.0885Q51.9401,47.8646 52.3307,46.7839Q52.7214,45.7031 53.3724,44.8047Q54.0234,43.9063 54.9935,43.2617Q55.9635,42.6172 57.2786,42.2591Q58.5938,41.901 60.3255,41.901L60.3255,41.901L62.0052,41.901L62.0052,43.8802L60.1823,43.8802Q58.6589,43.8802 57.5391,44.2448Q56.4193,44.6094 55.6641,45.2734Q54.9089,45.9375 54.5052,46.875Q54.1016,47.8125 53.9974,48.9714L53.9974,48.9714L53.9453,49.5052Q54.7656,49.0234 55.8398,48.7305Q56.9141,48.4375 58.1641,48.4375Q59.4531,48.4375 60.4232,48.8151Q61.3932,49.1927 62.0378,49.8633Q62.6823,50.5339 63.0078,51.4714Q63.3333,52.4089 63.3333,53.5286zM60.9635,53.6719Q60.9635,52.8906 60.7747,52.2591Q60.5859,51.6276 60.1823,51.1914Q59.7786,50.7552 59.1602,50.5143Q58.5417,50.2734 57.6823,50.2734Q57.1875,50.2734 56.6797,50.3646Q56.1719,50.4557 55.6836,50.6185Q55.1953,50.7813 54.7526,50.9896Q54.3099,51.1979 53.9453,51.4323Q53.9453,53.112 54.1797,54.2383Q54.4141,55.3646 54.8763,56.0417Q55.3385,56.7188 56.0156,57.0052Q56.6927,57.2917 57.5781,57.2917Q58.3203,57.2917 58.9388,57.0508Q59.5573,56.8099 60.0065,56.3411Q60.4557,55.8724 60.7096,55.2018Q60.9635,54.5313 60.9635,53.6719zM74.8047,64.2578L68.3854,64.2578L68.3854,62.4349L72.6172,62.4349L72.6172,41.888L68.3854,41.888L68.3854,40.0651L74.8047,40.0651L74.8047,64.2578z" />
    </g>
    <g id="Ellipse10" transform="matrix(1,0,0,1,700,200)">
      <ellipse cx="50" cy="50" rx="50" ry="50" style="stroke:#000000;stroke-linecap:round;stroke-linejoin:round;fill:#56B4E9;" />
      <path d="M33.9583,58.9193L31.6406,58.9193L31.6406,51.1068L24.4922,51.1068L24.4922,58.9193L22.1745,58.9193L22.1745,41.901L24.4922,41.901L24.4922,49.1016L31.6406,49.1016L31.6406,41.901L33.9583,41.901L33.9583,58.9193zM46.276,64.2578L39.8568,64.2578L39.8568,40.0651L46.276,40.0651L46.276,41.888L42.0182,41.888L42.0182,62.4349L46.276,62.4349L46.276,64.2578zM63.0339,44.0104L55.8984,58.9193L53.3073,58.9193L60.7161,44.0104L51.5234,44.0104L51.5234,41.901L63.0339,41.901L63.0339,44.0104zM74.8047,64.2578L68.3854,64.2578L68.3854,62.4349L72.6172,62.4349L72.6172,41.888L68.3854,41.888L68.3854,40.0651L74.8047,40.0651L74.8047,64.2578z" />
    </g>
    <g id="Ellipse11" transform="matrix(1,0,0,1,100,1100)">
      <ellipse cx="50" cy="50" rx="50" ry="50" style="stroke:#000000;stroke-linecap:round;stroke-linejoin:round;fill:#56B4E9;" />
      <path d="M26.6406,58.9193L24.3229,58.9193L24.3229,51.1068L17.1745,51.1068L17.1745,58.9193L14.8568,58.9193L14.8568,41.901L17.1745,41.901L17.1745,49.1016L24.3229,49.1016L24.3229,41.901L26.6406,41.901L26.6406,58.9193zM38.9583,64.2578L32.5391,64.2578L32.5391,40.0651L38.9583,40.0651L38.9583,41.888L34.7005,41.888L34.7005,62.4349L38.9583,62.4349L38.9583,64.2578zM53.9063,52.8906L46.1198,52.8906L46.1198,50.7552L53.9063,50.7552L53.9063,52.8906zM71.2891,55.1563L68.3854,55.1563L68.3854,58.9193L66.0677,58.9193L66.0677,55.1563L57.8776,55.1563L57.8776,53.1641L65.1302,41.901L68.3854,41.901L68.3854,53.1641L71.2891,53.1641L71.2891,55.1563zM66.0677,44.0885L60.1432,53.1641L66.0677,53.1641L66.0677,44.0885zM82.1224,64.2578L75.7031,64.2578L75.7031,62.4349L79.9349,62.4349L79.9349,41.888L75.7031,41.888L75.7031,40.0651L82.1224,40.0651L82.1224,64.2578z" />
    </g>
    <g id="Ellipse12" transform="matrix(1,0,0,1,300,1100)">
      <ellipse cx="50" cy="50" rx="50" ry="50" style="stroke:#000000;stroke-linecap:round;stroke-linejoin:round;fill:#56B4E9;" />
      <path d="M26.6406,58.9193L24.3229,58.9193L24.3229,51.1068L17.1745,51.1068L17.1745,58.9193L14.8568,58.9193L14.8568,41.901L17.1745,41.901L17.1745,49.1016L24.3229,49.1016L24.3229,41.901L26.6406,41.901L26.6406,58.9193zM38.9583,64.2578L32.5391,64.2578L32.5391,40.0651L38.9583,40.0651L38.9583,41.888L34.7005,41.888L34.7005,62.4349L38.9583,62.4349L38.9583,64.2578zM53.9063,52.8906L46.1198,52.8906L46.1198,50.7552L53.9063,50.7552L53.9063,52.8906zM70.013,53.4766Q70.013,54.7396 69.4661,55.7813Q68.9193,56.8229 67.9622,57.5716Q67.0052,58.3203 65.7031,58.737Q64.401,59.1536 62.8906,59.1536Q62.513,59.1536 62.0768,59.1341Q61.6406,59.1146 61.2109,59.082Q60.7813,59.0495 60.3711,59.0104Q59.9609,58.9714 59.6354,58.9193L59.6354,58.9193L59.6354,56.862Q60.3385,57.0313 61.2435,57.1094Q62.1484,57.1875 63.0729,57.1875Q64.1146,57.1875 64.9479,56.9401Q65.7813,56.6927 66.3672,56.2305Q66.9531,55.7682 67.2656,55.1107Q67.5781,54.4531 67.5781,53.6328Q67.5781,52.0443 66.4388,51.3216Q65.2995,50.599 63.1641,50.599L63.1641,50.599L59.9349,50.599L59.9349,41.901L69.1016,41.901L69.1016,43.8802L62.0703,43.8802L62.0703,48.6589L63.5547,48.6589Q64.7786,48.6589 65.9375,48.8802Q67.0964,49.1016 68.0013,49.655Q68.9063,50.2083 69.4596,51.1393Q70.013,52.0703 70.013,53.4766zM82.1224,64.2578L75.7031,64.2578L75.7031,62.4349L79.9349,62.4349L79.9349,41.888L75.7031,41.888L75.7031,40.0651L82.1224,40.0651L82.1224,64.2578z" />
    </g>
    <g id="Ellipse13" transform="matrix(1,0,0,1,500,1100)">
      <ellipse cx="50" cy="50" rx="50" ry="50" style="stroke:#000000;stroke-linecap:round;stroke-linejoin:round;fill:#56B4E9;" />
      <path d="M26.6406,58.9193L24.3229,58.9193L24.3229,51.1068L17.1745,51.1068L17.1745,58.9193L14.8568,58.9193L14.8568,41.901L17.1745,41.901L17.1745,49.1016L24.3229,49.1016L24.3229,41.901L26.6406,41.901L26.6406,58.9193zM38.9583,64.2578L32.5391,64.2578L32.5391,40.0651L38.9583,40.0651L38.9583,41.888L34.7005,41.888L34.7005,62.4349L38.9583,62.4349L38.9583,64.2578zM53.9063,52.8906L46.1198,52.8906L46.1198,50.7552L53.9063,50.7552L53.9063,52.8906zM70.651,53.5286Q70.651,54.7005 70.2279,55.7292Q69.8047,56.7578 69.0234,57.5195Q68.2422,58.2813 67.1419,58.7175Q66.0417,59.1536 64.7005,59.1536Q63.2943,59.1536 62.2135,58.7044Q61.1328,58.2552 60.4036,57.3242Q59.6745,56.3932 59.2969,54.974Q58.9193,53.5547 58.9193,51.6146Q58.9193,50.3125 59.0885,49.0885Q59.2578,47.8646 59.6484,46.7839Q60.0391,45.7031 60.6901,44.8047Q61.3411,43.9063 62.3112,43.2617Q63.2813,42.6172 64.5964,42.2591Q65.9115,41.901 67.6432,41.901L67.6432,41.901L69.3229,41.901L69.3229,43.8802L67.5,43.8802Q65.9766,43.8802 64.8568,44.2448Q63.737,44.6094 62.9818,45.2734Q62.2266,45.9375 61.8229,46.875Q61.4193,47.8125 61.3151,48.9714L61.3151,48.9714L61.263,49.5052Q62.0833,49.0234 63.1576,48.7305Q64.2318,48.4375 65.4818,48.4375Q66.7708,48.4375 67.7409,48.8151Q68.7109,49.1927 69.3555,49.8633Q70,50.5339 70.3255,51.4714Q70.651,52.4089 70.651,53.5286zM68.2813,53.6719Q68.2813,52.8906 68.0925,52.2591Q67.9036,51.6276 67.5,51.1914Q67.0964,50.7552 66.4779,50.5143Q65.8594,50.2734 65,50.2734Q64.5052,50.2734 63.9974,50.3646Q63.4896,50.4557 63.0013,50.6185Q62.513,50.7813 62.0703,50.9896Q61.6276,51.1979 61.263,51.4323Q61.263,53.112 61.4974,54.2383Q61.7318,55.3646 62.194,56.0417Q62.6563,56.7188 63.3333,57.0052Q64.0104,57.2917 64.8958,57.2917Q65.638,57.2917 66.2565,57.0508Q66.875,56.8099 67.3242,56.3411Q67.7734,55.8724 68.0273,55.2018Q68.2813,54.5313 68.2813,53.6719zM82.1224,64.2578L75.7031,64.2578L75.7031,62.4349L79.9349,62.4349L79.9349,41.888L75.7031,41.888L75.7031,40.0651L82.1224,40.0651L82.1224,64.2578z" />
    </g>
    <g id="Ellipse14" transform="matrix(1,0,0,1,700,1100)">
      <ellipse cx="50" cy="50" rx="50" ry="50" style="stroke:#000000;stroke-linecap:round;stroke-linejoin:round;fill:#56B4E9;" />
      <path d="M26.6406,58.9193L24.3229,58.9193L24.3229,51.1068L17.1745,51.1068L17.1745,58.9193L14.8568,58.9193L14.8568,41.901L17.1745,41.901L17.1745,49.1016L24.3229,49.1016L24.3229,41.901L26.6406,41.901L26.6406,58.9193zM38.9583,64.2578L32.5391,64.2578L32.5391,40.0651L38.9583,40.0651L38.9583,41.888L34.7005,41.888L34.7005,62.4349L38.9583,62.4349L38.9583,64.2578zM53.9063,52.8906L46.1198,52.8906L46.1198,50.7552L53.9063,50.7552L53.9063,52.8906zM70.3516,44.0104L63.2161,58.9193L60.625,58.9193L68.0339,44.0104L58.8411,44.0104L58.8411,41.901L70.3516,41.901L70.3516,44.0104zM82.1224,64.2578L75.7031,64.2578L75.7031,62.4349L79.9349,62.4349L79.9349,41.888L75.7031,41.888L75.7031,40.0651L82.1224,40.0651L82.1224,64.2578z" />
    </g>
    <g id="Ellipse15" transform="matrix(1,0,0,1,50,50)">
      <ellipse cx="50" cy="50" rx="50" ry="50" style="stroke:#000000;stroke-linecap:round;stroke-linejoin:round;fill:#56B4E9;" />
      <path d="M33.9583,58.9193L31.6406,58.9193L31.6406,51.1068L24.4922,51.1068L24.4922,58.9193L22.1745,58.9193L22.1745,41.901L24.4922,41.901L24.4922,49.1016L31.6406,49.1016L31.6406,41.901L33.9583,41.901L33.9583,58.9193zM46.276,64.2578L39.8568,64.2578L39.8568,40.0651L46.276,40.0651L46.276,41.888L42.0182,41.888L42.0182,62.4349L46.276,62.4349L46.276,64.2578zM63.125,54.6484Q63.125,55.7292 62.6823,56.569Q62.2396,57.4089 61.4453,57.9818Q60.651,58.5547 59.5703,58.8542Q58.4896,59.1536 57.2266,59.1536Q55.8333,59.1536 54.7721,58.8411Q53.7109,58.5286 52.9948,57.9688Q52.2786,57.4089 51.9141,56.6406Q51.5495,55.8724 51.5495,54.9479Q51.5495,53.3854 52.4219,52.2526Q53.2943,51.1198 55.1172,50.1953Q53.4505,49.349 52.6823,48.3138Q51.9141,47.2786 51.9141,45.9375Q51.9141,45.1172 52.2526,44.349Q52.5911,43.5807 53.2747,42.9818Q53.9583,42.3828 54.987,42.0247Q56.0156,41.6667 57.4089,41.6667Q58.724,41.6667 59.7201,41.9466Q60.7161,42.2266 61.3932,42.7474Q62.0703,43.2682 62.4089,44.0104Q62.7474,44.7526 62.7474,45.6641Q62.7474,47.1484 61.9206,48.1901Q61.0938,49.2318 59.5703,50.013Q60.3255,50.3906 60.9766,50.8464Q61.6276,51.3021 62.1094,51.862Q62.5911,52.4219 62.8581,53.112Q63.125,53.8021 63.125,54.6484zM60.4297,45.8464Q60.4297,44.6875 59.6159,44.1211Q58.8021,43.5547 57.3307,43.5547Q55.8724,43.5547 55.0586,44.1146Q54.2448,44.6745 54.2448,45.7943Q54.2448,46.3021 54.4401,46.7318Q54.6354,47.1615 55.0456,47.5391Q55.4557,47.9167 56.0677,48.2813Q56.6797,48.6458 57.526,49.0234Q58.9974,48.3333 59.7135,47.5846Q60.4297,46.8359 60.4297,45.8464zM60.6641,54.8177Q60.6641,54.3359 60.5078,53.8802Q60.3516,53.4245 59.9479,52.9818Q59.5443,52.5391 58.8672,52.0964Q58.1901,51.6536 57.1484,51.1849Q56.263,51.6146 55.6576,52.0378Q55.0521,52.4609 54.681,52.8971Q54.3099,53.3333 54.1536,53.8021Q53.9974,54.2708 53.9974,54.7917Q53.9974,55.3776 54.2513,55.8268Q54.5052,56.276 54.9479,56.5885Q55.3906,56.901 56.0026,57.0573Q56.6146,57.2135 57.3307,57.2135Q58.0208,57.2135 58.6328,57.0703Q59.2448,56.9271 59.694,56.6341Q60.1432,56.3411 60.4036,55.8919Q60.6641,55.4427 60.6641,54.8177zM74.8047,64.2578L68.3854,64.2578L68.3854,62.4349L72.6172,62.4349L72.6172,41.888L68.3854,41.888L68.3854,40.0651L74.8047,40.0651L74.8047,64.2578z" />
    </g>
    <g id="Ellipse16" transform="matrix(1,0,0,1,150,50)">
      <ellipse cx="50" cy="50" rx="50" ry="50" style="stroke:#000000;stroke-linecap:round;stroke-linejoin:round;fill:#56B4E9;" />
      <path d="M33.9583,58.9193L31.6406,58.9193L31.6406,51.1068L24.4922,51.1068L24.4922,58.9193L22.1745,58.9193L22.1745,41.901L24.4922,41.901L24.4922,49.1016L31.6406,49.1016L31.6406,41.901L33.9583,41.901L33.9583,58.9193zM46.276,64.2578L39.8568,64.2578L39.8568,40.0651L46.276,40.0651L46.276,41.888L42.0182,41.888L42.0182,62.4349L46.276,62.4349L46.276,64.2578zM63.0339,49.4531Q63.0339,51.9401 62.4349,53.7305Q61.8359,55.5208 60.6641,56.6732Q59.4922,57.8255 57.7604,58.3724Q56.0286,58.9193 53.763,58.9193L53.763,58.9193L52.3438,58.9193L52.3438,56.9401L53.9193,56.9401Q55.599,56.9401 56.8229,56.6016Q58.0469,56.263 58.8607,55.6055Q59.6745,54.9479 60.1042,54.0039Q60.5339,53.0599 60.638,51.849L60.638,51.849L60.6901,51.3151Q59.8698,51.7969 58.8021,52.0898Q57.7344,52.3828 56.4844,52.3828Q55.1953,52.3828 54.2188,52.0052Q53.2422,51.6276 52.5977,50.9505Q51.9531,50.2734 51.6276,49.3425Q51.3021,48.4115 51.3021,47.3177Q51.3021,46.1328 51.7318,45.1042Q52.1615,44.0755 52.9362,43.3138Q53.7109,42.5521 54.7917,42.1094Q55.8724,41.6667 57.1745,41.6667Q58.4375,41.6667 59.5117,42.0833Q60.5859,42.5 61.3672,43.431Q62.1484,44.362 62.5911,45.8464Q63.0339,47.3307 63.0339,49.4531zM57.0703,43.5286Q56.3411,43.5286 55.7227,43.7695Q55.1042,44.0104 54.6549,44.4727Q54.2057,44.9349 53.9453,45.612Q53.6849,46.2891 53.6849,47.1615Q53.6849,47.9557 53.8737,48.5807Q54.0625,49.2057 54.4596,49.6419Q54.8568,50.0781 55.4818,50.3125Q56.1068,50.5469 56.9661,50.5469Q57.4479,50.5469 57.9622,50.4557Q58.4766,50.3646 58.9648,50.2083Q59.4531,50.0521 59.8958,49.8438Q60.3385,49.6354 60.6901,49.401Q60.6901,47.7214 60.4427,46.5951Q60.1953,45.4688 59.7266,44.7852Q59.2578,44.1016 58.5872,43.8151Q57.9167,43.5286 57.0703,43.5286zM74.8047,64.2578L68.3854,64.2578L68.3854,62.4349L72.6172,62.4349L72.6172,41.888L68.3854,41.888L68.3854,40.0651L74.8047,40.0651L74.8047,64.2578z" />
    </g>
    <g id="Ellipse17" transform="matrix(1,0,0,1,250,50)">
      <ellipse cx="50" cy="50" rx="50" ry="50" style="stroke:#000000;stroke-linecap:round;stroke-linejoin:round;fill:#56B4E9;" />
      <path d="M26.6406,58.9193L24.3229,58.9193L24.3229,51.1068L17.1745,51.1068L17.1745,58.9193L14.8568,58.9193L14.8568,41.901L17.1745,41.901L17.1745,49.1016L24.3229,49.1016L24.3229,41.901L26.6406,41.901L26.6406,58.9193zM38.9583,64.2578L32.5391,64.2578L32.5391,40.0651L38.9583,40.0651L38.9583,41.888L34.7005,41.888L34.7005,62.4349L38.9583,62.4349L38.9583,64.2578zM55.6641,58.9193L44.974,58.9193L44.974,56.8099L49.349,56.8099L49.349,44.388L45.2734,46.6016L44.4401,44.6745L49.8568,41.8229L51.862,41.8229L51.862,56.8099L55.6641,56.8099L55.6641,58.9193zM70.8333,50.4167Q70.8333,52.3698 70.4427,53.9779Q70.0521,55.5859 69.2578,56.7383Q68.4635,57.8906 67.2852,58.5221Q66.1068,59.1536 64.5182,59.1536Q63.151,59.1536 62.0313,58.6393Q60.9115,58.125 60.1172,57.0573Q59.3229,55.9896 58.8932,54.3359Q58.4635,52.6823 58.4635,50.4167Q58.4635,48.4635 58.8607,46.849Q59.2578,45.2344 60.0456,44.082Q60.8333,42.9297 62.0182,42.2982Q63.2031,41.6667 64.7786,41.6667Q66.1458,41.6667 67.2656,42.181Q68.3854,42.6953 69.1797,43.7695Q69.974,44.8438 70.4036,46.4974Q70.8333,48.151 70.8333,50.4167zM68.5417,50.4948Q68.5417,50.0521 68.5091,49.6159Q68.4766,49.1797 68.4375,48.763L68.4375,48.763L61.237,54.1146Q61.4323,54.7917 61.7318,55.3646Q62.0313,55.9375 62.4544,56.3477Q62.8776,56.7578 63.418,56.9857Q63.9583,57.2135 64.6484,57.2135Q65.5339,57.2135 66.2565,56.7839Q66.9792,56.3542 67.487,55.5078Q67.9948,54.6615 68.2682,53.405Q68.5417,52.1484 68.5417,50.4948zM60.7552,50.3385Q60.7552,50.7422 60.7617,51.1458Q60.7682,51.5495 60.8073,51.9271L60.8073,51.9271L68.0078,46.6016Q67.8125,45.9375 67.513,45.3906Q67.2135,44.8438 66.7969,44.4466Q66.3802,44.0495 65.8464,43.8281Q65.3125,43.6068 64.6484,43.6068Q63.763,43.6068 63.0404,44.0365Q62.3177,44.4661 61.8099,45.319Q61.3021,46.1719 61.0286,47.4284Q60.7552,48.6849 60.7552,50.3385zM82.1224,64.2578L75.7031,64.2578L75.7031,62.4349L79.9349,62.4349L79.9349,41.888L75.7031,41.888L75.7031,40.0651L82.1224,40.0651L82.1224,64.2578z" />
    </g>
    <g id="Ellipse18" transform="matrix(1,0,0,1,50,1250)">
      <ellipse cx="50" cy="50" rx="50" ry="50" style="stroke:#000000;stroke-linecap:round;stroke-linejoin:round;fill:#56B4E9;" />
      <path d="M26.6406,58.9193L24.3229,58.9193L24.3229,51.1068L17.1745,51.1068L17.1745,58.9193L14.8568,58.9193L14.8568,41.901L17.1745,41.901L17.1745,49.1016L24.3229,49.1016L24.3229,41.901L26.6406,41.901L26.6406,58.9193zM38.9583,64.2578L32.5391,64.2578L32.5391,40.0651L38.9583,40.0651L38.9583,41.888L34.7005,41.888L34.7005,62.4349L38.9583,62.4349L38.9583,64.2578zM53.9063,52.8906L46.1198,52.8906L46.1198,50.7552L53.9063,50.7552L53.9063,52.8906zM70.4427,54.6484Q70.4427,55.7292 70,56.569Q69.5573,57.4089 68.763,57.9818Q67.9688,58.5547 66.888,58.8542Q65.8073,59.1536 64.5443,59.1536Q63.151,59.1536 62.0898,58.8411Q61.0286,58.5286 60.3125,57.9688Q59.5964,57.4089 59.2318,56.6406Q58.8672,55.8724 58.8672,54.9479Q58.8672,53.3854 59.7396,52.2526Q60.612,51.1198 62.4349,50.1953Q60.7682,49.349 60,48.3138Q59.2318,47.2786 59.2318,45.9375Q59.2318,45.1172 59.5703,44.349Q59.9089,43.5807 60.5924,42.9818Q61.276,42.3828 62.3047,42.0247Q63.3333,41.6667 64.7266,41.6667Q66.0417,41.6667 67.0378,41.9466Q68.0339,42.2266 68.7109,42.7474Q69.388,43.2682 69.7266,44.0104Q70.0651,44.7526 70.0651,45.6641Q70.0651,47.1484 69.2383,48.1901Q68.4115,49.2318 66.888,50.013Q67.6432,50.3906 68.2943,50.8464Q68.9453,51.3021 69.4271,51.862Q69.9089,52.4219 70.1758,53.112Q70.4427,53.8021 70.4427,54.6484zM67.7474,45.8464Q67.7474,44.6875 66.9336,44.1211Q66.1198,43.5547 64.6484,43.5547Q63.1901,43.5547 62.3763,44.1146Q61.5625,44.6745 61.5625,45.7943Q61.5625,46.3021 61.7578,46.7318Q61.9531,47.1615 62.3633,47.5391Q62.7734,47.9167 63.3854,48.2813Q63.9974,48.6458 64.8438,49.0234Q66.3151,48.3333 67.0313,47.5846Q67.7474,46.8359 67.7474,45.8464zM67.9818,54.8177Q67.9818,54.3359 67.8255,53.8802Q67.6693,53.4245 67.2656,52.9818Q66.862,52.5391 66.1849,52.0964Q65.5078,51.6536 64.4661,51.1849Q63.5807,51.6146 62.9753,52.0378Q62.3698,52.4609 61.9987,52.8971Q61.6276,53.3333 61.4714,53.8021Q61.3151,54.2708 61.3151,54.7917Q61.3151,55.3776 61.569,55.8268Q61.8229,56.276 62.2656,56.5885Q62.7083,56.901 63.3203,57.0573Q63.9323,57.2135 64.6484,57.2135Q65.3385,57.2135 65.9505,57.0703Q66.5625,56.9271 67.0117,56.6341Q67.4609,56.3411 67.7214,55.8919Q67.9818,55.4427 67.9818,54.8177zM82.1224,64.2578L75.7031,64.2578L75.7031,62.4349L79.9349,62.4349L79.9349,41.888L75.7031,41.888L75.7031,40.0651L82.1224,40.0651L82.1224,64.2578z" />
    </g>
    <g id="Ellipse19" transform="matrix(1,0,0,1,150,1250)">
      <ellipse cx="50" cy="50" rx="50" ry="50" style="stroke:#000000;stroke-linecap:round;stroke-linejoin:round;fill:#56B4E9;" />
      <path d="M26.6406,58.9193L24.3229,58.9193L24.3229,51.1068L17.1745,51.1068L17.1745,58.9193L14.8568,58.9193L14.8568,41.901L17.1745,41.901L17.1745,49.1016L24.3229,49.1016L24.3229,41.901L26.6406,41.901L26.6406,58.9193zM38.9583,64.2578L32.5391,64.2578L32.5391,40.0651L38.9583,40.0651L38.9583,41.888L34.7005,41.888L34.7005,62.4349L38.9583,62.4349L38.9583,64.2578zM53.9063,52.8906L46.1198,52.8906L46.1198,50.7552L53.9063,50.7552L53.9063,52.8906zM70.3516,49.4531Q70.3516,51.9401 69.7526,53.7305Q69.1536,55.5208 67.9818,56.6732Q66.8099,57.8255 65.0781,58.3724Q63.3464,58.9193 61.0807,58.9193L61.0807,58.9193L59.6615,58.9193L59.6615,56.9401L61.237,56.9401Q62.9167,56.9401 64.1406,56.6016Q65.3646,56.263 66.1784,55.6055Q66.9922,54.9479 67.4219,54.0039Q67.8516,53.0599 67.9557,51.849L67.9557,51.849L68.0078,51.3151Q67.1875,51.7969 66.1198,52.0898Q65.0521,52.3828 63.8021,52.3828Q62.513,52.3828 61.5365,52.0052Q60.5599,51.6276 59.9154,50.9505Q59.2708,50.2734 58.9453,49.3425Q58.6198,48.4115 58.6198,47.3177Q58.6198,46.1328 59.0495,45.1042Q59.4792,44.0755 60.2539,43.3138Q61.0286,42.5521 62.1094,42.1094Q63.1901,41.6667 64.4922,41.6667Q65.7552,41.6667 66.8294,42.0833Q67.9036,42.5 68.6849,43.431Q69.4661,44.362 69.9089,45.8464Q70.3516,47.3307 70.3516,49.4531zM64.388,43.5286Q63.6589,43.5286 63.0404,43.7695Q62.4219,44.0104 61.9727,44.4727Q61.5234,44.9349 61.263,45.612Q61.0026,46.2891 61.0026,47.1615Q61.0026,47.9557 61.1914,48.5807Q61.3802,49.2057 61.7773,49.6419Q62.1745,50.0781 62.7995,50.3125Q63.4245,50.5469 64.2839,50.5469Q64.7656,50.5469 65.28,50.4557Q65.7943,50.3646 66.2826,50.2083Q66.7708,50.0521 67.2135,49.8438Q67.6563,49.6354 68.0078,49.401Q68.0078,47.7214 67.7604,46.5951Q67.513,45.4688 67.0443,44.7852Q66.5755,44.1016 65.905,43.8151Q65.2344,43.5286 64.388,43.5286zM82.1224,64.2578L75.7031,64.2578L75.7031,62.4349L79.9349,62.4349L79.9349,41.888L75.7031,41.888L75.7031,40.0651L82.1224,40.0651L82.1224,64.2578z" />
    </g>
    <g id="Ellipse20" transform="matrix(1,0,0,1,250,1250)">
      <ellipse cx="50" cy="50" rx="50" ry="50" style="stroke:#000000;stroke-linecap:round;stroke-linejoin:round;fill:#56B4E9;" />
      <path d="M19.3229,58.9193L17.0052,58.9193L17.0052,51.1068L9.8568,51.1068L9.8568,58.9193L7.5391,58.9193L7.5391,41.901L9.8568,41.901L9.8568,49.1016L17.0052,49.1016L17.0052,41.901L19.3229,41.901L19.3229,58.9193zM31.6406,64.2578L25.2214,64.2578L25.2214,40.0651L31.6406,40.0651L31.6406,41.888L27.3828,41.888L27.3828,62.4349L31.6406,62.4349L31.6406,64.2578zM46.5885,52.8906L38.8021,52.8906L38.8021,50.7552L46.5885,50.7552L46.5885,52.8906zM62.9818,58.9193L52.2917,58.9193L52.2917,56.8099L56.6667,56.8099L56.6667,44.388L52.5911,46.6016L51.7578,44.6745L57.1745,41.8229L59.1797,41.8229L59.1797,56.8099L62.9818,56.8099L62.9818,58.9193zM78.151,50.4167Q78.151,52.3698 77.7604,53.9779Q77.3698,55.5859 76.5755,56.7383Q75.7813,57.8906 74.6029,58.5221Q73.4245,59.1536 71.8359,59.1536Q70.4688,59.1536 69.349,58.6393Q68.2292,58.125 67.4349,57.0573Q66.6406,55.9896 66.2109,54.3359Q65.7813,52.6823 65.7813,50.4167Q65.7813,48.4635 66.1784,46.849Q66.5755,45.2344 67.3633,44.082Q68.151,42.9297 69.3359,42.2982Q70.5208,41.6667 72.0964,41.6667Q73.4635,41.6667 74.5833,42.181Q75.7031,42.6953 76.4974,43.7695Q77.2917,44.8438 77.7214,46.4974Q78.151,48.151 78.151,50.4167zM75.8594,50.4948Q75.8594,50.0521 75.8268,49.6159Q75.7943,49.1797 75.7552,48.763L75.7552,48.763L68.5547,54.1146Q68.75,54.7917 69.0495,55.3646Q69.349,55.9375 69.7721,56.3477Q70.1953,56.7578 70.7357,56.9857Q71.276,57.2135 71.9661,57.2135Q72.8516,57.2135 73.5742,56.7839Q74.2969,56.3542 74.8047,55.5078Q75.3125,54.6615 75.5859,53.405Q75.8594,52.1484 75.8594,50.4948zM68.0729,50.3385Q68.0729,50.7422 68.0794,51.1458Q68.0859,51.5495 68.125,51.9271L68.125,51.9271L75.3255,46.6016Q75.1302,45.9375 74.8307,45.3906Q74.5313,44.8438 74.1146,44.4466Q73.6979,44.0495 73.1641,43.8281Q72.6302,43.6068 71.9661,43.6068Q71.0807,43.6068 70.3581,44.0365Q69.6354,44.4661 69.1276,45.319Q68.6198,46.1719 68.3464,47.4284Q68.0729,48.6849 68.0729,50.3385zM89.4401,64.2578L83.0208,64.2578L83.0208,62.4349L87.2526,62.4349L87.2526,41.888L83.0208,41.888L83.0208,40.0651L89.4401,40.0651L89.4401,64.2578z" />
    </g>
    <path id="Connection6" d="M250,1050L150,1100" style="stroke:#D55E00;stroke-linecap:round;stroke-linejoin:round;stroke-width:4;fill:none;" />
    <path d="M166.7705,1100L150,1100L160.0623,1086.5836L156.7082,1096.6459z" style="stroke:#D55E00;stroke-linecap:round;stroke-linejoin:round;stroke-width:4;fill:#D55E00;" />
    <path id="Connection7" d="M250,1050L350,1100" style="stroke:#D55E00;stroke-linecap:round;stroke-linejoin:round;stroke-width:4;fill:none;" />
    <path d="M339.9377,1086.5836L350,1100L333.2295,1100L343.2918,1096.6459z" style="stroke:#D55E00;stroke-linecap:round;stroke-linejoin:round;stroke-width:4;fill:#D55E00;" />
    <path id="Connection8" d="M150,1200L100,1250" style="stroke:#D55E00;stroke-linecap:round;stroke-linejoin:round;stroke-width:4;fill:none;" />
    <path d="M115.9099,1244.6967L100,1250L105.3033,1234.0901L105.3033,1244.6967z" style="stroke:#D55E00;stroke-linecap:round;stroke-linejoin:round;stroke-width:4;fill:#D55E00;" />
    <path id="Connection9" d="M150,1200L200,1250" style="stroke:#D55E00;stroke-linecap:round;stroke-linejoin:round;stroke-width:4;fill:none;" />
    <path d="M194.6967,1234.0901L200,1250L184.0901,1244.6967L194.6967,1244.6967z" style="stroke:#D55E00;stroke-linecap:round;stroke-linejoin:round;stroke-width:4;fill:#D55E00;" />
    <path id="Connection10" d="M350,1200L300,1250" style="stroke:#D55E00;stroke-linecap:round;stroke-linejoin:round;stroke-width:4;fill:none;" />
    <path d="M315.9099,1244.6967L300,1250L305.3033,1234.0901L305.3033,1244.6967z" style="stroke:#D55E00;stroke-linecap:round;stroke-linejoin:round;stroke-width:4;fill:#D55E00;" />
    <path id="Connection11" d="M650,1050L550,1100" style="stroke:#D55E00;stroke-linecap:round;stroke-linejoin:round;stroke-width:4;fill:none;" />
    <path d="M566.7705,1100L550,1100L560.0623,1086.5836L556.7082,1096.6459z" style="stroke:#D55E00;stroke-linecap:round;stroke-linejoin:round;stroke-width:4;fill:#D55E00;" />
    <path id="Connection12" d="M650,1050L750,1100" style="stroke:#D55E00;stroke-linecap:round;stroke-linejoin:round;stroke-width:4;fill:none;" />
    <path d="M739.9377,1086.5836L750,1100L733.2295,1100L743.2918,1096.6459z" style="stroke:#D55E00;stroke-linecap:round;stroke-linejoin:round;stroke-width:4;fill:#D55E00;" />
    <path id="Connection13" d="M250,350L150,300" style="stroke:#D55E00;stroke-linecap:round;stroke-linejoin:round;stroke-width:4;fill:none;" />
    <path d="M160.0623,313.4164L150,300L166.7705,300L156.7082,303.3541z" style="stroke:#D55E00;stroke-linecap:round;stroke-linejoin:round;stroke-width:4;fill:#D55E00;" />
    <path id="Connection14" d="M250,350L350,300" style="stroke:#D55E00;stroke-linecap:round;stroke-linejoin:round;stroke-width:4;fill:none;" />
    <path d="M333.2295,300L350,300L339.9377,313.4164L343.2918,303.3541z" style="stroke:#D55E00;stroke-linecap:round;stroke-linejoin:round;stroke-width:4;fill:#D55E00;" />
    <path id="Connection15" d="M650,350L750,300" style="stroke:#D55E00;stroke-linecap:round;stroke-linejoin:round;stroke-width:4;fill:none;" />
    <path d="M733.2295,300L750,300L739.9377,313.4164L743.2918,303.3541z" style="stroke:#D55E00;stroke-linecap:round;stroke-linejoin:round;stroke-width:4;fill:#D55E00;" />
    <path id="Connection16" d="M650,350L550,300" style="stroke:#D55E00;stroke-linecap:round;stroke-linejoin:round;stroke-width:4;fill:none;" />
    <path d="M560.0623,313.4164L550,300L566.7705,300L556.7082,303.3541z" style="stroke:#D55E00;stroke-linecap:round;stroke-linejoin:round;stroke-width:4;fill:#D55E00;" />
    <path id="Connection17" d="M150,200L100,150" style="stroke:#D55E00;stroke-linecap:round;stroke-linejoin:round;stroke-width:4;fill:none;" />
    <path d="M105.3033,165.9099L100,150L115.9099,155.3033L105.3033,155.3033z" style="stroke:#D55E00;stroke-linecap:round;stroke-linejoin:round;stroke-width:4;fill:#D55E00;" />
    <path id="Connection18" d="M150,200L200,150" style="stroke:#D55E00;stroke-linecap:round;stroke-linejoin:round;stroke-width:4;fill:none;" />
    <path d="M184.0901,155.3033L200,150L194.6967,165.9099L194.6967,155.3033z" style="stroke:#D55E00;stroke-linecap:round;stroke-linejoin:round;stroke-width:4;fill:#D55E00;" />
    <path id="Connection19" d="M350,200L300,150" style="stroke:#D55E00;stroke-linecap:round;stroke-linejoin:round;stroke-width:4;fill:none;" />
    <path d="M305.3033,165.9099L300,150L315.9099,155.3033L305.3033,155.3033z" style="stroke:#D55E00;stroke-linecap:round;stroke-linejoin:round;stroke-width:4;fill:#D55E00;" />
  </g>
</svg>