<?xml version="1.0" encoding="utf-8"?><svg version="1.1" id="Layer_1" xmlns="http://www.w3.org/2000/svg" xmlns:xlink="http://www.w3.org/1999/xlink" x="0px" y="0px" viewBox="0 0 122.88 94.79" style="enable-background:new 0 0 122.88 94.79" xml:space="preserve"><style type="text/css">.st0{fill-rule:evenodd;clip-rule:evenodd;}</style><g><path class="st0" d="M10.24,0h102.39c5.63,0,10.24,4.63,10.24,10.24v74.3c0,5.62-4.63,10.24-10.24,10.24H10.24 C4.63,94.79,0,90.18,0,84.54v-74.3C0,4.61,4.61,0,10.24,0L10.24,0z M61.25,21.68L54.1,73.04H32.71l-8.2-51.37h14.9 c1.68,14.17,2.91,26.15,3.67,35.94c0.76-9.9,1.53-18.69,2.32-26.37l0.94-9.58H61.25L61.25,21.68z M97.2,37.26H84.08v-3.8 c0-1.77-0.17-2.91-0.5-3.4c-0.33-0.49-0.88-0.73-1.66-0.73c-0.85,0-1.49,0.32-1.92,0.99c-0.44,0.65-0.65,1.63-0.65,2.97 c0,1.71,0.25,3,0.74,3.86c0.48,0.85,1.81,1.91,3.99,3.14c6.26,3.54,10.21,6.45,11.84,8.71c1.64,2.26,2.45,5.91,2.45,10.93 c0,3.66-0.46,6.35-1.36,8.1c-0.9,1.73-2.64,3.18-5.24,4.35c-2.59,1.18-5.6,1.76-9.04,1.76c-3.78,0-6.99-0.68-9.67-2.03 c-2.67-1.35-4.41-3.07-5.24-5.16c-0.82-2.1-1.24-5.08-1.24-8.92v-3.37h13.12v6.25c0,1.93,0.18,3.16,0.55,3.71 c0.37,0.55,1.02,0.82,1.96,0.82c0.94,0,1.64-0.35,2.1-1.05c0.46-0.69,0.69-1.73,0.69-3.1c0-3.02-0.43-5-1.31-5.92 c-0.9-0.93-3.1-2.49-6.6-4.68c-3.5-2.2-5.82-3.8-6.96-4.79c-1.13-1-2.08-2.37-2.83-4.12c-0.74-1.75-1.12-3.99-1.12-6.72 c0-3.93,0.53-6.81,1.59-8.63c1.06-1.82,2.77-3.24,5.14-4.26c2.37-1.03,5.22-1.54,8.57-1.54c3.66,0,6.78,0.56,9.36,1.68 c2.58,1.13,4.28,2.53,5.12,4.24c0.84,1.7,1.26,4.59,1.26,8.67V37.26L97.2,37.26z"/></g></svg>