<svg id="Layer_1" data-name="Layer 1" xmlns="http://www.w3.org/2000/svg" viewBox="0 0 1600 900"><defs><style>.cls-1{fill:#ccc;}.cls-1,.cls-2{stroke:#000;stroke-miterlimit:10;stroke-width:6px;}.cls-2{fill:none;}.cls-3{font-size:150.35px;font-family:Consolas;}</style></defs><rect class="cls-1" x="159.7" y="40" width="160.3" height="160"/><rect class="cls-1" x="320" y="40" width="160.3" height="160"/><rect class="cls-1" x="480.3" y="40" width="160.3" height="160"/><rect class="cls-1" x="640.3" y="40" width="160.3" height="160"/><rect class="cls-1" x="799.7" y="40" width="160.3" height="160"/><rect class="cls-1" x="959.7" y="40" width="160.3" height="160"/><rect class="cls-1" x="1120" y="40" width="160.3" height="160"/><rect class="cls-1" x="1280" y="40" width="160.3" height="160"/><rect class="cls-2" x="160.3" y="200" width="160.3" height="160"/><rect class="cls-2" x="320.3" y="200" width="160.3" height="160"/><rect class="cls-2" x="480.6" y="200" width="160.3" height="160"/><rect class="cls-2" x="640.6" y="200" width="160.3" height="160"/><rect class="cls-1" x="800" y="200" width="160.3" height="160"/><rect class="cls-1" x="960" y="200" width="160.3" height="160"/><rect class="cls-1" x="1120.3" y="200" width="160.3" height="160"/><rect class="cls-1" x="1280.3" y="200" width="160.3" height="160"/><rect class="cls-1" x="160.3" y="360" width="160.3" height="160"/><rect class="cls-1" x="320.3" y="360" width="160.3" height="160"/><rect class="cls-1" x="480.6" y="360" width="160.3" height="160"/><rect class="cls-1" x="640.6" y="360" width="160.3" height="160"/><rect class="cls-2" x="800" y="360" width="160.3" height="160"/><rect class="cls-2" x="960" y="360" width="160.3" height="160"/><rect class="cls-1" x="1120.3" y="360" width="160.3" height="160"/><rect class="cls-1" x="1280.3" y="360" width="160.3" height="160"/><rect class="cls-1" x="160.6" y="520" width="160.3" height="160"/><rect class="cls-1" x="320.6" y="520" width="160.3" height="160"/><rect class="cls-1" x="480.9" y="520" width="160.3" height="160"/><rect class="cls-1" x="640.9" y="520" width="160.3" height="160"/><rect class="cls-1" x="800.3" y="520" width="160.3" height="160"/><rect class="cls-1" x="960.3" y="520" width="160.3" height="160"/><rect class="cls-2" x="1120.6" y="520" width="160.3" height="160"/><rect class="cls-1" x="1280.6" y="520" width="160.3" height="160"/><rect class="cls-1" x="160.3" y="680" width="160.3" height="160"/><rect class="cls-1" x="320.3" y="680" width="160.3" height="160"/><rect class="cls-1" x="480.6" y="680" width="160.3" height="160"/><rect class="cls-1" x="640.6" y="680" width="160.3" height="160"/><rect class="cls-1" x="800" y="680" width="160.3" height="160"/><rect class="cls-1" x="960" y="680" width="160.3" height="160"/><rect class="cls-1" x="1120.3" y="680" width="160.3" height="160"/><rect class="cls-2" x="1280.3" y="680" width="160.3" height="160"/><text class="cls-3" transform="translate(198.32 160.59)">a</text><text class="cls-3" transform="translate(358.62 160.59)">a</text><text class="cls-3" transform="translate(518.92 160.59)">a</text><text class="cls-3" transform="translate(678.92 160.59)">a</text><text class="cls-3" transform="translate(838.32 160.59)">a</text><text class="cls-3" transform="translate(998.32 160.59)">a</text><text class="cls-3" transform="translate(1158.62 160.59)">a</text><text class="cls-3" transform="translate(1318.62 160.59)">a</text><text class="cls-3" transform="translate(838.62 320.59)">b</text><text class="cls-3" transform="translate(998.62 320.59)">b</text><text class="cls-3" transform="translate(1158.92 320.59)">b</text><text class="cls-3" transform="translate(1318.92 320.59)">b</text><text class="cls-3" transform="translate(198.92 480.59)">b</text><text class="cls-3" transform="translate(358.92 480.59)">b</text><text class="cls-3" transform="translate(519.22 480.59)">b</text><text class="cls-3" transform="translate(679.22 480.59)">b</text><text class="cls-3" transform="translate(1158.92 480.59)">c</text><text class="cls-3" transform="translate(1318.92 480.59)">c</text><text class="cls-3" transform="translate(199.22 640.59)">c</text><text class="cls-3" transform="translate(359.22 640.59)">c</text><text class="cls-3" transform="translate(519.52 640.59)">c</text><text class="cls-3" transform="translate(679.52 640.59)">c</text><text class="cls-3" transform="translate(838.92 640.59)">c</text><text class="cls-3" transform="translate(998.92 640.59)">c</text><text class="cls-3" transform="translate(1319.22 640.59)">d</text><text class="cls-3" transform="translate(198.92 800.59)">d</text><text class="cls-3" transform="translate(358.92 800.59)">d</text><text class="cls-3" transform="translate(519.22 800.59)">d</text><text class="cls-3" transform="translate(679.22 800.59)">d</text><text class="cls-3" transform="translate(838.62 800.59)">d</text><text class="cls-3" transform="translate(998.62 800.59)">d</text><text class="cls-3" transform="translate(1158.92 800.59)">d</text></svg>