<svg xmlns="http://www.w3.org/2000/svg" viewBox="0 0 1600 900"><defs><style>.cls-1,.cls-2,.cls-3,.cls-31,.cls-87,.cls-90,.cls-92,.cls-94{fill:none;}.cls-1{stroke:#e6e7f0;}.cls-1,.cls-2,.cls-3,.cls-90,.cls-91,.cls-92{stroke-miterlimit:10;}.cls-2{stroke:#f45f3b;}.cls-3{stroke:gray;}.cls-4{fill:gray;}.cls-5{font-size:27px;}.cls-32,.cls-45,.cls-5,.cls-88,.cls-89,.cls-91,.cls-93{fill:#4169e1;}.cls-32,.cls-45,.cls-5,.cls-64,.cls-93{font-family:SegoeScript, Segoe Script;}.cls-6{letter-spacing:0.41em;}.cls-7{letter-spacing:0.41em;}.cls-8{letter-spacing:-0.04em;}.cls-9{letter-spacing:-0.04em;}.cls-10{letter-spacing:0.03em;}.cls-11{letter-spacing:0.03em;}.cls-12{letter-spacing:1.04em;}.cls-13{letter-spacing:1.04em;}.cls-14{letter-spacing:1.35em;}.cls-15{letter-spacing:1.35em;}.cls-16{letter-spacing:1.88em;}.cls-17{letter-spacing:0.38em;}.cls-18{letter-spacing:0.02em;}.cls-19{letter-spacing:0.39em;}.cls-20{letter-spacing:-0.06em;}.cls-21{letter-spacing:0.47em;}.cls-22{letter-spacing:0.47em;}.cls-23{letter-spacing:0em;}.cls-24{letter-spacing:1.14em;}.cls-25{letter-spacing:0.68em;}.cls-26{letter-spacing:0.68em;}.cls-27{letter-spacing:0.18em;}.cls-28{letter-spacing:0em;}.cls-29{letter-spacing:0.39em;}.cls-30{letter-spacing:0.39em;}.cls-31{stroke:#b31b14;stroke-width:2px;}.cls-31,.cls-87,.cls-89,.cls-94{stroke-linecap:round;stroke-linejoin:round;}.cls-32{font-size:28px;}.cls-33{letter-spacing:0.1em;}.cls-34{letter-spacing:0.11em;}.cls-35{letter-spacing:0.14em;}.cls-36{letter-spacing:0.13em;}.cls-37{letter-spacing:0.18em;}.cls-38{letter-spacing:0.13em;}.cls-39{letter-spacing:0.14em;}.cls-40{letter-spacing:0.19em;}.cls-41{letter-spacing:0.14em;}.cls-42{letter-spacing:0.19em;}.cls-43{letter-spacing:0.15em;}.cls-44{letter-spacing:0.14em;}.cls-45,.cls-64{font-size:26px;}.cls-46{letter-spacing:0.03em;}.cls-47{letter-spacing:0.04em;}.cls-48{letter-spacing:0.14em;}.cls-49{letter-spacing:0.15em;}.cls-50{letter-spacing:0.08em;}.cls-51{letter-spacing:0.14em;}.cls-52{letter-spacing:0.11em;}.cls-53{letter-spacing:0.16em;}.cls-54{letter-spacing:0.15em;}.cls-55{letter-spacing:0.15em;}.cls-56{letter-spacing:0.15em;}.cls-57{letter-spacing:0.07em;}.cls-58{letter-spacing:0.14em;}.cls-59{letter-spacing:0.18em;}.cls-60{letter-spacing:0.14em;}.cls-61{letter-spacing:0.15em;}.cls-62{letter-spacing:0.14em;}.cls-63{letter-spacing:0.14em;}.cls-64{fill:#b31b14;}.cls-65{letter-spacing:1em;}.cls-66{letter-spacing:1em;}.cls-67{letter-spacing:0.07em;}.cls-68{letter-spacing:0.07em;}.cls-69{letter-spacing:0.68em;}.cls-70{letter-spacing:0.68em;}.cls-71{letter-spacing:0.05em;}.cls-72{letter-spacing:0.05em;}.cls-73{letter-spacing:1.04em;}.cls-74{letter-spacing:1.04em;}.cls-75{letter-spacing:0.36em;}.cls-76{letter-spacing:0.36em;}.cls-77{letter-spacing:0.36em;}.cls-78{letter-spacing:0.08em;}.cls-79{letter-spacing:0.08em;}.cls-80{letter-spacing:0.39em;}.cls-81{letter-spacing:0.39em;}.cls-82{letter-spacing:1.4em;}.cls-83{letter-spacing:1.4em;}.cls-84{letter-spacing:0.33em;}.cls-85{letter-spacing:0.33em;}.cls-86{letter-spacing:2.67em;}.cls-87,.cls-89,.cls-90,.cls-91,.cls-92,.cls-94{stroke:#4169e1;}.cls-92,.cls-94{stroke-width:3px;}.cls-93{font-size:39px;}</style></defs><g id="Lines"><line class="cls-1" x1="160" y1="40" x2="160" y2="840"/><line class="cls-1" x1="180" y1="40" x2="180" y2="840"/><line class="cls-1" x1="200" y1="40" x2="200" y2="840"/><line class="cls-1" x1="240" y1="40" x2="240" y2="840"/><line class="cls-1" x1="260" y1="40" x2="260" y2="840"/><line class="cls-1" x1="280" y1="40" x2="280" y2="840"/><line class="cls-1" x1="300" y1="40" x2="300" y2="840"/><line class="cls-1" x1="320" y1="40" x2="320" y2="840"/><line class="cls-1" x1="340" y1="40" x2="340" y2="840"/><line class="cls-1" x1="360" y1="40" x2="360" y2="840"/><line class="cls-1" x1="380" y1="40" x2="380" y2="840"/><line class="cls-1" x1="400" y1="40" x2="400" y2="840"/><line class="cls-1" x1="420" y1="40" x2="420" y2="840"/><line class="cls-1" x1="440" y1="40" x2="440" y2="840"/><line class="cls-1" x1="460" y1="40" x2="460" y2="840"/><line class="cls-1" x1="480" y1="40" x2="480" y2="840"/><line class="cls-1" x1="500" y1="40" x2="500" y2="840"/><line class="cls-1" x1="520" y1="40" x2="520" y2="840"/><line class="cls-1" x1="540" y1="40" x2="540" y2="840"/><line class="cls-1" x1="560" y1="40" x2="560" y2="840"/><line class="cls-1" x1="580" y1="40" x2="580" y2="840"/><line class="cls-1" x1="600" y1="40" x2="600" y2="840"/><line class="cls-1" x1="620" y1="40" x2="620" y2="840"/><line class="cls-1" x1="640" y1="40" x2="640" y2="840"/><line class="cls-1" x1="660" y1="40" x2="660" y2="840"/><line class="cls-1" x1="680" y1="40" x2="680" y2="840"/><line class="cls-1" x1="700" y1="40" x2="700" y2="840"/><line class="cls-1" x1="720" y1="40" x2="720" y2="840"/><line class="cls-1" x1="740" y1="40" x2="740" y2="840"/><line class="cls-1" x1="760" y1="40" x2="760" y2="840"/><line class="cls-1" x1="780" y1="40" x2="780" y2="840"/><line class="cls-1" x1="820" y1="40" x2="820" y2="840"/><line class="cls-1" x1="840" y1="40" x2="840" y2="840"/><line class="cls-1" x1="860" y1="40" x2="860" y2="840"/><line class="cls-1" x1="880" y1="40" x2="880" y2="840"/><line class="cls-1" x1="900" y1="40" x2="900" y2="840"/><line class="cls-1" x1="920" y1="40" x2="920" y2="840"/><line class="cls-1" x1="940" y1="40" x2="940" y2="840"/><line class="cls-1" x1="960" y1="40" x2="960" y2="840"/><line class="cls-1" x1="980" y1="40" x2="980" y2="840"/><line class="cls-1" x1="1000" y1="40" x2="1000" y2="840"/><line class="cls-1" x1="1020" y1="40" x2="1020" y2="840"/><line class="cls-1" x1="1040" y1="40" x2="1040" y2="840"/><line class="cls-1" x1="1060" y1="40" x2="1060" y2="840"/><line class="cls-1" x1="1080" y1="40" x2="1080" y2="840"/><line class="cls-1" x1="1100" y1="40" x2="1100" y2="840"/><line class="cls-1" x1="1120" y1="40" x2="1120" y2="840"/><line class="cls-1" x1="1140" y1="40" x2="1140" y2="840"/><line class="cls-1" x1="1160" y1="40" x2="1160" y2="840"/><line class="cls-1" x1="1180" y1="40" x2="1180" y2="840"/><line class="cls-1" x1="1200" y1="40" x2="1200" y2="840"/><line class="cls-1" x1="1220" y1="40" x2="1220" y2="840"/><line class="cls-1" x1="1240" y1="40" x2="1240" y2="840"/><line class="cls-1" x1="1260" y1="40" x2="1260" y2="840"/><line class="cls-1" x1="1280" y1="40" x2="1280" y2="840"/><line class="cls-1" x1="1300" y1="40" x2="1300" y2="840"/><line class="cls-1" x1="1320" y1="40" x2="1320" y2="840"/><line class="cls-1" x1="1340" y1="40" x2="1340" y2="840"/><line class="cls-1" x1="1360" y1="40" x2="1360" y2="840"/><line class="cls-1" x1="1400" y1="40" x2="1400" y2="840"/><line class="cls-1" x1="1420" y1="40" x2="1420" y2="840"/><line class="cls-1" x1="1440" y1="40" x2="1440" y2="840"/><line class="cls-1" x1="140" y1="60" x2="1460" y2="60"/><line class="cls-1" x1="140" y1="80" x2="1460" y2="80"/><line class="cls-1" x1="140" y1="100" x2="1460" y2="100"/><line class="cls-1" x1="140" y1="120" x2="1460" y2="120"/><line class="cls-1" x1="140" y1="140" x2="1460" y2="140"/><line class="cls-1" x1="140" y1="160" x2="1460" y2="160"/><line class="cls-1" x1="140" y1="180" x2="1460" y2="180"/><line class="cls-1" x1="140" y1="200" x2="1460" y2="200"/><line class="cls-1" x1="140" y1="220" x2="1460" y2="220"/><line class="cls-1" x1="140" y1="240" x2="1460" y2="240"/><line class="cls-1" x1="140" y1="260" x2="1460" y2="260"/><line class="cls-1" x1="140" y1="280" x2="1460" y2="280"/><line class="cls-1" x1="140" y1="300" x2="1460" y2="300"/><line class="cls-1" x1="140" y1="320" x2="1460" y2="320"/><line class="cls-1" x1="140" y1="340" x2="1460" y2="340"/><line class="cls-1" x1="140" y1="360" x2="1460" y2="360"/><line class="cls-1" x1="140" y1="380" x2="1460" y2="380"/><line class="cls-1" x1="140" y1="400" x2="1460" y2="400"/><line class="cls-1" x1="140" y1="420" x2="1460" y2="420"/><line class="cls-1" x1="140" y1="440" x2="1460" y2="440"/><line class="cls-1" x1="140" y1="460" x2="1460" y2="460"/><line class="cls-1" x1="140" y1="480" x2="1460" y2="480"/><line class="cls-1" x1="140" y1="500" x2="1460" y2="500"/><line class="cls-1" x1="140" y1="520" x2="1460" y2="520"/><line class="cls-1" x1="140" y1="540" x2="1460" y2="540"/><line class="cls-1" x1="140" y1="560" x2="1460" y2="560"/><line class="cls-1" x1="140" y1="580" x2="1460" y2="580"/><line class="cls-1" x1="140" y1="600" x2="1460" y2="600"/><line class="cls-1" x1="140" y1="620" x2="1460" y2="620"/><line class="cls-1" x1="140" y1="640" x2="1460" y2="640"/><line class="cls-1" x1="140" y1="660" x2="1460" y2="660"/><line class="cls-1" x1="140" y1="680" x2="1460" y2="680"/><line class="cls-1" x1="140" y1="700" x2="1460" y2="700"/><line class="cls-1" x1="140" y1="720" x2="1460" y2="720"/><line class="cls-1" x1="140" y1="740" x2="1460" y2="740"/><line class="cls-1" x1="140" y1="760" x2="1460" y2="760"/><line class="cls-1" x1="140" y1="780" x2="1460" y2="780"/><line class="cls-1" x1="140" y1="800" x2="1460" y2="800"/><line class="cls-1" x1="140" y1="820" x2="1460" y2="820"/><line class="cls-2" x1="220" y1="40" x2="220" y2="840"/><line class="cls-2" x1="1380" y1="40" x2="1380" y2="840"/><line class="cls-3" x1="800" y1="40" x2="800" y2="840"/></g><g id="Back"><path class="cls-4" d="M1448,41a11,11,0,0,1,11,11V828a11,11,0,0,1-11,11H152a11,11,0,0,1-11-11V52a11,11,0,0,1,11-11H1448m0-1H152a12,12,0,0,0-12,12V828a12,12,0,0,0,12,12H1448a12,12,0,0,0,12-12V52a12,12,0,0,0-12-12Z"/></g><g id="Text"><text class="cls-5" transform="translate(284 200.76)">Однажды<tspan class="cls-6" x="136.75" y="0"> </tspan><tspan x="158.6" y="0">утром</tspan><tspan class="cls-7" x="268.4" y="0"> </tspan><tspan x="290.25" y="0">мне</tspan><tspan class="cls-6" x="350.44" y="0"> </tspan><tspan x="372.29" y="0">пришло </tspan><tspan x="-44" y="32.4">сообщение</tspan><tspan class="cls-8" x="105.95" y="32.4"> </tspan><tspan x="115.66" y="32.4">от</tspan><tspan class="cls-8" x="159.06" y="32.4"> </tspan><tspan x="168.78" y="32.4">пользователя</tspan><tspan class="cls-9" x="378.13" y="32.4"> </tspan><tspan x="387.85" y="32.4">о</tspan><tspan class="cls-8" x="403.77" y="32.4"> </tspan><tspan x="413.48" y="32.4">том, </tspan><tspan x="-44" y="64.8">что</tspan><tspan class="cls-10" x="19.48" y="64.8"> </tspan><tspan x="31.03" y="64.8">у</tspan><tspan class="cls-11" x="49.68" y="64.8"> </tspan><tspan x="61.23" y="64.8">него</tspan><tspan class="cls-10" x="122.45" y="64.8"> </tspan><tspan x="134" y="64.8">всё</tspan><tspan class="cls-11" x="170.77" y="64.8"> </tspan><tspan x="182.31" y="64.8">тормозит.</tspan><tspan class="cls-10" x="359.26" y="64.8"> </tspan><tspan x="370.81" y="64.8">Он</tspan><tspan class="cls-11" x="412.19" y="64.8"> </tspan><tspan x="423.74" y="64.8">даже </tspan><tspan x="-44" y="97.2">репро</tspan><tspan class="cls-12" x="39.03" y="97.2"> </tspan><tspan x="77.88" y="97.2">выдал.</tspan><tspan class="cls-13" x="168.38" y="97.2"> </tspan><tspan x="207.23" y="97.2">Я</tspan><tspan class="cls-12" x="227.25" y="97.2"> </tspan><tspan x="266.09" y="97.2">всё</tspan><tspan class="cls-12" x="302.86" y="97.2"> </tspan><tspan x="341.71" y="97.2">воспрозвёл </tspan><tspan x="-44" y="129.6">локально и начал изучать.</tspan><tspan x="0" y="162">Чего я только не делал!</tspan><tspan x="0" y="194.4">Я</tspan><tspan class="cls-14" x="20.01" y="194.4"> </tspan><tspan x="67.18" y="194.4">посмотрел</tspan><tspan class="cls-15" x="239.25" y="194.4"> </tspan><tspan x="286.42" y="194.4">на</tspan><tspan class="cls-14" x="324.1" y="194.4"> </tspan><tspan x="371.27" y="194.4">недавние </tspan><tspan x="-44" y="226.8">коммиты</tspan><tspan class="cls-16" x="118.76" y="226.8"> </tspan><tspan x="180.23" y="226.8">и</tspan><tspan class="cls-16" x="200.8" y="226.8"> </tspan><tspan x="262.26" y="226.8">нашёл</tspan><tspan class="cls-16" x="359.18" y="226.8"> </tspan><tspan x="420.64" y="226.8">там </tspan><tspan x="-44" y="259.2">неоптимальный</tspan><tspan class="cls-17" x="212.72" y="259.2"> </tspan><tspan x="233.9" y="259.2">метод.</tspan><tspan class="cls-17" x="337.88" y="259.2"> </tspan><tspan x="359.05" y="259.2">Я</tspan><tspan class="cls-17" x="379.06" y="259.2"> </tspan><tspan x="400.23" y="259.2">его</tspan><tspan class="cls-17" x="441.78" y="259.2"> </tspan><tspan x="462.95" y="259.2">за </tspan><tspan x="-44" y="291.6">день</tspan><tspan class="cls-18" x="12.98" y="291.6"> </tspan><tspan x="24.41" y="291.6">переписал</tspan><tspan class="cls-18" x="177.21" y="291.6"> </tspan><tspan x="188.65" y="291.6">с</tspan><tspan class="cls-18" x="202.53" y="291.6"> </tspan><tspan x="213.96" y="291.6">O(N^2)</tspan><tspan class="cls-18" x="314.2" y="291.6"> </tspan><tspan x="325.63" y="291.6">на</tspan><tspan class="cls-18" x="363.31" y="291.6"> </tspan><tspan x="374.75" y="291.6">O(N),</tspan><tspan class="cls-18" x="448.96" y="291.6"> </tspan><tspan x="460.39" y="291.6">но </tspan><tspan x="-44" y="324">это</tspan><tspan class="cls-19" x="13.65" y="324"> </tspan><tspan x="35.09" y="324">не</tspan><tspan class="cls-19" x="65.4" y="324"> </tspan><tspan x="86.84" y="324">помогло,</tspan><tspan class="cls-19" x="229.21" y="324"> </tspan><tspan x="250.65" y="324">т.к.</tspan><tspan class="cls-19" x="310.26" y="324"> </tspan><tspan x="331.7" y="324">N</tspan><tspan class="cls-19" x="354.31" y="324"> </tspan><tspan x="375.75" y="324">было</tspan><tspan class="cls-19" x="444.25" y="324"> </tspan><tspan x="465.69" y="324">не </tspan><tspan x="-44" y="356.4">больше 1</tspan><tspan class="cls-20" x="87.45" y="356.4">0</tspan><tspan x="105.55" y="356.4">.</tspan><tspan x="0" y="388.8">Тогда</tspan><tspan class="cls-21" x="81.13" y="388.8"> </tspan><tspan x="104.61" y="388.8">я</tspan><tspan class="cls-22" x="125.1" y="388.8"> </tspan><tspan x="148.58" y="388.8">начал</tspan><tspan class="cls-21" x="244.07" y="388.8"> </tspan><tspan class="cls-23" x="267.55" y="388.8">читать</tspan><tspan class="cls-21" x="394.52" y="388.8"> </tspan><tspan x="418.01" y="388.8">логи. </tspan><tspan x="-44" y="421.2">Читал</tspan><tspan class="cls-24" x="63.78" y="421.2"> </tspan><tspan x="105.31" y="421.2">три</tspan><tspan class="cls-24" x="171.22" y="421.2"> </tspan><tspan x="212.76" y="421.2">дня,</tspan><tspan class="cls-24" x="275.45" y="421.2"> </tspan><tspan x="316.98" y="421.2">но</tspan><tspan class="cls-24" x="352.59" y="421.2"> </tspan><tspan x="394.13" y="421.2">ничего </tspan><tspan x="-44" y="453.6">интересного не нашёл.</tspan><tspan x="0" y="486">Потом</tspan><tspan class="cls-25" x="110.21" y="486"> </tspan><tspan x="139.48" y="486">я</tspan><tspan class="cls-26" x="159.96" y="486"> </tspan><tspan x="189.22" y="486">решил</tspan><tspan class="cls-25" x="286.89" y="486"> </tspan><tspan x="316.15" y="486">продвинуть </tspan><tspan x="-44" y="518.4">версию</tspan><tspan class="cls-27" x="53.51" y="518.4"> </tspan><tspan x="69.29" y="518.4">рантайма</tspan><tspan class="cls-27" x="238.75" y="518.4"> </tspan><tspan class="cls-28" x="254.54" y="518.4">(я</tspan><tspan class="cls-27" x="285.87" y="518.4"> </tspan><tspan x="301.66" y="518.4">читал,</tspan><tspan class="cls-27" x="416.74" y="518.4"> </tspan><tspan x="432.52" y="518.4">что </tspan><tspan x="-44" y="550.8">она</tspan><tspan class="cls-29" x="9.6" y="550.8"> </tspan><tspan x="31.02" y="550.8">должна</tspan><tspan class="cls-29" x="148" y="550.8"> </tspan><tspan x="169.41" y="550.8">быть</tspan><tspan class="cls-30" x="243.11" y="550.8"> </tspan><tspan x="264.52" y="550.8">быстрее).</tspan><tspan class="cls-29" x="394.44" y="550.8"> </tspan><tspan x="415.85" y="550.8">Но</tspan><tspan class="cls-29" x="454.02" y="550.8"> </tspan><tspan x="475.43" y="550.8">и </tspan><tspan x="-44" y="583.2">это не помогло!</tspan></text><line class="cls-31" x1="401" y1="123" x2="421" y2="143"/><text class="cls-32" transform="translate(327.38 101.14)"><tspan class="cls-33">С</tspan><tspan class="cls-34" x="24.96" y="0">о</tspan><tspan class="cls-35" x="44.49" y="0">ч</tspan><tspan class="cls-36" x="69.2" y="0">и</tspan><tspan class="cls-37" x="94.27" y="0">н</tspan><tspan class="cls-38" x="119.78" y="0">е</tspan><tspan class="cls-39" x="134.42" y="0">н</tspan><tspan class="cls-40" x="158.66" y="0">и</tspan><tspan x="185.36" y="0">е </tspan><tspan class="cls-41" x="207.57" y="0">н</tspan><tspan x="231.99" y="0">а </tspan><tspan class="cls-42" x="261.85" y="0">т</tspan><tspan class="cls-43" x="295.73" y="0">е</tspan><tspan class="cls-44" x="311.07" y="0">м</tspan><tspan x="345.89" y="0">у</tspan></text><text class="cls-45" transform="translate(231.64 139.58)"><tspan class="cls-46">“</tspan><tspan class="cls-47" x="15.88" y="0">К</tspan><tspan class="cls-48" x="36.32" y="0">а</tspan><tspan x="57.2" y="0">к я </tspan><tspan class="cls-49" x="115.61" y="0">о</tspan><tspan class="cls-50" x="134.74" y="0">б</tspan><tspan class="cls-51" x="148.69" y="0">л</tspan><tspan class="cls-52" x="171.44" y="0">о</tspan><tspan class="cls-53" x="189.66" y="0">ж</tspan><tspan class="cls-54" x="223.01" y="0">а</tspan><tspan class="cls-55" x="244.15" y="0">л</tspan><tspan class="cls-56" x="266.96" y="0">с</tspan><tspan x="284.3" y="0">я </tspan><tspan class="cls-57" x="314.42" y="0">э</tspan><tspan class="cls-58" x="329.89" y="0">т</tspan><tspan class="cls-56" x="359.97" y="0">и</tspan><tspan x="383.74" y="0">м </tspan><tspan class="cls-59" x="422.92" y="0">л</tspan><tspan class="cls-60" x="446.73" y="0">е</tspan><tspan class="cls-61" x="460.56" y="0">т</tspan><tspan class="cls-62" x="490.87" y="0">о</tspan><tspan class="cls-63" x="509.92" y="0">м</tspan><tspan x="542.25" y="0">”</tspan></text><text class="cls-64" transform="translate(408.31 124.14)">а</text><text class="cls-5" transform="translate(864 100.82)">Спустя<tspan class="cls-65" x="122.56" y="0"> </tspan><tspan x="160.29" y="0">месяц</tspan><tspan class="cls-66" x="256.02" y="0"> </tspan><tspan x="293.75" y="0">пользователь </tspan><tspan x="-44" y="32.4">отказался</tspan><tspan class="cls-67" x="123.13" y="32.4"> </tspan><tspan x="135.7" y="32.4">от</tspan><tspan class="cls-67" x="179.1" y="32.4"> </tspan><tspan x="191.67" y="32.4">нашего</tspan><tspan class="cls-68" x="299.77" y="32.4"> </tspan><tspan x="312.33" y="32.4">продукта</tspan><tspan class="cls-67" x="462.87" y="32.4"> </tspan><tspan x="475.44" y="32.4">и </tspan><tspan x="-44" y="64.8">потребовал деньги назад.</tspan><tspan x="0" y="97.2">Я</tspan><tspan class="cls-69" x="20.01" y="97.2"> </tspan><tspan x="49.16" y="97.2">пожаловался</tspan><tspan class="cls-69" x="254.2" y="97.2"> </tspan><tspan x="283.35" y="97.2">на</tspan><tspan class="cls-70" x="321.03" y="97.2"> </tspan><tspan x="350.17" y="97.2">проблему </tspan><tspan x="-44" y="129.6">тимлиду,</tspan><tspan class="cls-71" x="115.4" y="129.6"> </tspan><tspan x="127.44" y="129.6">он</tspan><tspan class="cls-71" x="163.04" y="129.6"> </tspan><tspan x="175.08" y="129.6">взял</tspan><tspan class="cls-72" x="242.62" y="129.6"> </tspan><tspan x="254.65" y="129.6">профайлер</tspan><tspan class="cls-71" x="418.31" y="129.6"> </tspan><tspan x="430.35" y="129.6">и</tspan><tspan class="cls-71" x="450.91" y="129.6"> </tspan><tspan x="462.95" y="129.6">за </tspan><tspan x="-44" y="162">две</tspan><tspan class="cls-73" x="-7.82" y="162"> </tspan><tspan x="30.95" y="162">минуты</tspan><tspan class="cls-74" x="167.66" y="162"> </tspan><tspan x="206.43" y="162">нашёл</tspan><tspan class="cls-73" x="303.34" y="162"> </tspan><tspan x="342.12" y="162">проблему: </tspan><tspan x="-44" y="194.4">тормозил</tspan><tspan class="cls-75" x="118.43" y="194.4"> </tspan><tspan x="138.84" y="194.4">запрос</tspan><tspan class="cls-76" x="240.31" y="194.4"> </tspan><tspan x="260.71" y="194.4">к</tspan><tspan class="cls-75" x="279.29" y="194.4"> </tspan><tspan x="299.69" y="194.4">базе.</tspan><tspan class="cls-77" x="362.54" y="194.4"> </tspan><tspan x="382.94" y="194.4">Ещё</tspan><tspan class="cls-75" x="442.54" y="194.4"> </tspan><tspan x="462.95" y="194.4">за </tspan><tspan x="-44" y="226.8">пять</tspan><tspan class="cls-78" x="38.09" y="226.8"> </tspan><tspan x="51.03" y="226.8">минут</tspan><tspan class="cls-79" x="167.3" y="226.8"> </tspan><tspan x="180.24" y="226.8">он</tspan><tspan class="cls-78" x="215.85" y="226.8"> </tspan><tspan x="228.79" y="226.8">переписал</tspan><tspan class="cls-78" x="381.58" y="226.8"> </tspan><tspan x="394.52" y="226.8">запрос </tspan><tspan x="-44" y="259.2">и всё починил.</tspan><tspan x="0" y="291.6">Мораль:</tspan><tspan class="cls-80" x="118.72" y="291.6"> </tspan><tspan x="139.96" y="291.6">в</tspan><tspan class="cls-81" x="152.22" y="291.6"> </tspan><tspan x="173.47" y="291.6">следующий</tspan><tspan class="cls-81" x="343.42" y="291.6"> </tspan><tspan x="364.66" y="291.6">раз</tspan><tspan class="cls-81" x="415.58" y="291.6"> </tspan><tspan x="436.82" y="291.6">при </tspan><tspan x="-44" y="324">появлении</tspan><tspan class="cls-82" x="116.6" y="324"> </tspan><tspan x="165.25" y="324">подобной</tspan><tspan class="cls-83" x="299.71" y="324"> </tspan><tspan x="348.36" y="324">проблемы </tspan><tspan x="-44" y="356.4">нужно</tspan><tspan class="cls-84" x="60.29" y="356.4"> </tspan><tspan x="80.02" y="356.4">сразу</tspan><tspan class="cls-84" x="163.48" y="356.4"> </tspan><tspan x="183.21" y="356.4">брать</tspan><tspan class="cls-84" x="272.31" y="356.4"> </tspan><tspan x="292.04" y="356.4">профайлер</tspan><tspan class="cls-85" x="455.7" y="356.4"> </tspan><tspan x="475.43" y="356.4">и </tspan><tspan x="-44" y="388.8">искать узкое место.</tspan><tspan x="0" y="421.2">Данный</tspan><tspan class="cls-86" x="120.83" y="421.2"> </tspan><tspan x="203.8" y="421.2">подход</tspan><tspan class="cls-86" x="301.25" y="421.2"> </tspan><tspan x="384.22" y="421.2">можно </tspan><tspan x="-44" y="453.6">иллюстрировать диаграммой:</tspan></text></g><g id="Cats"><path class="cls-87" d="M143.25,76.82c0,1.62,4,2.94,8.86,2.94a24.72,24.72,0,0,0,3.44-.23c0-.44,0-.89,0-1.34a30.91,30.91,0,0,1,.27-4,24.8,24.8,0,0,0-3.68-.26C147.22,73.89,143.25,75.2,143.25,76.82Z"/><path class="cls-87" d="M155.79,74.15c.72-5.39,2.82-9.64,5.07-11.33a14.86,14.86,0,0,1,2.76-2.27l.38-.24a9.66,9.66,0,0,1,3.77-2,21.07,21.07,0,0,1,5-.91l.44,0c.9-.09,1.82-.14,2.76-.14q.93,0,1.83.06a24.92,24.92,0,0,1,5,.85l.26-.48c1.55-2.81,3.25-4.89,3.85-4.73.61-.16,2.3,1.92,3.85,4.73.17.31.33.61.48.91l.43-.07c.69-.12,1.39-.2,2.11-.26q.79-.07,1.62-.09t1.86,0c.47,0,.95,0,1.42.07.68,0,1.35.11,2,.19l.05-.08L201,58c1.55-2.81,3.25-4.89,3.85-4.73.61-.16,2.3,1.92,3.85,4.73.47.85.87,1.66,1.19,2.4,1.92,3.17,3.22,9,3.22,15.57,0,8-1.88,14.76-4.49,17.18h.06l-.14.09a3.43,3.43,0,0,1-1.52.83,10.07,10.07,0,0,1-2.41.69c-.06,1.63-1,4.93-2,4.93s-1.87-3.14-2-4.63c-3.33.34-6.66.58-10,.74-.3,1.16-1,4-1.91,4S187,97,186.72,95.93q-3.85.1-7.74,0c-.28,1.19-1,4-1.92,4s-1.67-2.89-1.94-4.12c-3.23-.1-6.47-.29-9.72-.55-.24,1.3-1,4.25-2,4.25-1.13,0-2.05-3.38-2.05-5.09a2.71,2.71,0,0,1,0-.29c-2.82-1.64-5.54-7.56-5.85-14.67,0-.44,0-.89,0-1.34A30.91,30.91,0,0,1,155.79,74.15Z"/><ellipse class="cls-87" cx="204.01" cy="66.85" rx="4.99" ry="5.24"/><ellipse class="cls-87" cx="186.06" cy="67.35" rx="4.99" ry="5.24"/><path class="cls-87" d="M196.71,74.2s-.17,1.24-.88,1.24-1.59-1.42-1.59-2.83"/><path class="cls-87" d="M191.77,74.2s.17,1.24.88,1.24,1.59-1.42,1.59-2.83"/><line class="cls-87" x1="217.8" y1="62.46" x2="211.93" y2="63.47"/><line class="cls-87" x1="217.52" y1="66.98" x2="212.34" y2="67.47"/><line class="cls-87" x1="218.03" y1="71.11" x2="213.31" y2="70.19"/><line class="cls-87" x1="177.86" y1="64.55" x2="172.66" y2="63.25"/><line class="cls-87" x1="177.86" y1="67.8" x2="172.5" y2="67.96"/><line class="cls-87" x1="178.19" y1="71.38" x2="173.64" y2="73"/><line class="cls-87" x1="153.42" y1="73.89" x2="153.42" y2="79.55"/><line class="cls-87" x1="151.12" y1="73.99" x2="151.12" y2="79.65"/><line class="cls-87" x1="147.97" y1="74.31" x2="147.97" y2="79.34"/><line class="cls-87" x1="145.77" y1="74.73" x2="145.77" y2="78.81"/><circle class="cls-88" cx="205.58" cy="68.43" r="1.42"/><circle class="cls-88" cx="187.93" cy="69.21" r="1.42"/><ellipse class="cls-89" cx="167.52" cy="562.95" rx="1.34" ry="2.53" transform="translate(-321.3 237.32) rotate(-39.76)"/><ellipse class="cls-89" cx="182.84" cy="564.16" rx="3.22" ry="2.53" transform="translate(-318.53 247.4) rotate(-39.76)"/><ellipse class="cls-89" cx="187.04" cy="549.49" rx="1.34" ry="2.53" transform="translate(-308.18 246.7) rotate(-39.76)"/><line class="cls-87" x1="183.28" y1="564.69" x2="193.04" y2="576.27"/><line class="cls-87" x1="147.74" y1="578.2" x2="174.48" y2="569.22"/><line class="cls-87" x1="156.95" y1="585.9" x2="176.47" y2="572.45"/><line class="cls-87" x1="159.9" y1="591.13" x2="177.71" y2="575.61"/><line class="cls-87" x1="207.53" y1="535.87" x2="190.5" y2="558.36"/><line class="cls-87" x1="211.9" y1="547.04" x2="192.93" y2="561.27"/><line class="cls-87" x1="215.92" y1="551.5" x2="195.54" y2="563.45"/><path class="cls-87" d="M159.92,557.31c1.22-1,.87-4.48-.86-8.16-1.37-2.91-5.81-5.86-6-5.78-.59.27-2.35,6.2-2.83,9-.9,5.25-.69,9.68.48,9.88"/><path class="cls-87" d="M185,539.28c-1.16,1-4.56,0-7.87-2.33-2.62-1.88-4.71-6.78-4.6-6.93.38-.53,6.53-1.18,9.34-1.15,5.34.07,9.65,1.08,9.64,2.27"/><path class="cls-87" d="M195.18,566a8.55,8.55,0,0,1-12.81,10.8"/><circle class="cls-90" cx="1413.54" cy="269.09" r="0.05"/><path class="cls-90" d="M1454.68,253.57h0c.06-.09-.06-.31-.32-.62a4.48,4.48,0,0,0-1.1-1.13c-.44-.39-1-.84-1.51-1.29a10.58,10.58,0,0,0-3-2.14c-.7-.41-1.19-.63-1.35-.56a11.35,11.35,0,0,0-2.09-.55,64.7,64.7,0,0,0,3-6.12c3.43-7.88,2-8.38.26-9.13s-3.11-1.48-6.53,6.4c-1.4,3.31-3.17,5.74-5.57,6.65a145.68,145.68,0,0,0-14.58-.13,11.86,11.86,0,0,0,1.8-6.58c0-4.05-5.36-10.91-6.32-10.91-1.31,0-3.15,4.63-3.31,4.92-1.93-1-5-1.21-8.36-.49a15.11,15.11,0,0,0-6.49,3c-.8-2.19-5.44-6.24-6.41-6a1.89,1.89,0,0,0-1,.76,6.64,6.64,0,0,0-1.9,4,17,17,0,0,0,1.17,7.11c1.18,3.27,2.92,5.85,4.5,6.92.75.69,1.53,1.36,2.33,2-2.17,1.56-3.24,3.76-2.4,5.06s3.57,1.22,6-.34l.38-.27a13.63,13.63,0,0,1,1.68.52c-1.28,2.2-2.8,4.69-2.86,6.29h.06a1.73,1.73,0,0,0,.12.78c.57,1.41,3,1.83,5.79,1.16l-.22.13c12.94-6.28,26.89-6.07,41.52-1.42l-.75-.27c1.87.37,3.36.16,3.66-.63.39-1-1.26-2.6-3.76-3.69,4.11.15,7.34-.94,7.57-2.71A1.82,1.82,0,0,0,1454.68,253.57Zm-10.9,6.67.42,0,.64.29C1444.49,260.41,1444.14,260.33,1443.78,260.24Z"/><ellipse class="cls-88" cx="1399.37" cy="239.13" rx="1.24" ry="1.12"/><ellipse class="cls-88" cx="1415.42" cy="238.05" rx="1.24" ry="1.12"/><path class="cls-90" d="M1403.47,241.14a2.44,2.44,0,0,0,3.31-.82c.4-.9.46-1.57-.55-2.25"/><path class="cls-90" d="M1410.8,241.12c-1.37.6-2.85.23-3.31-.82s-.53-1.54.48-2.22"/><line class="cls-90" x1="1423.71" y1="237.19" x2="1428.48" y2="236.85"/><line class="cls-90" x1="1423.71" y1="239.37" x2="1426.5" y2="239.85"/><line class="cls-90" x1="1391.89" y1="243.12" x2="1387.19" y2="243.94"/><line class="cls-90" x1="1392.91" y1="244.62" x2="1388.62" y2="247.34"/><path class="cls-87" d="M1444,807.81a6.11,6.11,0,0,1,.07.86,5.09,5.09,0,0,1-9.86,1.8,103.51,103.51,0,0,1-28.42,0,5.09,5.09,0,0,1-9.86-1.8,6.11,6.11,0,0,1,.07-.86c-7.43-2.54-13.74-13.79-13.74-29.24a58.36,58.36,0,0,1,2-15.3l-.26,0c6.23-17.17,13.35-32.17,22.57-43.19,0,0,1.16-.85,7.11,6.92,1.17,0,2.79.06,5,.06h2.44c2.26,0,3.88,0,5-.06,6-7.77,7.11-6.92,7.11-6.92,9.22,11,16.34,26,22.57,43.19l-.27,0a57.94,57.94,0,0,1,2.06,15.3C1457.74,794,1451.43,805.27,1444,807.81Z"/><path class="cls-87" d="M1402.46,757c.16,4.36,2.28,10.67,4.87,10.67s4.72-6.31,4.88-10.67"/><path class="cls-87" d="M1387.73,735.14a19,19,0,0,1,11.66,2.25"/><path class="cls-87" d="M1389.35,729.13c1.08-1.54,11.7,3.79,10.85,5.3"/><ellipse class="cls-90" cx="1407.96" cy="737.39" rx="5.17" ry="5.07"/><path class="cls-87" d="M1437.06,757c-.16,4.36-2.28,10.67-4.87,10.67s-4.72-6.31-4.88-10.67"/><path class="cls-87" d="M1451.79,735.14a19,19,0,0,0-11.66,2.25"/><path class="cls-87" d="M1450.17,729.13c-1.08-1.54-11.69,3.79-10.85,5.3"/><ellipse class="cls-90" cx="1430.65" cy="736.89" rx="5.17" ry="5.07"/><path class="cls-88" d="M1425.83,743.24a.33.33,0,0,0-.42-.12l-1.93.91a2.87,2.87,0,0,1-2.85-.88,5.15,5.15,0,0,1-.71-1.61,5.56,5.56,0,0,0-.1-1.9.27.27,0,0,0-.16-.12v0h-.1v0a.27.27,0,0,0-.16.12,5.38,5.38,0,0,0-.09,1.9,5.38,5.38,0,0,1-.72,1.61,2.87,2.87,0,0,1-2.85.88l-1.93-.91a.33.33,0,0,0-.42.12.33.33,0,0,0,.08.42,5.18,5.18,0,0,0,1,.63c.08,2.2,2.2,5.45,4.82,5.45l.33,0,.33,0c2.62,0,4.74-3.25,4.82-5.45a5.58,5.58,0,0,0,1-.63A.33.33,0,0,0,1425.83,743.24Zm-5.89,5.85-.28,0h-.1l-.28,0c-1.9,0-3.63-2.73-4.12-4.54h0a.9.9,0,0,0,.35.09h.11c1,.07,3.09-.21,3.45-1.13.12-.3.35-.57.5-.91.15.34.38.61.5.91.36.92,2.47,1.2,3.45,1.13h.11a.9.9,0,0,0,.35-.09h0C1423.57,746.36,1421.84,749.09,1419.94,749.09Z"/><circle class="cls-91" cx="1405.52" cy="736.19" r="0.93"/><circle class="cls-91" cx="1428.13" cy="735.25" r="0.82"/></g><g id="Bottle"><path class="cls-92" d="M1339.56,721.8v92.93a2.57,2.57,0,0,1-2.57,2.56h-54a2.57,2.57,0,0,1-2.57-2.56V721.8c2.07-15.42,6.56-30.79,15.84-46.09a56.63,56.63,0,0,0,2.61-9.41A93.61,93.61,0,0,0,1300.4,652c.28-6,.2-12.27-.14-18.81H1320a159.32,159.32,0,0,0-.48,17.6q0,.43,0,.87a94.15,94.15,0,0,0,1.52,14.66,56.63,56.63,0,0,0,2.61,9.41C1333,691,1337.49,706.38,1339.56,721.8Z"/><path class="cls-92" d="M1319.56,650.77c-.15-5.55,0-11.44.48-17.6"/><path class="cls-92" d="M1321.11,666.3a105.38,105.38,0,0,1-1.52-14.66"/><path class="cls-92" d="M1298.89,666.3A113.28,113.28,0,0,0,1300.4,652a175.26,175.26,0,0,0-.44-18.81"/><rect class="cls-92" x="1297.7" y="622.71" width="24.32" height="10.47" rx="5.23"/><text class="cls-93" transform="translate(910.38 700)">Bottleneck</text><path class="cls-94" d="M1039.85,659.91c58.29-64.22,132.58-84.67,230.64-40.07"/><path class="cls-88" d="M1269.38,619.35c-1.5-4.17-.23-10.41,1.49-14.36,1.44,7,4.36,14,9.28,19.41-7.27-.42-14.37,2.15-20.86,5.28C1261.58,625.67,1265,621.08,1269.38,619.35Z"/></g></svg>