<?xml version="1.0"?><svg fill="#000000" xmlns="http://www.w3.org/2000/svg"  viewBox="0 0 32 32" width="32px" height="32px">    <path d="M 13 4 C 10.97 4 9.4052969 5.7677656 9.4042969 9.0097656 C 9.4042969 11.126766 12.608219 16.5575 15.449219 21.3125 C 15.449219 9.0005 15.146 7.667 13 4 z M 19 4 C 16.812 7.604 16.550781 8.9995 16.550781 21.3125 C 19.391781 16.5575 22.595703 11.126766 22.595703 9.0097656 C 22.594703 5.7667656 21.03 4 19 4 z M 6 8 C 3.021 10.079 4.0009062 15.000422 5.5039062 16.607422 C 6.4969063 17.647422 10.35 19.52 14 22 L 6 8 z M 26 8 L 18 22 C 21.65 19.52 25.503094 17.647422 26.496094 16.607422 C 27.999094 15.000422 28.979 10.079 26 8 z M 2 16 C 2.048 21.542 5.4307969 23 7.7167969 23 L 13.431641 23 L 2 16 z M 30 16 L 18.568359 23 L 24.283203 23 C 26.569203 23 29.952 21.542 30 16 z M 5.1171875 24 C 5.4361875 25.654 6.1573281 27 8.2363281 27 C 10.315328 27 12.325641 25.8 13.431641 24 L 5.1171875 24 z M 18.568359 24 C 19.674359 25.8 21.684672 27 23.763672 27 C 25.842672 27 26.563813 25.654 26.882812 24 L 18.568359 24 z" style="fill:#007bff" /></svg>