<svg id="Slide2" xmlns="http://www.w3.org/2000/svg" viewBox="0 0 1600 900"><defs><style>.cls-1,.cls-3,.cls-6,.cls-9{fill:#fff;}.cls-10,.cls-2,.cls-4,.cls-5,.cls-8{fill:none;}.cls-10,.cls-2,.cls-3,.cls-4,.cls-5,.cls-6,.cls-7,.cls-8,.cls-9{stroke:#000;}.cls-10,.cls-2,.cls-3,.cls-5,.cls-8,.cls-9{stroke-linecap:round;}.cls-10,.cls-2,.cls-3,.cls-4,.cls-5,.cls-9{stroke-linejoin:round;}.cls-2,.cls-3,.cls-8{stroke-width:7px;}.cls-4{stroke-width:5px;}.cls-5{stroke-width:3px;}.cls-6,.cls-7,.cls-8{stroke-miterlimit:10;}.cls-9{stroke-width:4px;}.cls-10{stroke-width:2.5px;}</style></defs><g id="Man_1" data-name="Man 1"><path id="BackFill" class="cls-1" d="M381.38,462.49c-5.15,6.78-5.59,8.25-3.23,10.31s10.6,2.06,17.08,2.95c-2.21,7.95-7.37,16.63-13,19.43s-11.6,2.8-19.4,2.65l-.53-.09c-2.51,48.5-8.25,98.11-12.33,140,0,0-10.71,3-129.71,2l12.62-138.61a26.32,26.32,0,0,1-3,2.77c-10,4.19-15.46,5.59-27.2-8.51-1.08-1.16-1.56-4.62-.08-5.19,3.59-1.38,7-1.6,9.06-3.68,1.23-1.25,1.17-4.1-.33-5-14.27-8.61-52.15-27.11-62.36-44.95-4.86-9.13-17.23-23.41,17.67-48.59C204,358.1,238.71,356,247,349.42c2.5-10.9-8.1-41.38-10.31-49.77s-3.24-29.89,2.13-42.55,20.47-22.16,35.86-22.24,29.74,7.07,37,12.74,28.71,27.89,28.05,34.38c-8.32,2-6.34,1.47-17.38,3.09-1.32,13.69-7.8,48.88-9.72,58.46,10.9,4.27,50.07,25.76,57.43,32.68s29,38.14,27.83,50.36S386.54,455.72,381.38,462.49Z"/><path id="Legs" class="cls-2" d="M361.13,405.24c6.54,71.7-4.84,162.7-11.63,232.26,0,0-10.7,3-129.7,2l13.69-150.46"/><path id="LegsDivider" class="cls-3" d="M307.55,530,307,638.68"/><g id="Hammer"><path class="cls-4" d="M268.28,483.37,231,446.14c10.58-.21,18.6,2.67,26.91,7.17,7.8,4.22,14.24,11.36,21.41,19Z"/><rect class="cls-4" x="182.69" y="488.35" width="81.07" height="14.6" transform="translate(-285.1 303.02) rotate(-45)"/></g><path id="Body" class="cls-2" d="M231.1,474.29c11.67,13.44,5.08,24.07-1.66,29.41-10,4.2-15.46,5.6-27.2-8.5-1.08-1.16-1.55-4.62-.07-5.19,3.59-1.38,7-1.61,9.05-3.68,1.24-1.25,1.18-4.1-.33-5-14.26-8.6-52.14-27.1-62.35-44.94-4.86-9.13-17.23-23.41,17.67-48.59,37.25-29.89,72-32,80.24-38.58,2.5-10.89-8.1-41.37-10.31-49.77s-3.24-29.89,2.14-42.55,20.47-22.16,35.85-22.23,29.74,7.07,37,12.74,28.72,27.89,28,34.38c-8.32,2-6.33,1.47-17.37,3.09-1.33,13.69-7.81,48.88-9.72,58.45,10.9,4.27,50.06,25.77,57.42,32.69s29,38.13,27.83,50.35S386,455.52,380.88,462.29s-5.6,8.25-3.24,10.31,10.6,2.06,17.08,2.94c-2.21,7.95-7.36,16.64-13,19.44s-11.59,2.8-19.4,2.65"/><path class="cls-3" d="M210.89,481.32c1.51.91,1.57,3.76.33,5-2,2.07-5.46,2.3-9.05,3.68-1.48.57-1,4,.07,5.19,11.74,14.1,17.23,12.7,27.2,8.5,6.74-5.34,13.33-16,1.66-29.41"/><circle id="LeftEye" cx="285.73" cy="286.67" r="4.97"/><circle id="RightEye" cx="306.82" cy="280.05" r="4.97"/><path id="Mouth" class="cls-2" d="M262.15,326s5.39-5.83,25.67-4.91A180.67,180.67,0,0,1,314,326.21"/><path id="Cross" d="M421.85,448.9l-15.19-6c-38.19-15-62.79-24.68-114.33-39.24,82.6-45.2,152.83-76.61,226.84-101.48l8.53-2.87L522,282.29l-8.53,2.86c-77,25.89-149.93,58.7-236.37,106.39q-4.79,2.64-9.57,5.34C184.68,374.79,105,361.83,53.15,362.08l-9,0,.09,18,9,0H54.7c46.63,0,116.4,10.92,190.5,29.61C177.71,449.27,110.79,496,41.6,551.93l-7,5.66,11.31,14,7-5.65c73.83-59.65,145-108.77,217-149.77,63.1,17.17,88.4,27.11,130.13,43.52l15.23,6a701.31,701.31,0,0,1,90.75,43.27l7.74,4.59L523,498l-7.74-4.59A705.6,705.6,0,0,0,421.85,448.9Z"/></g><g id="Laptop_1" data-name="Laptop 1"><rect class="cls-3" x="528.58" y="427.25" width="167.09" height="145.75"/><rect class="cls-3" x="543.18" y="440.99" width="137.23" height="118.39"/><line class="cls-2" x1="552.17" y1="543.53" x2="584.94" y2="492.79"/><line class="cls-2" x1="584.94" y1="492.79" x2="612.42" y2="527.14"/><line class="cls-2" x1="612.42" y1="527.14" x2="659.46" y2="460.02"/><polygon class="cls-2" points="742.94 642.32 481.31 642.32 527.89 573.57 696.35 573.57 742.94 642.32"/><polygon class="cls-5" points="636.05 635.22 587.62 635.22 589.9 617.95 633.83 617.95 636.05 635.22"/><line class="cls-5" x1="518.84" y1="586.92" x2="703.53" y2="586.92"/><line class="cls-5" x1="508.13" y1="602.73" x2="714.03" y2="602.73"/><line class="cls-5" x1="528.28" y1="572.99" x2="508.73" y2="601.86"/><line class="cls-5" x1="549.24" y1="572.99" x2="534.58" y2="601.86"/><line class="cls-5" x1="570.2" y1="572.99" x2="560.42" y2="601.86"/><line class="cls-5" x1="591.16" y1="572.99" x2="586.27" y2="601.86"/><line class="cls-5" x1="612.12" y1="572.99" x2="612.12" y2="601.86"/><line class="cls-5" x1="633.08" y1="572.99" x2="637.97" y2="601.86"/><line class="cls-5" x1="654.04" y1="572.99" x2="663.82" y2="601.86"/><line class="cls-5" x1="675" y1="572.99" x2="689.67" y2="601.86"/><line class="cls-5" x1="695.96" y1="572.99" x2="715.52" y2="601.86"/></g><g id="Man_2" data-name="Man 2"><path id="BackFill-2" data-name="BackFill" class="cls-6" d="M1093.79,464.18c-5.15,6.78-5.59,8.25-3.23,10.31s10.6,2.06,17.08,2.95c-2.21,7.95-7.37,16.63-13,19.43s-11.6,2.8-19.4,2.65l-.53-.09c-2.51,48.5-8.25,98.11-12.33,140,0,0-10.71,3-129.71,2l12.62-138.61a26.32,26.32,0,0,1-3,2.77c-10,4.19-15.46,5.59-27.2-8.51-1.08-1.16-1.56-4.62-.08-5.19,3.59-1.38,7-1.6,9.06-3.68,1.23-1.25,1.17-4.1-.33-5-14.27-8.61-52.15-27.11-62.36-45-4.86-9.13-17.23-23.41,17.67-48.59,37.25-29.89,72-31.95,80.25-38.57,2.5-10.9-8.1-41.38-10.31-49.77s-.2-27.08,5.17-39.74,17-21.06,32.41-21.14,26.7,6.64,34,12.31,22.42,37.8,21.76,44.29c-8.32,2-1.55,1.91-12.59,3.53-1.32,13.69-2.85,35.05-4.77,44.63,10.9,4.27,50.07,25.76,57.43,32.68s29,38.14,27.83,50.36S1099,457.41,1093.79,464.18Z"/><path id="Legs-2" data-name="Legs" class="cls-2" d="M1076.44,455.52c1.67,71.56-7.75,114.1-14.53,183.67,0,0-10.71,3-129.71,2l13.7-150.46"/><path id="LegsDivider-2" data-name="LegsDivider" class="cls-3" d="M1020,531.71l-.59,108.66"/><g id="Hammer-2" data-name="Hammer"><path class="cls-4" d="M980.68,485.06l-37.24-37.24c10.58-.2,18.61,2.68,26.91,7.18,7.8,4.22,14.24,11.36,21.41,19Z"/><rect class="cls-4" x="895.1" y="490.04" width="81.07" height="14.6" transform="translate(-77.63 807.26) rotate(-45)"/></g><path id="Body-2" data-name="Body" class="cls-2" d="M943.5,476c11.67,13.44,5.08,24.07-1.65,29.41-10,4.2-15.46,5.6-27.2-8.5-1.08-1.16-1.56-4.62-.08-5.19,3.59-1.38,7-1.61,9.06-3.68,1.23-1.26,1.17-4.1-.33-5-14.27-8.6-52.15-27.11-62.36-44.94-4.86-9.13-17.23-23.41,17.67-48.59,37.25-29.89,72-32,80.24-38.58,2.51-10.89-8.09-41.37-10.3-49.77s-3.31-31.06,5.5-41.62c9.72-11.67,19.84-18.74,36.66-19.33,17.34-.6,21.75,5.74,29.92,12.59s22.43,39.34,21.76,45.83c-8.32,2-1.55.37-12.59,2-1.32,13.69-5,34.12-5.28,44.42,10.9,4.27,43.94,19.8,57.43,32.69s29,38.13,27.82,50.35-11.33,29.16-16.49,35.93-5.59,8.25-3.24,10.31,10.61,2.06,17.08,2.94c-2.2,7.95-7.36,16.64-12.95,19.44s-8.64,2.84-16.45,2.69"/><path id="RightHand" class="cls-3" d="M923.3,483c1.5.91,1.56,3.75.33,5-2,2.07-5.47,2.3-9.06,3.68-1.48.57-1,4,.08,5.19,11.74,14.1,17.22,12.7,27.2,8.5,6.73-5.34,13.32-16,1.65-29.41"/><circle id="RightEye-2" data-name="RightEye" class="cls-7" cx="1015.11" cy="282.25" r="4.97"/><path id="Mouth-2" data-name="Mouth" class="cls-2" d="M985.08,298.49c4.41,7.4,8.28,10.71,14.79,16,9.83,9.44,26.53,9.44,26.53,9.44"/></g><g id="Laptop_2" data-name="Laptop 2"><rect class="cls-3" x="1118.49" y="426.36" width="167.09" height="145.75"/><rect class="cls-3" x="1133.09" y="440.11" width="137.23" height="118.39"/><line class="cls-2" x1="1142.08" y1="542.64" x2="1174.85" y2="491.9"/><line class="cls-2" x1="1174.85" y1="491.9" x2="1202.33" y2="526.26"/><line class="cls-2" x1="1202.33" y1="526.26" x2="1249.37" y2="459.13"/><polygon class="cls-2" points="1332.85 641.44 1071.22 641.44 1117.81 572.69 1286.27 572.69 1332.85 641.44"/><polygon class="cls-5" points="1225.96 634.34 1177.54 634.34 1179.81 617.07 1223.74 617.07 1225.96 634.34"/><line class="cls-5" x1="1108.76" y1="586.04" x2="1293.45" y2="586.04"/><line class="cls-5" x1="1098.05" y1="601.85" x2="1303.95" y2="601.85"/><line class="cls-5" x1="1118.2" y1="572.11" x2="1098.64" y2="600.97"/><line class="cls-5" x1="1139.16" y1="572.11" x2="1124.49" y2="600.97"/><line class="cls-5" x1="1160.12" y1="572.11" x2="1150.34" y2="600.97"/><line class="cls-5" x1="1181.08" y1="572.11" x2="1176.19" y2="600.97"/><line class="cls-5" x1="1202.04" y1="572.11" x2="1202.04" y2="600.97"/><line class="cls-5" x1="1223" y1="572.11" x2="1227.88" y2="600.97"/><line class="cls-5" x1="1243.96" y1="572.11" x2="1253.73" y2="600.97"/><line class="cls-5" x1="1264.92" y1="572.11" x2="1279.58" y2="600.97"/><line class="cls-5" x1="1285.88" y1="572.11" x2="1305.43" y2="600.97"/></g><g id="Man3"><path id="Body-3" data-name="Body" class="cls-2" d="M1369.15,406.49c-.56,21.42-.81,56.2-.22,90.55.79,46.39,3.1,92,8.17,102.92-16.56,19.44-36.44,41.74-36.44,41.74l169-1.54s-7.66-87.35-10.53-136.61c11.7,8.69,21.35,6.52,28.31,0-9.58-5-12.19-6.55-12.34-20.76,21.8-9.43,43.66-24.67,43.66-24.67s27.61-16.45,27.61-34.45c0-38.21-64.35-62.65-102.33-79,6.55-29.89,7.36-25.84,17.67-65.38.51-6.18-1.41-14.57-4.39-22.64s-10.23-14.54-11.79-16.06-10-8.66-26.38-8.78c-19.08-.15-46.6,16.86-64.12,45.64,5.6,3.54,11.56,4.71,18.92,5,3.9,18.7,3.83,30.4,9.13,56.91-28.86,14.87-37,15.24-67.14,45-29.35,29.06-22.23,52.79-14.58,66,8,13.84,13.4,13.26,13.55,19.73-5.38,5.38-9.72,5.67-18.63,5.38,2.58,16.78,15.83,21.72,32.47,21.5C1368.41,463.84,1369.15,406.49,1369.15,406.49Z"/><circle id="RightEye-3" data-name="RightEye" class="cls-7" cx="1437.62" cy="266.02" r="4.97"/><line id="LegDivider" class="cls-2" x1="1423.04" y1="529.43" x2="1423.04" y2="640.93"/><path id="Mouth-3" data-name="Mouth" class="cls-8" d="M1472.66,278c.15,13.77-8.54,25.22-17.15,32.73s-21.91,11.13-35.81,9.76"/><g id="Pen"><path class="cls-9" d="M1518.38,288.73c-9.72-6-43.29-27.64-43.29-27.64l-8-11.38,14.39,2.84,42.56,27.5.22,6.22Z"/><line class="cls-10" x1="1483.19" y1="253.36" x2="1475.6" y2="260.79"/><line class="cls-10" x1="1479.36" y1="257.52" x2="1523.38" y2="285.94"/></g><path id="Ear" class="cls-3" d="M1494.27,274.86c12.22-5.38,8.89,1.65,8.69,7.64s-5.85,7.05-12.25,4.25"/></g></svg>