<svg id="Layer_1" data-name="Layer 1" xmlns="http://www.w3.org/2000/svg" viewBox="0 0 1600 900"><defs><style>.cls-1{fill:none;stroke:#000;stroke-miterlimit:10;stroke-width:6px;}.cls-2{font-size:150.35px;font-family:Consolas;}</style></defs><rect class="cls-1" x="20" y="20" width="389.75" height="140"/><rect class="cls-1" x="409.75" y="20" width="389.75" height="140"/><rect class="cls-1" x="799.5" y="20" width="389.75" height="140"/><rect class="cls-1" x="1189.24" y="20" width="389.75" height="140"/><rect class="cls-1" x="20" y="160" width="390" height="240"/><rect class="cls-1" x="410" y="160" width="390" height="240"/><rect class="cls-1" x="800" y="160" width="390" height="240"/><rect class="cls-1" x="1190" y="160" width="390" height="240"/><rect class="cls-1" x="20" y="400" width="390" height="240"/><rect class="cls-1" x="410" y="400" width="390" height="240"/><rect class="cls-1" x="800" y="400" width="390" height="240"/><rect class="cls-1" x="1190" y="400" width="390" height="240"/><rect class="cls-1" x="20" y="640" width="1560" height="240"/><text class="cls-2" transform="translate(131.94 320.59)">L1</text><text class="cls-2" transform="translate(48.76 130.59)">CPU0</text><text class="cls-2" transform="translate(438.51 130.59)">CPU1</text><text class="cls-2" transform="translate(828.26 130.59)">CPU2</text><text class="cls-2" transform="translate(1218.01 130.59)">CPU3</text><text class="cls-2" transform="translate(516.05 320.59)">L1</text><text class="cls-2" transform="translate(911.75 320.59)">L1</text><text class="cls-2" transform="translate(1300.42 320.59)">L1</text><text class="cls-2" transform="translate(129.82 560.59)">L2</text><text class="cls-2" transform="translate(714.82 800.59)">L3</text><text class="cls-2" transform="translate(520 560.59)">L2</text><text class="cls-2" transform="translate(908.65 560.59)">L2</text><text class="cls-2" transform="translate(1300.84 560.59)">L2</text></svg>