<svg id="Layer_1" data-name="Layer 1" xmlns="http://www.w3.org/2000/svg" viewBox="0 0 1600 900"><defs><style>.cls-1,.cls-2,.cls-3{fill:none;stroke-miterlimit:10;stroke-width:6px;}.cls-1{stroke:#000;}.cls-2,.cls-3{stroke:#999;}.cls-3{stroke-dasharray:11.99 11.99;}</style></defs><rect class="cls-1" x="20.51" y="20" width="1558.99" height="860"/><line class="cls-2" x1="21.01" y1="91.17" x2="27.01" y2="91.17"/><line class="cls-3" x1="39.01" y1="91.17" x2="1568" y2="91.17"/><line class="cls-2" x1="1574" y1="91.17" x2="1580" y2="91.17"/><line class="cls-2" x1="20" y1="361.79" x2="26" y2="361.79"/><line class="cls-3" x1="37.99" y1="361.79" x2="1566.99" y2="361.79"/><line class="cls-2" x1="1572.99" y1="361.79" x2="1578.99" y2="361.79"/><path class="cls-1" d="M21,560.56l19.25-27.37,14.18,41.1,10.13-63.15,11.14,63.15L99,500.12l25.33,60.14,14.18-76.18,17.22,49.11S174,472.05,178,474.06,199.3,583.31,199.3,583.31l12.15-67.16,16.21-25,16.21,56.13,14.18-57.14,20.26,74.18L416.82,91.17l10.4,12,14.66-12,10.67,15,12.6-15,7.66,24,13.22-24,18.18,25,11.65-25,12.66,21,19-21,10.42,21,30.75-21,7.74,16,14.33-16,14,12,23-12,6.42,15,22.81-15,4.54,16,13.36-16,12,13,10.7-13,9.55,10,11.33-10,15,20,11.84-20,10.45,16,18.19-16,10.17,13,10.71-13,3.47,17,24.57-17,4.81,18,12.49-18,10.81,19,20.81-19,26.85,270.62,11.09,10,16.35-10,13,10,16.8-10,14.6,11,17-11,10.33,9,14.73-9,12.62,12,14.82-12,9.49,13,13.19-13,8.09,13,9.21-13,7,13,12.09-13,7.15,13,10.75-13,7.49,13,18.16-13,16.28,9,10.57-9,9.69,17,14.77-17,28.79,19,18-19,9.38,12,18.36-12,15.06,13,12.68-13,11.64,17,7.6-17,14.68,18,12-18,13.38,20,15.7-20,7.6,16,19.92-16,7.43,15,17.85-15,15.57,19,16.87-19,15.55,22.06,16-22.06,22.49,17,7.93-17,16.39,13,13.37-13L1579,377.7"/></svg>