<?xml version="1.0" encoding="utf-8"?>
<svg version="1.1" viewBox="0 0 1600 900" width="1600" height="900" style="stroke:none;stroke-linecap:butt;stroke-linejoin:miter;stroke-width:1;stroke-dasharray:none;fill:#000000;fill-opacity:1;fill-rule:evenodd" font-family="Arial" font-size="15" xmlns:xlink="http://www.w3.org/1999/xlink" xmlns="http://www.w3.org/2000/svg">
  <g transform="matrix(1,0,0,1,0,0)">
    <g id="Rectangle" transform="matrix(1,0,0,1,500,300)">
      <rect x="0" y="0" width="100" height="100" style="stroke:#000000;stroke-linecap:round;stroke-linejoin:round;fill:#D55E00;" />
      <path d="M48.6172,66.0547L43.2031,66.0547L36.8516,57.0781L30.5703,66.0547L25.2969,66.0547L34.4141,54.2422L25.7188,42.5234L30.9453,42.5234L37.1328,51.5703L43.2031,42.5234L48.2422,42.5234L39.4063,54.3359L48.6172,66.0547zM74.3281,50.75Q74.3281,54.2656 73.625,57.1602Q72.9219,60.0547 71.4922,62.1289Q70.0625,64.2031 67.9414,65.3398Q65.8203,66.4766 62.9609,66.4766Q60.5,66.4766 58.4844,65.5508Q56.4688,64.625 55.0391,62.7031Q53.6094,60.7813 52.8359,57.8047Q52.0625,54.8281 52.0625,50.75Q52.0625,47.2344 52.7773,44.3281Q53.4922,41.4219 54.9102,39.3477Q56.3281,37.2734 58.4609,36.1367Q60.5938,35 63.4297,35Q65.8906,35 67.9063,35.9258Q69.9219,36.8516 71.3516,38.7852Q72.7813,40.7188 73.5547,43.6953Q74.3281,46.6719 74.3281,50.75zM70.2031,50.8906Q70.2031,50.0938 70.1445,49.3086Q70.0859,48.5234 70.0156,47.7734L70.0156,47.7734L57.0547,57.4063Q57.4063,58.625 57.9453,59.6563Q58.4844,60.6875 59.2461,61.4258Q60.0078,62.1641 60.9805,62.5742Q61.9531,62.9844 63.1953,62.9844Q64.7891,62.9844 66.0898,62.2109Q67.3906,61.4375 68.3047,59.9141Q69.2188,58.3906 69.7109,56.1289Q70.2031,53.8672 70.2031,50.8906zM56.1875,50.6094Q56.1875,51.3359 56.1992,52.0625Q56.2109,52.7891 56.2813,53.4688L56.2813,53.4688L69.2422,43.8828Q68.8906,42.6875 68.3516,41.7031Q67.8125,40.7188 67.0625,40.0039Q66.3125,39.2891 65.3516,38.8906Q64.3906,38.4922 63.1953,38.4922Q61.6016,38.4922 60.3008,39.2656Q59,40.0391 58.0859,41.5742Q57.1719,43.1094 56.6797,45.3711Q56.1875,47.6328 56.1875,50.6094z" />
    </g>
    <g id="Text" transform="matrix(1,0,0,1,25,300)">
      <rect x="0" y="0" width="450" height="100" style="stroke-linecap:round;stroke-linejoin:round;fill:none;fill-opacity:0;" />
      <path d="M33.2188,33.8021L21.6563,67.8385L15.4063,67.8385L4.1042,33.8021L9.3385,33.8021L16.6823,56.7448L18.7656,63.4635L20.901,56.7448L28.2708,33.8021L33.2188,33.8021zM54.2344,67.8385L54.1302,64.3229Q51.9948,66.4323 49.7943,67.3698Q47.5937,68.3073 45.1719,68.3073Q42.9323,68.3073 41.3438,67.7344Q39.7552,67.1615 38.7266,66.1589Q37.6979,65.1563 37.2161,63.8021Q36.7344,62.4479 36.7344,60.8594Q36.7344,56.9271 39.6641,54.7005Q42.5938,52.474 48.3229,52.474L48.3229,52.474L53.7396,52.474L53.7396,50.1823Q53.7396,47.8646 52.2552,46.4714Q50.7708,45.0781 47.724,45.0781Q45.5104,45.0781 43.362,45.5729Q41.2135,46.0677 38.9219,46.9792L38.9219,46.9792L38.9219,42.8906Q39.7813,42.5781 40.8359,42.2786Q41.8906,41.9792 43.0625,41.7448Q44.2344,41.5104 45.5104,41.3672Q46.7865,41.224 48.0885,41.224Q50.4583,41.224 52.3594,41.7448Q54.2604,42.2656 55.5755,43.3333Q56.8906,44.401 57.5938,46.0156Q58.2969,47.6302 58.2969,49.8177L58.2969,49.8177L58.2969,67.8385L54.2344,67.8385zM53.7396,55.9375L47.9844,55.9375Q46.2917,55.9375 45.0677,56.276Q43.8438,56.6146 43.0625,57.2396Q42.2813,57.8646 41.9036,58.737Q41.526,59.6094 41.526,60.7031Q41.526,61.4583 41.7604,62.1484Q41.9948,62.8385 42.5156,63.3724Q43.0365,63.9063 43.8698,64.2188Q44.7031,64.5313 45.901,64.5313Q47.4635,64.5313 49.4818,63.5807Q51.5,62.6302 53.7396,60.5729L53.7396,60.5729L53.7396,55.9375zM75.6146,34.7656L67.8802,34.7656L67.8802,31.0417L80.1979,31.0417L80.1979,64.0625L87.9844,64.0625L87.9844,67.8385L67.0208,67.8385L67.0208,64.0625L75.6146,64.0625L75.6146,34.7656zM116.9948,67.8385L112.9323,67.8385L112.776,63.6198Q111.6042,64.974 110.5495,65.8724Q109.4948,66.7708 108.4531,67.3177Q107.4115,67.8646 106.3568,68.0859Q105.3021,68.3073 104.1302,68.3073Q100.0938,68.3073 98.0365,65.9375Q95.9792,63.5677 95.9792,58.776L95.9792,58.776L95.9792,41.6927L100.5104,41.6927L100.5104,58.4115Q100.5104,64.4271 105.0417,64.4271Q105.875,64.4271 106.6693,64.1797Q107.4635,63.9323 108.3359,63.3203Q109.2083,62.7083 110.2109,61.6667Q111.2135,60.625 112.4635,59.0365L112.4635,59.0365L112.4635,41.6927L116.9948,41.6927L116.9948,67.8385zM147.3333,53.3854Q147.3333,54.349 147.3073,55Q147.2813,55.651 147.2292,56.224L147.2292,56.224L128.8698,56.224Q128.8698,60.2344 131.1094,62.3828Q133.349,64.5313 137.5677,64.5313Q138.7135,64.5313 139.8594,64.4401Q141.0052,64.349 142.0729,64.1927Q143.1406,64.0365 144.1172,63.8411Q145.0938,63.6458 145.9271,63.4115L145.9271,63.4115L145.9271,67.1354Q144.0781,67.6563 141.7474,67.9818Q139.4167,68.3073 136.9167,68.3073Q133.5573,68.3073 131.1354,67.3958Q128.7135,66.4844 127.1641,64.7526Q125.6146,63.0208 124.8724,60.5078Q124.1302,57.9948 124.1302,54.8177Q124.1302,52.0573 124.9245,49.5964Q125.7187,47.1354 127.2422,45.2734Q128.7656,43.4115 130.9792,42.3177Q133.1927,41.224 136.0052,41.224Q138.7396,41.224 140.849,42.0833Q142.9583,42.9427 144.4036,44.5182Q145.849,46.0938 146.5911,48.3464Q147.3333,50.599 147.3333,53.3854zM142.6198,52.7344Q142.6979,50.9896 142.2813,49.5443Q141.8646,48.099 140.9922,47.0573Q140.1198,46.0156 138.8177,45.4297Q137.5156,44.8438 135.7969,44.8438Q134.3125,44.8438 133.0885,45.4167Q131.8646,45.9896 130.9792,47.0313Q130.0938,48.0729 129.5469,49.5313Q129,50.9896 128.8698,52.7344L128.8698,52.7344L142.6198,52.7344zM175.224,60.7031Q175.224,62.0833 174.7552,63.1771Q174.2865,64.2708 173.4792,65.1172Q172.6719,65.9635 171.6042,66.5625Q170.5364,67.1615 169.3255,67.5521Q168.1146,67.9427 166.8385,68.125Q165.5625,68.3073 164.3385,68.3073Q161.6823,68.3073 159.4557,68.0729Q157.2292,67.8385 155.0937,67.3177L155.0937,67.3177L155.0937,63.151Q157.3854,63.8021 159.651,64.1406Q161.9167,64.4792 164.1562,64.4792Q167.4115,64.4792 168.974,63.5938Q170.5365,62.7083 170.5365,61.0677Q170.5365,60.3646 170.289,59.8047Q170.0417,59.2448 169.3906,58.737Q168.7396,58.2292 167.3724,57.6823Q166.0052,57.1354 163.6354,56.4323Q161.8646,55.9115 160.3672,55.2474Q158.8698,54.5833 157.776,53.6719Q156.6823,52.7604 156.0573,51.5365Q155.4323,50.3125 155.4323,48.6458Q155.4323,47.5521 155.9401,46.25Q156.4479,44.9479 157.6719,43.8281Q158.8958,42.7083 160.9792,41.9661Q163.0625,41.224 166.1875,41.224Q167.724,41.224 169.599,41.3932Q171.474,41.5625 173.5052,41.9792L173.5052,41.9792L173.5052,46.0156Q171.3698,45.4948 169.4557,45.2474Q167.5417,45 166.1354,45Q164.4427,45 163.2838,45.2604Q162.125,45.5208 161.4088,45.9766Q160.6927,46.4323 160.3802,47.0443Q160.0677,47.6563 160.0677,48.3594Q160.0677,49.0625 160.3411,49.6354Q160.6146,50.2083 161.3568,50.7422Q162.099,51.276 163.4271,51.8099Q164.7552,52.3438 166.8906,52.9688Q169.2083,53.6458 170.7969,54.388Q172.3854,55.1302 173.375,56.0417Q174.3646,56.9531 174.7943,58.099Q175.224,59.2448 175.224,60.7031z" />
    </g>
    <g id="Rectangle1" transform="matrix(1,0,0,1,600,300)">
      <rect x="0" y="0" width="100" height="100" style="stroke:#000000;stroke-linecap:round;stroke-linejoin:round;fill:#D55E00;" />
      <path d="M48.6172,66.0547L43.2031,66.0547L36.8516,57.0781L30.5703,66.0547L25.2969,66.0547L34.4141,54.2422L25.7188,42.5234L30.9453,42.5234L37.1328,51.5703L43.2031,42.5234L48.2422,42.5234L39.4063,54.3359L48.6172,66.0547zM73.3672,66.0547L54.125,66.0547L54.125,62.2578L62,62.2578L62,39.8984L54.6641,43.8828L53.1641,40.4141L62.9141,35.2813L66.5234,35.2813L66.5234,62.2578L73.3672,62.2578L73.3672,66.0547z" />
    </g>
    <g id="Rectangle2" transform="matrix(1,0,0,1,700,300)">
      <rect x="0" y="0" width="100" height="100" style="stroke:#000000;stroke-linecap:round;stroke-linejoin:round;fill:#D55E00;" />
      <path d="M48.6172,66.0547L43.2031,66.0547L36.8516,57.0781L30.5703,66.0547L25.2969,66.0547L34.4141,54.2422L25.7188,42.5234L30.9453,42.5234L37.1328,51.5703L43.2031,42.5234L48.2422,42.5234L39.4063,54.3359L48.6172,66.0547zM73.625,66.0547L53.4453,66.0547L53.4453,62.3984L61.3672,54.5234Q63.3125,52.6016 64.5313,51.1953Q65.75,49.7891 66.4297,48.6289Q67.1094,47.4688 67.3438,46.4375Q67.5781,45.4063 67.5781,44.2109Q67.5781,43.0859 67.2734,42.0664Q66.9688,41.0469 66.3359,40.2734Q65.7031,39.5 64.6953,39.0547Q63.6875,38.6094 62.2813,38.6094Q60.3359,38.6094 58.7422,39.4766Q57.1484,40.3438 55.8125,41.7266L55.8125,41.7266L53.5625,39.0313Q55.2969,37.2031 57.5586,36.1016Q59.8203,35 62.8203,35Q64.8594,35 66.5352,35.6094Q68.2109,36.2188 69.4297,37.3672Q70.6484,38.5156 71.3164,40.1797Q71.9844,41.8438 71.9844,43.9297Q71.9844,45.6875 71.5156,47.1875Q71.0469,48.6875 70.0977,50.1758Q69.1484,51.6641 67.707,53.2578Q66.2656,54.8516 64.2969,56.75L64.2969,56.75L58.7422,62.1641L73.625,62.1641L73.625,66.0547z" />
    </g>
    <g id="Rectangle3" transform="matrix(1,0,0,1,800,300)">
      <rect x="0" y="0" width="100" height="100" style="stroke:#000000;stroke-linecap:round;stroke-linejoin:round;fill:#D55E00;" />
      <path d="M48.6172,66.0547L43.2031,66.0547L36.8516,57.0781L30.5703,66.0547L25.2969,66.0547L34.4141,54.2422L25.7188,42.5234L30.9453,42.5234L37.1328,51.5703L43.2031,42.5234L48.2422,42.5234L39.4063,54.3359L48.6172,66.0547zM73.0391,56.75Q73.0391,58.7656 72.2188,60.5352Q71.3984,62.3047 69.7578,63.6289Q68.1172,64.9531 65.6328,65.7148Q63.1484,66.4766 59.8438,66.4766Q58.0156,66.4766 56.5625,66.3594Q55.1094,66.2422 53.8438,66.0547L53.8438,66.0547L53.8438,62.3984Q55.2969,62.6563 56.9141,62.7969Q58.5313,62.9375 60.2188,62.9375Q62.5156,62.9375 64.1445,62.5273Q65.7734,62.1172 66.8047,61.3438Q67.8359,60.5703 68.3047,59.4688Q68.7734,58.3672 68.7734,56.9844Q68.7734,55.7188 68.2109,54.7813Q67.6484,53.8438 66.6289,53.2109Q65.6094,52.5781 64.1914,52.2617Q62.7734,51.9453 61.0859,51.9453L61.0859,51.9453L57.5938,51.9453L57.5938,48.5938L61.1328,48.5938Q62.5156,48.5938 63.6523,48.2305Q64.7891,47.8672 65.5977,47.1875Q66.4063,46.5078 66.8398,45.5117Q67.2734,44.5156 67.2734,43.25Q67.2734,40.7891 65.7734,39.6641Q64.2734,38.5391 61.3672,38.5391Q59.8203,38.5391 58.1797,38.8438Q56.5391,39.1484 54.6641,39.7578L54.6641,39.7578L54.6641,36.1953Q55.4609,35.9141 56.3633,35.6914Q57.2656,35.4688 58.168,35.3164Q59.0703,35.1641 59.9609,35.082Q60.8516,35 61.6719,35Q64.1094,35 65.9609,35.5273Q67.8125,36.0547 69.0547,37.0391Q70.2969,38.0234 70.9297,39.4297Q71.5625,40.8359 71.5625,42.5938Q71.5625,45.2188 70.2148,47Q68.8672,48.7813 66.5234,49.8359Q67.7188,50.0234 68.8789,50.5859Q70.0391,51.1484 70.9648,52.0273Q71.8906,52.9063 72.4648,54.1016Q73.0391,55.2969 73.0391,56.75z" />
    </g>
    <g id="Rectangle4" transform="matrix(1,0,0,1,900,300)">
      <rect x="0" y="0" width="100" height="100" style="stroke:#000000;stroke-linecap:round;stroke-linejoin:round;fill:#D55E00;" />
      <path d="M48.6172,66.0547L43.2031,66.0547L36.8516,57.0781L30.5703,66.0547L25.2969,66.0547L34.4141,54.2422L25.7188,42.5234L30.9453,42.5234L37.1328,51.5703L43.2031,42.5234L48.2422,42.5234L39.4063,54.3359L48.6172,66.0547zM75.1484,59.2813L69.9219,59.2813L69.9219,66.0547L65.75,66.0547L65.75,59.2813L51.0078,59.2813L51.0078,55.6953L64.0625,35.4219L69.9219,35.4219L69.9219,55.6953L75.1484,55.6953L75.1484,59.2813zM65.75,39.3594L55.0859,55.6953L65.75,55.6953L65.75,39.3594z" />
    </g>
    <g id="Rectangle5" transform="matrix(1,0,0,1,1000,300)">
      <rect x="0" y="0" width="100" height="100" style="stroke:#000000;stroke-linecap:round;stroke-linejoin:round;fill:#D55E00;" />
      <path d="M48.6172,66.0547L43.2031,66.0547L36.8516,57.0781L30.5703,66.0547L25.2969,66.0547L34.4141,54.2422L25.7188,42.5234L30.9453,42.5234L37.1328,51.5703L43.2031,42.5234L48.2422,42.5234L39.4063,54.3359L48.6172,66.0547zM72.8516,56.2578Q72.8516,58.5313 71.8672,60.4063Q70.8828,62.2813 69.1602,63.6289Q67.4375,64.9766 65.0938,65.7266Q62.75,66.4766 60.0313,66.4766Q59.3516,66.4766 58.5664,66.4414Q57.7813,66.4063 57.0078,66.3477Q56.2344,66.2891 55.4961,66.2188Q54.7578,66.1484 54.1719,66.0547L54.1719,66.0547L54.1719,62.3516Q55.4375,62.6563 57.0664,62.7969Q58.6953,62.9375 60.3594,62.9375Q62.2344,62.9375 63.7344,62.4922Q65.2344,62.0469 66.2891,61.2148Q67.3438,60.3828 67.9063,59.1992Q68.4688,58.0156 68.4688,56.5391Q68.4688,53.6797 66.418,52.3789Q64.3672,51.0781 60.5234,51.0781L60.5234,51.0781L54.7109,51.0781L54.7109,35.4219L71.2109,35.4219L71.2109,38.9844L58.5547,38.9844L58.5547,47.5859L61.2266,47.5859Q63.4297,47.5859 65.5156,47.9844Q67.6016,48.3828 69.2305,49.3789Q70.8594,50.375 71.8555,52.0508Q72.8516,53.7266 72.8516,56.2578z" />
    </g>
    <g id="Rectangle6" transform="matrix(1,0,0,1,1100,300)">
      <rect x="0" y="0" width="100" height="100" style="stroke:#000000;stroke-linecap:round;stroke-linejoin:round;fill:#009E73;" />
      <path d="M48.6172,66.0547L43.2031,66.0547L36.8516,57.0781L30.5703,66.0547L25.2969,66.0547L34.4141,54.2422L25.7188,42.5234L30.9453,42.5234L37.1328,51.5703L43.2031,42.5234L48.2422,42.5234L39.4063,54.3359L48.6172,66.0547zM74,56.3516Q74,58.4609 73.2383,60.3125Q72.4766,62.1641 71.0703,63.5352Q69.6641,64.9063 67.6836,65.6914Q65.7031,66.4766 63.2891,66.4766Q60.7578,66.4766 58.8125,65.668Q56.8672,64.8594 55.5547,63.1836Q54.2422,61.5078 53.5625,58.9531Q52.8828,56.3984 52.8828,52.9063Q52.8828,50.5625 53.1875,48.3594Q53.4922,46.1563 54.1953,44.2109Q54.8984,42.2656 56.0703,40.6484Q57.2422,39.0313 58.9883,37.8711Q60.7344,36.7109 63.1016,36.0664Q65.4688,35.4219 68.5859,35.4219L68.5859,35.4219L71.6094,35.4219L71.6094,38.9844L68.3281,38.9844Q65.5859,38.9844 63.5703,39.6406Q61.5547,40.2969 60.1953,41.4922Q58.8359,42.6875 58.1094,44.375Q57.3828,46.0625 57.1953,48.1484L57.1953,48.1484L57.1016,49.1094Q58.5781,48.2422 60.5117,47.7148Q62.4453,47.1875 64.6953,47.1875Q67.0156,47.1875 68.7617,47.8672Q70.5078,48.5469 71.668,49.7539Q72.8281,50.9609 73.4141,52.6484Q74,54.3359 74,56.3516zM69.7344,56.6094Q69.7344,55.2031 69.3945,54.0664Q69.0547,52.9297 68.3281,52.1445Q67.6016,51.3594 66.4883,50.9258Q65.375,50.4922 63.8281,50.4922Q62.9375,50.4922 62.0234,50.6563Q61.1094,50.8203 60.2305,51.1133Q59.3516,51.4063 58.5547,51.7813Q57.7578,52.1563 57.1016,52.5781Q57.1016,55.6016 57.5234,57.6289Q57.9453,59.6563 58.7773,60.875Q59.6094,62.0938 60.8281,62.6094Q62.0469,63.125 63.6406,63.125Q64.9766,63.125 66.0898,62.6914Q67.2031,62.2578 68.0117,61.4141Q68.8203,60.5703 69.2773,59.3633Q69.7344,58.1563 69.7344,56.6094z" />
    </g>
    <g id="Rectangle7" transform="matrix(1,0,0,1,1200,300)">
      <rect x="0" y="0" width="100" height="100" style="stroke:#000000;stroke-linecap:round;stroke-linejoin:round;fill:#009E73;" />
      <path d="M48.6172,66.0547L43.2031,66.0547L36.8516,57.0781L30.5703,66.0547L25.2969,66.0547L34.4141,54.2422L25.7188,42.5234L30.9453,42.5234L37.1328,51.5703L43.2031,42.5234L48.2422,42.5234L39.4063,54.3359L48.6172,66.0547zM73.4609,39.2188L60.6172,66.0547L55.9531,66.0547L69.2891,39.2188L52.7422,39.2188L52.7422,35.4219L73.4609,35.4219L73.4609,39.2188z" />
    </g>
    <g id="Rectangle8" transform="matrix(1,0,0,1,1300,300)">
      <rect x="0" y="0" width="100" height="100" style="stroke:#000000;stroke-linecap:round;stroke-linejoin:round;fill:#009E73;" />
      <path d="M48.6172,66.0547L43.2031,66.0547L36.8516,57.0781L30.5703,66.0547L25.2969,66.0547L34.4141,54.2422L25.7188,42.5234L30.9453,42.5234L37.1328,51.5703L43.2031,42.5234L48.2422,42.5234L39.4063,54.3359L48.6172,66.0547zM73.625,58.3672Q73.625,60.3125 72.8281,61.8242Q72.0313,63.3359 70.6016,64.3672Q69.1719,65.3984 67.2266,65.9375Q65.2813,66.4766 63.0078,66.4766Q60.5,66.4766 58.5898,65.9141Q56.6797,65.3516 55.3906,64.3438Q54.1016,63.3359 53.4453,61.9531Q52.7891,60.5703 52.7891,58.9063Q52.7891,56.0938 54.3594,54.0547Q55.9297,52.0156 59.2109,50.3516Q56.2109,48.8281 54.8281,46.9648Q53.4453,45.1016 53.4453,42.6875Q53.4453,41.2109 54.0547,39.8281Q54.6641,38.4453 55.8945,37.3672Q57.125,36.2891 58.9766,35.6445Q60.8281,35 63.3359,35Q65.7031,35 67.4961,35.5039Q69.2891,36.0078 70.5078,36.9453Q71.7266,37.8828 72.3359,39.2188Q72.9453,40.5547 72.9453,42.1953Q72.9453,44.8672 71.457,46.7422Q69.9688,48.6172 67.2266,50.0234Q68.5859,50.7031 69.7578,51.5234Q70.9297,52.3438 71.7969,53.3516Q72.6641,54.3594 73.1445,55.6016Q73.625,56.8438 73.625,58.3672zM68.7734,42.5234Q68.7734,40.4375 67.3086,39.418Q65.8438,38.3984 63.1953,38.3984Q60.5703,38.3984 59.1055,39.4063Q57.6406,40.4141 57.6406,42.4297Q57.6406,43.3438 57.9922,44.1172Q58.3438,44.8906 59.082,45.5703Q59.8203,46.25 60.9219,46.9063Q62.0234,47.5625 63.5469,48.2422Q66.1953,47 67.4844,45.6523Q68.7734,44.3047 68.7734,42.5234zM69.1953,58.6719Q69.1953,57.8047 68.9141,56.9844Q68.6328,56.1641 67.9063,55.3672Q67.1797,54.5703 65.9609,53.7734Q64.7422,52.9766 62.8672,52.1328Q61.2734,52.9063 60.1836,53.668Q59.0938,54.4297 58.4258,55.2148Q57.7578,56 57.4766,56.8438Q57.1953,57.6875 57.1953,58.625Q57.1953,59.6797 57.6523,60.4883Q58.1094,61.2969 58.9063,61.8594Q59.7031,62.4219 60.8047,62.7031Q61.9063,62.9844 63.1953,62.9844Q64.4375,62.9844 65.5391,62.7266Q66.6406,62.4688 67.4492,61.9414Q68.2578,61.4141 68.7266,60.6055Q69.1953,59.7969 69.1953,58.6719z" />
    </g>
    <g id="Rectangle9" transform="matrix(1,0,0,1,1400,300)">
      <rect x="0" y="0" width="100" height="100" style="stroke:#000000;stroke-linecap:round;stroke-linejoin:round;fill:#009E73;" />
      <path d="M48.6172,66.0547L43.2031,66.0547L36.8516,57.0781L30.5703,66.0547L25.2969,66.0547L34.4141,54.2422L25.7188,42.5234L30.9453,42.5234L37.1328,51.5703L43.2031,42.5234L48.2422,42.5234L39.4063,54.3359L48.6172,66.0547zM73.4609,49.0156Q73.4609,53.4922 72.3828,56.7148Q71.3047,59.9375 69.1953,62.0117Q67.0859,64.0859 63.9688,65.0703Q60.8516,66.0547 56.7734,66.0547L56.7734,66.0547L54.2188,66.0547L54.2188,62.4922L57.0547,62.4922Q60.0781,62.4922 62.2813,61.8828Q64.4844,61.2734 65.9492,60.0898Q67.4141,58.9063 68.1875,57.207Q68.9609,55.5078 69.1484,53.3281L69.1484,53.3281L69.2422,52.3672Q67.7656,53.2344 65.8438,53.7617Q63.9219,54.2891 61.6719,54.2891Q59.3516,54.2891 57.5938,53.6094Q55.8359,52.9297 54.6758,51.7109Q53.5156,50.4922 52.9297,48.8164Q52.3438,47.1406 52.3438,45.1719Q52.3438,43.0391 53.1172,41.1875Q53.8906,39.3359 55.2852,37.9648Q56.6797,36.5938 58.625,35.7969Q60.5703,35 62.9141,35Q65.1875,35 67.1211,35.75Q69.0547,36.5 70.4609,38.1758Q71.8672,39.8516 72.6641,42.5234Q73.4609,45.1953 73.4609,49.0156zM62.7266,38.3516Q61.4141,38.3516 60.3008,38.7852Q59.1875,39.2188 58.3789,40.0508Q57.5703,40.8828 57.1016,42.1016Q56.6328,43.3203 56.6328,44.8906Q56.6328,46.3203 56.9727,47.4453Q57.3125,48.5703 58.0273,49.3555Q58.7422,50.1406 59.8672,50.5625Q60.9922,50.9844 62.5391,50.9844Q63.4063,50.9844 64.332,50.8203Q65.2578,50.6563 66.1367,50.375Q67.0156,50.0938 67.8125,49.7188Q68.6094,49.3438 69.2422,48.9219Q69.2422,45.8984 68.7969,43.8711Q68.3516,41.8438 67.5078,40.6133Q66.6641,39.3828 65.457,38.8672Q64.25,38.3516 62.7266,38.3516z" />
    </g>
    <g id="Rectangle10" transform="matrix(1,0,0,1,500,100)">
      <rect x="0" y="0" width="100" height="100" style="stroke:#000000;stroke-linecap:round;stroke-linejoin:round;fill:#56B4E9;" />
      <path d="M45.6875,65.1875Q44.0938,65.7969 42.418,66.0898Q40.7422,66.3828 38.9609,66.3828Q33.3828,66.3828 30.3711,63.3594Q27.3594,60.3359 27.3594,54.5234Q27.3594,51.7344 28.2266,49.4609Q29.0938,47.1875 30.6641,45.5703Q32.2344,43.9531 34.4141,43.0742Q36.5938,42.1953 39.2188,42.1953Q41.0469,42.1953 42.6406,42.4531Q44.2344,42.7109 45.6875,43.2969L45.6875,43.2969L45.6875,47.1875Q44.1641,46.3906 42.582,46.0273Q41,45.6641 39.3125,45.6641Q37.7422,45.6641 36.3477,46.2617Q34.9531,46.8594 33.8984,47.9844Q32.8438,49.1094 32.2344,50.7266Q31.625,52.3438 31.625,54.3828Q31.625,58.6484 33.6992,60.7695Q35.7734,62.8906 39.4531,62.8906Q41.1172,62.8906 42.6758,62.5156Q44.2344,62.1406 45.6875,61.3906L45.6875,61.3906L45.6875,65.1875zM74.3281,50.75Q74.3281,54.2656 73.625,57.1602Q72.9219,60.0547 71.4922,62.1289Q70.0625,64.2031 67.9414,65.3398Q65.8203,66.4766 62.9609,66.4766Q60.5,66.4766 58.4844,65.5508Q56.4688,64.625 55.0391,62.7031Q53.6094,60.7813 52.8359,57.8047Q52.0625,54.8281 52.0625,50.75Q52.0625,47.2344 52.7773,44.3281Q53.4922,41.4219 54.9102,39.3477Q56.3281,37.2734 58.4609,36.1367Q60.5938,35 63.4297,35Q65.8906,35 67.9063,35.9258Q69.9219,36.8516 71.3516,38.7852Q72.7813,40.7188 73.5547,43.6953Q74.3281,46.6719 74.3281,50.75zM70.2031,50.8906Q70.2031,50.0938 70.1445,49.3086Q70.0859,48.5234 70.0156,47.7734L70.0156,47.7734L57.0547,57.4063Q57.4063,58.625 57.9453,59.6563Q58.4844,60.6875 59.2461,61.4258Q60.0078,62.1641 60.9805,62.5742Q61.9531,62.9844 63.1953,62.9844Q64.7891,62.9844 66.0898,62.2109Q67.3906,61.4375 68.3047,59.9141Q69.2188,58.3906 69.7109,56.1289Q70.2031,53.8672 70.2031,50.8906zM56.1875,50.6094Q56.1875,51.3359 56.1992,52.0625Q56.2109,52.7891 56.2813,53.4688L56.2813,53.4688L69.2422,43.8828Q68.8906,42.6875 68.3516,41.7031Q67.8125,40.7188 67.0625,40.0039Q66.3125,39.2891 65.3516,38.8906Q64.3906,38.4922 63.1953,38.4922Q61.6016,38.4922 60.3008,39.2656Q59,40.0391 58.0859,41.5742Q57.1719,43.1094 56.6797,45.3711Q56.1875,47.6328 56.1875,50.6094z" />
    </g>
    <g id="Rectangle11" transform="matrix(1,0,0,1,600,100)">
      <rect x="0" y="0" width="100" height="100" style="stroke:#000000;stroke-linecap:round;stroke-linejoin:round;fill:#56B4E9;" />
      <path d="M45.6875,65.1875Q44.0938,65.7969 42.418,66.0898Q40.7422,66.3828 38.9609,66.3828Q33.3828,66.3828 30.3711,63.3594Q27.3594,60.3359 27.3594,54.5234Q27.3594,51.7344 28.2266,49.4609Q29.0938,47.1875 30.6641,45.5703Q32.2344,43.9531 34.4141,43.0742Q36.5938,42.1953 39.2188,42.1953Q41.0469,42.1953 42.6406,42.4531Q44.2344,42.7109 45.6875,43.2969L45.6875,43.2969L45.6875,47.1875Q44.1641,46.3906 42.582,46.0273Q41,45.6641 39.3125,45.6641Q37.7422,45.6641 36.3477,46.2617Q34.9531,46.8594 33.8984,47.9844Q32.8438,49.1094 32.2344,50.7266Q31.625,52.3438 31.625,54.3828Q31.625,58.6484 33.6992,60.7695Q35.7734,62.8906 39.4531,62.8906Q41.1172,62.8906 42.6758,62.5156Q44.2344,62.1406 45.6875,61.3906L45.6875,61.3906L45.6875,65.1875zM73.3672,66.0547L54.125,66.0547L54.125,62.2578L62,62.2578L62,39.8984L54.6641,43.8828L53.1641,40.4141L62.9141,35.2813L66.5234,35.2813L66.5234,62.2578L73.3672,62.2578L73.3672,66.0547z" />
    </g>
    <g id="Rectangle12" transform="matrix(1,0,0,1,700,100)">
      <rect x="0" y="0" width="100" height="100" style="stroke:#000000;stroke-linecap:round;stroke-linejoin:round;fill:#56B4E9;" />
      <path d="M45.6875,65.1875Q44.0938,65.7969 42.418,66.0898Q40.7422,66.3828 38.9609,66.3828Q33.3828,66.3828 30.3711,63.3594Q27.3594,60.3359 27.3594,54.5234Q27.3594,51.7344 28.2266,49.4609Q29.0938,47.1875 30.6641,45.5703Q32.2344,43.9531 34.4141,43.0742Q36.5938,42.1953 39.2188,42.1953Q41.0469,42.1953 42.6406,42.4531Q44.2344,42.7109 45.6875,43.2969L45.6875,43.2969L45.6875,47.1875Q44.1641,46.3906 42.582,46.0273Q41,45.6641 39.3125,45.6641Q37.7422,45.6641 36.3477,46.2617Q34.9531,46.8594 33.8984,47.9844Q32.8438,49.1094 32.2344,50.7266Q31.625,52.3438 31.625,54.3828Q31.625,58.6484 33.6992,60.7695Q35.7734,62.8906 39.4531,62.8906Q41.1172,62.8906 42.6758,62.5156Q44.2344,62.1406 45.6875,61.3906L45.6875,61.3906L45.6875,65.1875zM73.625,66.0547L53.4453,66.0547L53.4453,62.3984L61.3672,54.5234Q63.3125,52.6016 64.5313,51.1953Q65.75,49.7891 66.4297,48.6289Q67.1094,47.4688 67.3438,46.4375Q67.5781,45.4063 67.5781,44.2109Q67.5781,43.0859 67.2734,42.0664Q66.9688,41.0469 66.3359,40.2734Q65.7031,39.5 64.6953,39.0547Q63.6875,38.6094 62.2813,38.6094Q60.3359,38.6094 58.7422,39.4766Q57.1484,40.3438 55.8125,41.7266L55.8125,41.7266L53.5625,39.0313Q55.2969,37.2031 57.5586,36.1016Q59.8203,35 62.8203,35Q64.8594,35 66.5352,35.6094Q68.2109,36.2188 69.4297,37.3672Q70.6484,38.5156 71.3164,40.1797Q71.9844,41.8438 71.9844,43.9297Q71.9844,45.6875 71.5156,47.1875Q71.0469,48.6875 70.0977,50.1758Q69.1484,51.6641 67.707,53.2578Q66.2656,54.8516 64.2969,56.75L64.2969,56.75L58.7422,62.1641L73.625,62.1641L73.625,66.0547z" />
    </g>
    <g id="Rectangle13" transform="matrix(1,0,0,1,800,100)">
      <rect x="0" y="0" width="100" height="100" style="stroke:#000000;stroke-linecap:round;stroke-linejoin:round;fill:#56B4E9;" />
      <path d="M45.6875,65.1875Q44.0938,65.7969 42.418,66.0898Q40.7422,66.3828 38.9609,66.3828Q33.3828,66.3828 30.3711,63.3594Q27.3594,60.3359 27.3594,54.5234Q27.3594,51.7344 28.2266,49.4609Q29.0938,47.1875 30.6641,45.5703Q32.2344,43.9531 34.4141,43.0742Q36.5938,42.1953 39.2188,42.1953Q41.0469,42.1953 42.6406,42.4531Q44.2344,42.7109 45.6875,43.2969L45.6875,43.2969L45.6875,47.1875Q44.1641,46.3906 42.582,46.0273Q41,45.6641 39.3125,45.6641Q37.7422,45.6641 36.3477,46.2617Q34.9531,46.8594 33.8984,47.9844Q32.8438,49.1094 32.2344,50.7266Q31.625,52.3438 31.625,54.3828Q31.625,58.6484 33.6992,60.7695Q35.7734,62.8906 39.4531,62.8906Q41.1172,62.8906 42.6758,62.5156Q44.2344,62.1406 45.6875,61.3906L45.6875,61.3906L45.6875,65.1875zM73.0391,56.75Q73.0391,58.7656 72.2188,60.5352Q71.3984,62.3047 69.7578,63.6289Q68.1172,64.9531 65.6328,65.7148Q63.1484,66.4766 59.8438,66.4766Q58.0156,66.4766 56.5625,66.3594Q55.1094,66.2422 53.8438,66.0547L53.8438,66.0547L53.8438,62.3984Q55.2969,62.6563 56.9141,62.7969Q58.5313,62.9375 60.2188,62.9375Q62.5156,62.9375 64.1445,62.5273Q65.7734,62.1172 66.8047,61.3438Q67.8359,60.5703 68.3047,59.4688Q68.7734,58.3672 68.7734,56.9844Q68.7734,55.7188 68.2109,54.7813Q67.6484,53.8438 66.6289,53.2109Q65.6094,52.5781 64.1914,52.2617Q62.7734,51.9453 61.0859,51.9453L61.0859,51.9453L57.5938,51.9453L57.5938,48.5938L61.1328,48.5938Q62.5156,48.5938 63.6523,48.2305Q64.7891,47.8672 65.5977,47.1875Q66.4063,46.5078 66.8398,45.5117Q67.2734,44.5156 67.2734,43.25Q67.2734,40.7891 65.7734,39.6641Q64.2734,38.5391 61.3672,38.5391Q59.8203,38.5391 58.1797,38.8438Q56.5391,39.1484 54.6641,39.7578L54.6641,39.7578L54.6641,36.1953Q55.4609,35.9141 56.3633,35.6914Q57.2656,35.4688 58.168,35.3164Q59.0703,35.1641 59.9609,35.082Q60.8516,35 61.6719,35Q64.1094,35 65.9609,35.5273Q67.8125,36.0547 69.0547,37.0391Q70.2969,38.0234 70.9297,39.4297Q71.5625,40.8359 71.5625,42.5938Q71.5625,45.2188 70.2148,47Q68.8672,48.7813 66.5234,49.8359Q67.7188,50.0234 68.8789,50.5859Q70.0391,51.1484 70.9648,52.0273Q71.8906,52.9063 72.4648,54.1016Q73.0391,55.2969 73.0391,56.75z" />
    </g>
    <g id="Rectangle14" transform="matrix(1,0,0,1,900,100)">
      <rect x="0" y="0" width="100" height="100" style="stroke:#000000;stroke-linecap:round;stroke-linejoin:round;fill:#56B4E9;" />
      <path d="M45.6875,65.1875Q44.0938,65.7969 42.418,66.0898Q40.7422,66.3828 38.9609,66.3828Q33.3828,66.3828 30.3711,63.3594Q27.3594,60.3359 27.3594,54.5234Q27.3594,51.7344 28.2266,49.4609Q29.0938,47.1875 30.6641,45.5703Q32.2344,43.9531 34.4141,43.0742Q36.5938,42.1953 39.2188,42.1953Q41.0469,42.1953 42.6406,42.4531Q44.2344,42.7109 45.6875,43.2969L45.6875,43.2969L45.6875,47.1875Q44.1641,46.3906 42.582,46.0273Q41,45.6641 39.3125,45.6641Q37.7422,45.6641 36.3477,46.2617Q34.9531,46.8594 33.8984,47.9844Q32.8438,49.1094 32.2344,50.7266Q31.625,52.3438 31.625,54.3828Q31.625,58.6484 33.6992,60.7695Q35.7734,62.8906 39.4531,62.8906Q41.1172,62.8906 42.6758,62.5156Q44.2344,62.1406 45.6875,61.3906L45.6875,61.3906L45.6875,65.1875zM75.1484,59.2813L69.9219,59.2813L69.9219,66.0547L65.75,66.0547L65.75,59.2813L51.0078,59.2813L51.0078,55.6953L64.0625,35.4219L69.9219,35.4219L69.9219,55.6953L75.1484,55.6953L75.1484,59.2813zM65.75,39.3594L55.0859,55.6953L65.75,55.6953L65.75,39.3594z" />
    </g>
    <g id="Rectangle15" transform="matrix(1,0,0,1,1000,100)">
      <rect x="0" y="0" width="100" height="100" style="stroke:#000000;stroke-linecap:round;stroke-linejoin:round;fill:#56B4E9;" />
      <path d="M45.6875,65.1875Q44.0938,65.7969 42.418,66.0898Q40.7422,66.3828 38.9609,66.3828Q33.3828,66.3828 30.3711,63.3594Q27.3594,60.3359 27.3594,54.5234Q27.3594,51.7344 28.2266,49.4609Q29.0938,47.1875 30.6641,45.5703Q32.2344,43.9531 34.4141,43.0742Q36.5938,42.1953 39.2188,42.1953Q41.0469,42.1953 42.6406,42.4531Q44.2344,42.7109 45.6875,43.2969L45.6875,43.2969L45.6875,47.1875Q44.1641,46.3906 42.582,46.0273Q41,45.6641 39.3125,45.6641Q37.7422,45.6641 36.3477,46.2617Q34.9531,46.8594 33.8984,47.9844Q32.8438,49.1094 32.2344,50.7266Q31.625,52.3438 31.625,54.3828Q31.625,58.6484 33.6992,60.7695Q35.7734,62.8906 39.4531,62.8906Q41.1172,62.8906 42.6758,62.5156Q44.2344,62.1406 45.6875,61.3906L45.6875,61.3906L45.6875,65.1875zM72.8516,56.2578Q72.8516,58.5313 71.8672,60.4063Q70.8828,62.2813 69.1602,63.6289Q67.4375,64.9766 65.0938,65.7266Q62.75,66.4766 60.0313,66.4766Q59.3516,66.4766 58.5664,66.4414Q57.7813,66.4063 57.0078,66.3477Q56.2344,66.2891 55.4961,66.2188Q54.7578,66.1484 54.1719,66.0547L54.1719,66.0547L54.1719,62.3516Q55.4375,62.6563 57.0664,62.7969Q58.6953,62.9375 60.3594,62.9375Q62.2344,62.9375 63.7344,62.4922Q65.2344,62.0469 66.2891,61.2148Q67.3438,60.3828 67.9063,59.1992Q68.4688,58.0156 68.4688,56.5391Q68.4688,53.6797 66.418,52.3789Q64.3672,51.0781 60.5234,51.0781L60.5234,51.0781L54.7109,51.0781L54.7109,35.4219L71.2109,35.4219L71.2109,38.9844L58.5547,38.9844L58.5547,47.5859L61.2266,47.5859Q63.4297,47.5859 65.5156,47.9844Q67.6016,48.3828 69.2305,49.3789Q70.8594,50.375 71.8555,52.0508Q72.8516,53.7266 72.8516,56.2578z" />
    </g>
    <g id="Rectangle16" transform="matrix(1,0,0,1,1100,100)">
      <rect x="0" y="0" width="100" height="100" style="stroke:#000000;stroke-linecap:round;stroke-linejoin:round;fill:#56B4E9;" />
      <path d="M45.6875,65.1875Q44.0938,65.7969 42.418,66.0898Q40.7422,66.3828 38.9609,66.3828Q33.3828,66.3828 30.3711,63.3594Q27.3594,60.3359 27.3594,54.5234Q27.3594,51.7344 28.2266,49.4609Q29.0938,47.1875 30.6641,45.5703Q32.2344,43.9531 34.4141,43.0742Q36.5938,42.1953 39.2188,42.1953Q41.0469,42.1953 42.6406,42.4531Q44.2344,42.7109 45.6875,43.2969L45.6875,43.2969L45.6875,47.1875Q44.1641,46.3906 42.582,46.0273Q41,45.6641 39.3125,45.6641Q37.7422,45.6641 36.3477,46.2617Q34.9531,46.8594 33.8984,47.9844Q32.8438,49.1094 32.2344,50.7266Q31.625,52.3438 31.625,54.3828Q31.625,58.6484 33.6992,60.7695Q35.7734,62.8906 39.4531,62.8906Q41.1172,62.8906 42.6758,62.5156Q44.2344,62.1406 45.6875,61.3906L45.6875,61.3906L45.6875,65.1875zM74,56.3516Q74,58.4609 73.2383,60.3125Q72.4766,62.1641 71.0703,63.5352Q69.6641,64.9063 67.6836,65.6914Q65.7031,66.4766 63.2891,66.4766Q60.7578,66.4766 58.8125,65.668Q56.8672,64.8594 55.5547,63.1836Q54.2422,61.5078 53.5625,58.9531Q52.8828,56.3984 52.8828,52.9063Q52.8828,50.5625 53.1875,48.3594Q53.4922,46.1563 54.1953,44.2109Q54.8984,42.2656 56.0703,40.6484Q57.2422,39.0313 58.9883,37.8711Q60.7344,36.7109 63.1016,36.0664Q65.4688,35.4219 68.5859,35.4219L68.5859,35.4219L71.6094,35.4219L71.6094,38.9844L68.3281,38.9844Q65.5859,38.9844 63.5703,39.6406Q61.5547,40.2969 60.1953,41.4922Q58.8359,42.6875 58.1094,44.375Q57.3828,46.0625 57.1953,48.1484L57.1953,48.1484L57.1016,49.1094Q58.5781,48.2422 60.5117,47.7148Q62.4453,47.1875 64.6953,47.1875Q67.0156,47.1875 68.7617,47.8672Q70.5078,48.5469 71.668,49.7539Q72.8281,50.9609 73.4141,52.6484Q74,54.3359 74,56.3516zM69.7344,56.6094Q69.7344,55.2031 69.3945,54.0664Q69.0547,52.9297 68.3281,52.1445Q67.6016,51.3594 66.4883,50.9258Q65.375,50.4922 63.8281,50.4922Q62.9375,50.4922 62.0234,50.6563Q61.1094,50.8203 60.2305,51.1133Q59.3516,51.4063 58.5547,51.7813Q57.7578,52.1563 57.1016,52.5781Q57.1016,55.6016 57.5234,57.6289Q57.9453,59.6563 58.7773,60.875Q59.6094,62.0938 60.8281,62.6094Q62.0469,63.125 63.6406,63.125Q64.9766,63.125 66.0898,62.6914Q67.2031,62.2578 68.0117,61.4141Q68.8203,60.5703 69.2773,59.3633Q69.7344,58.1563 69.7344,56.6094z" />
    </g>
    <g id="Rectangle17" transform="matrix(1,0,0,1,1200,100)">
      <rect x="0" y="0" width="100" height="100" style="stroke:#000000;stroke-linecap:round;stroke-linejoin:round;fill:#56B4E9;" />
      <path d="M45.6875,65.1875Q44.0938,65.7969 42.418,66.0898Q40.7422,66.3828 38.9609,66.3828Q33.3828,66.3828 30.3711,63.3594Q27.3594,60.3359 27.3594,54.5234Q27.3594,51.7344 28.2266,49.4609Q29.0938,47.1875 30.6641,45.5703Q32.2344,43.9531 34.4141,43.0742Q36.5938,42.1953 39.2188,42.1953Q41.0469,42.1953 42.6406,42.4531Q44.2344,42.7109 45.6875,43.2969L45.6875,43.2969L45.6875,47.1875Q44.1641,46.3906 42.582,46.0273Q41,45.6641 39.3125,45.6641Q37.7422,45.6641 36.3477,46.2617Q34.9531,46.8594 33.8984,47.9844Q32.8438,49.1094 32.2344,50.7266Q31.625,52.3438 31.625,54.3828Q31.625,58.6484 33.6992,60.7695Q35.7734,62.8906 39.4531,62.8906Q41.1172,62.8906 42.6758,62.5156Q44.2344,62.1406 45.6875,61.3906L45.6875,61.3906L45.6875,65.1875zM73.4609,39.2188L60.6172,66.0547L55.9531,66.0547L69.2891,39.2188L52.7422,39.2188L52.7422,35.4219L73.4609,35.4219L73.4609,39.2188z" />
    </g>
    <g id="Rectangle18" transform="matrix(1,0,0,1,1300,100)">
      <rect x="0" y="0" width="100" height="100" style="stroke:#000000;stroke-linecap:round;stroke-linejoin:round;fill:#56B4E9;" />
      <path d="M45.6875,65.1875Q44.0938,65.7969 42.418,66.0898Q40.7422,66.3828 38.9609,66.3828Q33.3828,66.3828 30.3711,63.3594Q27.3594,60.3359 27.3594,54.5234Q27.3594,51.7344 28.2266,49.4609Q29.0938,47.1875 30.6641,45.5703Q32.2344,43.9531 34.4141,43.0742Q36.5938,42.1953 39.2188,42.1953Q41.0469,42.1953 42.6406,42.4531Q44.2344,42.7109 45.6875,43.2969L45.6875,43.2969L45.6875,47.1875Q44.1641,46.3906 42.582,46.0273Q41,45.6641 39.3125,45.6641Q37.7422,45.6641 36.3477,46.2617Q34.9531,46.8594 33.8984,47.9844Q32.8438,49.1094 32.2344,50.7266Q31.625,52.3438 31.625,54.3828Q31.625,58.6484 33.6992,60.7695Q35.7734,62.8906 39.4531,62.8906Q41.1172,62.8906 42.6758,62.5156Q44.2344,62.1406 45.6875,61.3906L45.6875,61.3906L45.6875,65.1875zM73.625,58.3672Q73.625,60.3125 72.8281,61.8242Q72.0313,63.3359 70.6016,64.3672Q69.1719,65.3984 67.2266,65.9375Q65.2813,66.4766 63.0078,66.4766Q60.5,66.4766 58.5898,65.9141Q56.6797,65.3516 55.3906,64.3438Q54.1016,63.3359 53.4453,61.9531Q52.7891,60.5703 52.7891,58.9063Q52.7891,56.0938 54.3594,54.0547Q55.9297,52.0156 59.2109,50.3516Q56.2109,48.8281 54.8281,46.9648Q53.4453,45.1016 53.4453,42.6875Q53.4453,41.2109 54.0547,39.8281Q54.6641,38.4453 55.8945,37.3672Q57.125,36.2891 58.9766,35.6445Q60.8281,35 63.3359,35Q65.7031,35 67.4961,35.5039Q69.2891,36.0078 70.5078,36.9453Q71.7266,37.8828 72.3359,39.2188Q72.9453,40.5547 72.9453,42.1953Q72.9453,44.8672 71.457,46.7422Q69.9688,48.6172 67.2266,50.0234Q68.5859,50.7031 69.7578,51.5234Q70.9297,52.3438 71.7969,53.3516Q72.6641,54.3594 73.1445,55.6016Q73.625,56.8438 73.625,58.3672zM68.7734,42.5234Q68.7734,40.4375 67.3086,39.418Q65.8438,38.3984 63.1953,38.3984Q60.5703,38.3984 59.1055,39.4063Q57.6406,40.4141 57.6406,42.4297Q57.6406,43.3438 57.9922,44.1172Q58.3438,44.8906 59.082,45.5703Q59.8203,46.25 60.9219,46.9063Q62.0234,47.5625 63.5469,48.2422Q66.1953,47 67.4844,45.6523Q68.7734,44.3047 68.7734,42.5234zM69.1953,58.6719Q69.1953,57.8047 68.9141,56.9844Q68.6328,56.1641 67.9063,55.3672Q67.1797,54.5703 65.9609,53.7734Q64.7422,52.9766 62.8672,52.1328Q61.2734,52.9063 60.1836,53.668Q59.0938,54.4297 58.4258,55.2148Q57.7578,56 57.4766,56.8438Q57.1953,57.6875 57.1953,58.625Q57.1953,59.6797 57.6523,60.4883Q58.1094,61.2969 58.9063,61.8594Q59.7031,62.4219 60.8047,62.7031Q61.9063,62.9844 63.1953,62.9844Q64.4375,62.9844 65.5391,62.7266Q66.6406,62.4688 67.4492,61.9414Q68.2578,61.4141 68.7266,60.6055Q69.1953,59.7969 69.1953,58.6719z" />
    </g>
    <g id="Text1" transform="matrix(1,0,0,1,25,100)">
      <rect x="0" y="0" width="450" height="100" style="stroke-linecap:round;stroke-linejoin:round;fill:none;fill-opacity:0;" />
      <path d="M29.9115,66.5625Q25.8229,68.2552 21.3438,68.2552Q14.1302,68.2552 10.263,63.9453Q6.3958,59.6354 6.3958,51.1979Q6.3958,47.1094 7.4635,43.8021Q8.5313,40.4948 10.5104,38.1901Q12.4896,35.8854 15.3021,34.6354Q18.1146,33.3854 21.6042,33.3854Q23.974,33.3854 26.0052,33.7891Q28.0365,34.1927 29.9115,35.026L29.9115,35.026L29.9115,39.5833Q28.0625,38.5677 26.0833,38.0339Q24.1042,37.5 21.7604,37.5Q19.3646,37.5 17.4245,38.3984Q15.4844,39.2969 14.1302,41.0026Q12.776,42.7083 12.0469,45.1693Q11.3177,47.6302 11.3177,50.7813Q11.3177,57.3958 14,60.7552Q16.6823,64.1146 21.8646,64.1146Q24.0521,64.1146 26.0573,63.6068Q28.0625,63.099 29.9115,62.1875L29.9115,62.1875L29.9115,66.5625zM60.1979,54.5573Q60.1979,57.6042 59.3385,60.1432Q58.4792,62.6823 56.8646,64.4922Q55.25,66.3021 52.9323,67.3047Q50.6146,68.3073 47.6719,68.3073Q44.8594,68.3073 42.6328,67.4349Q40.4063,66.5625 38.8568,64.8698Q37.3073,63.1771 36.487,60.6771Q35.6667,58.1771 35.6667,54.9219Q35.6667,51.875 36.526,49.362Q37.3854,46.849 39,45.0391Q40.6146,43.2292 42.9323,42.2266Q45.25,41.224 48.1927,41.224Q51.0052,41.224 53.2318,42.0964Q55.4583,42.9688 57.0078,44.6484Q58.5573,46.3281 59.3776,48.8281Q60.1979,51.3281 60.1979,54.5573zM55.5625,54.7656Q55.5625,52.3438 55.0286,50.5339Q54.4948,48.724 53.5052,47.513Q52.5156,46.3021 51.0964,45.6901Q49.6771,45.0781 47.9323,45.0781Q45.901,45.0781 44.4557,45.8724Q43.0104,46.6667 42.0859,47.9948Q41.1615,49.3229 40.7318,51.0807Q40.3021,52.8385 40.3021,54.7656Q40.3021,57.1875 40.8359,59.0104Q41.3698,60.8333 42.3594,62.0443Q43.349,63.2552 44.7552,63.8672Q46.1615,64.4792 47.9323,64.4792Q49.9635,64.4792 51.4089,63.6849Q52.8542,62.8906 53.7786,61.5625Q54.7031,60.2344 55.1328,58.4766Q55.5625,56.7188 55.5625,54.7656zM87.4115,60.7031Q87.4115,62.0833 86.9427,63.1771Q86.474,64.2708 85.6667,65.1172Q84.8594,65.9635 83.7917,66.5625Q82.724,67.1615 81.513,67.5521Q80.3021,67.9427 79.026,68.125Q77.75,68.3073 76.526,68.3073Q73.8698,68.3073 71.6432,68.0729Q69.4167,67.8385 67.2813,67.3177L67.2813,67.3177L67.2813,63.151Q69.5729,63.8021 71.8385,64.1406Q74.1042,64.4792 76.3438,64.4792Q79.599,64.4792 81.1615,63.5938Q82.724,62.7083 82.724,61.0677Q82.724,60.3646 82.4766,59.8047Q82.2292,59.2448 81.5781,58.737Q80.9271,58.2292 79.5599,57.6823Q78.1927,57.1354 75.8229,56.4323Q74.0521,55.9115 72.5547,55.2474Q71.0573,54.5833 69.9635,53.6719Q68.8698,52.7604 68.2448,51.5365Q67.6198,50.3125 67.6198,48.6458Q67.6198,47.5521 68.1276,46.25Q68.6354,44.9479 69.8594,43.8281Q71.0833,42.7083 73.1667,41.9661Q75.25,41.224 78.375,41.224Q79.9115,41.224 81.7865,41.3932Q83.6615,41.5625 85.6927,41.9792L85.6927,41.9792L85.6927,46.0156Q83.5573,45.4948 81.6432,45.2474Q79.7292,45 78.3229,45Q76.6302,45 75.4714,45.2604Q74.3125,45.5208 73.5964,45.9766Q72.8802,46.4323 72.5677,47.0443Q72.2552,47.6563 72.2552,48.3594Q72.2552,49.0625 72.5286,49.6354Q72.8021,50.2083 73.5443,50.7422Q74.2865,51.276 75.6146,51.8099Q76.9427,52.3438 79.0781,52.9688Q81.3958,53.6458 82.9844,54.388Q84.5729,55.1302 85.5625,56.0417Q86.5521,56.9531 86.9818,58.099Q87.4115,59.2448 87.4115,60.7031zM117.0469,67.474Q115.5104,67.8646 113.8698,68.0339Q112.2292,68.2031 110.5365,68.2031Q105.6146,68.2031 103.1927,65.9766Q100.7708,63.75 100.7708,59.1406L100.7708,59.1406L100.7708,45.4948L93.4531,45.4948L93.4531,41.6927L100.7708,41.6927L100.7708,34.5052L105.3021,33.3333L105.3021,41.6927L117.0469,41.6927L117.0469,45.4948L105.3021,45.4948L105.3021,58.776Q105.3021,61.5885 106.7995,62.9818Q108.2969,64.375 111.2135,64.375Q112.4635,64.375 113.9479,64.1797Q115.4323,63.9844 117.0469,63.5677L117.0469,63.5677L117.0469,67.474z" />
    </g>
    <g id="Text2" transform="matrix(1,0,0,1,25,400)">
      <rect x="0" y="0" width="450" height="125" style="stroke-linecap:round;stroke-linejoin:round;fill:none;fill-opacity:0;" />
      <path d="M31.3698,80.3385L26.1354,80.3385L21.0573,69.4531Q20.4844,68.2031 19.8854,67.3828Q19.2865,66.5625 18.5964,66.0807Q17.9063,65.599 17.0859,65.3906Q16.2656,65.1823 15.25,65.1823L15.25,65.1823L13.0625,65.1823L13.0625,80.3385L8.4271,80.3385L8.4271,46.3021L17.5417,46.3021Q20.5104,46.3021 22.6458,46.9531Q24.7812,47.6042 26.1484,48.776Q27.5156,49.9479 28.1536,51.6016Q28.7917,53.2552 28.7917,55.2604Q28.7917,56.849 28.3229,58.2682Q27.8542,59.6875 26.9297,60.8464Q26.0052,62.0052 24.638,62.8516Q23.2708,63.6979 21.5,64.1146Q22.9323,64.6094 23.9349,65.8464Q24.9375,67.0833 25.9792,69.1406L25.9792,69.1406L31.3698,80.3385zM23.9479,55.651Q23.9479,52.9167 22.2422,51.5625Q20.5365,50.2083 17.4375,50.2083L17.4375,50.2083L13.0625,50.2083L13.0625,61.4583L16.8125,61.4583Q18.4531,61.4583 19.7682,61.0807Q21.0833,60.7031 22.0078,59.9609Q22.9323,59.2188 23.4401,58.138Q23.9479,57.0573 23.9479,55.651zM59.5208,65.8854Q59.5208,66.849 59.4948,67.5Q59.4688,68.151 59.4167,68.724L59.4167,68.724L41.0573,68.724Q41.0573,72.7344 43.2969,74.8828Q45.5365,77.0313 49.7552,77.0313Q50.901,77.0313 52.0469,76.9401Q53.1927,76.849 54.2604,76.6927Q55.3281,76.5365 56.3047,76.3411Q57.2813,76.1458 58.1146,75.9115L58.1146,75.9115L58.1146,79.6354Q56.2656,80.1563 53.9349,80.4818Q51.6042,80.8073 49.1042,80.8073Q45.7448,80.8073 43.3229,79.8958Q40.901,78.9844 39.3516,77.2526Q37.8021,75.5208 37.0599,73.0078Q36.3177,70.4948 36.3177,67.3177Q36.3177,64.5573 37.112,62.0964Q37.9063,59.6354 39.4297,57.7734Q40.9531,55.9115 43.1667,54.8177Q45.3802,53.724 48.1927,53.724Q50.9271,53.724 53.0365,54.5833Q55.1458,55.4427 56.5911,57.0182Q58.0365,58.5938 58.7786,60.8464Q59.5208,63.099 59.5208,65.8854zM54.8073,65.2344Q54.8854,63.4896 54.4688,62.0443Q54.0521,60.599 53.1797,59.5573Q52.3073,58.5156 51.0052,57.9297Q49.7031,57.3438 47.9844,57.3438Q46.5,57.3438 45.276,57.9167Q44.0521,58.4896 43.1667,59.5313Q42.2813,60.5729 41.7344,62.0313Q41.1875,63.4896 41.0573,65.2344L41.0573,65.2344L54.8073,65.2344zM64.2604,54.1927L69.4167,54.1927L75.8229,71.4844L77.2031,75.7031L78.6354,71.3802L84.9896,54.1927L89.9635,54.1927L79.7031,80.3385L74.4948,80.3385L64.2604,54.1927zM118.0625,65.8854Q118.0625,66.849 118.0365,67.5Q118.0104,68.151 117.9583,68.724L117.9583,68.724L99.599,68.724Q99.599,72.7344 101.8385,74.8828Q104.0781,77.0313 108.2969,77.0313Q109.4427,77.0313 110.5885,76.9401Q111.7344,76.849 112.8021,76.6927Q113.8698,76.5365 114.8464,76.3411Q115.8229,76.1458 116.6563,75.9115L116.6563,75.9115L116.6563,79.6354Q114.8073,80.1563 112.4766,80.4818Q110.1458,80.8073 107.6458,80.8073Q104.2865,80.8073 101.8646,79.8958Q99.4427,78.9844 97.8932,77.2526Q96.3438,75.5208 95.6016,73.0078Q94.8594,70.4948 94.8594,67.3177Q94.8594,64.5573 95.6536,62.0964Q96.4479,59.6354 97.9714,57.7734Q99.4948,55.9115 101.7083,54.8177Q103.9219,53.724 106.7344,53.724Q109.4688,53.724 111.5781,54.5833Q113.6875,55.4427 115.1328,57.0182Q116.5781,58.5938 117.3203,60.8464Q118.0625,63.099 118.0625,65.8854zM113.349,65.2344Q113.4271,63.4896 113.0104,62.0443Q112.5938,60.599 111.7214,59.5573Q110.849,58.5156 109.5469,57.9297Q108.2448,57.3438 106.526,57.3438Q105.0417,57.3438 103.8177,57.9167Q102.5938,58.4896 101.7083,59.5313Q100.8229,60.5729 100.276,62.0313Q99.7292,63.4896 99.599,65.2344L99.599,65.2344L113.349,65.2344zM126.3177,54.1927L130.4583,54.1927L130.5885,59.0104Q132.9063,56.224 135.1588,54.974Q137.4115,53.724 139.7031,53.724Q143.7656,53.724 145.862,56.3542Q147.9583,58.9844 147.8021,64.1667L147.8021,64.1667L143.2188,64.1667Q143.2969,60.7292 142.2161,59.1797Q141.1354,57.6302 139.0521,57.6302Q138.1406,57.6302 137.2161,57.9557Q136.2917,58.2813 135.3151,58.9974Q134.3385,59.7135 133.2448,60.8333Q132.151,61.9531 130.901,63.5417L130.901,63.5417L130.901,80.3385L126.3177,80.3385L126.3177,54.1927zM175.224,73.2031Q175.224,74.5833 174.7552,75.6771Q174.2865,76.7708 173.4792,77.6172Q172.6719,78.4635 171.6042,79.0625Q170.5364,79.6615 169.3255,80.0521Q168.1146,80.4427 166.8385,80.625Q165.5625,80.8073 164.3385,80.8073Q161.6823,80.8073 159.4557,80.5729Q157.2292,80.3385 155.0937,79.8177L155.0937,79.8177L155.0937,75.651Q157.3854,76.3021 159.651,76.6406Q161.9167,76.9792 164.1562,76.9792Q167.4115,76.9792 168.974,76.0938Q170.5365,75.2083 170.5365,73.5677Q170.5365,72.8646 170.289,72.3047Q170.0417,71.7448 169.3906,71.237Q168.7396,70.7292 167.3724,70.1823Q166.0052,69.6354 163.6354,68.9323Q161.8646,68.4115 160.3672,67.7474Q158.8698,67.0833 157.776,66.1719Q156.6823,65.2604 156.0573,64.0365Q155.4323,62.8125 155.4323,61.1458Q155.4323,60.0521 155.9401,58.75Q156.4479,57.4479 157.6719,56.3281Q158.8958,55.2083 160.9792,54.4661Q163.0625,53.724 166.1875,53.724Q167.724,53.724 169.599,53.8932Q171.474,54.0625 173.5052,54.4792L173.5052,54.4792L173.5052,58.5156Q171.3698,57.9948 169.4557,57.7474Q167.5417,57.5 166.1354,57.5Q164.4427,57.5 163.2838,57.7604Q162.125,58.0208 161.4088,58.4766Q160.6927,58.9323 160.3802,59.5443Q160.0677,60.1563 160.0677,60.8594Q160.0677,61.5625 160.3411,62.1354Q160.6146,62.7083 161.3568,63.2422Q162.099,63.776 163.4271,64.3099Q164.7552,64.8438 166.8906,65.4688Q169.2083,66.1458 170.7969,66.888Q172.3854,67.6302 173.375,68.5417Q174.3646,69.4531 174.7943,70.599Q175.224,71.7448 175.224,73.2031zM205.875,65.8854Q205.875,66.849 205.8489,67.5Q205.8229,68.151 205.7708,68.724L205.7708,68.724L187.4114,68.724Q187.4114,72.7344 189.651,74.8828Q191.8906,77.0313 196.1094,77.0313Q197.2552,77.0313 198.401,76.9401Q199.5469,76.849 200.6146,76.6927Q201.6823,76.5365 202.6588,76.3411Q203.6354,76.1458 204.4687,75.9115L204.4687,75.9115L204.4687,79.6354Q202.6198,80.1563 200.289,80.4818Q197.9583,80.8073 195.4583,80.8073Q192.0989,80.8073 189.6771,79.8958Q187.2552,78.9844 185.7057,77.2526Q184.1562,75.5208 183.414,73.0078Q182.6719,70.4948 182.6719,67.3177Q182.6719,64.5573 183.4661,62.0964Q184.2604,59.6354 185.7838,57.7734Q187.3073,55.9115 189.5208,54.8177Q191.7344,53.724 194.5469,53.724Q197.2812,53.724 199.3906,54.5833Q201.5,55.4427 202.9453,57.0182Q204.3906,58.5938 205.1328,60.8464Q205.875,63.099 205.875,65.8854zM201.1614,65.2344Q201.2396,63.4896 200.8229,62.0443Q200.4062,60.599 199.5338,59.5573Q198.6614,58.5156 197.3594,57.9297Q196.0573,57.3438 194.3385,57.3438Q192.8542,57.3438 191.6302,57.9167Q190.4062,58.4896 189.5208,59.5313Q188.6354,60.5729 188.0885,62.0313Q187.5417,63.4896 187.4114,65.2344L187.4114,65.2344L201.1614,65.2344zM264.4166,65.8854Q264.4166,66.849 264.3906,67.5Q264.3646,68.151 264.3125,68.724L264.3125,68.724L245.9531,68.724Q245.9531,72.7344 248.1927,74.8828Q250.4323,77.0313 254.651,77.0313Q255.7968,77.0313 256.9427,76.9401Q258.0885,76.849 259.1562,76.6927Q260.2239,76.5365 261.2005,76.3411Q262.1771,76.1458 263.0104,75.9115L263.0104,75.9115L263.0104,79.6354Q261.1614,80.1563 258.8307,80.4818Q256.5,80.8073 254,80.8073Q250.6406,80.8073 248.2187,79.8958Q245.7968,78.9844 244.2474,77.2526Q242.6979,75.5208 241.9557,73.0078Q241.2135,70.4948 241.2135,67.3177Q241.2135,64.5573 242.0078,62.0964Q242.8021,59.6354 244.3255,57.7734Q245.8489,55.9115 248.0625,54.8177Q250.276,53.724 253.0885,53.724Q255.8229,53.724 257.9323,54.5833Q260.0416,55.4427 261.4869,57.0182Q262.9323,58.5938 263.6744,60.8464Q264.4166,63.099 264.4166,65.8854zM259.7031,65.2344Q259.7812,63.4896 259.3646,62.0443Q258.9479,60.599 258.0755,59.5573Q257.2031,58.5156 255.901,57.9297Q254.5989,57.3438 252.8802,57.3438Q251.3958,57.3438 250.1718,57.9167Q248.9479,58.4896 248.0625,59.5313Q247.1771,60.5729 246.6302,62.0313Q246.0833,63.4896 245.9531,65.2344L245.9531,65.2344L259.7031,65.2344zM270.276,67.8125Q270.276,64.4792 271.1875,61.888Q272.0989,59.2969 273.7786,57.513Q275.4583,55.7292 277.8151,54.8047Q280.1718,53.8802 283.0625,53.8802Q284.3125,53.8802 285.5234,54.0365Q286.7343,54.1927 287.9062,54.5313L287.9062,54.5313L287.9062,43.5417L292.4635,43.5417L292.4635,80.3385L288.401,80.3385L288.2448,75.3906Q286.3437,78.151 284.1302,79.4792Q281.9166,80.8073 279.3385,80.8073Q277.0989,80.8073 275.3932,79.8698Q273.6875,78.9323 272.5547,77.2266Q271.4218,75.5208 270.8489,73.125Q270.276,70.7292 270.276,67.8125zM274.9114,67.526Q274.9114,72.2656 276.3047,74.5964Q277.6979,76.9271 280.25,76.9271Q281.9687,76.9271 283.8828,75.3906Q285.7968,73.8542 287.9062,70.8333L287.9062,70.8333L287.9062,58.6979Q286.7864,58.1771 285.4323,57.9036Q284.0781,57.6302 282.75,57.6302Q279.0521,57.6302 276.9818,60.026Q274.9114,62.4219 274.9114,67.526zM319.7031,57.8906Q320.4323,58.8021 320.8359,60.013Q321.2396,61.224 321.2396,62.6302Q321.2396,64.6615 320.4974,66.3411Q319.7552,68.0208 318.401,69.2188Q317.0468,70.4167 315.1588,71.0807Q313.2708,71.7448 311.0052,71.7448Q309.3646,71.7448 307.9323,71.3932Q306.5,71.0417 305.6667,70.5208Q305.1718,71.25 304.8333,71.901Q304.4948,72.5521 304.4948,73.3594Q304.4948,74.349 305.4453,75Q306.3958,75.651 307.9583,75.7031L307.9583,75.7031L314.8333,75.9635Q316.7864,76.0156 318.4401,76.4583Q320.0937,76.901 321.2786,77.7344Q322.4635,78.5677 323.1276,79.7917Q323.7917,81.0156 323.7917,82.6302Q323.7917,84.375 323.0364,85.9375Q322.2812,87.5 320.7057,88.6849Q319.1302,89.8698 316.7083,90.5729Q314.2864,91.276 310.9531,91.276Q307.776,91.276 305.5495,90.7682Q303.3229,90.2604 301.8906,89.362Q300.4583,88.4635 299.8073,87.2266Q299.1562,85.9896 299.1562,84.5052Q299.1562,82.6042 300.0417,81.1719Q300.9271,79.7396 302.776,78.4115Q302.0989,78.099 301.6042,77.6302Q301.1093,77.1615 300.7968,76.6016Q300.4843,76.0417 300.3281,75.4167Q300.1718,74.7917 300.1718,74.1927Q300.1718,72.5 300.9661,71.0938Q301.7604,69.6875 302.8542,68.4375Q302.3593,67.8385 301.9818,67.2656Q301.6042,66.6927 301.3307,66.0286Q301.0573,65.3646 300.914,64.5964Q300.7708,63.8281 300.7708,62.8385Q300.7708,60.8073 301.513,59.1276Q302.2552,57.4479 303.5963,56.25Q304.9375,55.0521 306.8255,54.388Q308.7135,53.724 311.0052,53.724Q311.9687,53.724 312.8542,53.8542Q313.7396,53.9844 314.4167,54.1927L314.4167,54.1927L323.8958,54.1927L323.8958,57.8906L319.7031,57.8906zM303.9739,84.1146Q303.9739,85.9635 305.901,86.8099Q307.8281,87.6563 311.2656,87.6563Q313.4271,87.6563 314.8984,87.2656Q316.3698,86.875 317.2682,86.237Q318.1667,85.599 318.5573,84.7786Q318.9479,83.9583 318.9479,83.099Q318.9479,81.5104 317.6458,80.7552Q316.3437,80 313.6614,79.8698L313.6614,79.8698L306.8385,79.6354Q305.9792,80.2083 305.4193,80.7552Q304.8593,81.3021 304.5468,81.862Q304.2343,82.4219 304.1042,82.9818Q303.9739,83.5417 303.9739,84.1146zM305.3542,62.7344Q305.3542,63.9844 305.7708,65.026Q306.1875,66.0677 306.9427,66.7969Q307.6979,67.526 308.7265,67.9297Q309.7552,68.3333 311.0052,68.3333Q312.3593,68.3333 313.414,67.8776Q314.4687,67.4219 315.1849,66.6406Q315.901,65.8594 316.2786,64.8438Q316.6562,63.8281 316.6562,62.7344Q316.6562,61.4844 316.2396,60.4427Q315.8229,59.401 315.0677,58.6719Q314.3125,57.9427 313.2838,57.5391Q312.2552,57.1354 311.0052,57.1354Q309.651,57.1354 308.5963,57.6042Q307.5417,58.0729 306.8255,58.8411Q306.1093,59.6094 305.7318,60.625Q305.3542,61.6406 305.3542,62.7344zM352.2292,65.8854Q352.2292,66.849 352.2031,67.5Q352.1771,68.151 352.125,68.724L352.125,68.724L333.7656,68.724Q333.7656,72.7344 336.0052,74.8828Q338.2448,77.0313 342.4635,77.0313Q343.6094,77.0313 344.7552,76.9401Q345.901,76.849 346.9688,76.6927Q348.0364,76.5365 349.013,76.3411Q349.9896,76.1458 350.8229,75.9115L350.8229,75.9115L350.8229,79.6354Q348.9739,80.1563 346.6432,80.4818Q344.3125,80.8073 341.8125,80.8073Q338.4531,80.8073 336.0313,79.8958Q333.6094,78.9844 332.0599,77.2526Q330.5104,75.5208 329.7682,73.0078Q329.026,70.4948 329.026,67.3177Q329.026,64.5573 329.8203,62.0964Q330.6146,59.6354 332.138,57.7734Q333.6614,55.9115 335.875,54.8177Q338.0885,53.724 340.901,53.724Q343.6354,53.724 345.7448,54.5833Q347.8542,55.4427 349.2995,57.0182Q350.7448,58.5938 351.487,60.8464Q352.2292,63.099 352.2292,65.8854zM347.5156,65.2344Q347.5938,63.4896 347.1771,62.0443Q346.7604,60.599 345.888,59.5573Q345.0156,58.5156 343.7135,57.9297Q342.4114,57.3438 340.6927,57.3438Q339.2083,57.3438 337.9844,57.9167Q336.7604,58.4896 335.875,59.5313Q334.9896,60.5729 334.4427,62.0313Q333.8958,63.4896 333.7656,65.2344L333.7656,65.2344L347.5156,65.2344zM380.1198,73.2031Q380.1198,74.5833 379.651,75.6771Q379.1823,76.7708 378.375,77.6172Q377.5677,78.4635 376.5,79.0625Q375.4323,79.6615 374.2213,80.0521Q373.0104,80.4427 371.7344,80.625Q370.4583,80.8073 369.2344,80.8073Q366.5781,80.8073 364.3516,80.5729Q362.125,80.3385 359.9896,79.8177L359.9896,79.8177L359.9896,75.651Q362.2813,76.3021 364.5469,76.6406Q366.8125,76.9792 369.0521,76.9792Q372.3073,76.9792 373.8698,76.0938Q375.4323,75.2083 375.4323,73.5677Q375.4323,72.8646 375.1849,72.3047Q374.9375,71.7448 374.2865,71.237Q373.6354,70.7292 372.2682,70.1823Q370.901,69.6354 368.5313,68.9323Q366.7604,68.4115 365.263,67.7474Q363.7656,67.0833 362.6719,66.1719Q361.5781,65.2604 360.9531,64.0365Q360.3281,62.8125 360.3281,61.1458Q360.3281,60.0521 360.8359,58.75Q361.3438,57.4479 362.5677,56.3281Q363.7917,55.2083 365.875,54.4661Q367.9583,53.724 371.0833,53.724Q372.6198,53.724 374.4948,53.8932Q376.3698,54.0625 378.401,54.4792L378.401,54.4792L378.401,58.5156Q376.2656,57.9948 374.3516,57.7474Q372.4375,57.5 371.0313,57.5Q369.3385,57.5 368.1797,57.7604Q367.0208,58.0208 366.3047,58.4766Q365.5885,58.9323 365.276,59.5443Q364.9635,60.1563 364.9635,60.8594Q364.9635,61.5625 365.237,62.1354Q365.5104,62.7083 366.2526,63.2422Q366.9948,63.776 368.3229,64.3099Q369.651,64.8438 371.7865,65.4688Q374.1042,66.1458 375.6927,66.888Q377.2813,67.6302 378.2708,68.5417Q379.2604,69.4531 379.6901,70.599Q380.1198,71.7448 380.1198,73.2031z" />
    </g>
    <path id="Connection" d="M550,300L550,200" style="stroke:#999999;stroke-linecap:round;stroke-linejoin:round;stroke-dasharray:10 5;fill:none;" />
    <path d="M550,215L550,200L550,215L542.5,200L550,215L557.5,200L550,215z" style="stroke:#999999;stroke-linecap:round;stroke-linejoin:round;fill:#999999;" />
    <path id="Connection1" d="M650,300L650,200" style="stroke:#999999;stroke-linecap:round;stroke-linejoin:round;stroke-dasharray:10 5;fill:none;" />
    <path d="M650,215L650,200L650,215L642.5,200L650,215L657.5,200L650,215z" style="stroke:#999999;stroke-linecap:round;stroke-linejoin:round;fill:#999999;" />
    <path id="Connection2" d="M750,300L750,200" style="stroke:#999999;stroke-linecap:round;stroke-linejoin:round;stroke-dasharray:10 5;fill:none;" />
    <path d="M750,215L750,200L750,215L742.5,200L750,215L757.5,200L750,215z" style="stroke:#999999;stroke-linecap:round;stroke-linejoin:round;fill:#999999;" />
    <path id="Connection3" d="M850,300L850,200" style="stroke:#999999;stroke-linecap:round;stroke-linejoin:round;stroke-dasharray:10 5;fill:none;" />
    <path d="M850,215L850,200L850,215L842.5,200L850,215L857.5,200L850,215z" style="stroke:#999999;stroke-linecap:round;stroke-linejoin:round;fill:#999999;" />
    <path id="Connection4" d="M950,300L950,200" style="stroke:#999999;stroke-linecap:round;stroke-linejoin:round;stroke-dasharray:10 5;fill:none;" />
    <path d="M950,215L950,200L950,215L942.5,200L950,215L957.5,200L950,215z" style="stroke:#999999;stroke-linecap:round;stroke-linejoin:round;fill:#999999;" />
    <path id="Connection5" d="M1050,300L1050,200" style="stroke:#999999;stroke-linecap:round;stroke-linejoin:round;stroke-dasharray:10 5;fill:none;" />
    <path d="M1050,215L1050,200L1050,215L1042.5,200L1050,215L1057.5,200L1050,215z" style="stroke:#999999;stroke-linecap:round;stroke-linejoin:round;fill:#999999;" />
    <path id="Connection6" d="M1150,300L1150,200" style="stroke:#999999;stroke-linecap:round;stroke-linejoin:round;stroke-dasharray:10 5;fill:none;" />
    <path d="M1150,215L1150,200L1150,215L1142.5,200L1150,215L1157.5,200L1150,215z" style="stroke:#999999;stroke-linecap:round;stroke-linejoin:round;fill:#999999;" />
    <path id="Connection7" d="M1250,300L1250,200" style="stroke:#999999;stroke-linecap:round;stroke-linejoin:round;stroke-dasharray:10 5;fill:none;" />
    <path d="M1250,215L1250,200L1250,215L1242.5,200L1250,215L1257.5,200L1250,215z" style="stroke:#999999;stroke-linecap:round;stroke-linejoin:round;fill:#999999;" />
    <path id="Connection8" d="M1350,300L1350,200" style="stroke:#999999;stroke-linecap:round;stroke-linejoin:round;stroke-dasharray:10 5;fill:none;" />
    <path d="M1350,215L1350,200L1350,215L1342.5,200L1350,215L1357.5,200L1350,215z" style="stroke:#999999;stroke-linecap:round;stroke-linejoin:round;fill:#999999;" />
    <path id="Connection9" d="M650,400L650,420L574.993,420L574.993,400" style="stroke:#000000;stroke-linecap:round;stroke-linejoin:round;fill:none;" />
    <path d="M567.493,415L574.993,400L582.493,415L574.993,410.5z" style="stroke:#000000;stroke-linecap:round;stroke-linejoin:round;fill:#FFFFFF;" />
    <path id="Connection10" d="M750,400L750,424.799L574.993,424.799L574.993,400" style="stroke:#000000;stroke-linecap:round;stroke-linejoin:round;fill:none;" />
    <path d="M567.493,415L574.993,400L582.493,415z" style="stroke:#000000;stroke-linecap:round;stroke-linejoin:round;fill:#FFFFFF;" />
    <path id="Connection11" d="M850,400L850,438.1318L574.993,438.1318L574.993,400" style="stroke:#000000;stroke-linecap:round;stroke-linejoin:round;fill:none;" />
    <path d="M567.493,415L574.993,400L582.493,415z" style="stroke:#000000;stroke-linecap:round;stroke-linejoin:round;fill:#FFFFFF;" />
    <path id="Connection12" d="M950,400L950,450.3152L880.0191,450.3152C880.0191,448.9896 879.492,447.717 878.5547,446.7797C877.6174,445.8423 876.3447,445.3152 875.0191,445.3152C872.2762,445.3152 870.0191,447.5723 870.0191,450.3152L880.0191,450.3152C880.0191,448.9896 879.492,447.717 878.5547,446.7797C877.6174,445.8423 876.3447,445.3152 875.0191,445.3152C872.2762,445.3152 870.0191,447.5723 870.0191,450.3152L880.0191,450.3152C880.0191,448.9896 879.492,447.717 878.5547,446.7797C877.6174,445.8423 876.3447,445.3152 875.0191,445.3152C872.2762,445.3152 870.0191,447.5723 870.0191,450.3152L574.993,450.3152L574.993,400" style="stroke:#000000;stroke-linecap:round;stroke-linejoin:round;fill:none;" />
    <path d="M567.493,415L574.993,400L582.493,415z" style="stroke:#000000;stroke-linecap:round;stroke-linejoin:round;fill:#FFFFFF;" />
    <path id="Connection13" d="M1050,400L1050,462.3169L875.0191,462.3169L875.0191,400" style="stroke:#000000;stroke-linecap:round;stroke-linejoin:round;fill:none;" />
    <path d="M867.5191,415L875.0191,400L882.5191,415z" style="stroke:#000000;stroke-linecap:round;stroke-linejoin:round;fill:#FFFFFF;" />
    <path id="Connection14" d="M1150,400L1150,474.1416L875.0191,474.1416L875.0191,400" style="stroke:#000000;stroke-linecap:round;stroke-linejoin:round;fill:none;" />
    <path d="M867.5191,415L875.0191,400L882.5191,415z" style="stroke:#000000;stroke-linecap:round;stroke-linejoin:round;fill:#FFFFFF;" />
    <path id="Connection15" d="M1250,400L1250,487.7512L875.0191,487.7512L875.0191,400" style="stroke:#000000;stroke-linecap:round;stroke-linejoin:round;fill:none;" />
    <path d="M867.5191,415L875.0191,400L882.5191,415z" style="stroke:#000000;stroke-linecap:round;stroke-linejoin:round;fill:#FFFFFF;" />
    <path id="Connection16" d="M1350,400L1350,500.9146L875.0191,500.9146L875.0191,400" style="stroke:#000000;stroke-linecap:round;stroke-linejoin:round;fill:none;" />
    <path d="M867.5191,415L875.0191,400L882.5191,415z" style="stroke:#000000;stroke-linecap:round;stroke-linejoin:round;fill:#FFFFFF;" />
    <path id="Quadratic spline arrow" d="M1425,400Q1281.266,501.7903 1325,400" style="stroke:#CC79A7;stroke-linecap:round;stroke-linejoin:round;stroke-width:6;fill:none;" />
    <path d="M1311.4476,412.5439L1325,400L1325.2294,418.4652L1316.118,420.6727z" style="stroke:#CC79A7;stroke-linecap:round;stroke-linejoin:round;stroke-width:6;fill:#FFFFFF;" />
    <path id="Quadratic spline arrow1" d="M1425,400Q1226.9182,596.9309 1225,400" style="stroke:#CC79A7;stroke-linecap:round;stroke-linejoin:round;stroke-width:6;fill:none;" />
    <path d="M1217.6647,416.9472L1225,400L1232.664,416.8012L1225.2191,422.4989z" style="stroke:#CC79A7;stroke-linecap:round;stroke-linejoin:round;stroke-width:6;fill:#FFFFFF;" />
    <path id="Quadratic spline arrow2" d="M1425,400Q1176.6624,695.1407 1125,400" style="stroke:#CC79A7;stroke-linecap:round;stroke-linejoin:round;stroke-width:6;fill:none;" />
    <path d="M1120.5219,417.9154L1125,400L1135.2973,415.3291L1128.8795,422.163z" style="stroke:#CC79A7;stroke-linecap:round;stroke-linejoin:round;stroke-width:6;fill:#FFFFFF;" />
  </g>
</svg>