<svg height="150" viewBox="0 0 337.5 150" width="337.5" xmlns="http://www.w3.org/2000/svg"><path d="m22.5 22.5h60v60h-60z"/><g fill="#fff"><path d="m29.98 71.16h22.5v3.75h-22.5z"/><path d="m30 29.92h10.29a9 9 0 0 1 6.58 2.29 7.08 7.08 0 0 1 1.94 5.16v.06a7 7 0 0 1 -4.84 7l5.51 8.06h-5.8l-4.84-7.22h-3.9v7.22h-4.94zm10 11c2.42 0 3.81-1.29 3.81-3.19v-.06c0-2.13-1.49-3.23-3.91-3.23h-4.96v6.48z"/><path d="m52.92 29.92h8.81c7.09 0 12 4.87 12 11.22v.06c0 6.36-4.9 11.29-12 11.29h-8.81zm5 4.48v13.6h3.84a6.43 6.43 0 0 0 6.8-6.74v-.06a6.48 6.48 0 0 0 -6.8-6.8z"/></g><path d="m105.19 22.39h27.42c7.63 0 13.54 2.14 17.48 6.08 3.34 3.34 5.14 8.06 5.14 13.71v.17c0 9.69-5.22 15.77-12.85 18.6l14.62 21.42h-15.39l-12.85-19.19h-10.37v19.19h-13.2zm26.57 29.13c6.42 0 10.11-3.43 10.11-8.48v-.17c0-5.66-3.94-8.57-10.37-8.57h-13.11v17.22z"/><path d="m161.29 19.82h13.71v11.57h-13.71zm.34 16.62h13v45.93h-13z"/><path d="m180.61 59.49v-.17c0-15.34 10-23.74 20.91-23.74a17.62 17.62 0 0 1 14.31 6.86v-22.62h13v62.55h-13v-6.6c-3.17 4.29-7.54 7.46-14.31 7.46-10.71 0-20.91-8.4-20.91-23.74zm35.39 0v-.17c0-7.63-5.05-12.68-11.14-12.68s-11.22 5-11.22 12.68v.17c0 7.63 5.14 12.68 11.22 12.68s11.14-5.05 11.14-12.68z"/><path d="m234.43 59.66v-.17c0-13.11 9.34-23.91 22.71-23.91 15.34 0 22.37 11.91 22.37 24.94 0 1-.09 2.23-.18 3.43h-32c1.29 5.91 5.4 9 11.23 9 4.37 0 7.54-1.37 11.14-4.71l7.45 6.6c-4.28 5.31-10.45 8.57-18.76 8.57-13.76-.01-23.96-9.7-23.96-23.75zm32.39-3.85c-.77-5.81-4.19-9.81-9.68-9.81s-8.91 3.85-9.94 9.77z"/><path d="m285.22 36.44h13v9.26c2.66-6.35 6.94-10.46 14.66-10.12v13.63h-.69c-8.65 0-14 5.23-14 16.19v17h-13z"/><path d="m0 0h337.5v150h-337.5z" fill="none"/><path d="m107.51 124.59v3.07h-2.39v-22.66h2.39v9.83a7.2 7.2 0 0 1 6.14-3.56c3.84 0 7.65 3 7.65 8.31v.06c0 5.24-3.78 8.34-7.65 8.34a7.22 7.22 0 0 1 -6.14-3.39zm11.35-4.9v-.06c0-3.79-2.61-6.2-5.65-6.2a6 6 0 0 0 -5.8 6.17v.06a6 6 0 0 0 5.8 6.2c3.1 0 5.65-2.29 5.65-6.17z"/><path d="m136.52 111.63h2.54l-6.72 16.56c-1.37 3.31-2.92 4.52-5.34 4.52a7.39 7.39 0 0 1 -3.41-.8l.81-1.9a4.93 4.93 0 0 0 2.51.59c1.43 0 2.32-.74 3.29-3l-7.29-16h2.63l5.83 13.4z"/><path d="m150.44 124.12 1.76-1.52c1.34 2 2.7 3.11 5 3.11 2.45 0 4.24-1.77 4.24-5.21v-14.5h2.48v14.51a7.83 7.83 0 0 1 -2 5.71 6.65 6.65 0 0 1 -4.78 1.8 7.41 7.41 0 0 1 -6.7-3.9z"/><path d="m168.32 119.69v-.06c0-4.62 3.25-8.34 7.69-8.34 4.74 0 7.47 3.78 7.47 8.46a6.52 6.52 0 0 1 0 .78h-12.74a5.59 5.59 0 0 0 5.64 5.42 6.64 6.64 0 0 0 5.05-2.26l1.49 1.33a8.26 8.26 0 0 1 -6.6 3 8 8 0 0 1 -8-8.33zm12.74-.93c-.25-2.92-1.92-5.46-5.11-5.46-2.8 0-4.9 2.33-5.21 5.46z"/><path d="m187.91 123.41v-9.67h-2.23v-2.11h2.23v-4.84h2.39v4.84h5.08v2.11h-5.08v9.36a2.37 2.37 0 0 0 2.7 2.67 5.07 5.07 0 0 0 2.32-.56v2a6 6 0 0 1 -2.88.69c-2.58.04-4.53-1.23-4.53-4.49z"/><path d="m199.3 106h9.24a8 8 0 0 1 5.68 1.93 4.8 4.8 0 0 1 1.39 3.47v.06a5.22 5.22 0 0 1 -3.44 5c2.57.78 4.65 2.27 4.65 5.24v.07c0 3.72-3.13 5.92-7.88 5.92h-9.64zm13.83 5.74c0-2.14-1.7-3.53-4.81-3.53h-6.6v7.47h6.42c2.94 0 5-1.34 5-3.88zm-4.56 6.11h-6.85v7.66h7.28c3.28 0 5.33-1.46 5.33-3.88v-.06c.01-2.41-1.97-3.77-5.76-3.77z"/><path d="m221.35 111.63h2.39v4.18a6.86 6.86 0 0 1 6.54-4.46v2.57h-.19c-3.5 0-6.35 2.51-6.35 7.35v6.39h-2.39z"/><path d="m232.19 123c0-3.38 2.79-5.18 6.85-5.18a17.19 17.19 0 0 1 4.93.68v-.56c0-2.88-1.77-4.37-4.78-4.37a11.13 11.13 0 0 0 -4.86 1.18l-.72-2a13.35 13.35 0 0 1 5.83-1.33 7 7 0 0 1 5.18 1.77 6.29 6.29 0 0 1 1.64 4.68v9.8h-2.26v-2.42a7 7 0 0 1 -5.8 2.76c-3.01-.01-6.01-1.72-6.01-5.01zm11.81-1.23v-1.55a16.73 16.73 0 0 0 -4.71-.69c-3 0-4.69 1.31-4.69 3.32v.06c0 2 1.86 3.2 4 3.2 2.98 0 5.4-1.8 5.4-4.34z"/><path d="m251.08 105.49h2.73v2.63h-2.73zm.16 6.14h2.38v16h-2.38z"/><path d="m258.78 111.63h2.39v2.79a6.07 6.07 0 0 1 5.49-3.13c3.88 0 6.14 2.6 6.14 6.42v10h-2.39v-9.37c0-3-1.61-4.83-4.43-4.83a4.72 4.72 0 0 0 -4.81 5v9.18h-2.39z"/><path d="m276.25 125.61 1.21-1.7a9.39 9.39 0 0 0 5.55 2c1.93 0 3.32-1 3.32-2.54v-.06c0-1.61-1.89-2.23-4-2.82-2.51-.72-5.3-1.58-5.3-4.53v-.06c0-2.76 2.29-4.59 5.46-4.59a10.9 10.9 0 0 1 5.76 1.77l-1.08 1.8a9 9 0 0 0 -4.74-1.56c-1.9 0-3.11 1-3.11 2.33v.06c0 1.52 2 2.11 4.13 2.76 2.48.75 5.15 1.71 5.15 4.59v.06c0 3-2.52 4.81-5.71 4.81a11 11 0 0 1 -6.64-2.32z"/></svg>