<?xml version="1.0" encoding="utf-8"?>
<svg version="1.1" viewBox="0 0 1600 900" width="1600" height="900" style="stroke:none;stroke-linecap:butt;stroke-linejoin:miter;stroke-width:1;stroke-dasharray:none;fill:#000000;fill-opacity:1;fill-rule:evenodd" font-family="Arial" font-size="15" xmlns:xlink="http://www.w3.org/1999/xlink" xmlns="http://www.w3.org/2000/svg">
  <g transform="matrix(1,0,0,1,0,0)">
    <g id="Rectangle" transform="matrix(1,0,0,1,500,300)">
      <rect x="0" y="0" width="100" height="100" style="stroke:#000000;stroke-linecap:round;stroke-linejoin:round;fill:#009E73;" />
      <path d="M48.6172,66.0547L43.2031,66.0547L36.8516,57.0781L30.5703,66.0547L25.2969,66.0547L34.4141,54.2422L25.7188,42.5234L30.9453,42.5234L37.1328,51.5703L43.2031,42.5234L48.2422,42.5234L39.4063,54.3359L48.6172,66.0547zM74.3281,50.75Q74.3281,54.2656 73.625,57.1602Q72.9219,60.0547 71.4922,62.1289Q70.0625,64.2031 67.9414,65.3398Q65.8203,66.4766 62.9609,66.4766Q60.5,66.4766 58.4844,65.5508Q56.4688,64.625 55.0391,62.7031Q53.6094,60.7813 52.8359,57.8047Q52.0625,54.8281 52.0625,50.75Q52.0625,47.2344 52.7773,44.3281Q53.4922,41.4219 54.9102,39.3477Q56.3281,37.2734 58.4609,36.1367Q60.5938,35 63.4297,35Q65.8906,35 67.9063,35.9258Q69.9219,36.8516 71.3516,38.7852Q72.7813,40.7188 73.5547,43.6953Q74.3281,46.6719 74.3281,50.75zM70.2031,50.8906Q70.2031,50.0938 70.1445,49.3086Q70.0859,48.5234 70.0156,47.7734L70.0156,47.7734L57.0547,57.4063Q57.4063,58.625 57.9453,59.6563Q58.4844,60.6875 59.2461,61.4258Q60.0078,62.1641 60.9805,62.5742Q61.9531,62.9844 63.1953,62.9844Q64.7891,62.9844 66.0898,62.2109Q67.3906,61.4375 68.3047,59.9141Q69.2188,58.3906 69.7109,56.1289Q70.2031,53.8672 70.2031,50.8906zM56.1875,50.6094Q56.1875,51.3359 56.1992,52.0625Q56.2109,52.7891 56.2813,53.4688L56.2813,53.4688L69.2422,43.8828Q68.8906,42.6875 68.3516,41.7031Q67.8125,40.7188 67.0625,40.0039Q66.3125,39.2891 65.3516,38.8906Q64.3906,38.4922 63.1953,38.4922Q61.6016,38.4922 60.3008,39.2656Q59,40.0391 58.0859,41.5742Q57.1719,43.1094 56.6797,45.3711Q56.1875,47.6328 56.1875,50.6094z" />
    </g>
    <g id="Text" transform="matrix(1,0,0,1,25,300)">
      <rect x="0" y="0" width="450" height="100" style="stroke-linecap:round;stroke-linejoin:round;fill:none;fill-opacity:0;" />
      <path d="M33.2188,33.8021L21.6563,67.8385L15.4063,67.8385L4.1042,33.8021L9.3385,33.8021L16.6823,56.7448L18.7656,63.4635L20.901,56.7448L28.2708,33.8021L33.2188,33.8021zM54.2344,67.8385L54.1302,64.3229Q51.9948,66.4323 49.7943,67.3698Q47.5937,68.3073 45.1719,68.3073Q42.9323,68.3073 41.3438,67.7344Q39.7552,67.1615 38.7266,66.1589Q37.6979,65.1563 37.2161,63.8021Q36.7344,62.4479 36.7344,60.8594Q36.7344,56.9271 39.6641,54.7005Q42.5938,52.474 48.3229,52.474L48.3229,52.474L53.7396,52.474L53.7396,50.1823Q53.7396,47.8646 52.2552,46.4714Q50.7708,45.0781 47.724,45.0781Q45.5104,45.0781 43.362,45.5729Q41.2135,46.0677 38.9219,46.9792L38.9219,46.9792L38.9219,42.8906Q39.7813,42.5781 40.8359,42.2786Q41.8906,41.9792 43.0625,41.7448Q44.2344,41.5104 45.5104,41.3672Q46.7865,41.224 48.0885,41.224Q50.4583,41.224 52.3594,41.7448Q54.2604,42.2656 55.5755,43.3333Q56.8906,44.401 57.5938,46.0156Q58.2969,47.6302 58.2969,49.8177L58.2969,49.8177L58.2969,67.8385L54.2344,67.8385zM53.7396,55.9375L47.9844,55.9375Q46.2917,55.9375 45.0677,56.276Q43.8438,56.6146 43.0625,57.2396Q42.2813,57.8646 41.9036,58.737Q41.526,59.6094 41.526,60.7031Q41.526,61.4583 41.7604,62.1484Q41.9948,62.8385 42.5156,63.3724Q43.0365,63.9063 43.8698,64.2188Q44.7031,64.5313 45.901,64.5313Q47.4635,64.5313 49.4818,63.5807Q51.5,62.6302 53.7396,60.5729L53.7396,60.5729L53.7396,55.9375zM75.6146,34.7656L67.8802,34.7656L67.8802,31.0417L80.1979,31.0417L80.1979,64.0625L87.9844,64.0625L87.9844,67.8385L67.0208,67.8385L67.0208,64.0625L75.6146,64.0625L75.6146,34.7656zM116.9948,67.8385L112.9323,67.8385L112.776,63.6198Q111.6042,64.974 110.5495,65.8724Q109.4948,66.7708 108.4531,67.3177Q107.4115,67.8646 106.3568,68.0859Q105.3021,68.3073 104.1302,68.3073Q100.0938,68.3073 98.0365,65.9375Q95.9792,63.5677 95.9792,58.776L95.9792,58.776L95.9792,41.6927L100.5104,41.6927L100.5104,58.4115Q100.5104,64.4271 105.0417,64.4271Q105.875,64.4271 106.6693,64.1797Q107.4635,63.9323 108.3359,63.3203Q109.2083,62.7083 110.2109,61.6667Q111.2135,60.625 112.4635,59.0365L112.4635,59.0365L112.4635,41.6927L116.9948,41.6927L116.9948,67.8385zM147.3333,53.3854Q147.3333,54.349 147.3073,55Q147.2813,55.651 147.2292,56.224L147.2292,56.224L128.8698,56.224Q128.8698,60.2344 131.1094,62.3828Q133.349,64.5313 137.5677,64.5313Q138.7135,64.5313 139.8594,64.4401Q141.0052,64.349 142.0729,64.1927Q143.1406,64.0365 144.1172,63.8411Q145.0938,63.6458 145.9271,63.4115L145.9271,63.4115L145.9271,67.1354Q144.0781,67.6563 141.7474,67.9818Q139.4167,68.3073 136.9167,68.3073Q133.5573,68.3073 131.1354,67.3958Q128.7135,66.4844 127.1641,64.7526Q125.6146,63.0208 124.8724,60.5078Q124.1302,57.9948 124.1302,54.8177Q124.1302,52.0573 124.9245,49.5964Q125.7187,47.1354 127.2422,45.2734Q128.7656,43.4115 130.9792,42.3177Q133.1927,41.224 136.0052,41.224Q138.7396,41.224 140.849,42.0833Q142.9583,42.9427 144.4036,44.5182Q145.849,46.0938 146.5911,48.3464Q147.3333,50.599 147.3333,53.3854zM142.6198,52.7344Q142.6979,50.9896 142.2813,49.5443Q141.8646,48.099 140.9922,47.0573Q140.1198,46.0156 138.8177,45.4297Q137.5156,44.8438 135.7969,44.8438Q134.3125,44.8438 133.0885,45.4167Q131.8646,45.9896 130.9792,47.0313Q130.0938,48.0729 129.5469,49.5313Q129,50.9896 128.8698,52.7344L128.8698,52.7344L142.6198,52.7344zM175.224,60.7031Q175.224,62.0833 174.7552,63.1771Q174.2865,64.2708 173.4792,65.1172Q172.6719,65.9635 171.6042,66.5625Q170.5364,67.1615 169.3255,67.5521Q168.1146,67.9427 166.8385,68.125Q165.5625,68.3073 164.3385,68.3073Q161.6823,68.3073 159.4557,68.0729Q157.2292,67.8385 155.0937,67.3177L155.0937,67.3177L155.0937,63.151Q157.3854,63.8021 159.651,64.1406Q161.9167,64.4792 164.1562,64.4792Q167.4115,64.4792 168.974,63.5938Q170.5365,62.7083 170.5365,61.0677Q170.5365,60.3646 170.289,59.8047Q170.0417,59.2448 169.3906,58.737Q168.7396,58.2292 167.3724,57.6823Q166.0052,57.1354 163.6354,56.4323Q161.8646,55.9115 160.3672,55.2474Q158.8698,54.5833 157.776,53.6719Q156.6823,52.7604 156.0573,51.5365Q155.4323,50.3125 155.4323,48.6458Q155.4323,47.5521 155.9401,46.25Q156.4479,44.9479 157.6719,43.8281Q158.8958,42.7083 160.9792,41.9661Q163.0625,41.224 166.1875,41.224Q167.724,41.224 169.599,41.3932Q171.474,41.5625 173.5052,41.9792L173.5052,41.9792L173.5052,46.0156Q171.3698,45.4948 169.4557,45.2474Q167.5417,45 166.1354,45Q164.4427,45 163.2838,45.2604Q162.125,45.5208 161.4088,45.9766Q160.6927,46.4323 160.3802,47.0443Q160.0677,47.6563 160.0677,48.3594Q160.0677,49.0625 160.3411,49.6354Q160.6146,50.2083 161.3568,50.7422Q162.099,51.276 163.4271,51.8099Q164.7552,52.3438 166.8906,52.9688Q169.2083,53.6458 170.7969,54.388Q172.3854,55.1302 173.375,56.0417Q174.3646,56.9531 174.7943,58.099Q175.224,59.2448 175.224,60.7031z" />
    </g>
    <g id="Rectangle1" transform="matrix(1,0,0,1,600,300)">
      <rect x="0" y="0" width="100" height="100" style="stroke:#000000;stroke-linecap:round;stroke-linejoin:round;fill:#009E73;" />
      <path d="M48.6172,66.0547L43.2031,66.0547L36.8516,57.0781L30.5703,66.0547L25.2969,66.0547L34.4141,54.2422L25.7188,42.5234L30.9453,42.5234L37.1328,51.5703L43.2031,42.5234L48.2422,42.5234L39.4063,54.3359L48.6172,66.0547zM73.3672,66.0547L54.125,66.0547L54.125,62.2578L62,62.2578L62,39.8984L54.6641,43.8828L53.1641,40.4141L62.9141,35.2813L66.5234,35.2813L66.5234,62.2578L73.3672,62.2578L73.3672,66.0547z" />
    </g>
    <g id="Rectangle2" transform="matrix(1,0,0,1,700,300)">
      <rect x="0" y="0" width="100" height="100" style="stroke:#000000;stroke-linecap:round;stroke-linejoin:round;fill:#009E73;" />
      <path d="M48.6172,66.0547L43.2031,66.0547L36.8516,57.0781L30.5703,66.0547L25.2969,66.0547L34.4141,54.2422L25.7188,42.5234L30.9453,42.5234L37.1328,51.5703L43.2031,42.5234L48.2422,42.5234L39.4063,54.3359L48.6172,66.0547zM73.625,66.0547L53.4453,66.0547L53.4453,62.3984L61.3672,54.5234Q63.3125,52.6016 64.5313,51.1953Q65.75,49.7891 66.4297,48.6289Q67.1094,47.4688 67.3438,46.4375Q67.5781,45.4063 67.5781,44.2109Q67.5781,43.0859 67.2734,42.0664Q66.9688,41.0469 66.3359,40.2734Q65.7031,39.5 64.6953,39.0547Q63.6875,38.6094 62.2813,38.6094Q60.3359,38.6094 58.7422,39.4766Q57.1484,40.3438 55.8125,41.7266L55.8125,41.7266L53.5625,39.0313Q55.2969,37.2031 57.5586,36.1016Q59.8203,35 62.8203,35Q64.8594,35 66.5352,35.6094Q68.2109,36.2188 69.4297,37.3672Q70.6484,38.5156 71.3164,40.1797Q71.9844,41.8438 71.9844,43.9297Q71.9844,45.6875 71.5156,47.1875Q71.0469,48.6875 70.0977,50.1758Q69.1484,51.6641 67.707,53.2578Q66.2656,54.8516 64.2969,56.75L64.2969,56.75L58.7422,62.1641L73.625,62.1641L73.625,66.0547z" />
    </g>
    <g id="Rectangle3" transform="matrix(1,0,0,1,800,300)">
      <rect x="0" y="0" width="100" height="100" style="stroke:#000000;stroke-linecap:round;stroke-linejoin:round;fill:#009E73;" />
      <path d="M48.6172,66.0547L43.2031,66.0547L36.8516,57.0781L30.5703,66.0547L25.2969,66.0547L34.4141,54.2422L25.7188,42.5234L30.9453,42.5234L37.1328,51.5703L43.2031,42.5234L48.2422,42.5234L39.4063,54.3359L48.6172,66.0547zM73.0391,56.75Q73.0391,58.7656 72.2188,60.5352Q71.3984,62.3047 69.7578,63.6289Q68.1172,64.9531 65.6328,65.7148Q63.1484,66.4766 59.8438,66.4766Q58.0156,66.4766 56.5625,66.3594Q55.1094,66.2422 53.8438,66.0547L53.8438,66.0547L53.8438,62.3984Q55.2969,62.6563 56.9141,62.7969Q58.5313,62.9375 60.2188,62.9375Q62.5156,62.9375 64.1445,62.5273Q65.7734,62.1172 66.8047,61.3438Q67.8359,60.5703 68.3047,59.4688Q68.7734,58.3672 68.7734,56.9844Q68.7734,55.7188 68.2109,54.7813Q67.6484,53.8438 66.6289,53.2109Q65.6094,52.5781 64.1914,52.2617Q62.7734,51.9453 61.0859,51.9453L61.0859,51.9453L57.5938,51.9453L57.5938,48.5938L61.1328,48.5938Q62.5156,48.5938 63.6523,48.2305Q64.7891,47.8672 65.5977,47.1875Q66.4063,46.5078 66.8398,45.5117Q67.2734,44.5156 67.2734,43.25Q67.2734,40.7891 65.7734,39.6641Q64.2734,38.5391 61.3672,38.5391Q59.8203,38.5391 58.1797,38.8438Q56.5391,39.1484 54.6641,39.7578L54.6641,39.7578L54.6641,36.1953Q55.4609,35.9141 56.3633,35.6914Q57.2656,35.4688 58.168,35.3164Q59.0703,35.1641 59.9609,35.082Q60.8516,35 61.6719,35Q64.1094,35 65.9609,35.5273Q67.8125,36.0547 69.0547,37.0391Q70.2969,38.0234 70.9297,39.4297Q71.5625,40.8359 71.5625,42.5938Q71.5625,45.2188 70.2148,47Q68.8672,48.7813 66.5234,49.8359Q67.7188,50.0234 68.8789,50.5859Q70.0391,51.1484 70.9648,52.0273Q71.8906,52.9063 72.4648,54.1016Q73.0391,55.2969 73.0391,56.75z" />
    </g>
    <g id="Rectangle4" transform="matrix(1,0,0,1,900,300)">
      <rect x="0" y="0" width="100" height="100" style="stroke:#000000;stroke-linecap:round;stroke-linejoin:round;fill:#009E73;" />
      <path d="M48.6172,66.0547L43.2031,66.0547L36.8516,57.0781L30.5703,66.0547L25.2969,66.0547L34.4141,54.2422L25.7188,42.5234L30.9453,42.5234L37.1328,51.5703L43.2031,42.5234L48.2422,42.5234L39.4063,54.3359L48.6172,66.0547zM75.1484,59.2813L69.9219,59.2813L69.9219,66.0547L65.75,66.0547L65.75,59.2813L51.0078,59.2813L51.0078,55.6953L64.0625,35.4219L69.9219,35.4219L69.9219,55.6953L75.1484,55.6953L75.1484,59.2813zM65.75,39.3594L55.0859,55.6953L65.75,55.6953L65.75,39.3594z" />
    </g>
    <g id="Rectangle5" transform="matrix(1,0,0,1,1000,300)">
      <rect x="0" y="0" width="100" height="100" style="stroke:#000000;stroke-linecap:round;stroke-linejoin:round;fill:#009E73;" />
      <path d="M48.6172,66.0547L43.2031,66.0547L36.8516,57.0781L30.5703,66.0547L25.2969,66.0547L34.4141,54.2422L25.7188,42.5234L30.9453,42.5234L37.1328,51.5703L43.2031,42.5234L48.2422,42.5234L39.4063,54.3359L48.6172,66.0547zM72.8516,56.2578Q72.8516,58.5313 71.8672,60.4063Q70.8828,62.2813 69.1602,63.6289Q67.4375,64.9766 65.0938,65.7266Q62.75,66.4766 60.0313,66.4766Q59.3516,66.4766 58.5664,66.4414Q57.7813,66.4063 57.0078,66.3477Q56.2344,66.2891 55.4961,66.2188Q54.7578,66.1484 54.1719,66.0547L54.1719,66.0547L54.1719,62.3516Q55.4375,62.6563 57.0664,62.7969Q58.6953,62.9375 60.3594,62.9375Q62.2344,62.9375 63.7344,62.4922Q65.2344,62.0469 66.2891,61.2148Q67.3438,60.3828 67.9063,59.1992Q68.4688,58.0156 68.4688,56.5391Q68.4688,53.6797 66.418,52.3789Q64.3672,51.0781 60.5234,51.0781L60.5234,51.0781L54.7109,51.0781L54.7109,35.4219L71.2109,35.4219L71.2109,38.9844L58.5547,38.9844L58.5547,47.5859L61.2266,47.5859Q63.4297,47.5859 65.5156,47.9844Q67.6016,48.3828 69.2305,49.3789Q70.8594,50.375 71.8555,52.0508Q72.8516,53.7266 72.8516,56.2578z" />
    </g>
    <g id="Rectangle6" transform="matrix(1,0,0,1,1100,300)">
      <rect x="0" y="0" width="100" height="100" style="stroke:#000000;stroke-linecap:round;stroke-linejoin:round;fill:#009E73;" />
      <path d="M48.6172,66.0547L43.2031,66.0547L36.8516,57.0781L30.5703,66.0547L25.2969,66.0547L34.4141,54.2422L25.7188,42.5234L30.9453,42.5234L37.1328,51.5703L43.2031,42.5234L48.2422,42.5234L39.4063,54.3359L48.6172,66.0547zM74,56.3516Q74,58.4609 73.2383,60.3125Q72.4766,62.1641 71.0703,63.5352Q69.6641,64.9063 67.6836,65.6914Q65.7031,66.4766 63.2891,66.4766Q60.7578,66.4766 58.8125,65.668Q56.8672,64.8594 55.5547,63.1836Q54.2422,61.5078 53.5625,58.9531Q52.8828,56.3984 52.8828,52.9063Q52.8828,50.5625 53.1875,48.3594Q53.4922,46.1563 54.1953,44.2109Q54.8984,42.2656 56.0703,40.6484Q57.2422,39.0313 58.9883,37.8711Q60.7344,36.7109 63.1016,36.0664Q65.4688,35.4219 68.5859,35.4219L68.5859,35.4219L71.6094,35.4219L71.6094,38.9844L68.3281,38.9844Q65.5859,38.9844 63.5703,39.6406Q61.5547,40.2969 60.1953,41.4922Q58.8359,42.6875 58.1094,44.375Q57.3828,46.0625 57.1953,48.1484L57.1953,48.1484L57.1016,49.1094Q58.5781,48.2422 60.5117,47.7148Q62.4453,47.1875 64.6953,47.1875Q67.0156,47.1875 68.7617,47.8672Q70.5078,48.5469 71.668,49.7539Q72.8281,50.9609 73.4141,52.6484Q74,54.3359 74,56.3516zM69.7344,56.6094Q69.7344,55.2031 69.3945,54.0664Q69.0547,52.9297 68.3281,52.1445Q67.6016,51.3594 66.4883,50.9258Q65.375,50.4922 63.8281,50.4922Q62.9375,50.4922 62.0234,50.6563Q61.1094,50.8203 60.2305,51.1133Q59.3516,51.4063 58.5547,51.7813Q57.7578,52.1563 57.1016,52.5781Q57.1016,55.6016 57.5234,57.6289Q57.9453,59.6563 58.7773,60.875Q59.6094,62.0938 60.8281,62.6094Q62.0469,63.125 63.6406,63.125Q64.9766,63.125 66.0898,62.6914Q67.2031,62.2578 68.0117,61.4141Q68.8203,60.5703 69.2773,59.3633Q69.7344,58.1563 69.7344,56.6094z" />
    </g>
    <g id="Rectangle7" transform="matrix(1,0,0,1,1200,300)">
      <rect x="0" y="0" width="100" height="100" style="stroke:#000000;stroke-linecap:round;stroke-linejoin:round;fill:#009E73;" />
      <path d="M48.6172,66.0547L43.2031,66.0547L36.8516,57.0781L30.5703,66.0547L25.2969,66.0547L34.4141,54.2422L25.7188,42.5234L30.9453,42.5234L37.1328,51.5703L43.2031,42.5234L48.2422,42.5234L39.4063,54.3359L48.6172,66.0547zM73.4609,39.2188L60.6172,66.0547L55.9531,66.0547L69.2891,39.2188L52.7422,39.2188L52.7422,35.4219L73.4609,35.4219L73.4609,39.2188z" />
    </g>
    <g id="Rectangle8" transform="matrix(1,0,0,1,1300,300)">
      <rect x="0" y="0" width="100" height="100" style="stroke:#000000;stroke-linecap:round;stroke-linejoin:round;fill:#009E73;" />
      <path d="M48.6172,66.0547L43.2031,66.0547L36.8516,57.0781L30.5703,66.0547L25.2969,66.0547L34.4141,54.2422L25.7188,42.5234L30.9453,42.5234L37.1328,51.5703L43.2031,42.5234L48.2422,42.5234L39.4063,54.3359L48.6172,66.0547zM73.625,58.3672Q73.625,60.3125 72.8281,61.8242Q72.0313,63.3359 70.6016,64.3672Q69.1719,65.3984 67.2266,65.9375Q65.2813,66.4766 63.0078,66.4766Q60.5,66.4766 58.5898,65.9141Q56.6797,65.3516 55.3906,64.3438Q54.1016,63.3359 53.4453,61.9531Q52.7891,60.5703 52.7891,58.9063Q52.7891,56.0938 54.3594,54.0547Q55.9297,52.0156 59.2109,50.3516Q56.2109,48.8281 54.8281,46.9648Q53.4453,45.1016 53.4453,42.6875Q53.4453,41.2109 54.0547,39.8281Q54.6641,38.4453 55.8945,37.3672Q57.125,36.2891 58.9766,35.6445Q60.8281,35 63.3359,35Q65.7031,35 67.4961,35.5039Q69.2891,36.0078 70.5078,36.9453Q71.7266,37.8828 72.3359,39.2188Q72.9453,40.5547 72.9453,42.1953Q72.9453,44.8672 71.457,46.7422Q69.9688,48.6172 67.2266,50.0234Q68.5859,50.7031 69.7578,51.5234Q70.9297,52.3438 71.7969,53.3516Q72.6641,54.3594 73.1445,55.6016Q73.625,56.8438 73.625,58.3672zM68.7734,42.5234Q68.7734,40.4375 67.3086,39.418Q65.8438,38.3984 63.1953,38.3984Q60.5703,38.3984 59.1055,39.4063Q57.6406,40.4141 57.6406,42.4297Q57.6406,43.3438 57.9922,44.1172Q58.3438,44.8906 59.082,45.5703Q59.8203,46.25 60.9219,46.9063Q62.0234,47.5625 63.5469,48.2422Q66.1953,47 67.4844,45.6523Q68.7734,44.3047 68.7734,42.5234zM69.1953,58.6719Q69.1953,57.8047 68.9141,56.9844Q68.6328,56.1641 67.9063,55.3672Q67.1797,54.5703 65.9609,53.7734Q64.7422,52.9766 62.8672,52.1328Q61.2734,52.9063 60.1836,53.668Q59.0938,54.4297 58.4258,55.2148Q57.7578,56 57.4766,56.8438Q57.1953,57.6875 57.1953,58.625Q57.1953,59.6797 57.6523,60.4883Q58.1094,61.2969 58.9063,61.8594Q59.7031,62.4219 60.8047,62.7031Q61.9063,62.9844 63.1953,62.9844Q64.4375,62.9844 65.5391,62.7266Q66.6406,62.4688 67.4492,61.9414Q68.2578,61.4141 68.7266,60.6055Q69.1953,59.7969 69.1953,58.6719z" />
    </g>
    <g id="Rectangle9" transform="matrix(1,0,0,1,500,100)">
      <rect x="0" y="0" width="100" height="100" style="stroke:#000000;stroke-linecap:round;stroke-linejoin:round;fill:#56B4E9;" />
      <path d="M45.6875,65.1875Q44.0938,65.7969 42.418,66.0898Q40.7422,66.3828 38.9609,66.3828Q33.3828,66.3828 30.3711,63.3594Q27.3594,60.3359 27.3594,54.5234Q27.3594,51.7344 28.2266,49.4609Q29.0938,47.1875 30.6641,45.5703Q32.2344,43.9531 34.4141,43.0742Q36.5938,42.1953 39.2188,42.1953Q41.0469,42.1953 42.6406,42.4531Q44.2344,42.7109 45.6875,43.2969L45.6875,43.2969L45.6875,47.1875Q44.1641,46.3906 42.582,46.0273Q41,45.6641 39.3125,45.6641Q37.7422,45.6641 36.3477,46.2617Q34.9531,46.8594 33.8984,47.9844Q32.8438,49.1094 32.2344,50.7266Q31.625,52.3438 31.625,54.3828Q31.625,58.6484 33.6992,60.7695Q35.7734,62.8906 39.4531,62.8906Q41.1172,62.8906 42.6758,62.5156Q44.2344,62.1406 45.6875,61.3906L45.6875,61.3906L45.6875,65.1875zM74.3281,50.75Q74.3281,54.2656 73.625,57.1602Q72.9219,60.0547 71.4922,62.1289Q70.0625,64.2031 67.9414,65.3398Q65.8203,66.4766 62.9609,66.4766Q60.5,66.4766 58.4844,65.5508Q56.4688,64.625 55.0391,62.7031Q53.6094,60.7813 52.8359,57.8047Q52.0625,54.8281 52.0625,50.75Q52.0625,47.2344 52.7773,44.3281Q53.4922,41.4219 54.9102,39.3477Q56.3281,37.2734 58.4609,36.1367Q60.5938,35 63.4297,35Q65.8906,35 67.9063,35.9258Q69.9219,36.8516 71.3516,38.7852Q72.7813,40.7188 73.5547,43.6953Q74.3281,46.6719 74.3281,50.75zM70.2031,50.8906Q70.2031,50.0938 70.1445,49.3086Q70.0859,48.5234 70.0156,47.7734L70.0156,47.7734L57.0547,57.4063Q57.4063,58.625 57.9453,59.6563Q58.4844,60.6875 59.2461,61.4258Q60.0078,62.1641 60.9805,62.5742Q61.9531,62.9844 63.1953,62.9844Q64.7891,62.9844 66.0898,62.2109Q67.3906,61.4375 68.3047,59.9141Q69.2188,58.3906 69.7109,56.1289Q70.2031,53.8672 70.2031,50.8906zM56.1875,50.6094Q56.1875,51.3359 56.1992,52.0625Q56.2109,52.7891 56.2813,53.4688L56.2813,53.4688L69.2422,43.8828Q68.8906,42.6875 68.3516,41.7031Q67.8125,40.7188 67.0625,40.0039Q66.3125,39.2891 65.3516,38.8906Q64.3906,38.4922 63.1953,38.4922Q61.6016,38.4922 60.3008,39.2656Q59,40.0391 58.0859,41.5742Q57.1719,43.1094 56.6797,45.3711Q56.1875,47.6328 56.1875,50.6094z" />
    </g>
    <g id="Rectangle10" transform="matrix(1,0,0,1,600,100)">
      <rect x="0" y="0" width="100" height="100" style="stroke:#000000;stroke-linecap:round;stroke-linejoin:round;fill:#56B4E9;" />
      <path d="M45.6875,65.1875Q44.0938,65.7969 42.418,66.0898Q40.7422,66.3828 38.9609,66.3828Q33.3828,66.3828 30.3711,63.3594Q27.3594,60.3359 27.3594,54.5234Q27.3594,51.7344 28.2266,49.4609Q29.0938,47.1875 30.6641,45.5703Q32.2344,43.9531 34.4141,43.0742Q36.5938,42.1953 39.2188,42.1953Q41.0469,42.1953 42.6406,42.4531Q44.2344,42.7109 45.6875,43.2969L45.6875,43.2969L45.6875,47.1875Q44.1641,46.3906 42.582,46.0273Q41,45.6641 39.3125,45.6641Q37.7422,45.6641 36.3477,46.2617Q34.9531,46.8594 33.8984,47.9844Q32.8438,49.1094 32.2344,50.7266Q31.625,52.3438 31.625,54.3828Q31.625,58.6484 33.6992,60.7695Q35.7734,62.8906 39.4531,62.8906Q41.1172,62.8906 42.6758,62.5156Q44.2344,62.1406 45.6875,61.3906L45.6875,61.3906L45.6875,65.1875zM73.3672,66.0547L54.125,66.0547L54.125,62.2578L62,62.2578L62,39.8984L54.6641,43.8828L53.1641,40.4141L62.9141,35.2813L66.5234,35.2813L66.5234,62.2578L73.3672,62.2578L73.3672,66.0547z" />
    </g>
    <g id="Rectangle11" transform="matrix(1,0,0,1,700,100)">
      <rect x="0" y="0" width="100" height="100" style="stroke:#000000;stroke-linecap:round;stroke-linejoin:round;fill:#56B4E9;" />
      <path d="M45.6875,65.1875Q44.0938,65.7969 42.418,66.0898Q40.7422,66.3828 38.9609,66.3828Q33.3828,66.3828 30.3711,63.3594Q27.3594,60.3359 27.3594,54.5234Q27.3594,51.7344 28.2266,49.4609Q29.0938,47.1875 30.6641,45.5703Q32.2344,43.9531 34.4141,43.0742Q36.5938,42.1953 39.2188,42.1953Q41.0469,42.1953 42.6406,42.4531Q44.2344,42.7109 45.6875,43.2969L45.6875,43.2969L45.6875,47.1875Q44.1641,46.3906 42.582,46.0273Q41,45.6641 39.3125,45.6641Q37.7422,45.6641 36.3477,46.2617Q34.9531,46.8594 33.8984,47.9844Q32.8438,49.1094 32.2344,50.7266Q31.625,52.3438 31.625,54.3828Q31.625,58.6484 33.6992,60.7695Q35.7734,62.8906 39.4531,62.8906Q41.1172,62.8906 42.6758,62.5156Q44.2344,62.1406 45.6875,61.3906L45.6875,61.3906L45.6875,65.1875zM73.625,66.0547L53.4453,66.0547L53.4453,62.3984L61.3672,54.5234Q63.3125,52.6016 64.5313,51.1953Q65.75,49.7891 66.4297,48.6289Q67.1094,47.4688 67.3438,46.4375Q67.5781,45.4063 67.5781,44.2109Q67.5781,43.0859 67.2734,42.0664Q66.9688,41.0469 66.3359,40.2734Q65.7031,39.5 64.6953,39.0547Q63.6875,38.6094 62.2813,38.6094Q60.3359,38.6094 58.7422,39.4766Q57.1484,40.3438 55.8125,41.7266L55.8125,41.7266L53.5625,39.0313Q55.2969,37.2031 57.5586,36.1016Q59.8203,35 62.8203,35Q64.8594,35 66.5352,35.6094Q68.2109,36.2188 69.4297,37.3672Q70.6484,38.5156 71.3164,40.1797Q71.9844,41.8438 71.9844,43.9297Q71.9844,45.6875 71.5156,47.1875Q71.0469,48.6875 70.0977,50.1758Q69.1484,51.6641 67.707,53.2578Q66.2656,54.8516 64.2969,56.75L64.2969,56.75L58.7422,62.1641L73.625,62.1641L73.625,66.0547z" />
    </g>
    <g id="Rectangle12" transform="matrix(1,0,0,1,800,100)">
      <rect x="0" y="0" width="100" height="100" style="stroke:#000000;stroke-linecap:round;stroke-linejoin:round;fill:#56B4E9;" />
      <path d="M45.6875,65.1875Q44.0938,65.7969 42.418,66.0898Q40.7422,66.3828 38.9609,66.3828Q33.3828,66.3828 30.3711,63.3594Q27.3594,60.3359 27.3594,54.5234Q27.3594,51.7344 28.2266,49.4609Q29.0938,47.1875 30.6641,45.5703Q32.2344,43.9531 34.4141,43.0742Q36.5938,42.1953 39.2188,42.1953Q41.0469,42.1953 42.6406,42.4531Q44.2344,42.7109 45.6875,43.2969L45.6875,43.2969L45.6875,47.1875Q44.1641,46.3906 42.582,46.0273Q41,45.6641 39.3125,45.6641Q37.7422,45.6641 36.3477,46.2617Q34.9531,46.8594 33.8984,47.9844Q32.8438,49.1094 32.2344,50.7266Q31.625,52.3438 31.625,54.3828Q31.625,58.6484 33.6992,60.7695Q35.7734,62.8906 39.4531,62.8906Q41.1172,62.8906 42.6758,62.5156Q44.2344,62.1406 45.6875,61.3906L45.6875,61.3906L45.6875,65.1875zM73.0391,56.75Q73.0391,58.7656 72.2188,60.5352Q71.3984,62.3047 69.7578,63.6289Q68.1172,64.9531 65.6328,65.7148Q63.1484,66.4766 59.8438,66.4766Q58.0156,66.4766 56.5625,66.3594Q55.1094,66.2422 53.8438,66.0547L53.8438,66.0547L53.8438,62.3984Q55.2969,62.6563 56.9141,62.7969Q58.5313,62.9375 60.2188,62.9375Q62.5156,62.9375 64.1445,62.5273Q65.7734,62.1172 66.8047,61.3438Q67.8359,60.5703 68.3047,59.4688Q68.7734,58.3672 68.7734,56.9844Q68.7734,55.7188 68.2109,54.7813Q67.6484,53.8438 66.6289,53.2109Q65.6094,52.5781 64.1914,52.2617Q62.7734,51.9453 61.0859,51.9453L61.0859,51.9453L57.5938,51.9453L57.5938,48.5938L61.1328,48.5938Q62.5156,48.5938 63.6523,48.2305Q64.7891,47.8672 65.5977,47.1875Q66.4063,46.5078 66.8398,45.5117Q67.2734,44.5156 67.2734,43.25Q67.2734,40.7891 65.7734,39.6641Q64.2734,38.5391 61.3672,38.5391Q59.8203,38.5391 58.1797,38.8438Q56.5391,39.1484 54.6641,39.7578L54.6641,39.7578L54.6641,36.1953Q55.4609,35.9141 56.3633,35.6914Q57.2656,35.4688 58.168,35.3164Q59.0703,35.1641 59.9609,35.082Q60.8516,35 61.6719,35Q64.1094,35 65.9609,35.5273Q67.8125,36.0547 69.0547,37.0391Q70.2969,38.0234 70.9297,39.4297Q71.5625,40.8359 71.5625,42.5938Q71.5625,45.2188 70.2148,47Q68.8672,48.7813 66.5234,49.8359Q67.7188,50.0234 68.8789,50.5859Q70.0391,51.1484 70.9648,52.0273Q71.8906,52.9063 72.4648,54.1016Q73.0391,55.2969 73.0391,56.75z" />
    </g>
    <g id="Rectangle13" transform="matrix(1,0,0,1,900,100)">
      <rect x="0" y="0" width="100" height="100" style="stroke:#000000;stroke-linecap:round;stroke-linejoin:round;fill:#56B4E9;" />
      <path d="M45.6875,65.1875Q44.0938,65.7969 42.418,66.0898Q40.7422,66.3828 38.9609,66.3828Q33.3828,66.3828 30.3711,63.3594Q27.3594,60.3359 27.3594,54.5234Q27.3594,51.7344 28.2266,49.4609Q29.0938,47.1875 30.6641,45.5703Q32.2344,43.9531 34.4141,43.0742Q36.5938,42.1953 39.2188,42.1953Q41.0469,42.1953 42.6406,42.4531Q44.2344,42.7109 45.6875,43.2969L45.6875,43.2969L45.6875,47.1875Q44.1641,46.3906 42.582,46.0273Q41,45.6641 39.3125,45.6641Q37.7422,45.6641 36.3477,46.2617Q34.9531,46.8594 33.8984,47.9844Q32.8438,49.1094 32.2344,50.7266Q31.625,52.3438 31.625,54.3828Q31.625,58.6484 33.6992,60.7695Q35.7734,62.8906 39.4531,62.8906Q41.1172,62.8906 42.6758,62.5156Q44.2344,62.1406 45.6875,61.3906L45.6875,61.3906L45.6875,65.1875zM75.1484,59.2813L69.9219,59.2813L69.9219,66.0547L65.75,66.0547L65.75,59.2813L51.0078,59.2813L51.0078,55.6953L64.0625,35.4219L69.9219,35.4219L69.9219,55.6953L75.1484,55.6953L75.1484,59.2813zM65.75,39.3594L55.0859,55.6953L65.75,55.6953L65.75,39.3594z" />
    </g>
    <g id="Rectangle14" transform="matrix(1,0,0,1,1000,100)">
      <rect x="0" y="0" width="100" height="100" style="stroke:#000000;stroke-linecap:round;stroke-linejoin:round;fill:#56B4E9;" />
      <path d="M45.6875,65.1875Q44.0938,65.7969 42.418,66.0898Q40.7422,66.3828 38.9609,66.3828Q33.3828,66.3828 30.3711,63.3594Q27.3594,60.3359 27.3594,54.5234Q27.3594,51.7344 28.2266,49.4609Q29.0938,47.1875 30.6641,45.5703Q32.2344,43.9531 34.4141,43.0742Q36.5938,42.1953 39.2188,42.1953Q41.0469,42.1953 42.6406,42.4531Q44.2344,42.7109 45.6875,43.2969L45.6875,43.2969L45.6875,47.1875Q44.1641,46.3906 42.582,46.0273Q41,45.6641 39.3125,45.6641Q37.7422,45.6641 36.3477,46.2617Q34.9531,46.8594 33.8984,47.9844Q32.8438,49.1094 32.2344,50.7266Q31.625,52.3438 31.625,54.3828Q31.625,58.6484 33.6992,60.7695Q35.7734,62.8906 39.4531,62.8906Q41.1172,62.8906 42.6758,62.5156Q44.2344,62.1406 45.6875,61.3906L45.6875,61.3906L45.6875,65.1875zM72.8516,56.2578Q72.8516,58.5313 71.8672,60.4063Q70.8828,62.2813 69.1602,63.6289Q67.4375,64.9766 65.0938,65.7266Q62.75,66.4766 60.0313,66.4766Q59.3516,66.4766 58.5664,66.4414Q57.7813,66.4063 57.0078,66.3477Q56.2344,66.2891 55.4961,66.2188Q54.7578,66.1484 54.1719,66.0547L54.1719,66.0547L54.1719,62.3516Q55.4375,62.6563 57.0664,62.7969Q58.6953,62.9375 60.3594,62.9375Q62.2344,62.9375 63.7344,62.4922Q65.2344,62.0469 66.2891,61.2148Q67.3438,60.3828 67.9063,59.1992Q68.4688,58.0156 68.4688,56.5391Q68.4688,53.6797 66.418,52.3789Q64.3672,51.0781 60.5234,51.0781L60.5234,51.0781L54.7109,51.0781L54.7109,35.4219L71.2109,35.4219L71.2109,38.9844L58.5547,38.9844L58.5547,47.5859L61.2266,47.5859Q63.4297,47.5859 65.5156,47.9844Q67.6016,48.3828 69.2305,49.3789Q70.8594,50.375 71.8555,52.0508Q72.8516,53.7266 72.8516,56.2578z" />
    </g>
    <g id="Rectangle15" transform="matrix(1,0,0,1,1100,100)">
      <rect x="0" y="0" width="100" height="100" style="stroke:#000000;stroke-linecap:round;stroke-linejoin:round;fill:#56B4E9;" />
      <path d="M45.6875,65.1875Q44.0938,65.7969 42.418,66.0898Q40.7422,66.3828 38.9609,66.3828Q33.3828,66.3828 30.3711,63.3594Q27.3594,60.3359 27.3594,54.5234Q27.3594,51.7344 28.2266,49.4609Q29.0938,47.1875 30.6641,45.5703Q32.2344,43.9531 34.4141,43.0742Q36.5938,42.1953 39.2188,42.1953Q41.0469,42.1953 42.6406,42.4531Q44.2344,42.7109 45.6875,43.2969L45.6875,43.2969L45.6875,47.1875Q44.1641,46.3906 42.582,46.0273Q41,45.6641 39.3125,45.6641Q37.7422,45.6641 36.3477,46.2617Q34.9531,46.8594 33.8984,47.9844Q32.8438,49.1094 32.2344,50.7266Q31.625,52.3438 31.625,54.3828Q31.625,58.6484 33.6992,60.7695Q35.7734,62.8906 39.4531,62.8906Q41.1172,62.8906 42.6758,62.5156Q44.2344,62.1406 45.6875,61.3906L45.6875,61.3906L45.6875,65.1875zM74,56.3516Q74,58.4609 73.2383,60.3125Q72.4766,62.1641 71.0703,63.5352Q69.6641,64.9063 67.6836,65.6914Q65.7031,66.4766 63.2891,66.4766Q60.7578,66.4766 58.8125,65.668Q56.8672,64.8594 55.5547,63.1836Q54.2422,61.5078 53.5625,58.9531Q52.8828,56.3984 52.8828,52.9063Q52.8828,50.5625 53.1875,48.3594Q53.4922,46.1563 54.1953,44.2109Q54.8984,42.2656 56.0703,40.6484Q57.2422,39.0313 58.9883,37.8711Q60.7344,36.7109 63.1016,36.0664Q65.4688,35.4219 68.5859,35.4219L68.5859,35.4219L71.6094,35.4219L71.6094,38.9844L68.3281,38.9844Q65.5859,38.9844 63.5703,39.6406Q61.5547,40.2969 60.1953,41.4922Q58.8359,42.6875 58.1094,44.375Q57.3828,46.0625 57.1953,48.1484L57.1953,48.1484L57.1016,49.1094Q58.5781,48.2422 60.5117,47.7148Q62.4453,47.1875 64.6953,47.1875Q67.0156,47.1875 68.7617,47.8672Q70.5078,48.5469 71.668,49.7539Q72.8281,50.9609 73.4141,52.6484Q74,54.3359 74,56.3516zM69.7344,56.6094Q69.7344,55.2031 69.3945,54.0664Q69.0547,52.9297 68.3281,52.1445Q67.6016,51.3594 66.4883,50.9258Q65.375,50.4922 63.8281,50.4922Q62.9375,50.4922 62.0234,50.6563Q61.1094,50.8203 60.2305,51.1133Q59.3516,51.4063 58.5547,51.7813Q57.7578,52.1563 57.1016,52.5781Q57.1016,55.6016 57.5234,57.6289Q57.9453,59.6563 58.7773,60.875Q59.6094,62.0938 60.8281,62.6094Q62.0469,63.125 63.6406,63.125Q64.9766,63.125 66.0898,62.6914Q67.2031,62.2578 68.0117,61.4141Q68.8203,60.5703 69.2773,59.3633Q69.7344,58.1563 69.7344,56.6094z" />
    </g>
    <g id="Rectangle16" transform="matrix(1,0,0,1,1200,100)">
      <rect x="0" y="0" width="100" height="100" style="stroke:#000000;stroke-linecap:round;stroke-linejoin:round;fill:#56B4E9;" />
      <path d="M45.6875,65.1875Q44.0938,65.7969 42.418,66.0898Q40.7422,66.3828 38.9609,66.3828Q33.3828,66.3828 30.3711,63.3594Q27.3594,60.3359 27.3594,54.5234Q27.3594,51.7344 28.2266,49.4609Q29.0938,47.1875 30.6641,45.5703Q32.2344,43.9531 34.4141,43.0742Q36.5938,42.1953 39.2188,42.1953Q41.0469,42.1953 42.6406,42.4531Q44.2344,42.7109 45.6875,43.2969L45.6875,43.2969L45.6875,47.1875Q44.1641,46.3906 42.582,46.0273Q41,45.6641 39.3125,45.6641Q37.7422,45.6641 36.3477,46.2617Q34.9531,46.8594 33.8984,47.9844Q32.8438,49.1094 32.2344,50.7266Q31.625,52.3438 31.625,54.3828Q31.625,58.6484 33.6992,60.7695Q35.7734,62.8906 39.4531,62.8906Q41.1172,62.8906 42.6758,62.5156Q44.2344,62.1406 45.6875,61.3906L45.6875,61.3906L45.6875,65.1875zM73.4609,39.2188L60.6172,66.0547L55.9531,66.0547L69.2891,39.2188L52.7422,39.2188L52.7422,35.4219L73.4609,35.4219L73.4609,39.2188z" />
    </g>
    <g id="Rectangle17" transform="matrix(1,0,0,1,1300,100)">
      <rect x="0" y="0" width="100" height="100" style="stroke:#000000;stroke-linecap:round;stroke-linejoin:round;fill:#56B4E9;" />
      <path d="M45.6875,65.1875Q44.0938,65.7969 42.418,66.0898Q40.7422,66.3828 38.9609,66.3828Q33.3828,66.3828 30.3711,63.3594Q27.3594,60.3359 27.3594,54.5234Q27.3594,51.7344 28.2266,49.4609Q29.0938,47.1875 30.6641,45.5703Q32.2344,43.9531 34.4141,43.0742Q36.5938,42.1953 39.2188,42.1953Q41.0469,42.1953 42.6406,42.4531Q44.2344,42.7109 45.6875,43.2969L45.6875,43.2969L45.6875,47.1875Q44.1641,46.3906 42.582,46.0273Q41,45.6641 39.3125,45.6641Q37.7422,45.6641 36.3477,46.2617Q34.9531,46.8594 33.8984,47.9844Q32.8438,49.1094 32.2344,50.7266Q31.625,52.3438 31.625,54.3828Q31.625,58.6484 33.6992,60.7695Q35.7734,62.8906 39.4531,62.8906Q41.1172,62.8906 42.6758,62.5156Q44.2344,62.1406 45.6875,61.3906L45.6875,61.3906L45.6875,65.1875zM73.625,58.3672Q73.625,60.3125 72.8281,61.8242Q72.0313,63.3359 70.6016,64.3672Q69.1719,65.3984 67.2266,65.9375Q65.2813,66.4766 63.0078,66.4766Q60.5,66.4766 58.5898,65.9141Q56.6797,65.3516 55.3906,64.3438Q54.1016,63.3359 53.4453,61.9531Q52.7891,60.5703 52.7891,58.9063Q52.7891,56.0938 54.3594,54.0547Q55.9297,52.0156 59.2109,50.3516Q56.2109,48.8281 54.8281,46.9648Q53.4453,45.1016 53.4453,42.6875Q53.4453,41.2109 54.0547,39.8281Q54.6641,38.4453 55.8945,37.3672Q57.125,36.2891 58.9766,35.6445Q60.8281,35 63.3359,35Q65.7031,35 67.4961,35.5039Q69.2891,36.0078 70.5078,36.9453Q71.7266,37.8828 72.3359,39.2188Q72.9453,40.5547 72.9453,42.1953Q72.9453,44.8672 71.457,46.7422Q69.9688,48.6172 67.2266,50.0234Q68.5859,50.7031 69.7578,51.5234Q70.9297,52.3438 71.7969,53.3516Q72.6641,54.3594 73.1445,55.6016Q73.625,56.8438 73.625,58.3672zM68.7734,42.5234Q68.7734,40.4375 67.3086,39.418Q65.8438,38.3984 63.1953,38.3984Q60.5703,38.3984 59.1055,39.4063Q57.6406,40.4141 57.6406,42.4297Q57.6406,43.3438 57.9922,44.1172Q58.3438,44.8906 59.082,45.5703Q59.8203,46.25 60.9219,46.9063Q62.0234,47.5625 63.5469,48.2422Q66.1953,47 67.4844,45.6523Q68.7734,44.3047 68.7734,42.5234zM69.1953,58.6719Q69.1953,57.8047 68.9141,56.9844Q68.6328,56.1641 67.9063,55.3672Q67.1797,54.5703 65.9609,53.7734Q64.7422,52.9766 62.8672,52.1328Q61.2734,52.9063 60.1836,53.668Q59.0938,54.4297 58.4258,55.2148Q57.7578,56 57.4766,56.8438Q57.1953,57.6875 57.1953,58.625Q57.1953,59.6797 57.6523,60.4883Q58.1094,61.2969 58.9063,61.8594Q59.7031,62.4219 60.8047,62.7031Q61.9063,62.9844 63.1953,62.9844Q64.4375,62.9844 65.5391,62.7266Q66.6406,62.4688 67.4492,61.9414Q68.2578,61.4141 68.7266,60.6055Q69.1953,59.7969 69.1953,58.6719z" />
    </g>
    <g id="Text1" transform="matrix(1,0,0,1,25,100)">
      <rect x="0" y="0" width="450" height="100" style="stroke-linecap:round;stroke-linejoin:round;fill:none;fill-opacity:0;" />
      <path d="M29.9115,66.5625Q25.8229,68.2552 21.3438,68.2552Q14.1302,68.2552 10.263,63.9453Q6.3958,59.6354 6.3958,51.1979Q6.3958,47.1094 7.4635,43.8021Q8.5313,40.4948 10.5104,38.1901Q12.4896,35.8854 15.3021,34.6354Q18.1146,33.3854 21.6042,33.3854Q23.974,33.3854 26.0052,33.7891Q28.0365,34.1927 29.9115,35.026L29.9115,35.026L29.9115,39.5833Q28.0625,38.5677 26.0833,38.0339Q24.1042,37.5 21.7604,37.5Q19.3646,37.5 17.4245,38.3984Q15.4844,39.2969 14.1302,41.0026Q12.776,42.7083 12.0469,45.1693Q11.3177,47.6302 11.3177,50.7813Q11.3177,57.3958 14,60.7552Q16.6823,64.1146 21.8646,64.1146Q24.0521,64.1146 26.0573,63.6068Q28.0625,63.099 29.9115,62.1875L29.9115,62.1875L29.9115,66.5625zM60.1979,54.5573Q60.1979,57.6042 59.3385,60.1432Q58.4792,62.6823 56.8646,64.4922Q55.25,66.3021 52.9323,67.3047Q50.6146,68.3073 47.6719,68.3073Q44.8594,68.3073 42.6328,67.4349Q40.4063,66.5625 38.8568,64.8698Q37.3073,63.1771 36.487,60.6771Q35.6667,58.1771 35.6667,54.9219Q35.6667,51.875 36.526,49.362Q37.3854,46.849 39,45.0391Q40.6146,43.2292 42.9323,42.2266Q45.25,41.224 48.1927,41.224Q51.0052,41.224 53.2318,42.0964Q55.4583,42.9688 57.0078,44.6484Q58.5573,46.3281 59.3776,48.8281Q60.1979,51.3281 60.1979,54.5573zM55.5625,54.7656Q55.5625,52.3438 55.0286,50.5339Q54.4948,48.724 53.5052,47.513Q52.5156,46.3021 51.0964,45.6901Q49.6771,45.0781 47.9323,45.0781Q45.901,45.0781 44.4557,45.8724Q43.0104,46.6667 42.0859,47.9948Q41.1615,49.3229 40.7318,51.0807Q40.3021,52.8385 40.3021,54.7656Q40.3021,57.1875 40.8359,59.0104Q41.3698,60.8333 42.3594,62.0443Q43.349,63.2552 44.7552,63.8672Q46.1615,64.4792 47.9323,64.4792Q49.9635,64.4792 51.4089,63.6849Q52.8542,62.8906 53.7786,61.5625Q54.7031,60.2344 55.1328,58.4766Q55.5625,56.7188 55.5625,54.7656zM87.4115,60.7031Q87.4115,62.0833 86.9427,63.1771Q86.474,64.2708 85.6667,65.1172Q84.8594,65.9635 83.7917,66.5625Q82.724,67.1615 81.513,67.5521Q80.3021,67.9427 79.026,68.125Q77.75,68.3073 76.526,68.3073Q73.8698,68.3073 71.6432,68.0729Q69.4167,67.8385 67.2813,67.3177L67.2813,67.3177L67.2813,63.151Q69.5729,63.8021 71.8385,64.1406Q74.1042,64.4792 76.3438,64.4792Q79.599,64.4792 81.1615,63.5938Q82.724,62.7083 82.724,61.0677Q82.724,60.3646 82.4766,59.8047Q82.2292,59.2448 81.5781,58.737Q80.9271,58.2292 79.5599,57.6823Q78.1927,57.1354 75.8229,56.4323Q74.0521,55.9115 72.5547,55.2474Q71.0573,54.5833 69.9635,53.6719Q68.8698,52.7604 68.2448,51.5365Q67.6198,50.3125 67.6198,48.6458Q67.6198,47.5521 68.1276,46.25Q68.6354,44.9479 69.8594,43.8281Q71.0833,42.7083 73.1667,41.9661Q75.25,41.224 78.375,41.224Q79.9115,41.224 81.7865,41.3932Q83.6615,41.5625 85.6927,41.9792L85.6927,41.9792L85.6927,46.0156Q83.5573,45.4948 81.6432,45.2474Q79.7292,45 78.3229,45Q76.6302,45 75.4714,45.2604Q74.3125,45.5208 73.5964,45.9766Q72.8802,46.4323 72.5677,47.0443Q72.2552,47.6563 72.2552,48.3594Q72.2552,49.0625 72.5286,49.6354Q72.8021,50.2083 73.5443,50.7422Q74.2865,51.276 75.6146,51.8099Q76.9427,52.3438 79.0781,52.9688Q81.3958,53.6458 82.9844,54.388Q84.5729,55.1302 85.5625,56.0417Q86.5521,56.9531 86.9818,58.099Q87.4115,59.2448 87.4115,60.7031zM117.0469,67.474Q115.5104,67.8646 113.8698,68.0339Q112.2292,68.2031 110.5365,68.2031Q105.6146,68.2031 103.1927,65.9766Q100.7708,63.75 100.7708,59.1406L100.7708,59.1406L100.7708,45.4948L93.4531,45.4948L93.4531,41.6927L100.7708,41.6927L100.7708,34.5052L105.3021,33.3333L105.3021,41.6927L117.0469,41.6927L117.0469,45.4948L105.3021,45.4948L105.3021,58.776Q105.3021,61.5885 106.7995,62.9818Q108.2969,64.375 111.2135,64.375Q112.4635,64.375 113.9479,64.1797Q115.4323,63.9844 117.0469,63.5677L117.0469,63.5677L117.0469,67.474z" />
    </g>
    <path id="Connection" d="M550,300L550,200" style="stroke:#999999;stroke-linecap:round;stroke-linejoin:round;stroke-dasharray:10 5;fill:none;" />
    <path d="M550,215L550,200L550,215L542.5,200L550,215L557.5,200L550,215z" style="stroke:#999999;stroke-linecap:round;stroke-linejoin:round;fill:#999999;" />
    <path id="Connection1" d="M650,300L650,200" style="stroke:#999999;stroke-linecap:round;stroke-linejoin:round;stroke-dasharray:10 5;fill:none;" />
    <path d="M650,215L650,200L650,215L642.5,200L650,215L657.5,200L650,215z" style="stroke:#999999;stroke-linecap:round;stroke-linejoin:round;fill:#999999;" />
    <path id="Connection2" d="M750,300L750,200" style="stroke:#999999;stroke-linecap:round;stroke-linejoin:round;stroke-dasharray:10 5;fill:none;" />
    <path d="M750,215L750,200L750,215L742.5,200L750,215L757.5,200L750,215z" style="stroke:#999999;stroke-linecap:round;stroke-linejoin:round;fill:#999999;" />
    <path id="Connection3" d="M850,300L850,200" style="stroke:#999999;stroke-linecap:round;stroke-linejoin:round;stroke-dasharray:10 5;fill:none;" />
    <path d="M850,215L850,200L850,215L842.5,200L850,215L857.5,200L850,215z" style="stroke:#999999;stroke-linecap:round;stroke-linejoin:round;fill:#999999;" />
    <path id="Connection4" d="M950,300L950,200" style="stroke:#999999;stroke-linecap:round;stroke-linejoin:round;stroke-dasharray:10 5;fill:none;" />
    <path d="M950,215L950,200L950,215L942.5,200L950,215L957.5,200L950,215z" style="stroke:#999999;stroke-linecap:round;stroke-linejoin:round;fill:#999999;" />
    <path id="Connection5" d="M1050,300L1050,200" style="stroke:#999999;stroke-linecap:round;stroke-linejoin:round;stroke-dasharray:10 5;fill:none;" />
    <path d="M1050,215L1050,200L1050,215L1042.5,200L1050,215L1057.5,200L1050,215z" style="stroke:#999999;stroke-linecap:round;stroke-linejoin:round;fill:#999999;" />
    <path id="Connection6" d="M1150,300L1150,200" style="stroke:#999999;stroke-linecap:round;stroke-linejoin:round;stroke-dasharray:10 5;fill:none;" />
    <path d="M1150,215L1150,200L1150,215L1142.5,200L1150,215L1157.5,200L1150,215z" style="stroke:#999999;stroke-linecap:round;stroke-linejoin:round;fill:#999999;" />
    <path id="Connection7" d="M1250,300L1250,200" style="stroke:#999999;stroke-linecap:round;stroke-linejoin:round;stroke-dasharray:10 5;fill:none;" />
    <path d="M1250,215L1250,200L1250,215L1242.5,200L1250,215L1257.5,200L1250,215z" style="stroke:#999999;stroke-linecap:round;stroke-linejoin:round;fill:#999999;" />
    <path id="Connection8" d="M1350,300L1350,200" style="stroke:#999999;stroke-linecap:round;stroke-linejoin:round;stroke-dasharray:10 5;fill:none;" />
    <path d="M1350,215L1350,200L1350,215L1342.5,200L1350,215L1357.5,200L1350,215z" style="stroke:#999999;stroke-linecap:round;stroke-linejoin:round;fill:#999999;" />
  </g>
</svg>