<?xml version="1.0" encoding="UTF-8"?>
<svg width="430pt" height="402pt" xmlns="http://www.w3.org/2000/svg" xmlns:xlink="http://www.w3.org/1999/xlink" id="svg_output" xmlns:ev="http://www.w3.org/2001/xml-events" style="overflow: hidden; "><defs><pattern id="rough-4972361418109496" x="0" y="0" width="1" height="1" viewBox="0 0 32 33" patternUnits="objectBoundingBox"><path d="M3.7550832647947994 -0.5365523355309022 C3.186683033030296 0.9138248006753629, 1.9908492687898836 1.9629966822877427, 0.1687036575908163 4.170025810739664 M4.221606751027919 0.2735503455712501 C2.7504258596935633 1.7614503527655994, 1.2937426513937573 3.48730739960926, 0.2549333740039355 4.479775104753303 M8.460509037859373 -0.19759073811304106 C5.293731079414445 2.309109850918313, 4.45181273892764 7.731614449889724, 0.5386055813146964 11.289823448161998 M9.005789091175716 0.6395633022502893 C6.137741424447962 4.626768771502789, 1.6291635551350736 9.189391728559958, 0.2900650072224633 11.035178603523558 M13.443672103407103 -0.3501902570901412 C8.712623047028604 5.614193554751397, 6.917100299822269 9.072983799820115, 1.5690884426374412 15.719290613327722 M15.547411591354948 -0.5131728435637553 C9.423185381261522 4.788015995987404, 5.328570271513176 9.386748989872663, 0.4772544696590961 16.702354467904648 M19.666006062482772 -0.5336909130535474 C14.03990099973435 5.570987576349127, 8.942533044013562 13.718428398582487, -0.6809666854424776 24.560220671332516 M20.70620388993004 -0.8126090736647433 C12.462951949763102 9.484427368803393, 4.89325514704084 17.413871998540515, 0.017752262561172127 23.934242353063873 M23.514087951875737 0.8713155437838949 C18.269404134320673 6.244394819872574, 14.0945267340634 13.57724617009685, -0.632342617997157 29.574721687757066 M25.746447570067893 -0.9257059099173415 C19.477219529495322 6.4366156700666455, 12.917229288070114 12.756343462799132, 0.7686996538084512 29.448575584788276 M28.73579248143493 1.2368773772924744 C21.148887061416985 12.401030158221511, 10.44532917862976 24.878131201280436, 0.16413534025192522 32.09402930200555 M29.77346653741499 -0.43398591099638417 C19.242956013307783 13.431858028117187, 7.634845819651363 25.788568526999732, 1.5748023966109281 32.389639317640246 M31.87236922342921 3.7210048430388603 C24.05328902973489 13.322277460827598, 16.538520627479066 22.361067893216642, 8.534869346164161 31.846068395579316 M30.78362761503969 3.9304720722076647 C23.202472719347867 14.862882390219683, 14.639814714709907 24.779550591141117, 7.686193098165048 33.664147834063115 M29.98185726893913 11.379280524533291 C25.435765429897927 18.99347774217088, 17.506665619141387 25.67923133494893, 11.706674945152512 31.66968279906742 M30.740537755874794 11.594432268954957 C26.67018359329667 15.60673393037728, 21.24724756250405 21.741872836961956, 12.998663069593771 34.07546365146854 M32.75784646179872 15.18474752867507 C27.568349239837328 20.767949296919436, 24.154958865534923 22.54384157917189, 15.624002058819105 31.61508887795077 M32.647188408745684 16.805327756217455 C27.190554062371543 22.545072800679403, 22.636227932061388 27.327416338069185, 17.030840986238292 33.81955078712755 M31.843105467565596 21.7010507092299 C27.65195984791026 27.89949798982342, 24.602605250111534 29.62246305857731, 23.44996874541872 32.37634160217071 M31.76062374538718 22.469282292155572 C28.18993583039299 26.893577735845447, 25.309585253529022 30.455429388024918, 23.290662654942402 33.7295512513151 M31.715281799430663 29.335142670670805 C31.290253741190895 30.27598201425597, 30.418408930707237 31.472446899059605, 28.742740791334707 33.46744213661416 M31.517972419821213 28.931528825712785 C30.716888841541977 30.037378345340624, 29.841945806822594 31.323188419482996, 28.371937517332118 33.30085314256382" style="stroke: none; stroke-width: 0.5px; fill: none;"></path></pattern><pattern id="rough-4916521285219451" x="0" y="0" width="1" height="1" viewBox="0 0 9 10" patternUnits="objectBoundingBox"><path d="M3.808213953542472 0.26366553427846207 C2.2446375015926847 1.414512283079239, 1.8398008215471355 2.032218018230832, 0.2685682955444514 4.330073872443032 M3.5981600175803865 -0.2594634933331267 C2.9583434358489957 1.2264410240576997, 1.9456293772133144 1.9998286879481748, -0.16645700807976563 4.401736030020724 M9.829270008782025 -1.155757127285839 C6.150870369438822 2.6836148712842927, 2.7153993914800276 8.64096352217987, 1.726310399237342 10.413547427052142 M8.604345856666463 0.07430922343625923 C6.505552285058089 2.5381167558497753, 4.7699307985929975 4.110166793859064, 1.0821399744435594 9.01666370095525 M9.929961801275804 5.317745273008377 C9.147783474926715 6.1071395502254955, 7.481946998379781 6.971373211200776, 5.38048732243404 9.987832909876822 M9.279185772723006 5.344865510861825 C8.279556860917996 6.374747882730276, 7.897379457431658 7.4590589757946875, 5.669531536974651 9.74541728475016" style="stroke: rgb(0, 0, 0); stroke-width: 0.5px; fill: none;"></path></pattern><pattern id="rough-8496188282211652" x="0" y="0" width="1" height="1" viewBox="0 0 32 33" patternUnits="objectBoundingBox"><path d="M4.060022131952123 0.36350640368666354 C3.5151719668489547 0.8766177903100889, 2.007402956644863 2.9204924808840316, 0.22050413909019106 4.2146652250523156 M4.186392512474836 0.24092580214591147 C2.433896857217764 1.4233557199045062, 1.4574940106146002 2.766069105112686, 0.043508149361575155 4.660164461622466 M8.650987102633046 -0.8463405638272218 C6.05623203790682 2.8252385487337093, 4.944305846659007 5.7485235317546595, 1.3053139399553686 10.86697759485154 M9.070146731171324 0.32741011033361933 C7.627896870407753 1.8134775515473707, 4.721527327669566 4.287234950245884, 0.3677244685808372 10.517248926185951 M12.910723835434268 -1.6125559812034287 C8.837955972310278 5.739757106238423, 4.675266260863518 11.356943633739489, 1.070819263049135 18.183264788946158 M14.86884657709965 0.3069721962009475 C9.631495094789177 6.960464057355821, 2.4281627470189626 12.558957895676771, 0.9857290543066504 16.927550164322927 M20.892424430553795 1.4162152325605675 C15.885629082077118 3.6737118650725074, 11.548127769770652 11.043613823624518, -1.2097428139533615 23.43010708955842 M20.103305378508338 0.3756635980695191 C13.05391349573762 7.944964012701749, 5.4880154021524135 16.009316602126543, -0.9057572312396498 22.522628383737988 M23.855675461659928 1.5551701435627656 C18.351095311969917 7.332688304312581, 15.5848887342744 10.88621144220054, -0.008020310869527592 30.65078898254351 M26.180960006542858 -0.9416473011906596 C16.73066476702322 8.353577816768729, 9.249039542958554 16.365953922294658, -0.1207217735587538 28.960324014741275 M32.41420665100262 0.7689235196992916 C24.005117820850586 7.338785725904344, 17.686141827997233 13.785291607349993, -0.17106859872757285 32.29187548764662 M30.77607450764015 -0.7447091346787533 C24.042663655462796 7.81932697856595, 18.31000896988141 13.90266329584094, 2.3887751534637696 34.0863370393307 M32.373403221173376 3.228830247100721 C26.25717432209484 11.172393498253276, 20.898672624583156 18.84450704526873, 6.8413351942464224 32.04688686434384 M31.94542193288864 4.794541277629569 C23.03537672654517 15.197930872568683, 13.172687317506925 26.5988509666726, 7.252205672584363 32.55154766441729 M30.107367218365688 11.732921721365159 C24.58693331567453 17.260179161113676, 17.463876685801118 26.49866459118053, 10.385662283442361 34.83493167414717 M32.19274650301756 9.902203736994288 C27.907380893476066 15.554547789995192, 22.52270400629005 21.689462461368205, 12.46065149131314 33.0869370312517 M29.939156612992523 15.194599848771137 C29.718022406844316 19.70986369121021, 23.040183432295926 26.7456253361395, 18.134313212838286 33.346040034378454 M32.44545924427843 17.25309857323925 C27.310505284688134 22.56176614046791, 22.580187937041494 26.66009189519399, 18.275913231543726 34.048149578424784 M32.11953818682056 22.658495078153503 C27.676302353810456 27.68353362406675, 25.08240989073346 30.330629559430594, 23.617528833924435 33.7106443745159 M32.10491522230731 23.465869099673014 C28.59014594626996 27.493072272055898, 24.38806144680373 31.326833433080502, 23.082955693971233 32.63852124104691 M31.353514236544886 29.00595348093087 C30.160992466767222 30.029561680597304, 29.721503252976294 31.631803119606584, 27.864093326054004 33.26153870043211 M31.775523519775362 28.96380154224013 C30.74842332475806 30.5639391275962, 29.589102258868415 31.72082486818131, 28.208397335342664 33.27850514020677" style="stroke: none; stroke-width: 0.5px; fill: none;"></path></pattern><pattern id="rough-928337599028755" x="0" y="0" width="1" height="1" viewBox="0 0 9 10" patternUnits="objectBoundingBox"><path d="M3.799696774946173 0.07770989901870418 C2.083996443006969 1.707922317656884, 0.9204355548115348 2.7784303214168977, -0.3234286110346408 3.794315498783064 M3.452605045237504 -0.2566722740902306 C2.191269794820143 1.6518373205346977, 0.8035406046048874 2.8365567273210863, 0.0710402368920332 4.02100096551625 M9.197308703520495 -0.3233537798788402 C5.2831620202041565 1.8905750416776288, 4.7536256601087 5.978963135966048, -0.6169358357164773 8.754916960578207 M8.882584770618148 -0.19102340710344123 C7.090398365789746 3.2144067341444753, 4.11851284928993 5.982442300951485, 0.7568331161630787 9.881487334300457 M9.328899689880624 5.670594507760201 C8.226658594845922 6.594378373378698, 7.923221252373785 7.826127994787492, 5.877208023988182 10.11389574663326 M9.177233846855787 5.645015535787098 C8.802623733829854 6.51906597004576, 7.517409942818583 7.665414457241654, 5.678295015767029 9.71885186095963" style="stroke: rgb(0, 0, 0); stroke-width: 0.5px; fill: none;"></path></pattern><style id="svg-pan-zoom-controls-styles" type="text/css">.svg-pan-zoom-control { cursor: pointer; fill: black; fill-opacity: 0.333; } .svg-pan-zoom-control:hover { fill-opacity: 0.8; } .svg-pan-zoom-control-background { fill: white; fill-opacity: 0.5; } .svg-pan-zoom-control-background { fill-opacity: 0.8; }</style></defs><g id="viewport-20200307134820763" class="svg-pan-zoom_viewport" transform="matrix(2.3604650497436523,0,0,2.3604650497436523,0.00001430511474609375,198.59303283691406)" style="transform: matrix(2.36047, 0, 0, 2.36047, 0.0000143051, 198.593);">
<g id="graph0" class="graph" transform="scale(0.5 0.5) rotate(0) translate(4 198)">
<title>G</title>
<!-- root -->
<g id="node1" class="node">
<title>root</title>
<g><path d="M131.51148994639865 -180.6041063253721 C127.77899894399275 -172.68263737846692, 120.93912001995969 -166.62727348945853, 110.52837157337099 -155.20283112301905 M132.29836367979803 -181.10335684348246 C128.44866346164142 -174.11280065840705, 122.6891766545261 -167.88227249930475, 112.07972703781894 -155.142429951413 M141.56813837987892 -184.9979760207299 C135.07660440411385 -176.19675342517837, 125.42421888970445 -167.9953094665307, 114.21149681202948 -148.8966766453976 M141.20964133405218 -184.8249641722548 C132.27403313282906 -172.50675233180456, 120.50051365782518 -159.6661705186374, 112.78917230085014 -150.09839250557772 M147.90753779680713 -185.4210303017437 C134.16877702718054 -173.23113089360152, 120.63479437175033 -156.0239245593518, 113.02094092139149 -144.35691596396833 M150.5138096899087 -187.11125275513857 C139.55322473984657 -174.27077352921592, 128.20924815310738 -161.47580917503757, 114.28287151765478 -145.78450975281805 M157.76909468047637 -189.18360438038383 C144.69365761784667 -177.25244101264695, 134.04670304932748 -164.61390602965963, 114.32000048909848 -143.5158832806993 M156.1020495043235 -188.6578684476151 C143.68553286882928 -173.6646705039489, 130.03487794757498 -156.21212368697422, 115.91508599271255 -141.6356325944218 M162.69000606932914 -191.17497218134613 C150.48301775225175 -177.34257535640418, 141.52944289061833 -164.5767304681397, 120.38012240793962 -139.15934948643448 M164.64121120493232 -191.49964268557216 C146.21293691316453 -170.2316901258475, 129.08661403104446 -150.35574407070553, 119.44222967216199 -139.60370085612544 M168.34315347348908 -191.04438009384288 C151.90983455990323 -173.60635377880493, 138.7240288113788 -152.65754739193923, 120.18888545700132 -137.72995643326695 M169.47822832937143 -192.07653169281852 C153.8834658286946 -173.9236479467449, 138.19263063123768 -155.9152071783609, 122.41415812874762 -135.61439692507383 M178.14380073017568 -194.91448247577196 C165.0401663652174 -181.97854031106445, 155.38404173278732 -169.5351624356959, 124.08523322325576 -133.31545791082164 M175.75576634812515 -193.76057069533925 C161.51340820788997 -175.36483535823422, 145.18460830426602 -157.3910610772876, 125.27191666365418 -134.97314106837928 M181.62131731978022 -195.6780517828814 C163.31158349387994 -172.79220970612494, 144.47878627550074 -149.64830306996305, 126.69175636575056 -130.02628452574103 M182.90448869207623 -193.25202832608966 C167.04991855834615 -176.49859355883873, 150.1808912464758 -157.60728139813082, 128.27868230257818 -131.8351747642322 M189.41158671084847 -193.3044613668734 C165.19622140452404 -170.30512386497014, 144.64754265108024 -141.24636108896274, 130.52062888158133 -129.7004646775747 M188.71441826864142 -195.41727699394607 C169.46115065767216 -172.79560924259445, 152.0144723877609 -153.24649578634939, 130.9865694447789 -129.732370504653 M196.0875012692474 -194.57073505794804 C176.53414875301277 -173.78149889532813, 157.830245368311 -150.9134064285701, 134.6797651658407 -126.13388301038073 M194.24774507736507 -195.84961324989786 C175.08649988560953 -175.20101405183541, 157.36605690914064 -153.15288038425746, 135.61473668660133 -127.29490787819938 M201.5744985148232 -195.03143951146427 C176.91465530473337 -169.94109015406755, 149.48674264465464 -141.88999946005626, 139.0196234417838 -126.53668987128937 M199.81648290115257 -195.79680164730075 C184.13649776142324 -177.1172015568523, 168.73986973214164 -160.01819895593837, 138.37271133040434 -125.79516586678074 M203.28680538805182 -194.00171340465542 C191.6775516342059 -179.8177171111849, 180.19653445281688 -164.5520880207046, 142.84780941784183 -126.06409462285491 M204.30347950782823 -195.81118448196997 C192.05823984796692 -180.11141385142267, 176.8484524041776 -164.63754292027306, 142.37719578776176 -124.27328387260556 M209.12911452760395 -195.5479493576275 C198.87532995159654 -178.4853820794383, 184.03803258983467 -164.72083594460256, 145.9212386419561 -123.96843678295814 M210.7984004020881 -196.29942711104147 C190.8908676760688 -173.31036131023825, 170.91339959751622 -150.06604570348915, 147.91949114278836 -122.75504082211935 M215.9330975545635 -197.33571187142 C200.60270678726468 -178.94858796123248, 187.34781424004262 -162.42682370676252, 151.18576840200956 -123.32233249719597 M216.69895508514762 -195.17295286862358 C198.68294515112956 -178.48208071936926, 184.04497466457602 -159.28007418040423, 150.92748643865818 -121.17961074466767 M219.91209363614607 -195.2283506498429 C200.53438213576823 -172.03606998106753, 176.89980485796724 -147.86562999838208, 154.73189444200685 -118.77011352971157 M221.51398196986312 -195.32358301293374 C200.5444947278604 -171.2026625375249, 178.92259617124103 -148.27463626860356, 154.75487083713 -119.72200138718513 M227.52832648463453 -195.2511387116504 C201.80114476494174 -170.91941035616642, 181.41899808883676 -142.77860988230023, 159.79958566557815 -118.92235272776571 M225.85664323465028 -195.63618146080395 C209.96690878457022 -176.10677282524944, 193.2406251414395 -159.72419017777514, 160.48363844263721 -119.63115098617946 M230.43758977537902 -195.8556779192314 C212.86194109492854 -178.22882679171624, 197.46853278220593 -158.67730692493024, 165.2150956137242 -116.0304557387835 M231.55895004728154 -194.16879411421263 C209.2644206735164 -171.251688942475, 188.4181917847314 -144.73338170455918, 163.59999897132596 -118.73537650593165 M235.83721768127944 -194.4282625940905 C213.59322433773215 -165.56872734597135, 188.4830275749236 -140.90213827011064, 166.68430349548478 -117.46673957579863 M234.89926410189312 -195.5624712793111 C211.44796126622975 -164.4773161926362, 185.12277074598506 -136.17557527329382, 169.18999569091056 -118.01901924415404 M242.38231897360234 -192.13477125845364 C222.5814575948588 -172.23203908841566, 203.12898298038783 -150.5878358539736, 172.166625091471 -116.70076718526546 M241.53101205134513 -194.2557561646391 C221.21156177075702 -171.96132915385084, 201.7652505651465 -149.0658062538091, 172.52717872816282 -116.00440739284753 M246.82927032075781 -192.53971267792383 C229.25926915868186 -173.52895615498323, 210.03345647291266 -154.07532200182808, 177.22981619575216 -115.25430287916572 M245.55046570632703 -193.61447690483698 C222.5707014695428 -166.13635784765685, 199.36490645866147 -139.82093073141968, 176.85335376025287 -115.20183089595461 M249.38977197924171 -191.26261980538155 C225.700823439191 -167.12882978384667, 203.59370711584265 -141.4558057979951, 183.62423218589626 -115.01538204283432 M249.37514117464823 -193.3701595736746 C225.38293690133747 -164.18117819964183, 202.7705425584789 -136.63177853076226, 183.21920066688787 -115.22166259717574 M256.3132275224828 -190.37400555036757 C239.1307090011775 -175.63099884199903, 227.70381419271703 -157.17386978628508, 185.42810763201516 -116.14974430413127 M253.81701925228302 -191.8051268157422 C229.52914032927922 -162.0741455247614, 204.54235472863184 -133.33015485336134, 187.86021817819625 -113.75319081835165 M257.08784216210927 -191.70395544212207 C244.7206290490769 -174.46688171427752, 226.49621432455112 -154.5898729277481, 193.4078616905925 -115.3237547696431 M259.6218564466213 -190.95568620821828 C241.07095275170576 -168.41149785810578, 220.40783157759287 -146.57431813959897, 191.32437546023888 -113.5082749223232 M262.1915134363495 -188.0435559849886 C247.00928621656382 -172.94132816318634, 233.0681060706738 -153.90382148382622, 195.4285484845378 -111.7408869450264 M263.53881833551833 -189.8399148063797 C244.33356039851444 -168.05790757227976, 224.71936070236228 -145.4948825439422, 197.36640348748824 -113.36534135728013 M268.40100808996766 -189.30269679326324 C250.42277016022044 -168.3196473535522, 229.82620695024522 -147.47631344150747, 202.64851346501493 -112.39272532605625 M266.7445349972175 -188.62295470449706 C245.45058747093708 -163.81447253591585, 223.90428723419285 -137.555075107869, 202.35597594779424 -113.77068258892525 M270.65131989702616 -188.47251055639228 C255.90403419336306 -172.3769162599526, 241.17350881911847 -152.328965134635, 208.81870985791275 -111.18226844808514 M272.34493944120095 -188.18944329481837 C256.7803817179896 -169.50685803626683, 241.14425085435653 -150.82183306759762, 208.38823184194095 -113.5041915165821 M273.94442798503167 -186.41365813611085 C254.8893074584425 -161.42801704516907, 234.61480029582077 -136.01110486918714, 213.09805667867334 -113.00693212890909 M276.1758358025468 -185.16249614022297 C261.9479470345264 -169.68150124082686, 248.1650429124809 -154.0136943698958, 211.73964041430068 -112.27761713468291 M280.70249648167265 -185.52090108222512 C256.6449263608472 -159.24385779237483, 233.75915828764988 -130.87225177343652, 217.9757746608512 -115.07217726574311 M279.6108513556673 -184.9485378445833 C268.27221628804233 -170.00519353495255, 254.75565629376632 -156.34252029061787, 218.05985857361705 -113.79042166078665 M282.3401156346307 -184.53101929186496 C269.94421424529486 -167.53087212737077, 257.28058545090516 -149.40104743021666, 225.1889692499573 -114.22033597626876 M283.6283507831975 -183.1862268805378 C270.224758766315 -166.47748862616595, 254.51939129524672 -149.8919581398781, 224.48707061551258 -112.92697039395408 M289.29013808646835 -180.5000150909154 C276.4542529912372 -166.5636138858551, 260.9940604128841 -152.88658903346806, 229.66156715575042 -112.8772869986835 M287.77936676991635 -181.68914513557013 C276.20157506980155 -167.8917901952419, 262.8414906045016 -154.69310483397618, 229.4458384964078 -114.60208759200971 M291.4569398046753 -180.22618216457184 C271.13728739686667 -155.1523419218942, 246.31056188773883 -127.55657959876855, 235.48605640044138 -115.22449717072739 M290.76580910140217 -178.42576204956947 C277.7732527849806 -161.98161588224215, 262.77568594217854 -145.5097809129737, 234.79284161720912 -114.36851607055858 M296.41062698568635 -176.1738751096038 C273.3926755448231 -153.6714637305945, 254.05213432884858 -129.6828164977706, 241.06227022217328 -114.24319405581498 M293.7140206386058 -176.32274482560703 C279.424826596305 -158.45568240141515, 265.555610898572 -141.70853742616148, 241.8608484937152 -115.24824322984144 M298.99775965042795 -173.00440144863379 C286.69275654814055 -162.352361247561, 273.1003640700955 -147.37304935655766, 246.4731998253846 -117.69866896572255 M296.95857049319767 -174.67486052891925 C285.2289269435847 -159.62605791238445, 270.6778941416123 -145.16827959403568, 246.79270550587836 -116.76954472283391 M299.03608159314274 -173.39177508316814 C292.504273452961 -160.3079458862651, 281.81290860500485 -148.9003599661515, 252.56274155961555 -115.33207929976334 M300.30109548964225 -171.6640887880867 C281.83377328337167 -149.99143456243826, 262.744607183529 -128.42256119788112, 252.8074277987586 -117.60961540138528 M304.79952363774373 -168.22862119974366 C292.5777574208128 -157.5005514188535, 279.9578440633269 -143.471682995963, 259.0886953924985 -117.5044779395526 M302.93363162479034 -169.2995682141435 C290.512043575718 -155.33208204058337, 277.97938703787224 -140.22817030835716, 260.08213998876056 -118.30499718198608 M304.9548684931818 -166.29618440037177 C294.54581080166986 -153.34233980275536, 285.26911053223824 -140.39164369451652, 267.5066208557589 -118.75868358191134 M307.1120487121605 -166.5021918905141 C294.1067913952165 -152.15398263283376, 282.58975580475607 -138.9975448993956, 267.35304715797986 -120.7626457653801 M308.2616650188995 -162.48999593747808 C300.03279494609706 -152.69961655966893, 292.8541927674557 -143.79285298977047, 273.25856335177787 -121.03187981829797 M307.7445542870203 -162.0229632698474 C297.897483453453 -150.12667496922714, 285.4507385322851 -136.6158542036359, 273.912661659639 -122.37051298243205 M309.7126027003935 -156.78182361895247 C303.84455396236535 -150.21831726551918, 296.19031381636296 -146.17368614870486, 281.7103096138502 -126.07031409375021 M309.6874312219389 -156.66225461524957 C304.2008321978251 -149.68226591702424, 296.6362910216024 -142.3593845607725, 282.3678715171538 -125.67872081065252 M311.3073845916819 -152.60577090468223 C301.70730522414226 -145.71359980281235, 295.4843131952873 -136.80284938880277, 290.25052926327595 -129.99158148848605 M310.73799487188376 -151.9690132998726 C305.4884910149883 -147.69798634774767, 301.1368587903624 -141.8899155249912, 291.7582352319211 -130.36681429810102" style="stroke: none; stroke-width: 0.5px; fill: none;"></path><path d="M186.4771724092873 -190.7004534832397 C206.0291234366209 -193.061043708579, 235.05159272602106 -191.9710579486341, 254.33479363016164 -188.5811244421831 C273.6179945343022 -185.1911909357321, 293.25074023530277 -177.5757578160351, 302.17637783413073 -170.36085244453372 C311.1020154329587 -163.14594707303235, 313.4018894617759 -152.98612338139037, 307.88861922312947 -145.29169221317483 C302.375348984483 -137.59726104495928, 286.67747635522596 -128.91313678255156, 269.09675640225225 -124.19426543524042 C251.51603644927854 -119.47539408792929, 224.22624987598672 -116.52287521246802, 202.4042995052872 -116.97846412930801 C180.5823491345877 -117.434053046148, 153.59151300694583 -121.23616813702138, 138.16505417805513 -126.92779893628035 C122.73859534916444 -132.6194297355393, 111.61268585676062 -142.98873917192552, 109.84554653194306 -151.12824892486182 C108.0784072071255 -159.26775867779813, 109.4296017017749 -168.98256459056668, 127.56221822914976 -175.7648574538982 C145.6948347565246 -182.54715031722972, 198.26978368249874 -189.5385669771403, 218.64124569619221 -191.82200610485097 C239.0127077098857 -194.10544523256164, 249.93698852207544 -189.9978617274696, 249.79099031131065 -189.46549222016222 M208.33605984929625 -193.55649939298425 C228.87398244413035 -193.69084054194983, 256.88879058257106 -188.0993455248393, 273.7632524079212 -182.71071320092162 C290.6377142332713 -177.32208087700394, 305.0871175024649 -169.24560410626447, 309.5828308013971 -161.22470544947817 C314.07854410032934 -153.20380679269186, 311.24428051534437 -141.50553265158769, 300.73753220151457 -134.58532126020378 C290.23078388768477 -127.66510986881988, 266.8696265694387 -122.51019366776323, 246.54234091841812 -119.7034371011748 C226.2150552673975 -116.89668053458637, 199.39308011759155 -115.01161647728699, 178.7738182953909 -117.74478186067317 C158.15455647319024 -120.47794724405935, 134.24962502699492 -128.82129329728008, 122.82676998521414 -136.10242940149192 C111.40391494343336 -143.38356550570376, 106.52624091044787 -153.53417986349817, 110.23668804470618 -161.4315984859442 C113.9471351789645 -169.32901710839022, 128.66295590065351 -178.40819663661236, 145.08945279076403 -183.48694113616813 C161.51594968087454 -188.5656856357239, 198.21967154938045 -190.31562364150926, 208.79566938536928 -191.9040654832788 C219.3716672213581 -193.49250732504834, 208.306559725018 -193.66412176267977, 208.54543980669692 -193.0175921867853" style="stroke: rgb(0, 0, 0); stroke-width: 1px; fill: none;"></path></g>
<text text-anchor="middle" x="211" y="-150.3" font-family="The Tinos" font-size="14.00" fill="#000000">Statistical hypotheses</text>
</g>
<!-- h0 -->
<g id="node2" class="node">
<title>h0</title>
<g><path d="M20.988649744937323 -65.65565532913635 C12.877632439273428 -56.480910961492874, 6.734980251352855 -45.6160425856013, 1.0172106207502525 -41.01795776237873 M22.410890363345676 -64.27892785818203 C17.36163873667623 -58.94284353110447, 12.832284625064702 -55.00726780116849, 1.5330100850890567 -41.16805930494138 M32.66554388661491 -69.62629834359981 C24.29302976583532 -61.11928618696986, 16.2619015291534 -49.7785173940664, 3.7227024232622377 -34.72237902692937 M31.872819406475934 -67.39567037231919 C20.642457100541066 -56.63589707250903, 10.59560140810832 -45.97345308125177, 2.0690101511218058 -35.54769361383472 M40.402104695354545 -69.32242169853463 C29.51701722271075 -63.22986872360108, 22.367896410269168 -54.40714739621635, 2.441388732650126 -30.040238723628587 M39.527007716973436 -70.2269714259639 C25.50852084868031 -57.03188232216555, 13.595400574091974 -42.52684554342929, 4.136642716514087 -31.03776185378098 M45.06475724935749 -74.33791960278681 C29.752394223416204 -55.963489093162174, 18.728266033501946 -41.68716424717837, 6.247252760897734 -26.096453455598137 M45.54740240556671 -73.75954755153785 C29.88950348616838 -56.418404185625576, 15.47864753431673 -39.158015814510215, 6.712293376234954 -26.925132324544595 M52.105724010865885 -75.94342072821128 C42.6128955727889 -62.67272795750509, 34.108924110533735 -50.816862234093534, 10.225379223401918 -23.897532670252076 M53.39395915821669 -74.55499965825452 C37.71714871560565 -58.240984461308095, 24.72626377618339 -42.23277250365833, 8.300176967950266 -23.81139306727853 M57.907112356116606 -77.31959248973858 C40.653409571660085 -55.0386204013261, 25.81369330413193 -36.420255857792476, 12.187822141768947 -22.2558203753852 M58.332619982337775 -76.83996233825243 C41.17237324358709 -56.20229989225071, 24.545524562615174 -36.76965590721953, 11.472802815828635 -21.45852032178409 M63.907061957858026 -78.4604109331753 C48.24543551289458 -59.68894390858951, 33.309009669647885 -40.8166885903308, 15.189630101540224 -17.734729241632657 M65.36702746943611 -76.45346754265742 C48.40038964411741 -56.275441281519235, 30.468902288700146 -35.25562246934458, 14.814830736170673 -19.053557334352988 M72.82821877878641 -77.05687398364576 C50.205633480150524 -56.80713536447137, 31.712237482283495 -34.629042906159654, 17.3559807989832 -17.59455816828243 M72.13724682065234 -77.8219085761017 C60.517403037995365 -64.59056991849066, 47.25678802723043 -50.12420741637071, 18.518295181771887 -16.723970252676 M76.12268298198269 -79.12541587365573 C57.735491218958856 -55.886082576639716, 39.5522858378384 -38.417979884393546, 21.602577911063086 -15.465749546117296 M77.33211345259889 -77.61366724255458 C63.67778680793872 -61.798033354506494, 51.247259255373905 -47.33106915455977, 22.57928128429337 -15.510327136711513 M83.60675929385467 -80.49774776528102 C67.77314028270406 -64.00808202475316, 58.073627181302896 -49.414488348857375, 27.640900033401408 -14.308837161613909 M82.54522057470125 -78.82060403045062 C68.15227006684303 -63.207125435970745, 55.20651426501048 -45.860363823870436, 25.85179699207177 -12.744720395420554 M89.9596539972412 -80.58741585346179 C73.0298216448766 -64.4746291959083, 59.13568346900818 -49.45047217565638, 29.70373741898961 -11.978992179020283 M88.41022644359575 -79.37272162362352 C74.94213607331528 -63.47554313636521, 60.11924784422204 -46.375386834393666, 30.07640652367125 -10.973375579049824 M94.99130736890328 -79.21594978352928 C73.5894699225284 -56.22679087022237, 56.6104277036027 -35.646232241401016, 33.478499372711184 -8.230474576431535 M94.88894366409144 -78.59715844764236 C78.43856893945218 -60.16790042842857, 60.706389279736186 -42.20414578131679, 33.35557953799703 -10.253993195380586 M98.35035974012709 -78.82329809359219 C83.97767776484132 -59.31823780155477, 66.90168778540293 -38.29056536902019, 38.329610800792864 -8.028392166037673 M99.37796086913096 -79.92658138295013 C85.92371243589791 -63.778820293247456, 72.78279697045029 -48.213644021455245, 37.330513727550496 -9.54373576215972 M105.7854995644535 -79.72826706034996 C87.030877040374 -60.92275694400217, 70.85306062535012 -39.27698440846141, 42.1069696764436 -8.137639592492848 M105.18508631695622 -78.83242755922758 C82.42974048507222 -54.75473716981743, 61.5737175718276 -30.11728204395058, 41.72604937151256 -6.494353354918368 M111.13344913284405 -79.33139971400692 C84.5805576792595 -50.91409969680066, 63.0068556871797 -26.315671149521325, 46.16956993586488 -7.510831295472384 M109.54479495116234 -79.80670925967966 C90.90001967611997 -59.01907223521599, 71.79515142137214 -35.76988489128048, 45.31016751418337 -5.085428533801683 M116.00368562444653 -79.28239059004467 C97.4245712304206 -59.50258490677609, 83.90625576786306 -40.92397604352903, 51.46818559601182 -4.393612408730963 M115.8847936403183 -78.89005425473812 C92.66979335036427 -52.059683237678584, 69.47656700162882 -26.67055375040948, 50.27277421698083 -4.9588629264664 M121.1089188767769 -80.86897547608342 C100.17192861009931 -57.30091413753157, 78.16088215047658 -31.414560314795953, 53.21535094650567 -5.559345256393394 M119.33118008208469 -78.71865051427142 C94.83219890276659 -48.647872737260066, 70.02599048462974 -20.62472892121252, 54.889811767393454 -3.864189685883249 M126.11350964584598 -76.86966334835996 C109.74972877949679 -59.486228034384546, 93.93661386791833 -42.705843329055234, 58.19821263095098 -4.82507200845735 M124.14002484951983 -77.74362208074811 C106.01804147874138 -55.788745573380695, 86.84307696085891 -35.257225424092965, 59.38665685549058 -3.887424442701697 M128.6197664213311 -76.04990407941229 C110.00403314825398 -53.20326764779132, 86.54073804273023 -29.437541967528322, 64.06420005244811 -3.197589224230167 M130.29399490657403 -78.32606389058837 C107.68164530211908 -53.05895203065546, 86.34938791041887 -28.757602228597765, 64.76627922617169 -2.828945814682866 M132.81560416868595 -77.19102447819468 C111.06052771687601 -49.43618360514063, 84.99658989745635 -23.290154400188207, 70.41941790399169 -1.9846781527794808 M133.948616224812 -77.30883884898441 C107.31890216008465 -47.93440378160021, 82.5058794005872 -18.11724467667597, 68.58946007622062 -0.807557778135223 M140.94883673736024 -76.99682111206384 C114.23997648192203 -45.88132190559465, 86.07400645485012 -15.843846168505836, 75.30866355189167 -1.522199124973548 M139.05188377983148 -76.82111892209224 C123.51698907120297 -58.336404146130576, 109.8028668457898 -40.90412003887037, 73.03820337071988 -1.6529354422726115 M145.10361042642626 -74.9591610590144 C126.96263219569046 -56.421425283113564, 112.37719790566432 -40.77118311947676, 78.3274971853659 1.3471506832819622 M142.7739726093174 -76.29351621574838 C120.38985828408289 -50.3225051239185, 98.07901395363844 -24.830353104399833, 78.00579194297971 -0.7665319680839182 M146.64091456750396 -73.14127738915542 C121.53750967659617 -46.07987170412132, 95.96561746997735 -16.62343393687163, 81.73628909308529 0.7006504791155952 M148.56844251837816 -75.44435434275199 C132.89834741350097 -56.27702106540014, 117.13078432741769 -38.370332142294885, 82.79041858523755 0.30253666550570335 M151.3340552878624 -74.4378319650805 C137.77128477958885 -57.621354880957, 122.83921980945915 -37.661870828935854, 89.86147008190002 -1.332848115260448 M152.36978145727164 -73.1986890424893 C130.860749731841 -49.665162777631366, 110.51695429763258 -23.952969199585304, 88.67877322862037 1.0467014546184283 M155.70101283340188 -72.46195640931583 C141.8622292824929 -57.805944856663466, 125.87181284037165 -37.66020423273959, 91.30042713981106 0.010681989771928357 M156.55921760434327 -72.86188149852865 C142.84670331905926 -58.4001955347149, 128.87964057117023 -41.066010194501715, 93.45130541532261 0.3957934170681665 M162.83982841789887 -71.08179623536275 C147.55420720599955 -55.61429453740971, 130.65076210650702 -36.79980418632766, 96.90013322859195 0.6533764262661612 M161.90561755281527 -70.68845853296878 C138.7713420457141 -46.011098571128336, 115.54778446207386 -20.9376537513579, 99.41724283350331 0.5585867264909321 M164.03726537217915 -71.33721952636006 C148.7356196344223 -47.97067426437219, 131.53702815249324 -28.254294710553133, 104.11308231435981 0.8904584090405927 M165.33106962366202 -69.93498431970194 C148.8198749060217 -52.1078903823844, 133.19173099695738 -34.5925388558377, 103.87098424625724 1.5999249731130334 M168.36097189449305 -68.04629544380032 C149.0317334381986 -46.209299261510075, 126.16020388724843 -20.300374929665594, 108.7234477817202 -1.401429261661192 M169.49500786198683 -68.0461273314593 C147.17016181601977 -41.64993606737415, 124.29388139152395 -16.199930111303132, 108.38323735594653 1.102881643369606 M172.27146384233652 -65.86701572144234 C155.85558532741413 -48.54643460694055, 137.21839660811935 -26.534201687153164, 113.69423027471181 -0.45480725725148696 M174.13458390172156 -66.5022750449544 C158.9857315187655 -50.22018851432427, 144.19573543071073 -32.87660273419765, 115.50444258659142 -0.5993606881824849 M177.20871603290482 -63.74828194743302 C161.91281441940433 -48.4039512840979, 150.99346745554885 -34.46495710923589, 122.29579360882462 -0.5436754379915607 M176.9598213069033 -65.60290600264291 C156.0026901318357 -40.75895825863674, 132.94088827287126 -14.414302077858181, 120.5751647787016 0.3993261031639028 M182.05536521608232 -62.790513112689716 C170.59083847010027 -51.19999986623505, 155.94674468703553 -35.527987395650044, 125.6144416173975 -0.21576327723220867 M181.23801099968765 -63.25260124553544 C169.1493848030619 -49.75144157486248, 155.4905199358763 -33.899058167898446, 126.01081155959693 0.3119631417578377 M183.83791958914085 -61.35238837377369 C172.0451482941281 -44.76770807420902, 158.27758637022097 -30.691856767826074, 132.3232645285309 0.5789025252963746 M184.95288750364784 -61.3567431055668 C169.7499240399758 -44.503237958076326, 154.06859079007984 -26.554316602715176, 132.3019122651128 -2.1524438274088613 M186.63863439045332 -59.60919956136533 C178.40150444387916 -45.84227886187871, 166.04948989669654 -35.22564202998605, 137.59712350630676 -2.8273190052321424 M188.00120605975005 -58.878344765675536 C170.2082367338086 -38.32483642868186, 153.62098736714088 -18.30269468958282, 138.0551260198368 -2.936289319944299 M189.66228410278035 -56.8925947779313 C171.28301961066921 -37.85376039632176, 152.75109480162206 -13.226619996970763, 145.83773003299387 -5.2282009983705 M190.80839354737572 -57.19280816295994 C175.32557454079193 -39.27978537714044, 161.01331517773082 -22.559797247316144, 144.19047353896374 -2.537992175259853 M195.68186253738622 -54.39751409852203 C185.67246767604252 -42.152322318594365, 175.37851421949452 -31.53027081935104, 148.9720800193371 -4.436557516659509 M193.6423531170784 -54.88009985683006 C180.81985241837526 -39.50696375085051, 166.32598590810125 -24.472295282722488, 150.23261806116946 -4.830643489809086 M195.5838274521934 -50.46246073239876 C185.81290588910525 -37.18960652331781, 173.50966857024463 -26.214052063088666, 158.38791287642866 -5.1996751418179885 M197.33170456611083 -51.96857953723806 C187.52927468822145 -41.698413079254884, 179.92483718377756 -31.514723065745244, 156.99004290001093 -6.1818002553453955 M199.6487768009573 -47.33294042354681 C186.48767742972888 -36.36157677966538, 176.7699579372644 -21.79408872254509, 166.25453430435005 -6.961662680114196 M198.30120801669867 -46.870831694393665 C189.92898861925502 -38.323383643793925, 181.7682139275635 -27.81964757849228, 165.46813505879672 -9.474897811320423 M199.9768509373632 -42.46187595761447 C192.0004561510889 -33.01851823941489, 181.54640463725914 -24.809207549098, 170.831190302666 -12.82465931414931 M201.06122981224937 -43.822069434743334 C192.56899560172735 -34.98012191904632, 184.60721487780194 -26.78327984330657, 172.21308996979653 -12.134029548629087 M200.32519318087418 -39.03300108670014 C194.69802138802302 -32.24333323946097, 194.24101690764806 -28.515144534583385, 181.22016866605736 -16.97341850384385 M201.06324582101757 -36.99448146690768 C196.4635293259687 -31.5287642485779, 192.09229386566406 -26.189980641758215, 181.02527907897124 -16.240582532487387" style="stroke: none; stroke-width: 0.5px; fill: none;"></path><path d="M128.6703006943256 -78.48331802829205 C148.95736847473262 -76.88378446232733, 172.46442156769334 -69.5245126977862, 184.89721713931195 -62.45498350379665 C197.33001271093056 -55.3854543098071, 205.35502702632544 -44.51886154928507, 203.2670741240373 -36.066142864354774 C201.17912122174914 -27.613424179424477, 188.08620936298348 -17.846783270219007, 172.36949972558307 -11.738671394214855 C156.65279008818266 -5.630559518210702, 130.98585174968184 -0.0036696009022326725, 108.96681629963476 0.5825283916701451 C86.94778084958766 1.168726384242523, 58.100994390849834 -3.046483571627882, 40.2552870253005 -8.221483438780588 C22.409579659751156 -13.396483305933295, 6.9791016322602 -22.28855442085078, 1.8925721063387044 -30.467470811246088 C-3.193957419582791 -38.646387201641396, 0.12138749076080835 -49.88697672637065, 9.736109869771525 -57.29498178115243 C19.35083224878224 -64.70298683593421, 36.25745187391425 -72.02900943544736, 59.580906380403 -74.91550113993678 C82.90436088689175 -77.8019928444262, 132.1960758474147 -75.50503862071533, 149.67683690870402 -74.61393200808891 C167.15759796999333 -73.7228253954625, 165.48008790344824 -70.17167596680599, 164.46547274813892 -69.56886146417827 M87.33045151575038 -78.41999615443495 C107.4906434714301 -80.07331593623562, 137.17779180532156 -77.03318154688166, 155.49749078146186 -72.55281683331012 C173.81718975760216 -68.07245211973857, 190.68800261579003 -59.55675787326664, 197.2486453725922 -51.537807873005676 C203.80928812939436 -43.51885787274471, 202.95448373600968 -32.41335050006244, 194.86134732227492 -24.439116831744336 C186.76821090854017 -16.46488316342623, 168.23681781816015 -7.739258536715823, 148.68982689018372 -3.6924058630970364 C129.1428359622073 0.3544468105217504, 99.04512353679401 1.8004153348882455, 77.57940175441645 -0.1580007900316147 C56.113679972038895 -2.1164169149514747, 33.13053267397201 -8.48934185034, 19.895496195918355 -15.442902612616198 C6.660459717864695 -22.396463374892395, -2.8336841721489447 -33.276435625962336, -1.8308171139055105 -41.879365363688805 C-0.8279500556620765 -50.482295101415275, 11.062029909433113 -60.820416853585016, 25.91269854537896 -67.06048103897501 C40.7633671813248 -73.30054522436501, 76.99131595407788 -77.40596267001224, 87.27319470176957 -79.31975047602879 C97.55507344946126 -81.23353828204533, 87.1722740408911 -79.3580760445971, 87.6039710315291 -78.54320787507427" style="stroke: rgb(0, 158, 115); stroke-width: 1px; fill: none;"></path></g>
<text text-anchor="middle" x="101" y="-43.7" font-family="The Tinos" font-size="14.00" fill="#009e73">Null hypothesis:</text>
<text text-anchor="middle" x="101" y="-26.9" font-family="The Tinos" font-size="14.00" fill="#009e73">We don't have a degradation</text>
</g>
<!-- root&#45;&gt;h0 -->
<g id="edge1" class="edge">
<title>root-&gt;h0</title>
<g><path d="M175.5898,-117.4803C165.486,-106.9171 154.3675,-95.2933 143.8695,-84.3182" style="stroke: none; stroke-width: 0px; fill: url(&quot;#rough-4972361418109496&quot;);"></path><path d="M177.32068830183243 -116.17615675505178 M177.32068830183243 -116.17615675505178 C166.422806265803 -105.33319312188185, 153.7129005323534 -93.50021004409547, 143.95822899057 -85.99030758049246 M176.45220998431182 -115.58225757328691 C166.89530986142955 -104.55457938111586, 155.82808922620228 -95.59643006076826, 142.31254752990446 -83.36865502885223" style="stroke: rgb(0, 0, 0); stroke-width: 1px; fill: none;"></path></g>
<g><path d="M146.1625,-81.6518 L136.721,-76.8447 L141.104,-86.4904 L146.1625,-81.6518" style="stroke: none; stroke-width: 0px; fill: url(&quot;#rough-4916521285219451&quot;);"></path><path d="M146.31597589357264 -81.55527061040046 C143.19294751672174 -79.67579435700061, 139.61011740196412 -78.78548156252367, 135.7531597299195 -76.05788959951842 M145.71714659694703 -82.05591663409812 C143.49677897298065 -80.29044805598616, 139.81599901734103 -78.82971513083248, 136.81863513162736 -76.44585644611065 M136.9101312132456 -75.90810285644343 C138.17227985356897 -78.07456954006143, 138.59662298963502 -81.88591376789051, 140.1842737147237 -85.67086582383118 M137.1698755044726 -77.1296303362379 C137.95142165020607 -79.70727673162288, 139.03486387458724 -82.1644520372779, 141.03997735154812 -86.55125711342014 M140.88426456694336 -86.35924021955704 C143.6822524373418 -84.27383805946154, 145.58068658208026 -83.43957420973916, 145.9633076387389 -81.90773657837532 M140.90657563349822 -86.67225618313748 C142.87780754764077 -84.89414783734645, 143.83454700152592 -83.62108325565696, 146.41805223758325 -81.6326665306795 M146.1625 -81.6518 C146.1625 -81.6518, 146.1625 -81.6518, 146.1625 -81.6518 M146.1625 -81.6518 C146.1625 -81.6518, 146.1625 -81.6518, 146.1625 -81.6518" style="stroke: rgb(0, 0, 0); stroke-width: 1px; fill: none;"></path></g>
</g>
<!-- h1 -->
<g id="node3" class="node">
<title>h1</title>
<g><path d="M241.96635089233828 -64.15178863251919 C237.72249560701084 -56.786204797628585, 228.4174570681991 -49.0706864474994, 220.87964872517912 -42.74347618575133 M242.89207213388698 -65.87370396478254 C235.12090963145994 -55.51099565106121, 227.16188354616665 -46.4810660870185, 222.82758143579449 -41.223285198920486 M254.28403941455 -67.7687852811285 C240.0993110314139 -53.878876417961806, 227.3317991360819 -42.13172189436103, 221.4087957703825 -34.91416897237757 M252.21040331160447 -68.59177902993973 C242.75380325133307 -56.56548500353278, 230.58893467956437 -43.15923286944605, 223.23651568559802 -34.97741168691043 M259.83923444508144 -73.21508411071254 C246.95295183011538 -60.213253580353886, 237.13307687921062 -46.348206504867164, 224.2892987799552 -29.706580586721238 M259.4951920639191 -71.53133640873057 C251.2257874318985 -60.24024450024146, 240.0152924396622 -48.881857894564604, 224.42818273731143 -31.847317412076222 M267.8951880231328 -73.62385940026265 C259.3749106009237 -63.05305624561564, 250.27469795692505 -52.82535556741661, 225.118807598409 -25.820069688967866 M268.2435506633959 -73.25618963707191 C259.2651652523699 -64.04475431444622, 249.4628800731081 -53.556006687570246, 227.63165426794882 -26.910118640355787 M273.82103678698115 -75.10255306269534 C260.47169391508334 -60.301433225014335, 247.19978428502037 -47.20848526697528, 229.21624692603027 -25.679563741921804 M273.83431826906366 -76.76922940591638 C264.64943448033955 -64.79117334232691, 254.40858285160905 -53.73001838305023, 229.74557922364204 -23.49137106935113 M279.05741404143873 -76.24094234486034 C266.31357124861114 -58.09005758730903, 248.50726020024533 -42.21725148879053, 234.0987797146338 -19.557454462830204 M281.67968414982835 -76.67453039452009 C261.2666984307865 -55.83220594541814, 242.26137589463752 -32.23504560852733, 231.32327106158382 -20.797992375385196 M286.9402958911052 -80.04589132588914 C274.6272758252782 -65.5661453894374, 267.39556412501184 -52.87840820557541, 235.32891727010622 -17.640807558003385 M287.72036603466125 -78.82373363686821 C269.62591482854333 -57.43456971508837, 250.65839562310668 -37.441128846206176, 235.7706970123776 -19.592602582798733 M293.55263051977545 -80.17194213965637 C274.71255061792107 -55.56265534421556, 252.4749735297831 -33.666696933823715, 239.95873838073595 -16.76261602352534 M292.1181368694204 -78.12124890155188 C279.5990260104562 -65.49963710222661, 267.67153167060326 -51.14003566017839, 239.18831308392572 -17.423294533277407 M299.113894435071 -79.62940875999514 C281.072981448861 -56.01702071788582, 260.8464635005857 -35.029753952145484, 242.10468303744562 -15.58609873967464 M299.08394081003416 -79.49815119632514 C280.69779012673087 -59.41724261992503, 263.75805091345654 -38.23668551260608, 242.42778835275348 -14.895394186959342 M303.189496370126 -81.45389845236335 C291.3852984605233 -66.90217985346194, 278.3525777268789 -50.179636116193805, 245.2996934683278 -12.868205410323057 M303.7663651895369 -79.45889530218662 C293.31357506579354 -66.95781573306049, 280.0517161306276 -52.27357969668547, 245.59447617366348 -12.480782864851076 M311.4472942061521 -81.25817226699625 C287.3983117893318 -52.64843894939935, 261.1031034173909 -26.36217128308615, 248.96439992294762 -9.164021730903281 M309.8091779963698 -80.91292597703064 C291.08079767230674 -57.226554980555655, 271.34954771111524 -34.63853284796093, 249.7860243761033 -10.161598811343707 M316.8905948177577 -79.03116616502014 C295.2231264680855 -59.762622745521114, 276.1493290851161 -36.3531687933079, 255.26133544488863 -10.415447522101305 M316.2183890171216 -79.78872602992135 C299.0400798436976 -61.39124344310247, 282.056927139559 -42.633069565161314, 252.6640879327233 -10.174724983260115 M322.30345543604597 -80.01252622581887 C303.4869270229032 -57.56100815152981, 285.46132208014825 -39.11658114823472, 256.8803449581311 -6.929721012541435 M320.9612391371836 -81.77913106667162 C306.4439633608462 -63.63136776540638, 289.7683669919751 -45.412522738370534, 256.94964585500435 -8.130423030958388 M324.9971622963897 -80.29286879726398 C313.86716572813293 -65.94038190018577, 299.06948882610294 -49.40688810727766, 263.1243938890589 -4.8377049886683565 M325.9788304530523 -80.36211936998741 C310.86003668072595 -63.68753617284259, 294.9721748083341 -46.871277660496126, 261.5771366256088 -7.334543505834201 M332.60186049055983 -78.897513781189 C313.3411122929345 -61.17083994314506, 299.91950212478486 -44.64852009298425, 264.41823006949556 -4.525458033071764 M330.8690858236378 -80.76902649180914 C310.0818122443778 -55.86105181908847, 286.60861036448546 -29.76560940243564, 266.4714627853029 -5.679690753730695 M334.7274138173213 -80.17236944725191 C313.26965264922836 -56.64260587104183, 294.8664081005738 -32.75816681579665, 269.409160050274 -3.896640678562991 M336.93046481498345 -81.12731160176028 C317.53246263283546 -60.141478183837776, 299.89281727913743 -39.02684084753568, 269.27779304524114 -4.962267759092645 M342.14172839292013 -78.6516042715776 C317.2901354454626 -50.07060979613001, 289.99145512089353 -18.284758698225815, 273.72858131474004 -2.4287734501304086 M340.68792293793473 -80.45536058285619 C317.9482005944374 -50.870088061111545, 292.23728125142765 -24.467201081455542, 275.5394870967444 -3.7722378759959945 M345.66862997238303 -79.81408017476126 C325.99845929357946 -53.50531129722597, 305.104014409858 -30.96600655885968, 280.73848123267913 -3.650797811272926 M346.1675587762243 -79.23672880126523 C320.6145438843404 -49.28963309240663, 295.0737722819371 -20.544134530330023, 278.62383566838264 -1.8207259293641054 M352.91966786038887 -80.14197600221625 C335.8762305360435 -60.54297605433295, 319.81673996048096 -40.13318558638064, 284.9659288006428 -2.2768747453605904 M350.5309020824939 -79.17395575988154 C330.2577964684524 -54.1199379912157, 310.49314745833476 -31.596098590766722, 283.3863291664953 -0.8256615185808065 M354.2419055793798 -79.50508990820931 C342.3934743682319 -57.99010973120142, 325.4808021567721 -41.17768438788083, 288.23754707724885 -0.13386278945403296 M355.85053958190423 -77.98484813411034 C340.5273073112933 -62.56523298416285, 325.35604511442864 -44.1996983260915, 288.24431720225795 0.2881590297208674 M362.36755550424203 -76.01874777175838 C342.3700307812892 -53.90290144248608, 320.4567069333652 -33.6880309517245, 294.4196574212559 -1.2764763307995128 M360.09619606021226 -77.87417069017984 C337.12013905833095 -51.34704130896257, 315.88753647696365 -26.412253555341778, 293.58684140915875 0.6779618316738425 M363.7713818106061 -76.20768723432388 C337.3449195442612 -49.44846182404491, 313.54393351958976 -20.2113755651606, 297.67897997835973 -0.9171664605049177 M364.0180141548602 -75.74682953853066 C347.1300855920865 -55.41066403456182, 330.2865176263922 -34.6808596431287, 298.59904831753784 1.1760132366316645 M370.74166079613684 -74.52615560346469 C343.74084066030713 -45.88723887946952, 316.1758408891463 -17.038377077177586, 303.62619480980584 -0.48786730424229097 M369.14966745294504 -75.55025668767372 C346.68684935798615 -49.78235053437559, 323.63169934782127 -24.161863096078903, 303.1463115193472 1.2199954082801778 M375.2057787303147 -74.09225671329213 C354.6824245133219 -53.2785375373953, 337.8421297930386 -31.95349346699296, 306.82269626313496 1.2560568511230294 M374.0708970296919 -74.95844866830275 C353.57554593236097 -51.62340793957051, 334.0427987360633 -28.92036612204217, 308.6702619888805 0.6714091741785957 M377.4739336253198 -72.52523230194181 C356.7447461842283 -46.92920911185439, 334.7769833879192 -22.38546981383207, 313.165579281735 0.9992605143235465 M377.27264960502623 -73.8744219208499 C362.9260722750101 -54.27722992653042, 347.13373352163757 -38.18795741668535, 312.3461533218212 1.0498859696480896 M381.1212867934462 -72.66647784038278 C369.24827253617406 -56.55782005544518, 351.212466487677 -38.29943913337147, 319.2512998612262 0.39325017452015354 M382.17852646428463 -70.91239441932093 C363.1269051318591 -50.41829026360291, 345.96038409012635 -30.775831359304007, 318.3745781587849 0.926586125158509 M385.8096682892702 -70.03389182889374 C368.38402637630634 -48.68273260928963, 352.26331652378644 -28.33022021988467, 321.39011769960865 1.4204009749810949 M385.640559972788 -69.64839372616147 C365.0294837263128 -47.45190137382439, 345.11376549213225 -24.024708431514643, 322.96984262748845 2.3603754418045004 M389.1378831428773 -70.75521955576181 C371.96883156751164 -47.72811034127196, 353.63459583427016 -26.240152469447178, 329.8767094127443 2.3738437586138486 M390.9070509720626 -68.803969257842 C369.90928164619424 -45.86155444770968, 350.3535911557532 -21.93961060080618, 328.57662351984226 2.145493680542682 M392.34908234013545 -67.00225764201492 C372.4519231979073 -43.06051955995464, 352.373925249814 -19.30607666416548, 333.70293468862013 1.1219012731515403 M393.7319400331565 -66.69648625919673 C377.4679442389428 -49.8787152960178, 360.7777926020179 -31.39801717157642, 334.03618203038053 1.3959119593295772 M396.99155462369663 -64.17768106372712 C380.5388860395306 -48.35033217140251, 364.56899747024966 -30.136040247475734, 340.9034279553989 0.15594683536352072 M397.18765274026043 -65.23399857837089 C376.01484339943903 -40.56503663343564, 354.0099437060763 -16.647513514516493, 339.5019699328227 2.0316036689530854 M402.41983748714586 -64.50326939522192 C381.9332599639127 -40.93583139814735, 366.99442895875075 -20.602716628727723, 345.0654325116444 -1.1746709137633733 M401.6466768437091 -62.983257162239255 C389.3196455868154 -47.45775169371635, 375.8684930859132 -34.32237537101594, 346.5171511481519 1.350818162852607 M405.50678604273946 -61.851071868186736 C390.27329187018694 -44.732924648981815, 374.23312745459606 -26.700829666247465, 352.46567499971275 0.2127110715931706 M405.0211184383419 -62.07701594889403 C389.01790548731003 -43.372383045778484, 374.69054436780925 -26.546945173517546, 351.56666911182964 -1.0521623202780417 M408.991010739168 -60.41961096982657 C392.8495280153221 -38.51220650753546, 375.5632710726168 -21.468481575928053, 359.6111282705624 -0.9956915597369598 M408.3229726830306 -58.81405465674938 C395.84324920705455 -44.289182263793045, 383.50706227708554 -30.228547187359464, 357.97792651284294 -0.6706787607065385 M411.2178659418647 -55.64102160259193 C393.12506278118593 -36.52481521631828, 375.2432365487689 -16.169177801925645, 364.09912116911767 -0.5534034993064592 M411.71045507492545 -56.41118236460861 C399.5046457956561 -43.841205727016984, 387.6817103193593 -29.912713890217756, 363.99575636495086 -3.2423837663262836 M413.8497131924788 -52.151381707304864 C399.13534832381987 -39.259706573961815, 385.6746884739248 -20.525489107053968, 368.8254055515565 -3.7352847639321585 M414.1329473716834 -53.03730887542435 C399.2930635278639 -36.06069459604548, 384.2055884080972 -19.456754430431324, 370.3495733378225 -4.1496498487100535 M416.8570301417455 -49.11023061706581 C407.45502577443796 -38.643824158136326, 398.81486239706317 -32.46290279605037, 377.6140398812684 -5.94688446772478 M416.6406442213474 -50.24910706258277 C409.38859650054997 -41.01065345896783, 399.9734839066896 -31.895447925539713, 377.33308649320117 -6.511593886745031 M418.4476869933487 -47.62723898070539 C403.85085079564357 -32.15584335121045, 393.7655045430048 -19.4667579228826, 385.0596974031287 -6.98304440530393 M418.62437757104544 -45.34857523349675 C405.05069010892356 -31.35729738970755, 391.3309514306164 -16.104291652981455, 385.62471463919326 -8.372017711168361 M421.1746555342836 -41.53599508638871 C408.7685852010329 -29.816436930527583, 401.1444829972246 -19.060400057272965, 392.35348087970607 -12.956619114747067 M418.59145797146147 -41.09103107484358 C410.913353246624 -30.090294609689067, 400.22155730065174 -19.63617210440318, 392.89824289558317 -11.474051103825907 M418.85531309081665 -34.71970571378093 C413.5593093629379 -29.109858950659053, 409.28352643859137 -25.012173139252695, 401.49025000132303 -17.008915187791256 M419.8100640795797 -35.48518990647642 C414.1126367704601 -29.616305079174516, 409.90663259218 -25.02180017248035, 402.48863655761176 -17.375033217228175" style="stroke: none; stroke-width: 0.5px; fill: none;"></path><path d="M334.81195216747494 -79.61720226915722 C355.2446396247169 -78.95378600700278, 380.84269156354935 -72.83095127721461, 395.1089785733163 -66.39840850884426 C409.3752655830832 -59.9658657404739, 419.63940529801226 -49.66848529624756, 420.4096742260766 -41.02194565893512 C421.179943154141 -32.37540602162267, 412.74009077952655 -21.49019222241264, 399.7305921417024 -14.519170684969605 C386.72109350387825 -7.548149147526569, 363.39837773002506 -1.148391616845729, 342.3526823991317 0.8041835657231005 C321.30698706823836 2.7567587482919302, 292.5240755152428 1.5091564928296988, 273.45642015634235 -2.8037195895566285 C254.38876479744187 -7.116595671942956, 235.96029040686116 -16.89995210706913, 227.94675024572882 -25.07307292859486 C219.93321008459648 -33.2461937501206, 218.55506263839808 -43.548572259093376, 225.3751791895483 -51.84244451871102 C232.19529574069853 -60.13631677832866, 249.3989065775956 -70.17436443112874, 268.86744955263015 -74.83630648630074 C288.3359925276647 -79.49824854147275, 329.15948458802075 -79.21835164197248, 342.1864370397556 -79.81409684974301 C355.2133894914905 -80.40984205751354, 347.42552299654926 -79.00179117092603, 347.0291642630392 -78.41077773292392 M333.2642663039957 -80.2556413396628 C353.71852647108557 -79.4547517416989, 381.3613266297704 -73.32653768605905, 395.8767665835865 -66.85827634598324 C410.3922065374026 -60.39001500590743, 419.3502454182623 -50.11962198561696, 420.3569060268924 -41.44607329920792 C421.36356663552243 -32.772524612798875, 414.64907135196313 -21.915806097341875, 401.9167302353668 -14.816984227528984 C389.18438911877047 -7.718162357716093, 364.97482069288804 -0.946370585594051, 343.9628593273145 1.1468579196694293 C322.95089796174096 3.2400864249329095, 295.06490552505284 2.0040817206111923, 275.8449620419256 -2.257613195948103 C256.6250185587984 -6.519308112507399, 237.08272022595042 -16.223980582866055, 228.6431984285511 -24.42331157968634 C220.20367663115178 -32.62264257650663, 218.80843096072718 -43.13578443870711, 225.20783125752968 -51.45359917686983 C231.60723155433217 -59.77141391503255, 249.1170402520038 -69.69681500350042, 267.03960020936614 -74.33020000866264 C284.9621601667285 -78.96358501382487, 321.92275647105146 -78.69337980239025, 332.74319100170385 -79.25390920784318 C343.56362553235624 -79.8144386132961, 332.0288728394733 -78.05236938073224, 331.96220739328055 -77.69337644138022" style="stroke: rgb(213, 94, 0); stroke-width: 1px; fill: none;"></path></g>
<text text-anchor="middle" x="321" y="-43.7" font-family="The Tinos" font-size="14.00" fill="#d55e00">Alternative hypothesis:</text>
<text text-anchor="middle" x="321" y="-26.9" font-family="The Tinos" font-size="14.00" fill="#d55e00">We have a degradation</text>
</g>
<!-- root&#45;&gt;h1 -->
<g id="edge2" class="edge">
<title>root-&gt;h1</title>
<g><path d="M246.4102,-117.4803C256.514,-106.9171 267.6325,-95.2933 278.1305,-84.3182" style="stroke: none; stroke-width: 0px; fill: url(&quot;#rough-8496188282211652&quot;);"></path><path d="M245.17603252395367 -117.96426932784811 M245.17603252395367 -117.96426932784811 C257.4497997198275 -108.11835951277264, 268.4943821801034 -94.2705486093872, 280.0081683500641 -82.7796480801414 M243.55026391368617 -116.1069089227632 C258.03223269417185 -105.40290187474935, 266.17533207466585 -97.51009148727307, 279.4545141393333 -83.33453908102831" style="stroke: rgb(0, 0, 0); stroke-width: 1px; fill: none;"></path></g>
<g><path d="M280.896,-86.4904 L285.279,-76.8447 L275.8375,-81.6518 L280.896,-86.4904" style="stroke: none; stroke-width: 0px; fill: url(&quot;#rough-928337599028755&quot;);"></path><path d="M280.26551905040463 -87.41583911652417 C282.5817663747652 -84.19835261106294, 284.65075272388054 -81.03660470395593, 285.6198055886004 -76.1937367552898 M281.3928188139985 -86.62712578658942 C282.4830094250258 -84.03100933926139, 283.35686083021545 -80.96163761029766, 285.0287197161842 -77.11789134837072 M285.2197358367766 -76.20984333834157 C283.5574393211643 -78.24972243111048, 281.50239747987723 -79.9836993020119, 275.4203764886602 -81.82058697955804 M285.4258693589205 -76.63991703563251 C281.3948641439071 -79.11039841537934, 277.74345780650975 -80.84253937681099, 276.10326797208097 -81.95935200475533 M275.4480729734009 -81.58123259695498 C277.5578061643446 -83.00070763303087, 279.8671098124428 -84.72719205918598, 281.0063255371797 -86.0456338560067 M275.76134433789923 -81.70282798404675 C277.2730936463407 -83.28418654147892, 279.0492605571433 -84.930165646643, 281.1505168515303 -86.83836152860886 M280.896 -86.4904 C280.896 -86.4904, 280.896 -86.4904, 280.896 -86.4904 M280.896 -86.4904 C280.896 -86.4904, 280.896 -86.4904, 280.896 -86.4904" style="stroke: rgb(0, 0, 0); stroke-width: 1px; fill: none;"></path></g>
</g>
</g>
</g><g id="svg-pan-zoom-controls" transform="translate(945 308) scale(0.75)" class="svg-pan-zoom-control"><g id="svg-pan-zoom-zoom-in" transform="translate(30.5 5) scale(0.015)" class="svg-pan-zoom-control"><rect x="0" y="0" width="1500" height="1400" class="svg-pan-zoom-control-background"></rect><path d="M1280 576v128q0 26 -19 45t-45 19h-320v320q0 26 -19 45t-45 19h-128q-26 0 -45 -19t-19 -45v-320h-320q-26 0 -45 -19t-19 -45v-128q0 -26 19 -45t45 -19h320v-320q0 -26 19 -45t45 -19h128q26 0 45 19t19 45v320h320q26 0 45 19t19 45zM1536 1120v-960 q0 -119 -84.5 -203.5t-203.5 -84.5h-960q-119 0 -203.5 84.5t-84.5 203.5v960q0 119 84.5 203.5t203.5 84.5h960q119 0 203.5 -84.5t84.5 -203.5z" class="svg-pan-zoom-control-element"></path></g><g id="svg-pan-zoom-reset-pan-zoom" transform="translate(5 35) scale(0.4)" class="svg-pan-zoom-control"><rect x="2" y="2" width="182" height="58" class="svg-pan-zoom-control-background"></rect><path d="M33.051,20.632c-0.742-0.406-1.854-0.609-3.338-0.609h-7.969v9.281h7.769c1.543,0,2.701-0.188,3.473-0.562c1.365-0.656,2.048-1.953,2.048-3.891C35.032,22.757,34.372,21.351,33.051,20.632z" class="svg-pan-zoom-control-element"></path><path d="M170.231,0.5H15.847C7.102,0.5,0.5,5.708,0.5,11.84v38.861C0.5,56.833,7.102,61.5,15.847,61.5h154.384c8.745,0,15.269-4.667,15.269-10.798V11.84C185.5,5.708,178.976,0.5,170.231,0.5z M42.837,48.569h-7.969c-0.219-0.766-0.375-1.383-0.469-1.852c-0.188-0.969-0.289-1.961-0.305-2.977l-0.047-3.211c-0.03-2.203-0.41-3.672-1.142-4.406c-0.732-0.734-2.103-1.102-4.113-1.102h-7.05v13.547h-7.055V14.022h16.524c2.361,0.047,4.178,0.344,5.45,0.891c1.272,0.547,2.351,1.352,3.234,2.414c0.731,0.875,1.31,1.844,1.737,2.906s0.64,2.273,0.64,3.633c0,1.641-0.414,3.254-1.242,4.84s-2.195,2.707-4.102,3.363c1.594,0.641,2.723,1.551,3.387,2.73s0.996,2.98,0.996,5.402v2.32c0,1.578,0.063,2.648,0.19,3.211c0.19,0.891,0.635,1.547,1.333,1.969V48.569z M75.579,48.569h-26.18V14.022h25.336v6.117H56.454v7.336h16.781v6H56.454v8.883h19.125V48.569z M104.497,46.331c-2.44,2.086-5.887,3.129-10.34,3.129c-4.548,0-8.125-1.027-10.731-3.082s-3.909-4.879-3.909-8.473h6.891c0.224,1.578,0.662,2.758,1.316,3.539c1.196,1.422,3.246,2.133,6.15,2.133c1.739,0,3.151-0.188,4.236-0.562c2.058-0.719,3.087-2.055,3.087-4.008c0-1.141-0.504-2.023-1.512-2.648c-1.008-0.609-2.607-1.148-4.796-1.617l-3.74-0.82c-3.676-0.812-6.201-1.695-7.576-2.648c-2.328-1.594-3.492-4.086-3.492-7.477c0-3.094,1.139-5.664,3.417-7.711s5.623-3.07,10.036-3.07c3.685,0,6.829,0.965,9.431,2.895c2.602,1.93,3.966,4.73,4.093,8.402h-6.938c-0.128-2.078-1.057-3.555-2.787-4.43c-1.154-0.578-2.587-0.867-4.301-0.867c-1.907,0-3.428,0.375-4.565,1.125c-1.138,0.75-1.706,1.797-1.706,3.141c0,1.234,0.561,2.156,1.682,2.766c0.721,0.406,2.25,0.883,4.589,1.43l6.063,1.43c2.657,0.625,4.648,1.461,5.975,2.508c2.059,1.625,3.089,3.977,3.089,7.055C108.157,41.624,106.937,44.245,104.497,46.331z M139.61,48.569h-26.18V14.022h25.336v6.117h-18.281v7.336h16.781v6h-16.781v8.883h19.125V48.569z M170.337,20.14h-10.336v28.43h-7.266V20.14h-10.383v-6.117h27.984V20.14z" class="svg-pan-zoom-control-element"></path></g><g id="svg-pan-zoom-zoom-out" transform="translate(30.5 70) scale(0.015)" class="svg-pan-zoom-control"><rect x="0" y="0" width="1500" height="1400" class="svg-pan-zoom-control-background"></rect><path d="M1280 576v128q0 26 -19 45t-45 19h-896q-26 0 -45 -19t-19 -45v-128q0 -26 19 -45t45 -19h896q26 0 45 19t19 45zM1536 1120v-960q0 -119 -84.5 -203.5t-203.5 -84.5h-960q-119 0 -203.5 84.5t-84.5 203.5v960q0 119 84.5 203.5t203.5 84.5h960q119 0 203.5 -84.5 t84.5 -203.5z" class="svg-pan-zoom-control-element"></path></g></g></svg>