<?xml version="1.0" encoding="UTF-8"?>
<svg width="574pt" height="502pt" xmlns="http://www.w3.org/2000/svg" xmlns:xlink="http://www.w3.org/1999/xlink" id="svg_output" xmlns:ev="http://www.w3.org/2001/xml-events" style="overflow: hidden; "><defs><pattern id="rough-2151479797228078" x="0" y="0" width="1" height="1" viewBox="0 0 43 34" patternUnits="objectBoundingBox"><path d="M3.996969354124743 -0.04032380688652948 C3.22619451285205 0.9879512283309702, 1.5328080054436206 2.0692834936150155, -0.2851223143011351 4.558891878627607 M3.7905557870479782 0.11203893938208881 C2.3157916904041156 1.5519103430841374, 1.1099167240843117 2.5318652112820668, 0.044401746060509506 3.982877291774807 M9.742973229324097 -0.03622271964971557 C8.010062963683472 1.6674444144546015, 5.433722948931752 3.2729428193060754, -0.8961737209353028 10.893250583497315 M8.90095880271149 0.11787688729008261 C5.669114035542564 4.653206658016215, 1.7798695455287548 8.04904176430705, 0.4877186961711233 10.790341366981755 M13.94279960265116 1.1210403938515685 C9.374495882990779 7.97116554784928, 4.923721207482824 10.995841884263948, 1.9267557288753734 17.237552378212836 M14.17371586536499 0.6237182639926928 C10.636673633984227 4.350657846800495, 5.233849271925606 10.90806784406551, 0.33787067373071933 16.854943236312916 M19.996045867831068 -0.07873461452689412 C15.834366735863615 6.6432102021461095, 9.902345166957758 12.34327777964057, -1.79263753108421 21.807195683551996 M18.592407276380094 -0.7424818273696121 C12.678946162057137 7.796574625432695, 6.261028154512342 14.011465822059991, -0.6435097479204293 23.235587687375546 M24.04769903021768 -1.2438255240395382 C20.86044169847413 6.703244843693111, 12.757924646120856 15.078851907768307, -1.3234758478381465 26.935748483809537 M24.956118333424318 0.28182182452344384 C16.237563694059705 10.248805360495068, 6.50724593049113 22.84154327871089, 0.6914798908964346 28.997792963383276 M28.5304450894837 1.9755299919169924 C18.70800977428764 14.142021999732517, 8.07755270903651 25.665595683236486, 2.235908237113933 32.391303236346744 M30.446797608951073 -0.025052669510569725 C20.28742258477229 10.74440054595904, 12.056016171011601 21.062324762040983, -0.09394857729523287 33.98752037378646 M37.42744621212261 1.3601541594912203 C22.839600614647832 13.522310793209193, 13.579219441862225 25.7100989573325, 4.282131412863603 35.11585042428188 M34.85349262904193 0.297086727839889 C26.057885481519538 12.010171577169046, 15.196901787903862 21.939994395947245, 6.355860202681592 33.73818323847385 M39.80321497296692 0.15732280735808946 C29.848628459272057 10.873561269821336, 22.444129191735907 20.005102639286193, 9.485646156214367 35.38697689499381 M41.286137392387744 -0.4125750506693213 C31.5883631419288 9.358494268401998, 22.644481070302763 20.007155333981675, 11.938074078996724 33.507009051667474 M42.62463206982602 2.107564348268727 C36.85534866718114 8.99188388379949, 32.98637803133067 17.094214768126967, 15.289078711756607 32.517543441181616 M43.51568554970369 3.4073755082522714 C32.74950710319539 14.170874756296566, 23.916648046282575 25.14582840270171, 15.997569744649962 33.843092744525435 M42.113520258406105 8.881360528909635 C35.510186653054355 18.62268902852497, 29.484847245241 25.143638583806318, 20.916956162457872 33.68962718490314 M44.036391306783166 9.163537560949521 C34.78686840460139 18.155641550102164, 26.63088437221466 27.74187470115942, 21.45963215465835 33.74125984838306 M44.45726713972116 16.23184390062795 C36.32548483292523 21.13705895922332, 31.594532206907193 27.42879866222178, 28.266215410041113 35.62480048260569 M43.15744577370814 14.89293880891666 C36.18744282599018 23.23836015532676, 30.354834169623377 30.158024177545162, 27.726581734255088 34.0182454271565 M42.07831895324736 20.360134546944362 C40.29067778185852 26.422317452463492, 36.57152823316581 30.010695416869268, 31.072364123154415 32.43634117579161 M43.7313760809016 21.826819118889166 C39.967374089435346 24.915914757577468, 37.06626492733189 29.121463443689727, 32.12457293939199 34.8262126306349 M42.6103004866707 27.044018496818047 C42.07120909602544 29.999772160674652, 39.895333826576056 30.768284277472493, 37.869551986961795 33.22766253833759 M42.79953012025624 27.576980190311556 C42.11016125759503 28.779736089859767, 41.07409740000084 30.488427916882834, 37.89373427771144 33.89319736013954 M43.19032765404395 33.80689593306135 C43.0987127979418 33.88701745208112, 43.026089646101624 33.97329644129882, 43.00020059766659 34.01149970208078 M43.19192475363841 33.80883162345205 C43.13729907929687 33.889764889154165, 43.07679471821362 33.94622263222044, 43.00941360233196 34.003278021606256" style="stroke: none; stroke-width: 0.5px; fill: none;"></path></pattern><pattern id="rough-1884124813677954" x="0" y="0" width="1" height="1" viewBox="0 0 10 9" patternUnits="objectBoundingBox"><path d="M4.185288402170356 -0.37747303477344474 C2.8981445265387142 1.037857200869043, 1.8406569626052123 2.625657401930055, -0.5387075254635153 5.08440794286618 M4.24263485697135 -0.2501654039230828 C2.718218361790383 1.0817735484520667, 1.7563155232765952 2.8001087864070624, -0.06189705804478349 4.447437225004012 M8.762317237624138 0.6913107347969591 C7.274256855701211 2.621539073268777, 4.509003525654041 5.565012074800769, 1.5520774980754828 9.300451202915285 M9.685368999389992 -0.015025540840171714 C7.32189927572791 1.9895984130819955, 5.4052413972946525 4.807892322567868, 1.358891489776826 8.721470365707352 M9.62123532726018 5.256256951472461 C8.371597590830216 6.191235668870307, 7.471136113209056 7.760071467779516, 6.898632369291203 9.005077649512671 M9.824388656592143 5.1336343173320795 C9.164758084630188 6.146001264998105, 8.395301346672804 6.736746375419369, 6.659596296129841 8.97345011513001" style="stroke: rgb(0, 0, 0); stroke-width: 0.5px; fill: none;"></path></pattern><pattern id="rough-7603092923738137" x="0" y="0" width="1" height="1" viewBox="0 0 43 34" patternUnits="objectBoundingBox"><path d="M4.237046323687016 0.31342746880271566 C2.7811793608439235 1.364104139709713, 1.0529148538185646 2.4956087632288106, -0.5559464585856608 3.894602153538324 M3.5114029204178188 -0.23523805296164665 C3.1695257086026842 0.9549515302097515, 1.926587986707619 2.053589318683704, 0.018474337149552322 4.351160286193771 M7.835974993749888 -0.4500564185303434 C7.270439731861769 1.6491973352336746, 4.650544603771971 3.674519986359489, 0.9907225938578188 9.166377942349952 M8.46293209192878 -0.6719685032454891 C6.86800940759718 2.274018234164907, 4.090577249572404 5.252316286752132, -0.6736711013780345 10.01466254424731 M14.97860822274777 -1.7282769591425384 C10.249888119856458 4.400321097328125, 4.840037017883742 10.434911092324656, 0.5510634589483661 15.5874452503002 M15.102056971158023 -0.6641356294924259 C8.57729209300429 6.683237773765226, 2.9856302702285626 11.246674494483036, -0.33886958667797074 16.263106949574414 M20.390839141407085 -1.2945373819765749 C13.63643349831237 5.405636038067209, 11.341846204593127 12.698005924203075, 0.6628270216594165 21.37430736233546 M18.827112114255478 -0.39052807634553033 C14.570636981607887 6.271806340386251, 8.119098002723497 14.74207681617594, 0.6400209803639991 22.60849079138128 M23.47503482914503 0.4023537125310708 C18.907615437424386 9.270960175942632, 10.209191940216177 14.857124483879414, -1.4571684646370389 30.592276837550685 M25.12869832717146 0.5357413337469805 C17.520830040698524 10.102781827467693, 8.547136573105455 18.51140187263592, 0.2944282663448945 28.71639476103176 M28.945216420846354 -0.7606488821362354 C19.329950029018292 12.617114728089131, 6.999735795695092 25.275632791653504, 2.4655571065518584 35.03891229499801 M29.194764271405727 -0.9893453195805662 C23.448604620967885 7.748636523075602, 16.730508627635547 15.626304294535592, 1.0073215473435295 34.336620499665656 M34.54851923601573 1.6707795135184087 C24.27264152244002 11.435305091897186, 14.90716201096853 26.195405503894946, 4.392976002940541 34.31988353975247 M34.76887967967727 -0.645884218519643 C23.50963784830285 12.876062917320787, 12.92758942715598 24.967836401888444, 5.47385707413357 33.32521990123766 M39.860267693661015 1.7584402376527932 C31.431862540159123 9.385304091055817, 23.80459645537965 21.454753909056716, 11.355928344916123 34.59556736528871 M41.031218155532834 0.7639704204890649 C29.419553022149056 12.78666356461479, 18.048897191972166 25.745052924253677, 11.097397160123412 33.783705144038954 M42.07853167234917 1.9259258622741555 C37.92547518559479 11.494539847523443, 29.525360130209496 18.55829722300389, 15.037612384457852 34.17632389965918 M43.97905754276247 3.298174606743671 C37.32523256037697 11.190536891379406, 30.004522697264996 17.100742747979517, 15.844359970325868 33.879479878401234 M44.9612368661744 7.64006955012397 C37.13138811861729 16.640916576771673, 33.103571206506025 25.09683987038457, 21.794367721525408 32.61992075200112 M43.879083714426535 9.398549756738426 C37.187747344587926 15.14858460007708, 31.316780451907867 21.237258044081713, 22.24011892884534 34.029982862800324 M44.540003630613455 15.3599801698744 C37.83556121435374 20.3066201253888, 34.00093487777584 25.880951441684324, 27.603904772722142 32.243906220877534 M43.42884240167951 15.430982719016267 C39.51921877891371 20.43524091413249, 36.07835459669225 24.970619471117246, 26.349951097651036 34.68056341622484 M44.36631665699552 20.725395641707575 C41.4611292660271 26.410186307590568, 36.439172919079574 28.690795674545143, 31.037503964983355 34.12418068110267 M43.02667732367937 21.176638203662275 C39.91836692727036 25.738410752397478, 34.765760515644814 31.74819431974944, 31.69073830339194 34.26850853966989 M43.62290677153491 28.183571887612892 C41.93554455135816 29.92860973592175, 39.09493955010332 31.70569680964698, 37.57757371702367 34.29285378297212 M42.82203134688591 27.411108087832442 C41.427262876440565 29.773657506997605, 38.52797774536417 32.57931773387227, 38.025181756060164 34.389892732209226 M43.1873792477289 33.8325286454727 C43.13968560328421 33.84714438430066, 43.07655776449876 33.890579270193186, 43.01393484792339 33.99825534601901 M43.19587878514537 33.80314178192457 C43.11580998043341 33.885894705973044, 43.069768237360236 33.95093812318263, 43.01970868484263 34.026023657768334" style="stroke: none; stroke-width: 0.5px; fill: none;"></path></pattern><pattern id="rough-7923230678185672" x="0" y="0" width="1" height="1" viewBox="0 0 10 9" patternUnits="objectBoundingBox"><path d="M3.384089820830713 -0.4443584879305499 C3.5417531724158833 0.850077585072899, 1.9511783628977013 2.5972777137199365, 0.5872091631305152 4.177762026228355 M3.694274364308975 0.2979315113194887 C2.8831638567345204 1.7953016796847678, 1.1755831521159328 3.4733315511602854, 0.29556441582579274 4.619307587197799 M9.376166670756357 -1.0267601735427234 C7.020905879560165 2.8521481599384204, 2.907525306900445 7.5832363253016, 1.2301652105313603 8.066056867047081 M9.439038006167614 0.18215179814632299 C7.19946069867615 2.2358558441771734, 4.662425389227194 4.964141822920747, 1.9508743549021896 9.21149781898349 M9.756599171230372 5.190406060162893 C9.467748963752815 6.240354138746462, 7.850076051888866 7.353422777704092, 6.37427056615888 8.604248251886276 M10.103788423305277 5.397661018065858 C9.041728743355062 6.233451889743519, 8.426669114897045 6.997814237898072, 6.75693118940738 9.098093553531559" style="stroke: rgb(0, 0, 0); stroke-width: 0.5px; fill: none;"></path></pattern><style id="svg-pan-zoom-controls-styles" type="text/css">.svg-pan-zoom-control { cursor: pointer; fill: black; fill-opacity: 0.333; } .svg-pan-zoom-control:hover { fill-opacity: 0.8; } .svg-pan-zoom-control-background { fill: white; fill-opacity: 0.5; } .svg-pan-zoom-control-background { fill-opacity: 0.8; }</style></defs><g id="viewport-20200307135300342" class="svg-pan-zoom_viewport" transform="matrix(1.7682925462722778,0,0,1.7682925462722778,0.0000050067901611328125,258.4024353027344)" style="transform: matrix(1.76829, 0, 0, 1.76829, 0.00000500679, 258.402);">
<g id="graph0" class="graph" transform="scale(0.7 0.7) rotate(0) translate(4 198)">
<title>G</title>
<!-- p -->
<g id="node1" class="node">
<title>p</title>
<g><path d="M159.4886001321423 -174.7142925044635 C154.57142553218208 -168.50104446663863, 149.02035082366635 -158.744399060049, 141.11652042992768 -151.28002393112587 M158.13100346967647 -172.3708465003118 C153.06954709870504 -164.47947052775692, 145.38358129372628 -157.70606116568874, 140.95696365961643 -152.9386064116801 M167.99816403829396 -178.08296476802525 C158.49596744490546 -167.44169224953677, 153.04553179752068 -160.63127442640987, 143.07329697069272 -147.025843624939 M168.3395248961787 -175.76460097680206 C162.06689459661519 -170.12829536107583, 154.52953516101172 -162.29600486683424, 143.85025809600526 -147.92449482300708 M173.42545201725372 -178.72164272996568 C168.14548561711428 -167.8327970271703, 157.13654907714758 -159.5412405576558, 147.534834403252 -143.59179452009894 M175.86282827302915 -180.3247110295422 C168.70450822056253 -172.32911197034363, 162.80802316325332 -164.4451057910301, 145.0180834878814 -145.8413719453696 M181.35823603675732 -181.9104769885613 C168.26396994979333 -167.42376764935617, 156.25132075896747 -150.66765476961933, 147.08071897988881 -140.68103459850482 M182.08297437047258 -181.15964979566144 C171.14979138704192 -167.68794022594096, 160.18379144740086 -155.19703843310756, 148.28854292708039 -142.53012381998587 M189.0724067000725 -182.96657640328232 C174.97050815628944 -169.99947740247282, 165.41342171611996 -155.90003409192937, 153.32749481026812 -140.76346044669967 M189.9773847846723 -183.6749705261673 C179.29642999015346 -172.4430357987112, 168.5286353717054 -159.8505924789693, 152.30150070535942 -139.76080191382462 M194.05106999267397 -184.015979324489 C183.26481395331487 -171.76069912885407, 170.61075755543268 -156.1039068855176, 154.70430102832188 -138.11440356005642 M196.32409086670796 -184.11676981397335 C179.89837761695702 -167.51407369014368, 164.1289604933402 -148.73955144518334, 154.22043255049428 -138.65593322694758 M201.1366764798132 -184.22476491121802 C185.87877972116755 -166.47040411458397, 170.3002001749692 -146.57316048122607, 159.85051261705001 -137.64575237861334 M201.87473288179783 -186.9020998412673 C192.49114903657653 -175.28664058276127, 182.7967799705459 -162.91468247825253, 159.08710000367827 -136.1351030284995 M207.88238423901086 -187.89361560804937 C192.1250742131158 -168.39900528651341, 171.7752204993905 -147.0206292990404, 163.02030143402848 -133.49614175477643 M209.28007138636366 -186.50256175500022 C195.2579159682291 -172.0919444015406, 181.50694746991059 -155.84358348708957, 163.11429831402972 -133.6303506531836 M214.85976412886222 -186.5358772304114 C198.70120241187593 -168.2358634670433, 179.1276454571774 -148.16081117071073, 168.1505990759318 -131.87558407328297 M215.09718249109122 -188.00467598354905 C205.5800914893444 -175.81492684919374, 194.56365831943202 -164.72917130752592, 165.75017826847898 -132.90429084359516 M221.06085168533525 -189.53786768791113 C205.13430850699294 -171.47161824586843, 189.40605263292605 -151.36861974624972, 171.226690168798 -131.84735081578557 M220.3120677150379 -188.73987067146567 C201.5585076507884 -169.3054909360983, 185.13373174360424 -147.44378269263512, 169.96985531515037 -131.53199907271812 M226.3395562977128 -190.88520942039548 C211.30828787696453 -174.87932420073324, 199.47670179058804 -159.79424479479914, 173.37019383863057 -128.8225773735962 M226.9430830335369 -190.0871990135091 C209.1025500962524 -169.03642819220684, 192.74238310754504 -149.71456749514616, 174.3664188041878 -129.68385329729946 M233.52825049091607 -192.0743555613722 C220.68322216842324 -175.81040732698503, 206.88715838551883 -161.64760809988547, 178.59907005529493 -130.2395139168331 M231.45462794741974 -189.81840676106668 C220.60041878623622 -175.84653712206605, 207.97636984882377 -162.27328030872172, 178.34207040019925 -128.49311952796148 M238.75819016226987 -192.07372824715094 C226.47901299107207 -179.15797721413918, 216.32620224654497 -165.88833105622922, 183.65641844969895 -125.66972432821021 M239.11673366063116 -190.70729137623806 C216.13235145738795 -165.71090462162545, 193.9127907551597 -141.46199924540772, 182.2486235981938 -127.61835726654269 M243.0322002854538 -192.89489457249542 C229.9045735212348 -176.41022655685646, 215.52740113270607 -159.07106136362086, 186.84677714394184 -124.63013206428266 M243.12276244867203 -191.75042935904813 C233.8919834832751 -178.729292493331, 221.725725171847 -163.74292934608, 187.37839791997334 -125.43342090938096 M247.97515344406264 -191.48925989890498 C232.64843506107832 -171.15392332560924, 213.7558849213806 -154.34920809489478, 192.68187092494955 -123.66251459448324 M250.11900141058976 -192.31862475490607 C229.79659120815694 -169.17762915334117, 208.7320654165639 -146.720750988963, 190.62510784540606 -124.2207958534198 M255.5144356490082 -194.10575144806475 C239.9092041266279 -171.79090657758437, 222.0841242355073 -154.18850057591456, 195.87602775066074 -122.7990491430979 M254.34763545283684 -191.8506194962718 C241.52500039678276 -175.7727489077804, 227.29779355164325 -160.30452584758805, 195.70180172285242 -124.24252856621051 M260.8411386353172 -192.92701873790477 C242.884197197206 -169.4794341791022, 224.05975870192708 -149.74975075164502, 199.17591749868956 -125.00561410831745 M261.10186907921684 -192.04307022429452 C240.83773778697758 -169.0190844520753, 220.48470005636275 -146.3118054956657, 200.12083630962007 -124.16637253751853 M267.8472580205481 -191.57138542077843 C242.47603999061758 -163.5126489528684, 218.76604863017045 -137.90423248592387, 205.7516912566376 -121.19155040574107 M266.9093572384623 -193.42943368276045 C243.29168338062897 -166.33741077507096, 221.28309367119599 -139.7537072148179, 204.9904042017586 -122.613438460401 M271.56258540824007 -192.42799851930215 C249.4654921011327 -166.82586172782317, 226.9925935906606 -139.16071374516278, 208.73059523673598 -123.30936267334482 M272.3843597690974 -193.5282887057177 C254.4526912892267 -171.61026581991888, 237.9634094522887 -152.5324538673794, 208.83152263428562 -122.11487437377002 M278.2780883463286 -191.81824139965346 C258.8946444158248 -173.35293912833777, 239.9312858916089 -151.09177661375622, 215.67288459547697 -119.91041838574002 M277.10888772336983 -192.8092625653764 C252.97570529209747 -164.97418571648228, 229.1142987063872 -137.77098315594196, 215.08493916925173 -120.29959955314008 M283.22424761316256 -192.26308791342603 C265.72472173078023 -176.36095928180376, 254.16060570606427 -157.99467872655697, 218.4122218498553 -121.84464000672077 M283.1028203520165 -193.2632905122237 C259.3742719316598 -166.54729979287166, 239.12817064926261 -141.74665793616475, 219.30780611879294 -120.6123788425081 M289.5406127795628 -194.63540097193203 C263.82598420608497 -164.21774106223904, 237.5683467042297 -132.6248291003362, 223.15196614947268 -118.51743794966524 M287.8407657659529 -193.727732315208 C266.72982954226205 -168.01880900327922, 243.662758501639 -142.11886759346493, 223.92540119868798 -120.09795526845842 M294.2780115369469 -191.6321371425314 C275.880160445645 -175.25850989403506, 259.5432689315493 -154.0832640889136, 228.00053115135887 -120.91328848997395 M293.1595786144035 -193.09856675229557 C272.11097034096395 -169.39008587668835, 252.68068549493833 -146.0335310082388, 228.96271033475784 -118.41204259735919 M299.2848541510253 -191.53794577790987 C283.81677552262084 -176.710356998314, 270.06679845479687 -164.06290672306747, 231.66814308842183 -119.27536174385585 M297.4001467902395 -192.7508874615544 C281.3459927452364 -173.78325962494114, 263.0623097217838 -153.5670150608377, 233.89561877024954 -119.13659829564611 M303.5685632213779 -192.64109977392644 C286.62942132828147 -172.13710896908714, 265.91502957846706 -150.89621744193713, 240.1095362309874 -118.22160161883757 M303.85193682322915 -193.25690995611328 C279.0284605682904 -163.376769053143, 253.7016422083445 -135.54209749053402, 237.79967102927017 -118.2458757125549 M307.07895771869335 -191.04687133056217 C290.79864534549836 -172.13552049812458, 273.3534366066051 -155.2795413213612, 241.65991936340646 -119.55510633277909 M308.1437184054874 -192.90374974317595 C285.2208328222381 -167.8690986367641, 263.1840861314699 -141.6377378408238, 243.75010546895237 -118.62831232283254 M314.4824386653763 -190.9819065397293 C288.6957090442028 -163.05970453560877, 263.8010122083049 -133.90492785683298, 247.3499518049965 -116.98130219574033 M314.0341216134547 -191.13684538340868 C289.0886655062265 -164.52342694593136, 264.93695035105566 -134.6505187306275, 249.06519397105353 -116.50858182242924 M318.20547553385603 -191.83396667584492 C299.28757845665416 -172.48349057717292, 284.59120706237934 -154.6316169682006, 251.64442041621902 -118.19651428301847 M317.46659916761683 -191.83830807363472 C294.31825623794066 -164.37312496988304, 269.58545617517683 -135.6582898849316, 252.73694891733385 -116.05029710433745 M322.01401865707766 -191.97721375424828 C304.3785579981859 -169.90775554192444, 284.7664676246287 -150.237629729067, 259.8823019881415 -117.97713809273881 M324.18522087603094 -191.0503388439815 C309.7977457960591 -175.1663037614444, 297.0511056903277 -160.16057229890615, 259.28142831866614 -116.25744117709907 M327.7290672204435 -189.20959945607189 C313.46898444254043 -173.40233442686988, 297.0753168424396 -156.1356998037079, 261.69628122292596 -115.84360811607044 M328.7012417065705 -191.31085327242445 C308.6970658879774 -167.94767655343298, 290.5515330114911 -146.451037216771, 264.0902696929936 -115.9714840481813 M334.56545540165007 -188.44060704030568 C310.7341791484279 -164.82990303364147, 286.1111998465232 -136.16503909946007, 267.6014886413446 -114.41027499721505 M332.73148794257645 -189.46924348746583 C319.641545281513 -176.2369162283841, 306.7782350125382 -159.8202160320804, 268.9293180597233 -116.59650065088533 M337.7914975391103 -188.04465400563043 C319.9811079249074 -170.59911951007444, 300.6077149969015 -148.69451674554867, 272.113359359186 -115.6696562889627 M338.8650715507314 -189.31117301040646 C314.9297228461704 -163.3928719524451, 291.4422393965509 -137.0893437547338, 274.4982670833557 -116.29984530010968 M341.7447656842959 -189.79048806808674 C326.82297909784484 -172.34007890525618, 310.86844281325534 -155.62946530151132, 277.4010439990725 -114.55037713658193 M342.35018806741095 -189.38478303478126 C323.7158427290672 -168.79441687499278, 306.59126477402907 -147.93029020076997, 280.09128572452136 -115.93826249042372 M348.2990985730863 -190.10490151133638 C324.72082195899105 -160.40712702769648, 301.0611407779604 -136.2756144238681, 284.7467953369794 -117.89908194726682 M347.43106111179645 -188.76940110838223 C330.42147973625435 -168.16138442587433, 310.8255849982323 -146.89736329817148, 285.14816332653663 -116.63000026258315 M352.2926930228371 -189.0809433199551 C336.1996461061816 -171.08642379075505, 325.0643773212706 -156.37825502349258, 289.52196736772066 -114.58173227926153 M351.35976387471345 -188.47303292820297 C331.25969232663607 -161.98027318444161, 307.5744749807746 -136.99368891903097, 288.96412901199756 -115.71195500274571 M355.2485365220596 -187.9520236165879 C333.87709389960133 -160.34908331532947, 308.0396072867722 -133.61566175548822, 296.9083931607869 -115.1631996715504 M357.1513373740754 -187.76400807399048 C345.2536085550675 -173.36427669269148, 331.4936914437272 -159.43986595713736, 294.8214724461821 -116.27596776446467 M361.2809670034093 -187.0282627366847 C341.45881698771507 -160.3430962683074, 320.59984543095237 -136.59813086181668, 299.06822641533705 -117.17495801117947 M361.79106146548736 -186.34403350741295 C347.68134322938596 -172.5437146447063, 335.9329479546091 -158.03385616337042, 301.31433567552347 -116.72444112615301 M367.0384502177626 -185.8656563200353 C345.3833003712157 -164.14782084617835, 326.5036388777888 -140.61499854982887, 305.7745823853297 -117.28153474876314 M365.0766540956476 -186.36537223916196 C350.4894791942123 -167.08722342463847, 335.9430645879267 -150.22518434131038, 306.58190726144704 -116.42874344654196 M370.8305180652399 -185.69985711424394 C347.09853394695483 -157.25776630304836, 322.0908701818804 -129.33309623275684, 313.1689373893852 -118.26338452701664 M369.8647213155192 -184.43874480321395 C350.43186560369736 -159.04219460948892, 328.7732584804545 -135.81025271566642, 312.18700251907023 -117.56392359410202 M376.1159953134478 -181.773408467074 C354.47083236109296 -161.12469614554877, 339.15973084559187 -142.31919008051895, 317.62672229873976 -117.49537523767314 M375.0057959384327 -184.26696731070984 C357.3532852279138 -161.2241152490539, 337.49439780456333 -141.59844957696123, 317.96360361327504 -118.12116503651987 M379.74917232341346 -181.3610424935258 C359.3386559117342 -157.6522575891065, 337.1293185585687 -131.9880679552647, 323.2048186655511 -118.59381081524087 M380.1198786520238 -182.9124126055234 C366.49158672118654 -166.79653295490763, 354.10355909219726 -153.03756036232906, 322.8921621222511 -118.2086243530051 M384.4790243798765 -179.85628503430956 C364.96443384042306 -159.213330114381, 342.65025522478106 -135.5737780660736, 330.21110430384454 -116.58681233667612 M383.8715327069808 -180.8114374807534 C371.82015859787055 -168.10082156682404, 360.90959967665617 -155.7694431974382, 327.644680828554 -118.48219385660877 M388.2506167227655 -180.0147936828839 C376.8761104906155 -167.25574427225837, 363.6771798093259 -151.97861852469703, 333.22830849042424 -119.44167262643754 M387.8306298813744 -180.4280186045655 C376.23242457957207 -166.48535394973774, 364.2555093683827 -152.55704107878128, 335.274675838852 -117.80181354136421 M393.92211288414666 -179.0774803521836 C378.6262595048688 -165.88882449381725, 368.1168360603917 -152.19762405518168, 339.96409825503866 -119.64471679617552 M391.37886016873375 -179.37063925870675 C373.32648350488387 -157.9482788310507, 354.1427404024738 -134.75174164736447, 340.5598794651125 -119.65205256548622 M395.8754871426996 -177.44524990686705 C375.945065916802 -156.72012290126642, 357.2091224381308 -136.86867564397403, 345.0397192806909 -119.8997586718537 M395.6369928991734 -176.59866684486025 C375.3677102037747 -156.3744596214205, 355.5005706210756 -133.13477056455312, 346.6628586176249 -120.25431844228468 M400.34071451720655 -176.34193431464064 C390.4823646724248 -163.40540041335538, 380.2893767333932 -151.54294963269984, 350.4255744990339 -122.9276615158276 M400.08417697585554 -175.3692994192134 C384.90221175856 -159.367414923048, 370.96513882516564 -141.91246747814134, 353.0792310028604 -120.10586040299984 M405.7732006527497 -173.46872773503142 C386.2548830557635 -151.83662189585735, 369.6374099299967 -132.64304334156785, 358.796776238046 -122.61398700116816 M404.60872742885635 -173.8680311267781 C386.8384766018548 -156.17998531017383, 371.0002398976048 -136.00292201937657, 358.6718411191735 -122.65989644550169 M409.33846406564516 -173.67789833114105 C392.1906008195224 -154.44702265977705, 371.8455837357777 -134.82464932247868, 363.958640979575 -121.4812593102103 M408.1118934424426 -172.49123986876955 C396.19931687503293 -158.4966948915894, 382.04153008654407 -142.43528788653927, 363.8634197934737 -122.70699866659983 M413.0994887919846 -172.15612496034777 C398.9694152677042 -154.71723884867689, 386.5538129602267 -141.6179273173422, 370.3000776031224 -125.2489972241503 M410.881623538068 -169.79353651373592 C398.04040565365847 -155.88975002045737, 384.4825164862144 -139.5195197718278, 371.80241751403963 -125.22309179822707 M415.8906137409994 -169.4150374857749 C405.25864288654674 -155.70900887017638, 393.69748997626874 -144.5294170179326, 378.0598072732945 -125.35171771889087 M414.4876768778221 -167.89235407449962 C403.9561443885471 -155.04501253187294, 393.43045239845816 -142.79445565897805, 378.21612367762634 -125.7561329416306 M418.9710084014584 -165.22864101976546 C412.07838129879565 -158.6025211291071, 402.1914268675541 -148.19243873285754, 384.54310584088796 -128.64633104356275 M418.1377492765616 -166.2157297861776 C406.57371833347884 -152.80782721054692, 394.45222688281456 -138.22614756872505, 384.6912706946303 -128.32235750179763 M422.3747846892732 -161.30291147797146 C409.81950038220134 -150.62107259640632, 399.9427605022992 -139.9259864925738, 390.0142059198129 -130.36229885206393 M420.0043841863392 -162.67247628619657 C414.2257249884536 -155.07632482631138, 408.2503099898462 -148.52990565469608, 391.51823654938835 -130.01691318102607 M423.62395193358816 -160.74574455550302 C419.0914003608334 -154.25273294488773, 413.4852338472742 -148.3163836947872, 401.3289463048599 -132.30471520304798 M423.8627331265486 -160.6319078834341 C417.22236185139946 -152.82079725128526, 410.2092013722829 -144.4422342338427, 400.54482787166927 -132.0520311302528 M423.7180393177061 -157.25289944373878 C420.70924598738617 -147.20446155576843, 411.33548913947925 -140.80901181523654, 406.7476661296018 -136.6515911051219 M424.7355626490545 -155.29480254456888 C418.6968795258552 -149.83395994747204, 413.8684818947758 -143.44244645194553, 409.1660612293671 -136.10014970567292" style="stroke: none; stroke-width: 0.5px; fill: none;"></path><path d="M240.40621965389553 -189.9504034880414 C266.54815840595336 -192.63205310371504, 307.0809208600557 -191.86190416431612, 334.782981888808 -189.04120255536876 C362.48504291756035 -186.2205009464214, 392.7463298956515 -180.03630618440513, 406.61858582640946 -173.02619383435723 C420.4908417571674 -166.01608148430932, 424.37214988535726 -155.1172064459663, 418.01651747335563 -146.9805284550814 C411.660885061354 -138.84385046419652, 391.8833735972193 -129.3583724974337, 368.4847913543998 -124.2061258890478 C345.08620911158033 -119.0538792806619, 307.3971910595715 -115.68469360546678, 277.6250240164387 -116.06704880476605 C247.8528569733059 -116.44940400406531, 211.84883842096156 -121.03072978663823, 189.851789095603 -126.50025708484345 C167.85473977024446 -131.96978438304868, 149.66090411493946 -140.97683579370465, 145.64272806428744 -148.88421259399738 C141.62455201363542 -156.7915893942901, 147.48089778152024 -166.86458409047876, 165.74273279169083 -173.94451788659975 C184.0045678018614 -181.02445168272075, 237.84733863547694 -188.30075680005697, 255.21373812531095 -191.3638153707234 C272.58013761514496 -194.4268739413898, 269.3937727595551 -192.91195134409895, 269.94112973069485 -192.3228693105983 M314.3731445124407 -191.67024484927882 C342.09835767486913 -190.6289286670159, 375.678176745995 -183.94140081617894, 393.4834161248997 -177.51669774297463 C411.28865550380436 -171.09199466977032, 422.71423295225236 -161.0852159175892, 421.20458078586887 -153.12202641005288 C419.6949286194854 -145.15883690251655, 404.8211522416518 -135.6352884784321, 384.4255031265989 -129.73756069775658 C364.02985401154604 -123.83983291708105, 328.12751214498314 -118.79964731670682, 298.8306860955515 -117.73565972599975 C269.5338600461199 -116.67167213529268, 233.220396877161 -119.09967060876191, 208.6445468300093 -123.35363515351419 C184.0686967828576 -127.60759969826647, 160.43413473015568 -135.79428865893263, 151.37558581264125 -143.25944699451344 C142.31703689512682 -150.72460533009425, 142.72078618774498 -160.47996907173797, 154.29325332492266 -168.14458516699906 C165.86572046210034 -175.80920126226016, 194.16852118162132 -185.35457311033358, 220.8103886357074 -189.24714356607993 C247.45225608979348 -193.13971402182628, 298.79532502098016 -191.19058708098413, 314.14445804943915 -191.50000790147715 C329.49359107789815 -191.80942872197016, 313.3337407913366 -191.7018014180247, 312.9051868064613 -191.10366848903809" style="stroke: rgb(0, 0, 0); stroke-width: 1px; fill: none;"></path></g>
<text text-anchor="middle" x="283" y="-150.3" font-family="The Tinos" font-size="14.00" fill="#000000">p-value</text>
</g>
<!-- small -->
<g id="node2" class="node">
<title>small</title>
<g><path d="M12.434845253494792 -55.64168505860925 C7.558723034181411 -51.75526915705161, 2.2941133172529384 -45.55566918879737, -5.196698142879457 -38.07646741304385 M10.265129548322966 -56.57479561050729 C4.816289343867563 -49.99379076318484, -1.6606860451071495 -41.64633896896151, -7.200128676936449 -38.5400835467621 M19.05719462926566 -60.37452547858162 C12.317902950866845 -53.10870533182209, 5.50920313385422 -44.33693077417801, -5.6083461078009815 -35.447279353302484 M18.332190959613794 -61.9935843601511 C12.917398787120021 -54.035304700640225, 7.780361326207658 -47.000581079051166, -4.027413267866194 -32.86424624440569 M25.166617671517702 -65.03686095735651 C13.063451431336485 -50.78524248985838, 3.7478633799809637 -37.40845286356685, -3.6198639544188276 -30.19232969692914 M26.454636830852664 -64.20291913589631 C18.254422340525203 -54.80240074949358, 10.32057810514484 -45.07629472721081, -1.641826068996097 -30.884131078269103 M33.522782287606226 -66.00783291328477 C19.759720853291785 -51.50638190494727, 10.577344128590408 -35.67646076637291, 2.162544499796293 -27.500481236619805 M33.918780796878444 -65.37429300676565 C26.036458502642585 -57.49148020300141, 19.534071729210197 -50.55715268613885, 0.5588841900690678 -28.5560714283802 M42.176834924124734 -67.11684378815042 C32.85226923358969 -57.446124079871446, 22.432655164084288 -47.45476732227591, 2.9395945112940987 -25.784565851375127 M40.42174115746031 -67.05076057991182 C28.85859737686562 -53.17626812303571, 17.390439216404474 -40.236166630748485, 3.5365716030597394 -25.519871864479924 M48.145280890426896 -69.79603967890178 C34.36788723342465 -52.87239215034878, 19.92235454572267 -38.998527459780824, 6.970618009377379 -24.163575190482238 M46.54710622572357 -69.7977582415808 C34.91434303217918 -54.49050433411351, 22.80374919378732 -40.57040809596305, 6.967138874222298 -23.836574877181867 M55.51119133517444 -68.79769995587475 C36.395585627557374 -52.49892300543036, 21.73139758792233 -31.917140256395225, 12.544671540333532 -20.620033169871537 M52.90295696949776 -71.12019328515666 C40.65164761815478 -56.13417394363418, 30.218005396960237 -43.119666923283205, 10.617692640637795 -21.4090017509753 M59.83557111298495 -69.60869981342876 C47.607636879096184 -55.11074204754385, 35.96589871569174 -44.2577774592028, 15.162673320572468 -21.06055963913166 M59.18443415386149 -71.52032997458647 C51.337057349912186 -59.929676166029374, 41.609540797174425 -49.76359175482046, 14.229769889046093 -19.049660049305604 M64.43020928289376 -71.02054149945364 C49.72786195281198 -54.56853981241662, 30.740284701053625 -31.809720420251633, 19.088057804765953 -18.21709256869156 M65.86040492386928 -71.47691307990601 C52.170564729846134 -57.3195798580779, 39.274242533693254 -39.91858366353988, 18.42108992396212 -18.707039387304835 M71.5759596496969 -72.10562061370146 C55.07893454076647 -54.21057636406936, 35.97587494950262 -32.36839607178721, 23.40228511403169 -18.216083574094494 M72.35733133245147 -73.7419067577882 C56.98534926810951 -55.7984386044345, 39.55366573562387 -37.69213145797752, 22.206722282534997 -16.34362990094172 M76.81547401277585 -73.42761918980199 C61.40080091727094 -55.337223761760534, 44.81140396349656 -35.03025367651432, 26.017951640985554 -14.65845926081514 M78.78112168329454 -74.5329944206573 C66.37579870995067 -60.48943283049155, 52.59970396069026 -44.79401605707302, 26.90674311192488 -14.292332512728121 M82.24690229994276 -76.48849232959333 C62.57960336101041 -54.003435984062136, 45.89586493552413 -29.125522346971607, 31.152950416443623 -13.806272602859282 M84.48834708772627 -74.0360896458635 C72.3253643390472 -62.22610645750724, 60.13789083839509 -49.251597189273795, 32.144186599948476 -14.028796961243817 M90.28488239382496 -75.8507720996384 C75.7161137199857 -58.76544940705382, 60.797375071466476 -41.15987010100461, 33.57401641307627 -12.654181814621806 M90.15049545798144 -75.07248356445669 C79.52519466316423 -63.24723367583364, 67.03559607829622 -49.76363608322398, 35.08192560853364 -12.170810422582672 M96.56369753275776 -76.57957244434942 C73.43609476546968 -50.491546165090895, 52.62862582459896 -26.43572939028097, 39.59121303761259 -12.574292237128391 M95.78275628155275 -75.11759455814027 C77.034212862147 -51.898259446485895, 55.53324404274284 -30.202997046406516, 38.79418083520096 -12.377339211080194 M101.57147368144366 -77.06241980162869 C83.26116378759991 -55.85032379606159, 68.36083817061606 -38.38237760668287, 44.7844048581888 -12.483498683147118 M101.4989619901294 -75.88176146436396 C81.83703866328665 -53.526445001887396, 61.01608148734859 -32.40568499581155, 44.73541892144422 -11.442570115448033 M108.21701424005877 -77.08112334089886 C89.62319833762461 -55.06477967457856, 71.10726003333164 -33.82570500897406, 50.38143789236896 -11.167460206536958 M106.41535174543047 -75.59055837537491 C90.6096928763315 -56.37626880851419, 72.45818177256734 -36.575805949892725, 48.65029530699533 -9.039282550697028 M110.51802855857876 -78.58094422226475 C94.80905999506048 -57.970354838860516, 79.15322595350183 -35.32990183605202, 53.39417759780059 -7.3827648697775405 M112.69814055060799 -77.26510377688848 C91.18863123370376 -51.42448594074583, 69.72044731618792 -25.63984861547919, 53.93615776153999 -9.737049800548265 M118.99190007736611 -77.02481662203195 C101.43210324667635 -56.22003500161052, 85.66533842633689 -39.020073687578666, 59.02526233781162 -9.161385636432849 M118.05009035180079 -76.7125260645809 C105.12134595877862 -64.33701344564156, 92.93346063606667 -49.29927212632574, 57.21998377582846 -8.494490532574066 M124.0919455806839 -78.89978063706583 C98.36824806018798 -49.250982398590374, 75.75762320025686 -24.650120906133775, 60.715764508518916 -6.397380731952195 M123.44458859295021 -78.04960460142105 C99.55702647259758 -49.1730209020678, 77.19090170370771 -22.765730215317962, 62.165278213412265 -7.418648686362566 M130.1136410974502 -78.67403580558054 C108.04652709243365 -52.46609628820296, 85.67298080291576 -27.1980090089011, 65.07078421437012 -7.977607937406154 M129.6296390810531 -77.55536695754631 C107.72688856557758 -50.75872960454763, 85.08753025201004 -25.974122162848495, 67.81763166360643 -7.009839964452559 M132.4133086998137 -78.20092319704598 C118.10079461163554 -58.68595873923098, 102.02731375670153 -41.051795599735804, 72.59875859730293 -6.081419415843973 M133.03574852584114 -77.4597120214562 C118.11649752195056 -58.37953478201022, 100.94954544365685 -38.49882652013978, 71.7181130137582 -6.518048469113042 M140.2958314323931 -79.29837070594732 C124.24045456219065 -62.81849266848758, 112.32012498263423 -42.97897414477567, 78.00576864543014 -3.886545406970287 M140.2631073863844 -76.42867488839939 C120.11858526549301 -53.84440500403225, 100.0255792246665 -32.12598965029273, 77.2526428373735 -5.372616173754764 M145.21690979144935 -79.13377800378525 C122.92879645529088 -48.998768609883136, 97.03059954635947 -24.227841045429212, 79.46528403200574 -5.082451853203045 M144.8805000542716 -76.54794617791764 C131.72869448451823 -61.825291471461156, 117.76915097428477 -47.620880105601884, 81.93105755313242 -4.963782562843791 M147.87292533022523 -75.67801708209099 C131.086824467273 -55.11303638855581, 113.5850602316418 -36.42672951261549, 86.34892899576187 -3.7835352552408263 M150.26025089411542 -77.55447133460123 C129.94847591383137 -53.8805244529584, 110.05738865274004 -30.03919278408777, 86.74817463401592 -4.29426257399857 M156.5342536154113 -76.91580400649214 C138.37155673646785 -59.41498111023649, 123.4476975690443 -42.38941666177259, 91.46450919631481 -3.1400524134990513 M155.60979422607994 -76.13177636560106 C136.39300458649083 -54.484956312178866, 116.63373347961596 -32.55672519910015, 91.73986296884043 -4.619977891173228 M160.83900154714877 -77.1231921903346 C138.86367928344646 -54.27963529239863, 118.36050144536529 -29.383325234706973, 97.49067595425153 -2.390335587868743 M160.30392038283964 -76.74863082684418 C144.5893615689484 -59.36276912774929, 130.79390904523243 -43.60667648366351, 96.79108072534852 -3.845888664454998 M164.35811469831168 -78.55111744996788 C143.8045326418355 -48.87648095415552, 117.45659067095134 -19.61753739848204, 99.97980643822689 -1.4475413616388133 M164.53892021342406 -77.5889059259651 C147.5692271121185 -55.824921459175926, 128.82164092984638 -34.65447577839741, 101.34330303004991 -3.5013116265497786 M168.89463980546643 -75.6084762126123 C145.44045897665697 -48.376000890921496, 120.46131280401985 -21.897513447676793, 107.80461514097172 -2.265829787071242 M170.75209695450602 -75.91673697403513 C153.82497869957447 -56.95119625769729, 136.74926861991844 -37.191160100043014, 106.36896688552515 -3.0147273645671175 M175.72175223246086 -76.53731658989123 C148.41190765656384 -48.473725984350594, 124.81731329417472 -18.0892523399321, 111.86779141304567 -2.0816918682092242 M174.95479623371526 -75.06920266673247 C160.76075076684762 -61.037264611877276, 147.9816714025053 -44.6575899799241, 110.57568496460894 -3.231915379927849 M180.97748586775242 -77.12977392126393 C157.85037115023613 -52.36577063046742, 136.31753517053676 -27.7549277073318, 117.07684545977378 -1.9724964925185686 M179.97266827658123 -75.76356611627524 C164.83697841107795 -58.40221799683217, 149.2267943965469 -40.41088177237411, 115.86778939682617 -1.521805338845669 M186.00703514755534 -74.4235445513998 C159.6011907906692 -45.308750297060755, 138.6264656955188 -17.730799753924654, 120.61966894607804 -3.196333168828618 M184.37797098326416 -76.08737103981689 C164.88827586883852 -52.33319432577689, 145.30724020855303 -28.487790675112443, 122.20646744286417 -2.2423098267736963 M188.54926681809243 -72.72273755456061 C175.11370703218867 -60.433825461505705, 161.83138849677226 -41.77061561999904, 125.7753946869797 -2.664322955623817 M190.7231677827313 -74.64079135387438 C170.23187044318672 -52.62973353386145, 151.4789353638905 -29.711130908007924, 126.4526120228342 -1.7373191373526884 M193.77676731998937 -74.42616172818843 C175.32661209647742 -48.52633405185253, 152.13143299501286 -23.98481289193177, 130.4005874092775 -3.285839840413953 M194.33117759092536 -74.27714557917152 C173.08593480382834 -50.8610145841417, 152.92919498871927 -27.57974464035307, 131.66972349952772 -1.5953623165526933 M200.67021546483792 -72.8670922414239 C176.25837722232276 -47.164864845434735, 153.43212302314882 -17.142521369109453, 137.23129940861648 -1.7540361350041125 M199.10933143419075 -73.21921751930594 C180.39780209765297 -50.58299092663822, 161.63127638341058 -28.278622495164694, 136.23807030763177 -1.185377499136818 M202.60759132942235 -72.46533753978318 C184.05739213275493 -48.469532895314266, 164.27679061583478 -24.747003313323155, 140.509988907721 -0.7844294252244453 M204.4176155782562 -73.3230582605501 C180.30911979715955 -45.40332077497182, 155.66959404847543 -17.250510915543256, 142.1641626341731 -2.2667185942662424 M209.2594621548747 -71.20652617730907 C188.2162247939639 -51.0387613990783, 170.01355631159302 -25.89515121583847, 148.35284526003184 -0.030662110153221622 M209.2137611301344 -72.55658609066542 C192.44862675404454 -52.84606884537989, 174.78060816549973 -33.58043785029218, 146.89823420047395 -1.8180791197248218 M212.62333223924747 -72.93967592221989 C199.54481933354492 -54.91010822026278, 187.65613289641934 -40.42604661963394, 152.59423759919525 -0.5667713783370694 M213.95438445308838 -70.95953958521292 C199.01989199803918 -56.38775123225185, 186.14024727654913 -39.600781329263626, 152.82334567768712 -2.4274530969590313 M217.20656584636157 -69.75081440800359 C199.5771483349117 -47.537591336664725, 181.03618703984247 -27.12948124344623, 157.99705856290132 -1.8212955783484794 M218.23629443227634 -70.30289928135515 C206.21495715142638 -57.38171676889403, 194.29763075135125 -43.40111280804976, 159.50956083745228 -1.7587540532668067 M224.16783633598467 -70.86705650972837 C201.9357683686967 -48.148778856816776, 183.03259220078306 -23.54099215526737, 165.68909527175833 -3.865555436339743 M223.5816999019521 -68.86383453014572 C206.21230654458907 -51.38274565703717, 187.5233037196439 -31.01917715426702, 164.63184897001634 -3.1029910915702317 M228.3073477864835 -68.6887241593286 C211.2410854023571 -49.08423212657737, 194.12647006797832 -28.767101696851626, 169.92639127890274 -1.6600688858566994 M227.49755655854855 -68.34586638300027 C204.98764110461863 -43.68783200755898, 184.17107208943438 -17.8436130804695, 169.47160391325366 -2.3514147471059506 M232.71039774902977 -68.46912924287389 C213.7028551037761 -48.28346030014502, 198.46691763280802 -31.331564196612106, 175.46733018177449 -3.3347616560732645 M232.72246572454526 -67.27018201017307 C218.8322045070026 -54.14758942880478, 207.5793954572807 -41.50074537434322, 174.65252212814755 -2.4994682080034982 M234.7334592691177 -67.9813341143835 C218.8816717690365 -47.6453113769328, 203.17170860440655 -27.256106372715728, 179.96940172849725 -4.938280000883362 M235.8215736282637 -67.2417233999827 C219.33606737891174 -46.678901859627324, 204.03440426145673 -29.309544816899265, 180.7808386866068 -3.1056858416651494 M239.069262948345 -65.42098267748042 C222.5581090655599 -45.1688861140349, 200.79869198489126 -21.512122623380268, 188.78915824536693 -5.371824184628311 M239.90382176394016 -65.91137607069982 C222.34883813141386 -45.89694593794621, 203.9779434475296 -23.633841095627236, 186.45046394638558 -4.021568717082689 M245.015624230668 -63.907536069831835 C225.86765394959133 -40.846441569713576, 204.8440171313749 -18.56147851570117, 194.18355020376785 -3.3903043404435746 M244.84711976049996 -65.32622545323241 C230.60715562392943 -47.5277544605295, 217.14122747705127 -33.45883948726082, 191.89078120828663 -3.760994472900949 M248.45277820667982 -64.33937668208797 C231.36275366525388 -41.65758976444493, 211.3154535149569 -23.308610271372224, 198.72028772004435 -7.1746399965875725 M248.47458839988835 -63.17162655156218 C236.2521551129022 -50.34113437082558, 225.12987794658795 -37.3233829903523, 197.71298592734632 -5.51617742020185 M254.08985606305976 -60.470277188057025 C236.34232498549403 -44.5589584773859, 224.54242242675537 -27.48402754346324, 203.66794778691903 -7.001985174126331 M252.0302153656468 -62.620406752215416 C234.03077163300074 -39.85427822964759, 214.95404452470345 -17.60512815021825, 204.30911689767836 -5.282354670831117 M255.63881258263504 -61.85251310006059 C246.46020593156484 -50.35221241245804, 234.9371307455556 -35.724691722664815, 209.0218934866395 -7.702808746875899 M257.7797334742433 -60.130000594737524 C246.83873547827793 -48.409121059993204, 236.4243694712782 -38.00240563889869, 209.9679104083673 -7.387487153286725 M260.877532281654 -58.79409421757507 C245.0615934955521 -37.268685265182626, 227.82250703214754 -20.303039121679507, 215.05016640307596 -9.35784817697913 M261.68135232430217 -58.75616027613702 C250.8988159517874 -46.93516431765754, 240.2080056196164 -34.37726691121398, 217.60164930541455 -7.406203610014462 M263.71028509325566 -55.828526998522285 C245.94204569021326 -37.393101488267476, 232.78682793904107 -19.937948686396112, 223.19392515689916 -8.649178776425897 M265.0671658524691 -57.79125406583605 C250.9529320429842 -41.88983479242563, 239.82537795378437 -28.83631725581425, 223.37509207563141 -8.630006084796435 M266.2954108569006 -53.390354044793845 C260.44068332464184 -45.60535936340332, 249.92549620541507 -37.31106912681053, 228.33892513911118 -10.245488941107176 M267.71363635022567 -54.56834793360523 C258.83696342194736 -42.41143099315938, 248.31742437366702 -32.19122587385511, 230.23976076347336 -10.61956241727069 M271.33721423448 -53.05163536404273 C257.3324637944549 -34.6489701573758, 243.8074224971796 -21.43973355357981, 235.9809634728992 -13.243635824247585 M271.0482493841545 -52.339320707599505 C262.9991770781462 -42.66705573346572, 253.18199697185628 -29.662776148107994, 235.85926050211444 -12.797350710556522 M276.2984714708441 -50.297570504717584 C266.2711179454984 -39.462294057479795, 259.2112978318754 -30.62116184211669, 245.05351951746653 -12.864502756891625 M274.97296163394543 -50.06261239184953 C265.30833798788336 -41.03071755960972, 258.4677009990504 -31.676215141814275, 243.04946782588112 -13.832253378482989 M278.07065662900726 -46.96384255840166 C272.64728377911337 -39.88740566715021, 264.5960829071244 -33.55043468152127, 249.19815439581896 -16.826748424032104 M278.10701048420145 -46.72431665376257 C269.2642936995481 -36.928073057617894, 260.94863209752083 -28.637088598328607, 251.15525182584355 -15.45673913855487 M277.83136640015874 -45.36615347864893 C274.8185958219609 -36.38277459957112, 268.11800696810644 -28.030469203780676, 256.58029635351534 -19.823455035520155 M279.2619333920586 -44.67701969032689 C273.9874718582797 -36.199943622124394, 266.9317917772732 -29.025311760482314, 258.897127106118 -19.233638489900056 M279.1542158523902 -39.71092129932243 C275.3748683128469 -33.37183173269872, 272.6223585833482 -30.31721972656507, 266.5643043949714 -22.041372366553077 M279.9663937756993 -37.587429864694684 C277.6516567569386 -35.10868076498184, 275.5803723156969 -32.44308063317271, 268.63488548913097 -23.373577760572676" style="stroke: none; stroke-width: 0.5px; fill: none;"></path><path d="M140.34952701662303 -80.18057491373835 C168.89573778723297 -80.61850566850562, 207.22819361878396 -74.96828324990405, 229.81946642302495 -69.1559944449577 C252.41073922726594 -63.34370564001135, 271.6296554385331 -53.62786962362135, 275.89716384206895 -45.306842084060285 C280.1646722456048 -36.98581454449922, 271.1200821543032 -26.389839843261377, 255.42451684423986 -19.229829207591308 C239.72895153417653 -12.069818571921239, 210.15074525088156 -5.256710273069837, 181.72377198168897 -2.34677827003987 C153.29679871249638 0.5631537329900964, 112.8716580577251 1.2759813750942492, 84.86267722908428 -1.7702371894115103 C56.85369640044347 -4.816455753917269, 27.71479247653243 -12.984818183597561, 13.669887009844032 -20.62408965707443 C-0.37501845684436397 -28.263361130551296, -5.456468408085662 -39.21069051202694, 0.5932444289539092 -47.60586603027272 C6.642957265993481 -56.0010415485185, 23.99674665736673 -65.86039294399825, 49.96816403208146 -70.99514276654912 C75.9395814067962 -76.1298925891, 136.25344607819437 -77.24277623963594, 156.42174867724228 -78.41436496557793 C176.59005127629018 -79.58595369151992, 171.382654350165 -78.70137190641684, 170.97797962636898 -78.02467512220102 M83.78111365571614 -76.48858161417172 C109.45024456301559 -80.10173361407918, 151.1458132861167 -80.18135176890179, 179.66249466794707 -77.50425769331203 C208.17917604977745 -74.82716361772226, 239.07842359209644 -67.61277028487132, 254.88120194669847 -60.42601716063313 C270.6839803013005 -53.23926403639494, 278.58410509626106 -42.58454538603878, 274.47916479555926 -34.38373894788289 C270.37422449485746 -26.182932509726996, 252.15273897959793 -17.144509436883656, 230.25156014248756 -11.22117853169776 C208.3503813053772 -5.297847626511864, 173.0088637198249 0.5712844413163521, 143.07209177289712 1.1562464832324864 C113.13531982596935 1.7412085251486205, 74.34383508177382 -2.614448445210627, 50.63092846092091 -7.711406280200954 C26.91802184006801 -12.808364115191281, 7.005151105445978 -21.301960437613065, 0.7946520477797208 -29.425500526709477 C-5.415847009886536 -37.54904061580589, -0.4211469735318598 -48.708818265258934, 13.367934114923372 -56.45264681477943 C27.157015203378606 -64.19647536429993, 71.53368059388953 -72.87160121614676, 83.52913857851111 -75.88847182383245 C95.52459656313269 -78.90534243151814, 84.54114387203487 -74.89586010291983, 85.34068202265287 -74.55387046089359" style="stroke: rgb(213, 94, 0); stroke-width: 1px; fill: none;"></path></g>
<text text-anchor="middle" x="137" y="-43.7" font-family="The Tinos" font-size="14.00" fill="#d55e00">p-value &lt; :</text>
<text text-anchor="middle" x="137" y="-26.9" font-family="The Tinos" font-size="14.00" fill="#d55e00">We reject null hypothesis</text>
</g>
<!-- p&#45;&gt;small -->
<g id="edge1" class="edge">
<title>p-&gt;small</title>
<g><path d="M235.598,-117.1628C221.8165,-106.3075 206.6414,-94.3545 192.4139,-83.1479" style="stroke: none; stroke-width: 0px; fill: url(&quot;#rough-2151479797228078&quot;);"></path><path d="M235.9014162785336 -116.81490607596598 M235.9014162785336 -116.81490607596598 C223.12099582728789 -105.19445940720769, 208.34745098312345 -92.50971112638074, 190.70472188730966 -84.41259594227309 M237.12268793809574 -116.60782906187318 C222.29674407386457 -104.84414240240386, 208.2244723598162 -93.18732062696046, 191.95433867971462 -80.87619717556016" style="stroke: rgb(0, 0, 0); stroke-width: 1px; fill: none;"></path></g>
<g><path d="M194.1856,-80.0881 L184.1642,-76.6499 L189.8542,-85.5871 L194.1856,-80.0881" style="stroke: none; stroke-width: 0px; fill: url(&quot;#rough-1884124813677954&quot;);"></path><path d="M193.97224763106476 -79.18676915283285 C190.70411151995017 -79.72728763538093, 188.31142965919537 -77.98979671254773, 183.4466442613572 -77.01103625845658 M193.92205695071266 -80.28255037651836 C191.14998931908877 -79.10286716868706, 187.06806535467973 -77.98258326632457, 184.5297595161646 -76.62915020026561 M184.15377889805384 -75.856755037517 C184.69521880370988 -78.1799096209789, 187.95046019094252 -81.09584361407448, 189.8179611013035 -85.27943059269649 M183.8176930919727 -77.09250859276496 C185.9020960244043 -79.52918352864805, 187.70329303721584 -82.50390154499264, 190.02572284487158 -85.07284279177595 M189.26429370343698 -85.12027962755509 C191.07546501284304 -83.93588930535867, 193.65142636579074 -81.4810881213068, 194.511065002072 -79.44710298620714 M190.16435032069487 -85.32767545497084 C190.92495704425295 -83.85307107353061, 192.24674767886117 -82.89817558732332, 193.9699379885805 -80.05732606581111 M194.1856 -80.0881 C194.1856 -80.0881, 194.1856 -80.0881, 194.1856 -80.0881 M194.1856 -80.0881 C194.1856 -80.0881, 194.1856 -80.0881, 194.1856 -80.0881" style="stroke: rgb(0, 0, 0); stroke-width: 1px; fill: none;"></path></g>
</g>
<!-- big -->
<g id="node3" class="node">
<title>big</title>
<g><path d="M314.6449406492654 -57.304977549923734 C306.68160135560504 -52.62055927840834, 300.99247463669025 -46.927406731572184, 296.23146439159586 -37.99250256575238 M312.2587278156835 -59.44310132588379 C308.08044569472514 -51.87692133267716, 301.002083795992 -46.46127234692726, 294.6142550272728 -39.21927636648197 M320.52898192092016 -62.70796301488296 C312.4676963701425 -52.92620449027074, 305.7546043572134 -41.99893116252068, 296.8136155667109 -33.47476680045808 M322.44290864186166 -63.47046456350332 C311.82830934157727 -53.35401791711621, 304.04076363720776 -42.40393923167506, 297.3246414743184 -34.37237485546019 M327.84343391335346 -65.57349261505242 C320.11122797944074 -52.50688185728377, 308.4310237752871 -43.86959369351477, 299.67722422534473 -29.370903702756 M328.33757205211805 -64.95204747834568 C319.5423804996953 -56.04868088020668, 311.6248728906464 -46.23895729666691, 298.2347351055177 -29.871299450282066 M335.0979785403114 -68.06846360989873 C323.576971053417 -52.86784553674788, 312.9739248183211 -40.731404540607286, 300.9678550119322 -28.46100404177856 M336.1988377579139 -67.17695146585983 C329.0065097696242 -58.74774841010922, 321.85406612524673 -51.558213380145496, 302.47997612858705 -27.687531286434357 M341.1218971982712 -68.8202945417282 C329.0775426093561 -53.688975811446696, 315.46216445305555 -38.182627022903624, 305.84994059942824 -26.477823298618798 M343.57843571357347 -68.50912701783962 C329.6411455378845 -52.562586083405854, 313.5958623326823 -35.84427697485378, 305.0979126585313 -25.011491002842966 M351.0568835492657 -72.67744868519813 C334.4635296082085 -53.38084265905413, 322.4127526403123 -39.26744706790103, 306.81366930853875 -21.39190361648907 M348.99392742884805 -69.90161486528048 C337.39546497157386 -55.26469906314929, 324.67127600082193 -41.97073018163381, 308.6876308286343 -23.567887390165076 M355.6774259291877 -73.86258002603265 C343.55607489033594 -58.5581848188595, 335.0893730445884 -44.25678526226767, 312.80221622332476 -22.782368434107212 M356.85824398455804 -72.82449690354564 C339.5513225835609 -53.28485750015354, 323.0941410154324 -32.239896677152515, 310.67205836861126 -20.24216591362174 M361.3017070386098 -71.44065429118615 C342.53944993814076 -52.92429531249606, 323.5701371309415 -30.28141611913935, 315.84569767214003 -20.212172146453288 M363.34219322706986 -72.99493858247513 C348.7518428558316 -56.491903063686586, 333.37637776401243 -39.2260637797497, 315.5934661425164 -19.325472797269732 M366.88574952155625 -74.94776913149487 C351.07002355841564 -51.91006129700415, 329.68097545184384 -32.68708323856326, 319.15007899405083 -17.689173936822346 M368.1702414248461 -75.05642851031942 C349.65107478864917 -52.15324101081993, 330.0328373582417 -28.764056654717006, 319.6759975338111 -17.02968918843679 M372.90127524134607 -76.28900431619229 C359.3051876467501 -55.576020543180505, 338.9825615308625 -35.31852183854398, 322.28647356081586 -15.492906997048152 M374.02354254263975 -74.54826167266948 C358.4487114920562 -55.31828894210252, 341.6821448493609 -37.851171223965416, 323.6033371175049 -14.92541119138859 M381.39837772313405 -74.59794838947342 C368.4270522508472 -60.5035297145407, 351.7388282095583 -45.965683499403056, 328.6310357264218 -13.004940236503357 M379.62334701774523 -76.22359387912975 C366.9885659260532 -60.259457682133345, 354.1159340348137 -45.73811348685267, 327.82665832527965 -15.300693073789938 M387.6881626190048 -74.49309733573654 C375.1194937196698 -61.74184859314719, 360.67780718600596 -50.69259869561645, 332.4990156383064 -14.671176621957063 M386.7088236090325 -75.42734561990115 C366.69053771264834 -55.266376040320914, 349.3514959178166 -35.315823425816895, 331.3550169205579 -12.905161873412128 M391.9431573270567 -77.77669425573572 C374.4940919361722 -54.88360159142107, 353.5179387610231 -32.79673758206567, 335.84045855990007 -13.216393543380823 M391.7091745293399 -77.20599568947873 C378.59121774984396 -61.609686010667275, 364.64914996712804 -44.77041524081393, 334.55444006757403 -12.226777985099224 M398.6251573502665 -78.9371818955325 C381.17095668113626 -58.98344310127238, 362.4204103210749 -38.289183653927665, 341.0271957474326 -9.620537041527408 M397.2109738371666 -77.92392856980803 C384.7107513761123 -60.49016422196209, 370.6203063478016 -44.617163873384165, 340.2285633659958 -10.969442198021795 M405.2387417934682 -76.19959275725722 C392.61333968313585 -64.56076730712464, 377.8550225084553 -51.03013197925966, 343.03087030549705 -11.491676181200694 M403.28581243728416 -77.5636086834676 C381.98798455554294 -54.443957055052564, 362.6061131799312 -30.854165208299033, 344.2469434147127 -9.135742658652449 M408.17227263587495 -77.76540002555815 C390.09179490564657 -55.11884550193412, 369.40485427426677 -32.562677415544144, 350.2687972446192 -9.899781658751147 M409.0502256966736 -78.53108819439818 C393.1773018063755 -58.005910605054396, 376.456243135098 -39.90935548234528, 348.99253362875595 -9.275832765527479 M416.2612149692266 -76.22894404452254 C403.6763836608767 -63.46306435248745, 388.80532812080077 -46.60286018775995, 352.25638918058075 -8.846086690271312 M414.3357768155883 -77.8348965581065 C390.28761726666744 -50.87614283486333, 368.00039496852276 -25.18892394438252, 352.7572044356489 -7.417761340355671 M419.16094509168715 -78.39913686684584 C393.92381764354434 -50.44262828314683, 372.65308928373736 -21.984773944415963, 358.58345825466154 -6.501834276002428 M418.9574277560587 -78.77070417823202 C395.59045041808366 -49.77445581734043, 370.16125992186 -21.984239984883022, 357.4720754584523 -7.445055447716653 M425.26439000018735 -76.78006955047756 C402.56804578168453 -48.83773649164735, 379.048890967381 -22.80802301710915, 360.6371706520961 -4.358937615559819 M425.8909481768813 -78.90283282492406 C408.6498547319119 -59.963473173695895, 392.511914338889 -42.03190097580898, 362.2009655142895 -5.959437162500748 M429.2843744730902 -78.41999809832552 C404.42794513305506 -49.38238537111691, 382.6298995076484 -20.749214424718893, 366.1862172535718 -5.254644497217596 M430.59039776279997 -78.75658103511239 C414.53838092656514 -58.896582017394046, 399.08659015405664 -41.13003823013576, 366.1541192917708 -4.753126273756267 M436.5004809522891 -78.07041957131929 C415.61807090652417 -54.917859391077585, 392.41628950071726 -29.94405671070662, 371.8591222734356 -4.506537158394321 M436.2564740770802 -77.44833164464245 C416.4834630355764 -56.71703590461296, 396.3383780950223 -33.72977269173129, 371.7057701026349 -4.691149410378529 M439.1790443456188 -79.67614188834688 C425.17855710055983 -59.4473976076763, 407.8255885654323 -36.559428994687785, 378.1795937257885 -3.3621042480943824 M440.13420937885013 -78.02695983004497 C420.76068233762 -54.207739733047326, 399.96998800632366 -31.098269005870662, 376.42571416061713 -4.173390998925968 M446.71803879166896 -78.72469910398308 C429.8667207507253 -57.14910168937599, 409.56249852247777 -33.335629863546345, 383.1269568233965 -3.0799365162379813 M446.875491992347 -77.0649221307972 C421.60909354192466 -50.30961828196059, 396.60537422931685 -21.11541994010789, 381.62413173437824 -3.5754005812199052 M452.1047765826148 -76.05139956052788 C434.78696241840464 -55.15312193673503, 414.0594581003521 -37.0986407892638, 387.39228682935203 -4.408733953854839 M451.55126108772987 -77.53321095827015 C434.21408030597274 -58.229930126709995, 416.5600826634553 -38.151979229001974, 386.49755271219857 -2.5813868726728355 M456.10042748582873 -78.7652812323372 C439.1182956574649 -57.32370660358442, 420.67401295045886 -36.67848972417578, 392.0078223593227 -3.0774705593330913 M455.8719299405333 -77.74388629250211 C442.48440278206806 -61.05155789669557, 427.93826251892017 -45.25830757864117, 391.3189665703735 -1.5393683920885959 M461.7718750265471 -76.35822851662589 C440.95336336314887 -53.09760217637249, 420.9000097651784 -30.572371487401053, 396.5297456629026 -2.094620075671815 M461.6080258738322 -76.90561428325869 C435.41917192478536 -48.98461773585764, 411.1549938273214 -20.46943198879853, 396.1509439017554 -1.2451982221020876 M467.06050194844545 -77.41052356192198 C444.524225500597 -51.28566325103307, 422.43378965086475 -23.179758023349873, 400.61782564578493 -2.2882660342118633 M465.804455550301 -76.92893845014831 C449.0784040678471 -57.471165896172465, 431.3013558279238 -37.11749123013262, 401.86478830963637 -1.6180723426419579 M471.8598210560816 -78.15512384368749 C457.3301065772654 -58.00688054629741, 439.9433541518622 -41.442783459945154, 404.93279392985056 -0.09640061083712226 M471.28276355282134 -75.6384110396347 C453.8483621620261 -54.39869939306455, 436.14607164659964 -35.23044064539432, 405.62297172864345 -1.429627354390731 M474.2111718715054 -77.20815812733557 C458.0356858270382 -51.965347163655025, 437.5419176191687 -29.741486627989044, 412.5161405542775 -2.2359717401547825 M476.1703768677191 -76.10220326005167 C458.47109815606956 -53.936433583691496, 439.1501907967986 -33.8749382637892, 411.50300278804013 -1.0959406137744458 M480.62191620023566 -74.23030100448457 C457.96979288496794 -49.13099537889457, 437.43335850377133 -27.833927800474026, 417.2114009011814 -1.433398002800525 M480.3628763074344 -74.83080683874066 C460.6135694148912 -51.37120157590216, 441.17206642015145 -29.30189835245971, 416.57998429900437 -0.13615702733385504 M485.85056420803903 -75.34798511201531 C462.9937467034718 -52.351883938497245, 445.2231937151515 -29.275159055045787, 423.31022109085893 -0.9129071803878426 M484.61439601642326 -73.81392675633461 C467.7774504931837 -52.72220947265208, 448.26308946185867 -32.13744179583985, 421.6642483513468 -0.7423582523828169 M488.7030107321816 -75.48554518338624 C467.7304769606731 -47.49958788654632, 445.39333504370444 -24.489583278903524, 425.4923622903552 0.10981291583342179 M489.85803850336856 -74.38858971148161 C471.5162775852942 -53.3747285199247, 454.85565966914106 -33.06609074165123, 427.01686399453035 -1.2549146965380589 M496.89984942093105 -72.9659028144817 C477.91815781392773 -52.807125036885175, 459.99404001854026 -32.63463446278966, 433.4255459091755 0.9449719760039303 M494.20656384976826 -74.20198322850024 C479.04069190794695 -55.3725607770532, 462.2587960381419 -36.60965607433732, 432.45610026267406 -0.16532981542250225 M500.1891032421571 -74.41991346228576 C481.16640722487335 -52.91682827993015, 465.80157238309704 -34.16552404704288, 435.7848016439427 -0.015131468267088 M499.8139551862898 -73.13232573051616 C485.38851532216626 -54.277431554646896, 468.9681302128216 -37.74812037617068, 438.139013056256 -0.004399774676122403 M505.4848358326214 -70.34245202651346 C492.26432153848435 -55.62725903611819, 477.19454531840165 -44.83361023638912, 442.3149559851948 0.1185592402292639 M504.802508687338 -72.29615640134993 C485.0616195385546 -49.7335013265116, 466.2946103529893 -27.902099602418758, 441.9433099652773 -1.5236645307089136 M507.0225391327915 -70.09981528974741 C491.1427157744771 -50.39748127962986, 474.38081002634505 -31.394893738251575, 447.57200757999624 -1.2930570482969999 M508.48602765995486 -71.29385968019355 C489.0971510904843 -46.91073736650917, 468.36520434387126 -22.505437815048793, 447.9397585081621 -0.48134182976782913 M514.9210685653754 -68.66588744173995 C492.9819519144435 -45.80367568596576, 473.1016365962753 -26.432323056676584, 452.1602121456521 -2.060794331289389 M512.2571733873318 -68.9392883793473 C491.3344052270146 -44.053123940078876, 470.1895705696908 -20.922577967611826, 454.6992889314162 -1.104752257947146 M518.3134077670742 -68.15658145360322 C496.9411396387714 -44.73124820451466, 474.18045452641104 -18.567055219437822, 459.6376565707372 -0.25383430329815626 M518.132113840165 -68.98132056935938 C495.62217355416897 -44.077890452263176, 473.97457727285376 -17.425233512146605, 459.3487275960284 -2.2393000361055933 M521.129875575193 -65.54675752591525 C503.95881352918155 -47.38639992773002, 486.13374672769436 -22.996555798511306, 464.4223663912742 -3.535334511954529 M520.9401032619602 -68.37100103267409 C503.81147895989454 -44.38783460871579, 483.829095631209 -23.747341628112988, 465.2772370207082 -1.2613470442043135 M525.9264501126266 -67.87881652642734 C506.3141756323768 -43.95216186125179, 484.2892909589393 -21.080912469173295, 472.3712809102904 -2.8958286443663988 M525.389357285589 -65.33856779500897 C511.0165844790715 -50.48398886600897, 497.26807462324086 -32.79297568904239, 470.5230674142854 -3.1122625543820335 M528.5684691099818 -64.72210626983248 C513.7959056219457 -44.86359192684915, 493.6453244921522 -23.455363326153687, 476.64398169122836 -2.0610321163661385 M530.7812924139768 -65.86922166189119 C511.44665063354756 -41.910945749622215, 491.75026253242237 -18.841397981648207, 477.5369764352555 -3.497066123707918 M535.6180443313477 -62.734150094242445 C520.7883595854133 -48.68886560321159, 511.3717113092129 -35.51642660213069, 484.09274439671304 -4.306227829146953 M533.9443024388239 -62.83289433961169 C522.4198584615227 -49.18156804055829, 511.4144278234587 -35.98647173198802, 482.62810458665285 -3.239187895967002 M538.2875272785531 -62.11709001826038 C521.1041582566098 -41.573513795911076, 504.14178486479307 -23.486869111246286, 489.2077678301987 -6.525006813313249 M539.145870190277 -61.85447468168435 C526.9314766265111 -49.80413652779393, 515.5583466079217 -35.67610485011926, 487.79426877492654 -4.732480111299175 M544.0383112958369 -59.50313216720448 C527.2717514866625 -41.103925975370736, 512.9897494070669 -26.97853771468398, 494.2361008397098 -7.24428577810389 M541.5860675438728 -61.17100513053819 C528.8775672824664 -46.23358651579056, 516.0734758574745 -32.09038177548639, 493.7909841207535 -5.7618689585665 M545.6946386868577 -60.02797080020487 C529.155480123858 -40.545983790238964, 510.2147864681644 -20.140562522138787, 501.0342145273547 -5.52904936127034 M546.2533180633261 -57.55401475967961 C531.4215353912499 -40.64336724286335, 515.3302207435748 -23.822598068154353, 501.7404458548064 -5.798691292472301 M551.1309641203769 -57.702984672651525 C538.7525473774903 -44.61224671682049, 528.9688571399562 -35.86552786163117, 506.55946264255067 -9.883839992763289 M549.8331594604322 -56.64339354393127 C534.0273613703137 -39.38122827390642, 520.1440100231403 -23.167984700420412, 506.5004198707927 -7.368320291402948 M554.5594193418013 -54.12203886589729 C545.2989870768407 -46.84458882839528, 538.7014714710385 -34.84551696898466, 514.5143647029699 -8.996465206177923 M551.9987649497317 -54.36259253536053 C537.2071285930467 -36.11003341237217, 522.6053349544433 -18.38085594837424, 514.4166467398959 -8.482622503860686 M554.5336140032383 -51.72593847538996 C545.8018132560848 -39.51043396410583, 533.4077474691829 -23.403956737754, 521.6978520238655 -12.338445436392835 M555.3344926038221 -52.225989825809904 C547.6383013037317 -42.303036705270685, 541.7864399802975 -35.30094321734483, 521.5069141379582 -11.388857821899201 M560.049633734803 -47.4737929092935 C549.2319018510785 -40.01182541848923, 540.5956054441231 -27.59263086626007, 527.6651591519188 -11.325118455842624 M559.4526867885243 -49.76013333849117 C552.6300469740372 -40.7746575495187, 545.217853852441 -32.463289521223636, 528.0452682524225 -13.542530863153269 M561.8468781432131 -44.27273868504293 C553.9740044912048 -36.574526860662935, 543.2770493748963 -25.283018025296602, 533.2288098951507 -15.571113434772647 M561.632798289821 -45.059308804491366 C551.4604804206375 -34.510831654151374, 540.0573979570918 -22.046690316756347, 535.3592724192209 -16.313812007878855 M561.808042063657 -43.02932786527323 C557.3038130340943 -37.572319951815935, 555.3399481640945 -32.342926684027496, 543.7788980708649 -20.760841162798425 M563.6247827586021 -42.2344838757726 C559.5461814525307 -36.54421605302729, 554.4325748760809 -32.6736992740678, 544.4186706269103 -19.591494380963912 M562.3373530444436 -33.64721936706671 C558.6260207621668 -30.672204522394974, 556.1198645521836 -28.585001881980833, 554.0290129912977 -25.70399086153839 M562.3109735441119 -33.93138574466839 C559.0713368841422 -31.650300531439946, 557.3331626393306 -28.401905330656703, 554.5626989419325 -25.34048144281809" style="stroke: none; stroke-width: 0.5px; fill: none;"></path><path d="M468.7080187715691 -77.28681648197545 C496.8300789025269 -75.68875367465807, 529.257252653294 -68.78259673591347, 546.3800222896683 -61.789399656203145 C563.5027919260426 -54.79620257649282, 574.3598431581368 -43.77833608197211, 571.444636589815 -35.32763400371346 C568.5294300214932 -26.87693192545482, 550.9044352419704 -16.79326337231645, 528.8887828797381 -11.0851871866513 C506.87313051750573 -5.377111000986151, 469.8985318465562 -1.5394599913130318, 439.350722416421 -1.079176889722568 C408.8029129862858 -0.6188937881321042, 370.4596404614122 -3.3807223260640926, 345.60192629892686 -8.323488577108517 C320.7442121364415 -13.266254828152942, 297.5763209927787 -22.60588160688149, 290.2044374415087 -30.73577439598911 C282.83255389023867 -38.86566718509673, 288.0309586049809 -49.6688420340429, 301.3706249913067 -57.10284531175423 C314.71029137763253 -64.53684858946556, 341.26689395829015 -71.9337113086754, 370.2424357594635 -75.33979406225708 C399.2179775606368 -78.74587681583877, 456.64389598631726 -77.4886741910275, 475.22387579834685 -77.53934183324438 C493.80385561037644 -77.59000947546126, 482.39865896911084 -76.24140178566842, 481.722314631641 -75.64379991555839 M430.2761135187555 -78.74268540518298 C459.01392993662756 -79.34132125035086, 496.6988544845489 -76.5834910348677, 520.0130630355509 -70.93887399337227 C543.3272715865529 -65.29425695187683, 564.8587493349606 -53.20894300646258, 570.1613648247674 -44.874983156210334 C575.4639803145741 -36.541023305958085, 567.0389658834954 -28.050754138308005, 551.828755974391 -20.935114891858777 C536.6185460652866 -13.81947564540955, 507.70489121271356 -5.434460199601496, 478.9001053701412 -2.1811476775149714 C450.09531952756885 1.0721648445715535, 408.0921300071942 1.4741124767663893, 379.00004091895687 -1.4152397593396273 C349.9079518307195 -4.304591995445644, 319.4912933198134 -12.103069478097368, 304.34757084071725 -19.51726109415107 C289.2038483616211 -26.931452710204773, 282.75903487012346 -37.458386916688816, 288.13770604438 -45.90038945566184 C293.5163772186366 -54.34239199463486, 313.2403540483276 -64.58742258611987, 336.6195978862566 -70.1692763279892 C359.9988417241856 -75.75113006985852, 413.01536635408246 -77.92177711305361, 428.413169071954 -79.3915119068778 C443.8109717898255 -80.86124670070198, 429.02658320710907 -79.9542883150246, 429.00641419348574 -78.98768509093429" style="stroke: rgb(86, 180, 233); stroke-width: 1px; fill: none;"></path></g>
<text text-anchor="middle" x="429" y="-43.7" font-family="The Tinos" font-size="14.00" fill="#56b4e9">p-value &gt; :</text>
<text text-anchor="middle" x="429" y="-26.9" font-family="The Tinos" font-size="14.00" fill="#56b4e9">We can't reject null hypothesis</text>
</g>
<!-- p&#45;&gt;big -->
<g id="edge2" class="edge">
<title>p-&gt;big</title>
<g><path d="M330.402,-117.1628C344.1835,-106.3075 359.3586,-94.3545 373.5861,-83.1479" style="stroke: none; stroke-width: 0px; fill: url(&quot;#rough-7603092923738137&quot;);"></path><path d="M329.4705312362617 -118.96145637104752 M329.4705312362617 -118.96145637104752 C344.21335141640304 -106.9264195788917, 359.7886247900737 -93.59543848610599, 373.4836581529768 -84.67187919871625 M328.42238049057164 -118.22538916182913 C345.12290818191843 -105.95936225154512, 358.31909342309575 -94.39866883545166, 375.57091852400094 -83.50061432307298" style="stroke: rgb(0, 0, 0); stroke-width: 1px; fill: none;"></path></g>
<g><path d="M376.1458,-85.5871 L381.8358,-76.6499 L371.8144,-80.0881 L376.1458,-85.5871" style="stroke: none; stroke-width: 0px; fill: url(&quot;#rough-7923230678185672&quot;);"></path><path d="M376.985187081959 -86.46615194724082 C377.7007561909352 -82.67538864994214, 379.3120558807208 -79.95061012858714, 382.8929696274309 -76.78558384601962 M375.9749480460429 -85.13480174229939 C377.94979801881163 -82.07499947781608, 380.24477492978076 -79.144172617039, 381.4006118075836 -77.04606814355883 M381.4304441052155 -77.44137842070396 C377.9227727396206 -78.03805235002484, 374.90760965924443 -79.42373603468057, 372.47390304559036 -79.60793745800527 M381.50674415205714 -76.90941604116892 C379.27216020944616 -77.67471301972755, 376.1730951553796 -78.90673373152427, 372.17029526864775 -80.5413251478713 M371.3183516788342 -79.42596142930309 C372.9155344334288 -80.76240695174117, 373.97523255306004 -82.66910425990793, 375.9158569346011 -85.19387457374607 M371.771395460954 -80.30560814378975 C373.3009218812807 -81.73987602759125, 375.2650005880102 -84.10086635007687, 376.32285612049975 -85.92635614303377 M376.1458 -85.5871 C376.1458 -85.5871, 376.1458 -85.5871, 376.1458 -85.5871 M376.1458 -85.5871 C376.1458 -85.5871, 376.1458 -85.5871, 376.1458 -85.5871" style="stroke: rgb(0, 0, 0); stroke-width: 1px; fill: none;"></path></g>
</g>
</g>
</g><g id="svg-pan-zoom-controls" transform="translate(945 308) scale(0.75)" class="svg-pan-zoom-control"><g id="svg-pan-zoom-zoom-in" transform="translate(30.5 5) scale(0.015)" class="svg-pan-zoom-control"><rect x="0" y="0" width="1500" height="1400" class="svg-pan-zoom-control-background"></rect><path d="M1280 576v128q0 26 -19 45t-45 19h-320v320q0 26 -19 45t-45 19h-128q-26 0 -45 -19t-19 -45v-320h-320q-26 0 -45 -19t-19 -45v-128q0 -26 19 -45t45 -19h320v-320q0 -26 19 -45t45 -19h128q26 0 45 19t19 45v320h320q26 0 45 19t19 45zM1536 1120v-960 q0 -119 -84.5 -203.5t-203.5 -84.5h-960q-119 0 -203.5 84.5t-84.5 203.5v960q0 119 84.5 203.5t203.5 84.5h960q119 0 203.5 -84.5t84.5 -203.5z" class="svg-pan-zoom-control-element"></path></g><g id="svg-pan-zoom-reset-pan-zoom" transform="translate(5 35) scale(0.4)" class="svg-pan-zoom-control"><rect x="2" y="2" width="182" height="58" class="svg-pan-zoom-control-background"></rect><path d="M33.051,20.632c-0.742-0.406-1.854-0.609-3.338-0.609h-7.969v9.281h7.769c1.543,0,2.701-0.188,3.473-0.562c1.365-0.656,2.048-1.953,2.048-3.891C35.032,22.757,34.372,21.351,33.051,20.632z" class="svg-pan-zoom-control-element"></path><path d="M170.231,0.5H15.847C7.102,0.5,0.5,5.708,0.5,11.84v38.861C0.5,56.833,7.102,61.5,15.847,61.5h154.384c8.745,0,15.269-4.667,15.269-10.798V11.84C185.5,5.708,178.976,0.5,170.231,0.5z M42.837,48.569h-7.969c-0.219-0.766-0.375-1.383-0.469-1.852c-0.188-0.969-0.289-1.961-0.305-2.977l-0.047-3.211c-0.03-2.203-0.41-3.672-1.142-4.406c-0.732-0.734-2.103-1.102-4.113-1.102h-7.05v13.547h-7.055V14.022h16.524c2.361,0.047,4.178,0.344,5.45,0.891c1.272,0.547,2.351,1.352,3.234,2.414c0.731,0.875,1.31,1.844,1.737,2.906s0.64,2.273,0.64,3.633c0,1.641-0.414,3.254-1.242,4.84s-2.195,2.707-4.102,3.363c1.594,0.641,2.723,1.551,3.387,2.73s0.996,2.98,0.996,5.402v2.32c0,1.578,0.063,2.648,0.19,3.211c0.19,0.891,0.635,1.547,1.333,1.969V48.569z M75.579,48.569h-26.18V14.022h25.336v6.117H56.454v7.336h16.781v6H56.454v8.883h19.125V48.569z M104.497,46.331c-2.44,2.086-5.887,3.129-10.34,3.129c-4.548,0-8.125-1.027-10.731-3.082s-3.909-4.879-3.909-8.473h6.891c0.224,1.578,0.662,2.758,1.316,3.539c1.196,1.422,3.246,2.133,6.15,2.133c1.739,0,3.151-0.188,4.236-0.562c2.058-0.719,3.087-2.055,3.087-4.008c0-1.141-0.504-2.023-1.512-2.648c-1.008-0.609-2.607-1.148-4.796-1.617l-3.74-0.82c-3.676-0.812-6.201-1.695-7.576-2.648c-2.328-1.594-3.492-4.086-3.492-7.477c0-3.094,1.139-5.664,3.417-7.711s5.623-3.07,10.036-3.07c3.685,0,6.829,0.965,9.431,2.895c2.602,1.93,3.966,4.73,4.093,8.402h-6.938c-0.128-2.078-1.057-3.555-2.787-4.43c-1.154-0.578-2.587-0.867-4.301-0.867c-1.907,0-3.428,0.375-4.565,1.125c-1.138,0.75-1.706,1.797-1.706,3.141c0,1.234,0.561,2.156,1.682,2.766c0.721,0.406,2.25,0.883,4.589,1.43l6.063,1.43c2.657,0.625,4.648,1.461,5.975,2.508c2.059,1.625,3.089,3.977,3.089,7.055C108.157,41.624,106.937,44.245,104.497,46.331z M139.61,48.569h-26.18V14.022h25.336v6.117h-18.281v7.336h16.781v6h-16.781v8.883h19.125V48.569z M170.337,20.14h-10.336v28.43h-7.266V20.14h-10.383v-6.117h27.984V20.14z" class="svg-pan-zoom-control-element"></path></g><g id="svg-pan-zoom-zoom-out" transform="translate(30.5 70) scale(0.015)" class="svg-pan-zoom-control"><rect x="0" y="0" width="1500" height="1400" class="svg-pan-zoom-control-background"></rect><path d="M1280 576v128q0 26 -19 45t-45 19h-896q-26 0 -45 -19t-19 -45v-128q0 -26 19 -45t45 -19h896q26 0 45 19t19 45zM1536 1120v-960q0 -119 -84.5 -203.5t-203.5 -84.5h-960q-119 0 -203.5 84.5t-84.5 203.5v960q0 119 84.5 203.5t203.5 84.5h960q119 0 203.5 -84.5 t84.5 -203.5z" class="svg-pan-zoom-control-element"></path></g></g></svg>