<?xml version="1.0" encoding="UTF-8"?>
<svg width="430pt" height="402pt" xmlns="http://www.w3.org/2000/svg" xmlns:xlink="http://www.w3.org/1999/xlink" id="svg_output" xmlns:ev="http://www.w3.org/2001/xml-events" style="overflow: hidden; "><defs><pattern id="rough-4972361418109496" x="0" y="0" width="1" height="1" viewBox="0 0 32 33" patternUnits="objectBoundingBox"><path d="M3.7550832647947994 -0.5365523355309022 C3.186683033030296 0.9138248006753629, 1.9908492687898836 1.9629966822877427, 0.1687036575908163 4.170025810739664 M4.221606751027919 0.2735503455712501 C2.7504258596935633 1.7614503527655994, 1.2937426513937573 3.48730739960926, 0.2549333740039355 4.479775104753303 M8.460509037859373 -0.19759073811304106 C5.293731079414445 2.309109850918313, 4.45181273892764 7.731614449889724, 0.5386055813146964 11.289823448161998 M9.005789091175716 0.6395633022502893 C6.137741424447962 4.626768771502789, 1.6291635551350736 9.189391728559958, 0.2900650072224633 11.035178603523558 M13.443672103407103 -0.3501902570901412 C8.712623047028604 5.614193554751397, 6.917100299822269 9.072983799820115, 1.5690884426374412 15.719290613327722 M15.547411591354948 -0.5131728435637553 C9.423185381261522 4.788015995987404, 5.328570271513176 9.386748989872663, 0.4772544696590961 16.702354467904648 M19.666006062482772 -0.5336909130535474 C14.03990099973435 5.570987576349127, 8.942533044013562 13.718428398582487, -0.6809666854424776 24.560220671332516 M20.70620388993004 -0.8126090736647433 C12.462951949763102 9.484427368803393, 4.89325514704084 17.413871998540515, 0.017752262561172127 23.934242353063873 M23.514087951875737 0.8713155437838949 C18.269404134320673 6.244394819872574, 14.0945267340634 13.57724617009685, -0.632342617997157 29.574721687757066 M25.746447570067893 -0.9257059099173415 C19.477219529495322 6.4366156700666455, 12.917229288070114 12.756343462799132, 0.7686996538084512 29.448575584788276 M28.73579248143493 1.2368773772924744 C21.148887061416985 12.401030158221511, 10.44532917862976 24.878131201280436, 0.16413534025192522 32.09402930200555 M29.77346653741499 -0.43398591099638417 C19.242956013307783 13.431858028117187, 7.634845819651363 25.788568526999732, 1.5748023966109281 32.389639317640246 M31.87236922342921 3.7210048430388603 C24.05328902973489 13.322277460827598, 16.538520627479066 22.361067893216642, 8.534869346164161 31.846068395579316 M30.78362761503969 3.9304720722076647 C23.202472719347867 14.862882390219683, 14.639814714709907 24.779550591141117, 7.686193098165048 33.664147834063115 M29.98185726893913 11.379280524533291 C25.435765429897927 18.99347774217088, 17.506665619141387 25.67923133494893, 11.706674945152512 31.66968279906742 M30.740537755874794 11.594432268954957 C26.67018359329667 15.60673393037728, 21.24724756250405 21.741872836961956, 12.998663069593771 34.07546365146854 M32.75784646179872 15.18474752867507 C27.568349239837328 20.767949296919436, 24.154958865534923 22.54384157917189, 15.624002058819105 31.61508887795077 M32.647188408745684 16.805327756217455 C27.190554062371543 22.545072800679403, 22.636227932061388 27.327416338069185, 17.030840986238292 33.81955078712755 M31.843105467565596 21.7010507092299 C27.65195984791026 27.89949798982342, 24.602605250111534 29.62246305857731, 23.44996874541872 32.37634160217071 M31.76062374538718 22.469282292155572 C28.18993583039299 26.893577735845447, 25.309585253529022 30.455429388024918, 23.290662654942402 33.7295512513151 M31.715281799430663 29.335142670670805 C31.290253741190895 30.27598201425597, 30.418408930707237 31.472446899059605, 28.742740791334707 33.46744213661416 M31.517972419821213 28.931528825712785 C30.716888841541977 30.037378345340624, 29.841945806822594 31.323188419482996, 28.371937517332118 33.30085314256382" style="stroke: none; stroke-width: 0.5px; fill: none;"></path></pattern><pattern id="rough-4916521285219451" x="0" y="0" width="1" height="1" viewBox="0 0 9 10" patternUnits="objectBoundingBox"><path d="M3.808213953542472 0.26366553427846207 C2.2446375015926847 1.414512283079239, 1.8398008215471355 2.032218018230832, 0.2685682955444514 4.330073872443032 M3.5981600175803865 -0.2594634933331267 C2.9583434358489957 1.2264410240576997, 1.9456293772133144 1.9998286879481748, -0.16645700807976563 4.401736030020724 M9.829270008782025 -1.155757127285839 C6.150870369438822 2.6836148712842927, 2.7153993914800276 8.64096352217987, 1.726310399237342 10.413547427052142 M8.604345856666463 0.07430922343625923 C6.505552285058089 2.5381167558497753, 4.7699307985929975 4.110166793859064, 1.0821399744435594 9.01666370095525 M9.929961801275804 5.317745273008377 C9.147783474926715 6.1071395502254955, 7.481946998379781 6.971373211200776, 5.38048732243404 9.987832909876822 M9.279185772723006 5.344865510861825 C8.279556860917996 6.374747882730276, 7.897379457431658 7.4590589757946875, 5.669531536974651 9.74541728475016" style="stroke: rgb(0, 0, 0); stroke-width: 0.5px; fill: none;"></path></pattern><pattern id="rough-8496188282211652" x="0" y="0" width="1" height="1" viewBox="0 0 32 33" patternUnits="objectBoundingBox"><path d="M4.060022131952123 0.36350640368666354 C3.5151719668489547 0.8766177903100889, 2.007402956644863 2.9204924808840316, 0.22050413909019106 4.2146652250523156 M4.186392512474836 0.24092580214591147 C2.433896857217764 1.4233557199045062, 1.4574940106146002 2.766069105112686, 0.043508149361575155 4.660164461622466 M8.650987102633046 -0.8463405638272218 C6.05623203790682 2.8252385487337093, 4.944305846659007 5.7485235317546595, 1.3053139399553686 10.86697759485154 M9.070146731171324 0.32741011033361933 C7.627896870407753 1.8134775515473707, 4.721527327669566 4.287234950245884, 0.3677244685808372 10.517248926185951 M12.910723835434268 -1.6125559812034287 C8.837955972310278 5.739757106238423, 4.675266260863518 11.356943633739489, 1.070819263049135 18.183264788946158 M14.86884657709965 0.3069721962009475 C9.631495094789177 6.960464057355821, 2.4281627470189626 12.558957895676771, 0.9857290543066504 16.927550164322927 M20.892424430553795 1.4162152325605675 C15.885629082077118 3.6737118650725074, 11.548127769770652 11.043613823624518, -1.2097428139533615 23.43010708955842 M20.103305378508338 0.3756635980695191 C13.05391349573762 7.944964012701749, 5.4880154021524135 16.009316602126543, -0.9057572312396498 22.522628383737988 M23.855675461659928 1.5551701435627656 C18.351095311969917 7.332688304312581, 15.5848887342744 10.88621144220054, -0.008020310869527592 30.65078898254351 M26.180960006542858 -0.9416473011906596 C16.73066476702322 8.353577816768729, 9.249039542958554 16.365953922294658, -0.1207217735587538 28.960324014741275 M32.41420665100262 0.7689235196992916 C24.005117820850586 7.338785725904344, 17.686141827997233 13.785291607349993, -0.17106859872757285 32.29187548764662 M30.77607450764015 -0.7447091346787533 C24.042663655462796 7.81932697856595, 18.31000896988141 13.90266329584094, 2.3887751534637696 34.0863370393307 M32.373403221173376 3.228830247100721 C26.25717432209484 11.172393498253276, 20.898672624583156 18.84450704526873, 6.8413351942464224 32.04688686434384 M31.94542193288864 4.794541277629569 C23.03537672654517 15.197930872568683, 13.172687317506925 26.5988509666726, 7.252205672584363 32.55154766441729 M30.107367218365688 11.732921721365159 C24.58693331567453 17.260179161113676, 17.463876685801118 26.49866459118053, 10.385662283442361 34.83493167414717 M32.19274650301756 9.902203736994288 C27.907380893476066 15.554547789995192, 22.52270400629005 21.689462461368205, 12.46065149131314 33.0869370312517 M29.939156612992523 15.194599848771137 C29.718022406844316 19.70986369121021, 23.040183432295926 26.7456253361395, 18.134313212838286 33.346040034378454 M32.44545924427843 17.25309857323925 C27.310505284688134 22.56176614046791, 22.580187937041494 26.66009189519399, 18.275913231543726 34.048149578424784 M32.11953818682056 22.658495078153503 C27.676302353810456 27.68353362406675, 25.08240989073346 30.330629559430594, 23.617528833924435 33.7106443745159 M32.10491522230731 23.465869099673014 C28.59014594626996 27.493072272055898, 24.38806144680373 31.326833433080502, 23.082955693971233 32.63852124104691 M31.353514236544886 29.00595348093087 C30.160992466767222 30.029561680597304, 29.721503252976294 31.631803119606584, 27.864093326054004 33.26153870043211 M31.775523519775362 28.96380154224013 C30.74842332475806 30.5639391275962, 29.589102258868415 31.72082486818131, 28.208397335342664 33.27850514020677" style="stroke: none; stroke-width: 0.5px; fill: none;"></path></pattern><pattern id="rough-928337599028755" x="0" y="0" width="1" height="1" viewBox="0 0 9 10" patternUnits="objectBoundingBox"><path d="M3.799696774946173 0.07770989901870418 C2.083996443006969 1.707922317656884, 0.9204355548115348 2.7784303214168977, -0.3234286110346408 3.794315498783064 M3.452605045237504 -0.2566722740902306 C2.191269794820143 1.6518373205346977, 0.8035406046048874 2.8365567273210863, 0.0710402368920332 4.02100096551625 M9.197308703520495 -0.3233537798788402 C5.2831620202041565 1.8905750416776288, 4.7536256601087 5.978963135966048, -0.6169358357164773 8.754916960578207 M8.882584770618148 -0.19102340710344123 C7.090398365789746 3.2144067341444753, 4.11851284928993 5.982442300951485, 0.7568331161630787 9.881487334300457 M9.328899689880624 5.670594507760201 C8.226658594845922 6.594378373378698, 7.923221252373785 7.826127994787492, 5.877208023988182 10.11389574663326 M9.177233846855787 5.645015535787098 C8.802623733829854 6.51906597004576, 7.517409942818583 7.665414457241654, 5.678295015767029 9.71885186095963" style="stroke: rgb(0, 0, 0); stroke-width: 0.5px; fill: none;"></path></pattern><style id="svg-pan-zoom-controls-styles" type="text/css">.svg-pan-zoom-control { cursor: pointer; fill: black; fill-opacity: 0.333; } .svg-pan-zoom-control:hover { fill-opacity: 0.8; } .svg-pan-zoom-control-background { fill: white; fill-opacity: 0.5; } .svg-pan-zoom-control-background { fill-opacity: 0.8; }</style></defs><g id="viewport-20200307134820763" class="svg-pan-zoom_viewport" transform="matrix(2.3604650497436523,0,0,2.3604650497436523,0.00001430511474609375,198.59303283691406)" style="transform: matrix(2.36047, 0, 0, 2.36047, 0.0000143051, 198.593);">
<g id="graph0" class="graph" transform="scale(0.5 0.5) rotate(0) translate(4 198)">
<title>G</title>
<!-- root -->
<g id="node1" class="node">
<title>root</title>
<g><path d="M131.51148994639865 -180.6041063253721 C127.77899894399275 -172.68263737846692, 120.93912001995969 -166.62727348945853, 110.52837157337099 -155.20283112301905 M132.29836367979803 -181.10335684348246 C128.44866346164142 -174.11280065840705, 122.6891766545261 -167.88227249930475, 112.07972703781894 -155.142429951413 M141.56813837987892 -184.9979760207299 C135.07660440411385 -176.19675342517837, 125.42421888970445 -167.9953094665307, 114.21149681202948 -148.8966766453976 M141.20964133405218 -184.8249641722548 C132.27403313282906 -172.50675233180456, 120.50051365782518 -159.6661705186374, 112.78917230085014 -150.09839250557772 M147.90753779680713 -185.4210303017437 C134.16877702718054 -173.23113089360152, 120.63479437175033 -156.0239245593518, 113.02094092139149 -144.35691596396833 M150.5138096899087 -187.11125275513857 C139.55322473984657 -174.27077352921592, 128.20924815310738 -161.47580917503757, 114.28287151765478 -145.78450975281805 M157.76909468047637 -189.18360438038383 C144.69365761784667 -177.25244101264695, 134.04670304932748 -164.61390602965963, 114.32000048909848 -143.5158832806993 M156.1020495043235 -188.6578684476151 C143.68553286882928 -173.6646705039489, 130.03487794757498 -156.21212368697422, 115.91508599271255 -141.6356325944218 M162.69000606932914 -191.17497218134613 C150.48301775225175 -177.34257535640418, 141.52944289061833 -164.5767304681397, 120.38012240793962 -139.15934948643448 M164.64121120493232 -191.49964268557216 C146.21293691316453 -170.2316901258475, 129.08661403104446 -150.35574407070553, 119.44222967216199 -139.60370085612544 M168.34315347348908 -191.04438009384288 C151.90983455990323 -173.60635377880493, 138.7240288113788 -152.65754739193923, 120.18888545700132 -137.72995643326695 M169.47822832937143 -192.07653169281852 C153.8834658286946 -173.9236479467449, 138.19263063123768 -155.9152071783609, 122.41415812874762 -135.61439692507383 M178.14380073017568 -194.91448247577196 C165.0401663652174 -181.97854031106445, 155.38404173278732 -169.5351624356959, 124.08523322325576 -133.31545791082164 M175.75576634812515 -193.76057069533925 C161.51340820788997 -175.36483535823422, 145.18460830426602 -157.3910610772876, 125.27191666365418 -134.97314106837928 M181.62131731978022 -195.6780517828814 C163.31158349387994 -172.79220970612494, 144.47878627550074 -149.64830306996305, 126.69175636575056 -130.02628452574103 M182.90448869207623 -193.25202832608966 C167.04991855834615 -176.49859355883873, 150.1808912464758 -157.60728139813082, 128.27868230257818 -131.8351747642322 M189.41158671084847 -193.3044613668734 C165.19622140452404 -170.30512386497014, 144.64754265108024 -141.24636108896274, 130.52062888158133 -129.7004646775747 M188.71441826864142 -195.41727699394607 C169.46115065767216 -172.79560924259445, 152.0144723877609 -153.24649578634939, 130.9865694447789 -129.732370504653 M196.0875012692474 -194.57073505794804 C176.53414875301277 -173.78149889532813, 157.830245368311 -150.9134064285701, 134.6797651658407 -126.13388301038073 M194.24774507736507 -195.84961324989786 C175.08649988560953 -175.20101405183541, 157.36605690914064 -153.15288038425746, 135.61473668660133 -127.29490787819938 M201.5744985148232 -195.03143951146427 C176.91465530473337 -169.94109015406755, 149.48674264465464 -141.88999946005626, 139.0196234417838 -126.53668987128937 M199.81648290115257 -195.79680164730075 C184.13649776142324 -177.1172015568523, 168.73986973214164 -160.01819895593837, 138.37271133040434 -125.79516586678074 M203.28680538805182 -194.00171340465542 C191.6775516342059 -179.8177171111849, 180.19653445281688 -164.5520880207046, 142.84780941784183 -126.06409462285491 M204.30347950782823 -195.81118448196997 C192.05823984796692 -180.11141385142267, 176.8484524041776 -164.63754292027306, 142.37719578776176 -124.27328387260556 M209.12911452760395 -195.5479493576275 C198.87532995159654 -178.4853820794383, 184.03803258983467 -164.72083594460256, 145.9212386419561 -123.96843678295814 M210.7984004020881 -196.29942711104147 C190.8908676760688 -173.31036131023825, 170.91339959751622 -150.06604570348915, 147.91949114278836 -122.75504082211935 M215.9330975545635 -197.33571187142 C200.60270678726468 -178.94858796123248, 187.34781424004262 -162.42682370676252, 151.18576840200956 -123.32233249719597 M216.69895508514762 -195.17295286862358 C198.68294515112956 -178.48208071936926, 184.04497466457602 -159.28007418040423, 150.92748643865818 -121.17961074466767 M219.91209363614607 -195.2283506498429 C200.53438213576823 -172.03606998106753, 176.89980485796724 -147.86562999838208, 154.73189444200685 -118.77011352971157 M221.51398196986312 -195.32358301293374 C200.5444947278604 -171.2026625375249, 178.92259617124103 -148.27463626860356, 154.75487083713 -119.72200138718513 M227.52832648463453 -195.2511387116504 C201.80114476494174 -170.91941035616642, 181.41899808883676 -142.77860988230023, 159.79958566557815 -118.92235272776571 M225.85664323465028 -195.63618146080395 C209.96690878457022 -176.10677282524944, 193.2406251414395 -159.72419017777514, 160.48363844263721 -119.63115098617946 M230.43758977537902 -195.8556779192314 C212.86194109492854 -178.22882679171624, 197.46853278220593 -158.67730692493024, 165.2150956137242 -116.0304557387835 M231.55895004728154 -194.16879411421263 C209.2644206735164 -171.251688942475, 188.4181917847314 -144.73338170455918, 163.59999897132596 -118.73537650593165 M235.83721768127944 -194.4282625940905 C213.59322433773215 -165.56872734597135, 188.4830275749236 -140.90213827011064, 166.68430349548478 -117.46673957579863 M234.89926410189312 -195.5624712793111 C211.44796126622975 -164.4773161926362, 185.12277074598506 -136.17557527329382, 169.18999569091056 -118.01901924415404 M242.38231897360234 -192.13477125845364 C222.5814575948588 -172.23203908841566, 203.12898298038783 -150.5878358539736, 172.166625091471 -116.70076718526546 M241.53101205134513 -194.2557561646391 C221.21156177075702 -171.96132915385084, 201.7652505651465 -149.0658062538091, 172.52717872816282 -116.00440739284753 M246.82927032075781 -192.53971267792383 C229.25926915868186 -173.52895615498323, 210.03345647291266 -154.07532200182808, 177.22981619575216 -115.25430287916572 M245.55046570632703 -193.61447690483698 C222.5707014695428 -166.13635784765685, 199.36490645866147 -139.82093073141968, 176.85335376025287 -115.20183089595461 M249.38977197924171 -191.26261980538155 C225.700823439191 -167.12882978384667, 203.59370711584265 -141.4558057979951, 183.62423218589626 -115.01538204283432 M249.37514117464823 -193.3701595736746 C225.38293690133747 -164.18117819964183, 202.7705425584789 -136.63177853076226, 183.21920066688787 -115.22166259717574 M256.3132275224828 -190.37400555036757 C239.1307090011775 -175.63099884199903, 227.70381419271703 -157.17386978628508, 185.42810763201516 -116.14974430413127 M253.81701925228302 -191.8051268157422 C229.52914032927922 -162.0741455247614, 204.54235472863184 -133.33015485336134, 187.86021817819625 -113.75319081835165 M257.08784216210927 -191.70395544212207 C244.7206290490769 -174.46688171427752, 226.49621432455112 -154.5898729277481, 193.4078616905925 -115.3237547696431 M259.6218564466213 -190.95568620821828 C241.07095275170576 -168.41149785810578, 220.40783157759287 -146.57431813959897, 191.32437546023888 -113.5082749223232 M262.1915134363495 -188.0435559849886 C247.00928621656382 -172.94132816318634, 233.0681060706738 -153.90382148382622, 195.4285484845378 -111.7408869450264 M263.53881833551833 -189.8399148063797 C244.33356039851444 -168.05790757227976, 224.71936070236228 -145.4948825439422, 197.36640348748824 -113.36534135728013 M268.40100808996766 -189.30269679326324 C250.42277016022044 -168.3196473535522, 229.82620695024522 -147.47631344150747, 202.64851346501493 -112.39272532605625 M266.7445349972175 -188.62295470449706 C245.45058747093708 -163.81447253591585, 223.90428723419285 -137.555075107869, 202.35597594779424 -113.77068258892525 M270.65131989702616 -188.47251055639228 C255.90403419336306 -172.3769162599526, 241.17350881911847 -152.328965134635, 208.81870985791275 -111.18226844808514 M272.34493944120095 -188.18944329481837 C256.7803817179896 -169.50685803626683, 241.14425085435653 -150.82183306759762, 208.38823184194095 -113.5041915165821 M273.94442798503167 -186.41365813611085 C254.8893074584425 -161.42801704516907, 234.61480029582077 -136.01110486918714, 213.09805667867334 -113.00693212890909 M276.1758358025468 -185.16249614022297 C261.9479470345264 -169.68150124082686, 248.1650429124809 -154.0136943698958, 211.73964041430068 -112.27761713468291 M280.70249648167265 -185.52090108222512 C256.6449263608472 -159.24385779237483, 233.75915828764988 -130.87225177343652, 217.9757746608512 -115.07217726574311 M279.6108513556673 -184.9485378445833 C268.27221628804233 -170.00519353495255, 254.75565629376632 -156.34252029061787, 218.05985857361705 -113.79042166078665 M282.3401156346307 -184.53101929186496 C269.94421424529486 -167.53087212737077, 257.28058545090516 -149.40104743021666, 225.1889692499573 -114.22033597626876 M283.6283507831975 -183.1862268805378 C270.224758766315 -166.47748862616595, 254.51939129524672 -149.8919581398781, 224.48707061551258 -112.92697039395408 M289.29013808646835 -180.5000150909154 C276.4542529912372 -166.5636138858551, 260.9940604128841 -152.88658903346806, 229.66156715575042 -112.8772869986835 M287.77936676991635 -181.68914513557013 C276.20157506980155 -167.8917901952419, 262.8414906045016 -154.69310483397618, 229.4458384964078 -114.60208759200971 M291.4569398046753 -180.22618216457184 C271.13728739686667 -155.1523419218942, 246.31056188773883 -127.55657959876855, 235.48605640044138 -115.22449717072739 M290.76580910140217 -178.42576204956947 C277.7732527849806 -161.98161588224215, 262.77568594217854 -145.5097809129737, 234.79284161720912 -114.36851607055858 M296.41062698568635 -176.1738751096038 C273.3926755448231 -153.6714637305945, 254.05213432884858 -129.6828164977706, 241.06227022217328 -114.24319405581498 M293.7140206386058 -176.32274482560703 C279.424826596305 -158.45568240141515, 265.555610898572 -141.70853742616148, 241.8608484937152 -115.24824322984144 M298.99775965042795 -173.00440144863379 C286.69275654814055 -162.352361247561, 273.1003640700955 -147.37304935655766, 246.4731998253846 -117.69866896572255 M296.95857049319767 -174.67486052891925 C285.2289269435847 -159.62605791238445, 270.6778941416123 -145.16827959403568, 246.79270550587836 -116.76954472283391 M299.03608159314274 -173.39177508316814 C292.504273452961 -160.3079458862651, 281.81290860500485 -148.9003599661515, 252.56274155961555 -115.33207929976334 M300.30109548964225 -171.6640887880867 C281.83377328337167 -149.99143456243826, 262.744607183529 -128.42256119788112, 252.8074277987586 -117.60961540138528 M304.79952363774373 -168.22862119974366 C292.5777574208128 -157.5005514188535, 279.9578440633269 -143.471682995963, 259.0886953924985 -117.5044779395526 M302.93363162479034 -169.2995682141435 C290.512043575718 -155.33208204058337, 277.97938703787224 -140.22817030835716, 260.08213998876056 -118.30499718198608 M304.9548684931818 -166.29618440037177 C294.54581080166986 -153.34233980275536, 285.26911053223824 -140.39164369451652, 267.5066208557589 -118.75868358191134 M307.1120487121605 -166.5021918905141 C294.1067913952165 -152.15398263283376, 282.58975580475607 -138.9975448993956, 267.35304715797986 -120.7626457653801 M308.2616650188995 -162.48999593747808 C300.03279494609706 -152.69961655966893, 292.8541927674557 -143.79285298977047, 273.25856335177787 -121.03187981829797 M307.7445542870203 -162.0229632698474 C297.897483453453 -150.12667496922714, 285.4507385322851 -136.6158542036359, 273.912661659639 -122.37051298243205 M309.7126027003935 -156.78182361895247 C303.84455396236535 -150.21831726551918, 296.19031381636296 -146.17368614870486, 281.7103096138502 -126.07031409375021 M309.6874312219389 -156.66225461524957 C304.2008321978251 -149.68226591702424, 296.6362910216024 -142.3593845607725, 282.3678715171538 -125.67872081065252 M311.3073845916819 -152.60577090468223 C301.70730522414226 -145.71359980281235, 295.4843131952873 -136.80284938880277, 290.25052926327595 -129.99158148848605 M310.73799487188376 -151.9690132998726 C305.4884910149883 -147.69798634774767, 301.1368587903624 -141.8899155249912, 291.7582352319211 -130.36681429810102" style="stroke: none; stroke-width: 0.5px; fill: none;"></path><path d="M186.4771724092873 -190.7004534832397 C206.0291234366209 -193.061043708579, 235.05159272602106 -191.9710579486341, 254.33479363016164 -188.5811244421831 C273.6179945343022 -185.1911909357321, 293.25074023530277 -177.5757578160351, 302.17637783413073 -170.36085244453372 C311.1020154329587 -163.14594707303235, 313.4018894617759 -152.98612338139037, 307.88861922312947 -145.29169221317483 C302.375348984483 -137.59726104495928, 286.67747635522596 -128.91313678255156, 269.09675640225225 -124.19426543524042 C251.51603644927854 -119.47539408792929, 224.22624987598672 -116.52287521246802, 202.4042995052872 -116.97846412930801 C180.5823491345877 -117.434053046148, 153.59151300694583 -121.23616813702138, 138.16505417805513 -126.92779893628035 C122.73859534916444 -132.6194297355393, 111.61268585676062 -142.98873917192552, 109.84554653194306 -151.12824892486182 C108.0784072071255 -159.26775867779813, 109.4296017017749 -168.98256459056668, 127.56221822914976 -175.7648574538982 C145.6948347565246 -182.54715031722972, 198.26978368249874 -189.5385669771403, 218.64124569619221 -191.82200610485097 C239.0127077098857 -194.10544523256164, 249.93698852207544 -189.9978617274696, 249.79099031131065 -189.46549222016222 M208.33605984929625 -193.55649939298425 C228.87398244413035 -193.69084054194983, 256.88879058257106 -188.0993455248393, 273.7632524079212 -182.71071320092162 C290.6377142332713 -177.32208087700394, 305.0871175024649 -169.24560410626447, 309.5828308013971 -161.22470544947817 C314.07854410032934 -153.20380679269186, 311.24428051534437 -141.50553265158769, 300.73753220151457 -134.58532126020378 C290.23078388768477 -127.66510986881988, 266.8696265694387 -122.51019366776323, 246.54234091841812 -119.7034371011748 C226.2150552673975 -116.89668053458637, 199.39308011759155 -115.01161647728699, 178.7738182953909 -117.74478186067317 C158.15455647319024 -120.47794724405935, 134.24962502699492 -128.82129329728008, 122.82676998521414 -136.10242940149192 C111.40391494343336 -143.38356550570376, 106.52624091044787 -153.53417986349817, 110.23668804470618 -161.4315984859442 C113.9471351789645 -169.32901710839022, 128.66295590065351 -178.40819663661236, 145.08945279076403 -183.48694113616813 C161.51594968087454 -188.5656856357239, 198.21967154938045 -190.31562364150926, 208.79566938536928 -191.9040654832788 C219.3716672213581 -193.49250732504834, 208.306559725018 -193.66412176267977, 208.54543980669692 -193.0175921867853" style="stroke: rgb(0, 0, 0); stroke-width: 1px; fill: none;"></path></g>
<text text-anchor="middle" x="211" y="-150.3" font-family="The Tinos" font-size="14.00" fill="#000000">Статистические гипотезы</text>
</g>
</g>
</g><g id="svg-pan-zoom-controls" transform="translate(945 308) scale(0.75)" class="svg-pan-zoom-control"><g id="svg-pan-zoom-zoom-in" transform="translate(30.5 5) scale(0.015)" class="svg-pan-zoom-control"><rect x="0" y="0" width="1500" height="1400" class="svg-pan-zoom-control-background"></rect><path d="M1280 576v128q0 26 -19 45t-45 19h-320v320q0 26 -19 45t-45 19h-128q-26 0 -45 -19t-19 -45v-320h-320q-26 0 -45 -19t-19 -45v-128q0 -26 19 -45t45 -19h320v-320q0 -26 19 -45t45 -19h128q26 0 45 19t19 45v320h320q26 0 45 19t19 45zM1536 1120v-960 q0 -119 -84.5 -203.5t-203.5 -84.5h-960q-119 0 -203.5 84.5t-84.5 203.5v960q0 119 84.5 203.5t203.5 84.5h960q119 0 203.5 -84.5t84.5 -203.5z" class="svg-pan-zoom-control-element"></path></g><g id="svg-pan-zoom-reset-pan-zoom" transform="translate(5 35) scale(0.4)" class="svg-pan-zoom-control"><rect x="2" y="2" width="182" height="58" class="svg-pan-zoom-control-background"></rect><path d="M33.051,20.632c-0.742-0.406-1.854-0.609-3.338-0.609h-7.969v9.281h7.769c1.543,0,2.701-0.188,3.473-0.562c1.365-0.656,2.048-1.953,2.048-3.891C35.032,22.757,34.372,21.351,33.051,20.632z" class="svg-pan-zoom-control-element"></path><path d="M170.231,0.5H15.847C7.102,0.5,0.5,5.708,0.5,11.84v38.861C0.5,56.833,7.102,61.5,15.847,61.5h154.384c8.745,0,15.269-4.667,15.269-10.798V11.84C185.5,5.708,178.976,0.5,170.231,0.5z M42.837,48.569h-7.969c-0.219-0.766-0.375-1.383-0.469-1.852c-0.188-0.969-0.289-1.961-0.305-2.977l-0.047-3.211c-0.03-2.203-0.41-3.672-1.142-4.406c-0.732-0.734-2.103-1.102-4.113-1.102h-7.05v13.547h-7.055V14.022h16.524c2.361,0.047,4.178,0.344,5.45,0.891c1.272,0.547,2.351,1.352,3.234,2.414c0.731,0.875,1.31,1.844,1.737,2.906s0.64,2.273,0.64,3.633c0,1.641-0.414,3.254-1.242,4.84s-2.195,2.707-4.102,3.363c1.594,0.641,2.723,1.551,3.387,2.73s0.996,2.98,0.996,5.402v2.32c0,1.578,0.063,2.648,0.19,3.211c0.19,0.891,0.635,1.547,1.333,1.969V48.569z M75.579,48.569h-26.18V14.022h25.336v6.117H56.454v7.336h16.781v6H56.454v8.883h19.125V48.569z M104.497,46.331c-2.44,2.086-5.887,3.129-10.34,3.129c-4.548,0-8.125-1.027-10.731-3.082s-3.909-4.879-3.909-8.473h6.891c0.224,1.578,0.662,2.758,1.316,3.539c1.196,1.422,3.246,2.133,6.15,2.133c1.739,0,3.151-0.188,4.236-0.562c2.058-0.719,3.087-2.055,3.087-4.008c0-1.141-0.504-2.023-1.512-2.648c-1.008-0.609-2.607-1.148-4.796-1.617l-3.74-0.82c-3.676-0.812-6.201-1.695-7.576-2.648c-2.328-1.594-3.492-4.086-3.492-7.477c0-3.094,1.139-5.664,3.417-7.711s5.623-3.07,10.036-3.07c3.685,0,6.829,0.965,9.431,2.895c2.602,1.93,3.966,4.73,4.093,8.402h-6.938c-0.128-2.078-1.057-3.555-2.787-4.43c-1.154-0.578-2.587-0.867-4.301-0.867c-1.907,0-3.428,0.375-4.565,1.125c-1.138,0.75-1.706,1.797-1.706,3.141c0,1.234,0.561,2.156,1.682,2.766c0.721,0.406,2.25,0.883,4.589,1.43l6.063,1.43c2.657,0.625,4.648,1.461,5.975,2.508c2.059,1.625,3.089,3.977,3.089,7.055C108.157,41.624,106.937,44.245,104.497,46.331z M139.61,48.569h-26.18V14.022h25.336v6.117h-18.281v7.336h16.781v6h-16.781v8.883h19.125V48.569z M170.337,20.14h-10.336v28.43h-7.266V20.14h-10.383v-6.117h27.984V20.14z" class="svg-pan-zoom-control-element"></path></g><g id="svg-pan-zoom-zoom-out" transform="translate(30.5 70) scale(0.015)" class="svg-pan-zoom-control"><rect x="0" y="0" width="1500" height="1400" class="svg-pan-zoom-control-background"></rect><path d="M1280 576v128q0 26 -19 45t-45 19h-896q-26 0 -45 -19t-19 -45v-128q0 -26 19 -45t45 -19h896q26 0 45 19t19 45zM1536 1120v-960q0 -119 -84.5 -203.5t-203.5 -84.5h-960q-119 0 -203.5 84.5t-84.5 203.5v960q0 119 84.5 203.5t203.5 84.5h960q119 0 203.5 -84.5 t84.5 -203.5z" class="svg-pan-zoom-control-element"></path></g></g></svg>