<?xml version="1.0" encoding="UTF-8"?>
<svg width="574pt" height="502pt" xmlns="http://www.w3.org/2000/svg" xmlns:xlink="http://www.w3.org/1999/xlink" id="svg_output" xmlns:ev="http://www.w3.org/2001/xml-events" style="overflow: hidden; "><defs><pattern id="rough-2151479797228078" x="0" y="0" width="1" height="1" viewBox="0 0 43 34" patternUnits="objectBoundingBox"><path d="M3.996969354124743 -0.04032380688652948 C3.22619451285205 0.9879512283309702, 1.5328080054436206 2.0692834936150155, -0.2851223143011351 4.558891878627607 M3.7905557870479782 0.11203893938208881 C2.3157916904041156 1.5519103430841374, 1.1099167240843117 2.5318652112820668, 0.044401746060509506 3.982877291774807 M9.742973229324097 -0.03622271964971557 C8.010062963683472 1.6674444144546015, 5.433722948931752 3.2729428193060754, -0.8961737209353028 10.893250583497315 M8.90095880271149 0.11787688729008261 C5.669114035542564 4.653206658016215, 1.7798695455287548 8.04904176430705, 0.4877186961711233 10.790341366981755 M13.94279960265116 1.1210403938515685 C9.374495882990779 7.97116554784928, 4.923721207482824 10.995841884263948, 1.9267557288753734 17.237552378212836 M14.17371586536499 0.6237182639926928 C10.636673633984227 4.350657846800495, 5.233849271925606 10.90806784406551, 0.33787067373071933 16.854943236312916 M19.996045867831068 -0.07873461452689412 C15.834366735863615 6.6432102021461095, 9.902345166957758 12.34327777964057, -1.79263753108421 21.807195683551996 M18.592407276380094 -0.7424818273696121 C12.678946162057137 7.796574625432695, 6.261028154512342 14.011465822059991, -0.6435097479204293 23.235587687375546 M24.04769903021768 -1.2438255240395382 C20.86044169847413 6.703244843693111, 12.757924646120856 15.078851907768307, -1.3234758478381465 26.935748483809537 M24.956118333424318 0.28182182452344384 C16.237563694059705 10.248805360495068, 6.50724593049113 22.84154327871089, 0.6914798908964346 28.997792963383276 M28.5304450894837 1.9755299919169924 C18.70800977428764 14.142021999732517, 8.07755270903651 25.665595683236486, 2.235908237113933 32.391303236346744 M30.446797608951073 -0.025052669510569725 C20.28742258477229 10.74440054595904, 12.056016171011601 21.062324762040983, -0.09394857729523287 33.98752037378646 M37.42744621212261 1.3601541594912203 C22.839600614647832 13.522310793209193, 13.579219441862225 25.7100989573325, 4.282131412863603 35.11585042428188 M34.85349262904193 0.297086727839889 C26.057885481519538 12.010171577169046, 15.196901787903862 21.939994395947245, 6.355860202681592 33.73818323847385 M39.80321497296692 0.15732280735808946 C29.848628459272057 10.873561269821336, 22.444129191735907 20.005102639286193, 9.485646156214367 35.38697689499381 M41.286137392387744 -0.4125750506693213 C31.5883631419288 9.358494268401998, 22.644481070302763 20.007155333981675, 11.938074078996724 33.507009051667474 M42.62463206982602 2.107564348268727 C36.85534866718114 8.99188388379949, 32.98637803133067 17.094214768126967, 15.289078711756607 32.517543441181616 M43.51568554970369 3.4073755082522714 C32.74950710319539 14.170874756296566, 23.916648046282575 25.14582840270171, 15.997569744649962 33.843092744525435 M42.113520258406105 8.881360528909635 C35.510186653054355 18.62268902852497, 29.484847245241 25.143638583806318, 20.916956162457872 33.68962718490314 M44.036391306783166 9.163537560949521 C34.78686840460139 18.155641550102164, 26.63088437221466 27.74187470115942, 21.45963215465835 33.74125984838306 M44.45726713972116 16.23184390062795 C36.32548483292523 21.13705895922332, 31.594532206907193 27.42879866222178, 28.266215410041113 35.62480048260569 M43.15744577370814 14.89293880891666 C36.18744282599018 23.23836015532676, 30.354834169623377 30.158024177545162, 27.726581734255088 34.0182454271565 M42.07831895324736 20.360134546944362 C40.29067778185852 26.422317452463492, 36.57152823316581 30.010695416869268, 31.072364123154415 32.43634117579161 M43.7313760809016 21.826819118889166 C39.967374089435346 24.915914757577468, 37.06626492733189 29.121463443689727, 32.12457293939199 34.8262126306349 M42.6103004866707 27.044018496818047 C42.07120909602544 29.999772160674652, 39.895333826576056 30.768284277472493, 37.869551986961795 33.22766253833759 M42.79953012025624 27.576980190311556 C42.11016125759503 28.779736089859767, 41.07409740000084 30.488427916882834, 37.89373427771144 33.89319736013954 M43.19032765404395 33.80689593306135 C43.0987127979418 33.88701745208112, 43.026089646101624 33.97329644129882, 43.00020059766659 34.01149970208078 M43.19192475363841 33.80883162345205 C43.13729907929687 33.889764889154165, 43.07679471821362 33.94622263222044, 43.00941360233196 34.003278021606256" style="stroke: none; stroke-width: 0.5px; fill: none;"></path></pattern><pattern id="rough-1884124813677954" x="0" y="0" width="1" height="1" viewBox="0 0 10 9" patternUnits="objectBoundingBox"><path d="M4.185288402170356 -0.37747303477344474 C2.8981445265387142 1.037857200869043, 1.8406569626052123 2.625657401930055, -0.5387075254635153 5.08440794286618 M4.24263485697135 -0.2501654039230828 C2.718218361790383 1.0817735484520667, 1.7563155232765952 2.8001087864070624, -0.06189705804478349 4.447437225004012 M8.762317237624138 0.6913107347969591 C7.274256855701211 2.621539073268777, 4.509003525654041 5.565012074800769, 1.5520774980754828 9.300451202915285 M9.685368999389992 -0.015025540840171714 C7.32189927572791 1.9895984130819955, 5.4052413972946525 4.807892322567868, 1.358891489776826 8.721470365707352 M9.62123532726018 5.256256951472461 C8.371597590830216 6.191235668870307, 7.471136113209056 7.760071467779516, 6.898632369291203 9.005077649512671 M9.824388656592143 5.1336343173320795 C9.164758084630188 6.146001264998105, 8.395301346672804 6.736746375419369, 6.659596296129841 8.97345011513001" style="stroke: rgb(0, 0, 0); stroke-width: 0.5px; fill: none;"></path></pattern><pattern id="rough-7603092923738137" x="0" y="0" width="1" height="1" viewBox="0 0 43 34" patternUnits="objectBoundingBox"><path d="M4.237046323687016 0.31342746880271566 C2.7811793608439235 1.364104139709713, 1.0529148538185646 2.4956087632288106, -0.5559464585856608 3.894602153538324 M3.5114029204178188 -0.23523805296164665 C3.1695257086026842 0.9549515302097515, 1.926587986707619 2.053589318683704, 0.018474337149552322 4.351160286193771 M7.835974993749888 -0.4500564185303434 C7.270439731861769 1.6491973352336746, 4.650544603771971 3.674519986359489, 0.9907225938578188 9.166377942349952 M8.46293209192878 -0.6719685032454891 C6.86800940759718 2.274018234164907, 4.090577249572404 5.252316286752132, -0.6736711013780345 10.01466254424731 M14.97860822274777 -1.7282769591425384 C10.249888119856458 4.400321097328125, 4.840037017883742 10.434911092324656, 0.5510634589483661 15.5874452503002 M15.102056971158023 -0.6641356294924259 C8.57729209300429 6.683237773765226, 2.9856302702285626 11.246674494483036, -0.33886958667797074 16.263106949574414 M20.390839141407085 -1.2945373819765749 C13.63643349831237 5.405636038067209, 11.341846204593127 12.698005924203075, 0.6628270216594165 21.37430736233546 M18.827112114255478 -0.39052807634553033 C14.570636981607887 6.271806340386251, 8.119098002723497 14.74207681617594, 0.6400209803639991 22.60849079138128 M23.47503482914503 0.4023537125310708 C18.907615437424386 9.270960175942632, 10.209191940216177 14.857124483879414, -1.4571684646370389 30.592276837550685 M25.12869832717146 0.5357413337469805 C17.520830040698524 10.102781827467693, 8.547136573105455 18.51140187263592, 0.2944282663448945 28.71639476103176 M28.945216420846354 -0.7606488821362354 C19.329950029018292 12.617114728089131, 6.999735795695092 25.275632791653504, 2.4655571065518584 35.03891229499801 M29.194764271405727 -0.9893453195805662 C23.448604620967885 7.748636523075602, 16.730508627635547 15.626304294535592, 1.0073215473435295 34.336620499665656 M34.54851923601573 1.6707795135184087 C24.27264152244002 11.435305091897186, 14.90716201096853 26.195405503894946, 4.392976002940541 34.31988353975247 M34.76887967967727 -0.645884218519643 C23.50963784830285 12.876062917320787, 12.92758942715598 24.967836401888444, 5.47385707413357 33.32521990123766 M39.860267693661015 1.7584402376527932 C31.431862540159123 9.385304091055817, 23.80459645537965 21.454753909056716, 11.355928344916123 34.59556736528871 M41.031218155532834 0.7639704204890649 C29.419553022149056 12.78666356461479, 18.048897191972166 25.745052924253677, 11.097397160123412 33.783705144038954 M42.07853167234917 1.9259258622741555 C37.92547518559479 11.494539847523443, 29.525360130209496 18.55829722300389, 15.037612384457852 34.17632389965918 M43.97905754276247 3.298174606743671 C37.32523256037697 11.190536891379406, 30.004522697264996 17.100742747979517, 15.844359970325868 33.879479878401234 M44.9612368661744 7.64006955012397 C37.13138811861729 16.640916576771673, 33.103571206506025 25.09683987038457, 21.794367721525408 32.61992075200112 M43.879083714426535 9.398549756738426 C37.187747344587926 15.14858460007708, 31.316780451907867 21.237258044081713, 22.24011892884534 34.029982862800324 M44.540003630613455 15.3599801698744 C37.83556121435374 20.3066201253888, 34.00093487777584 25.880951441684324, 27.603904772722142 32.243906220877534 M43.42884240167951 15.430982719016267 C39.51921877891371 20.43524091413249, 36.07835459669225 24.970619471117246, 26.349951097651036 34.68056341622484 M44.36631665699552 20.725395641707575 C41.4611292660271 26.410186307590568, 36.439172919079574 28.690795674545143, 31.037503964983355 34.12418068110267 M43.02667732367937 21.176638203662275 C39.91836692727036 25.738410752397478, 34.765760515644814 31.74819431974944, 31.69073830339194 34.26850853966989 M43.62290677153491 28.183571887612892 C41.93554455135816 29.92860973592175, 39.09493955010332 31.70569680964698, 37.57757371702367 34.29285378297212 M42.82203134688591 27.411108087832442 C41.427262876440565 29.773657506997605, 38.52797774536417 32.57931773387227, 38.025181756060164 34.389892732209226 M43.1873792477289 33.8325286454727 C43.13968560328421 33.84714438430066, 43.07655776449876 33.890579270193186, 43.01393484792339 33.99825534601901 M43.19587878514537 33.80314178192457 C43.11580998043341 33.885894705973044, 43.069768237360236 33.95093812318263, 43.01970868484263 34.026023657768334" style="stroke: none; stroke-width: 0.5px; fill: none;"></path></pattern><pattern id="rough-7923230678185672" x="0" y="0" width="1" height="1" viewBox="0 0 10 9" patternUnits="objectBoundingBox"><path d="M3.384089820830713 -0.4443584879305499 C3.5417531724158833 0.850077585072899, 1.9511783628977013 2.5972777137199365, 0.5872091631305152 4.177762026228355 M3.694274364308975 0.2979315113194887 C2.8831638567345204 1.7953016796847678, 1.1755831521159328 3.4733315511602854, 0.29556441582579274 4.619307587197799 M9.376166670756357 -1.0267601735427234 C7.020905879560165 2.8521481599384204, 2.907525306900445 7.5832363253016, 1.2301652105313603 8.066056867047081 M9.439038006167614 0.18215179814632299 C7.19946069867615 2.2358558441771734, 4.662425389227194 4.964141822920747, 1.9508743549021896 9.21149781898349 M9.756599171230372 5.190406060162893 C9.467748963752815 6.240354138746462, 7.850076051888866 7.353422777704092, 6.37427056615888 8.604248251886276 M10.103788423305277 5.397661018065858 C9.041728743355062 6.233451889743519, 8.426669114897045 6.997814237898072, 6.75693118940738 9.098093553531559" style="stroke: rgb(0, 0, 0); stroke-width: 0.5px; fill: none;"></path></pattern><style id="svg-pan-zoom-controls-styles" type="text/css">.svg-pan-zoom-control { cursor: pointer; fill: black; fill-opacity: 0.333; } .svg-pan-zoom-control:hover { fill-opacity: 0.8; } .svg-pan-zoom-control-background { fill: white; fill-opacity: 0.5; } .svg-pan-zoom-control-background { fill-opacity: 0.8; }</style></defs><g id="viewport-20200307135300342" class="svg-pan-zoom_viewport" transform="matrix(1.7682925462722778,0,0,1.7682925462722778,0.0000050067901611328125,258.4024353027344)" style="transform: matrix(1.76829, 0, 0, 1.76829, 0.00000500679, 258.402);">
<g id="graph0" class="graph" transform="scale(0.7 0.7) rotate(0) translate(4 198)">
<title>G</title>
<!-- p -->
<g id="node1" class="node">
<title>p</title>
<g><path d="M159.4886001321423 -174.7142925044635 C154.57142553218208 -168.50104446663863, 149.02035082366635 -158.744399060049, 141.11652042992768 -151.28002393112587 M158.13100346967647 -172.3708465003118 C153.06954709870504 -164.47947052775692, 145.38358129372628 -157.70606116568874, 140.95696365961643 -152.9386064116801 M167.99816403829396 -178.08296476802525 C158.49596744490546 -167.44169224953677, 153.04553179752068 -160.63127442640987, 143.07329697069272 -147.025843624939 M168.3395248961787 -175.76460097680206 C162.06689459661519 -170.12829536107583, 154.52953516101172 -162.29600486683424, 143.85025809600526 -147.92449482300708 M173.42545201725372 -178.72164272996568 C168.14548561711428 -167.8327970271703, 157.13654907714758 -159.5412405576558, 147.534834403252 -143.59179452009894 M175.86282827302915 -180.3247110295422 C168.70450822056253 -172.32911197034363, 162.80802316325332 -164.4451057910301, 145.0180834878814 -145.8413719453696 M181.35823603675732 -181.9104769885613 C168.26396994979333 -167.42376764935617, 156.25132075896747 -150.66765476961933, 147.08071897988881 -140.68103459850482 M182.08297437047258 -181.15964979566144 C171.14979138704192 -167.68794022594096, 160.18379144740086 -155.19703843310756, 148.28854292708039 -142.53012381998587 M189.0724067000725 -182.96657640328232 C174.97050815628944 -169.99947740247282, 165.41342171611996 -155.90003409192937, 153.32749481026812 -140.76346044669967 M189.9773847846723 -183.6749705261673 C179.29642999015346 -172.4430357987112, 168.5286353717054 -159.8505924789693, 152.30150070535942 -139.76080191382462 M194.05106999267397 -184.015979324489 C183.26481395331487 -171.76069912885407, 170.61075755543268 -156.1039068855176, 154.70430102832188 -138.11440356005642 M196.32409086670796 -184.11676981397335 C179.89837761695702 -167.51407369014368, 164.1289604933402 -148.73955144518334, 154.22043255049428 -138.65593322694758 M201.1366764798132 -184.22476491121802 C185.87877972116755 -166.47040411458397, 170.3002001749692 -146.57316048122607, 159.85051261705001 -137.64575237861334 M201.87473288179783 -186.9020998412673 C192.49114903657653 -175.28664058276127, 182.7967799705459 -162.91468247825253, 159.08710000367827 -136.1351030284995 M207.88238423901086 -187.89361560804937 C192.1250742131158 -168.39900528651341, 171.7752204993905 -147.0206292990404, 163.02030143402848 -133.49614175477643 M209.28007138636366 -186.50256175500022 C195.2579159682291 -172.0919444015406, 181.50694746991059 -155.84358348708957, 163.11429831402972 -133.6303506531836 M214.85976412886222 -186.5358772304114 C198.70120241187593 -168.2358634670433, 179.1276454571774 -148.16081117071073, 168.1505990759318 -131.87558407328297 M215.09718249109122 -188.00467598354905 C205.5800914893444 -175.81492684919374, 194.56365831943202 -164.72917130752592, 165.75017826847898 -132.90429084359516 M221.06085168533525 -189.53786768791113 C205.13430850699294 -171.47161824586843, 189.40605263292605 -151.36861974624972, 171.226690168798 -131.84735081578557 M220.3120677150379 -188.73987067146567 C201.5585076507884 -169.3054909360983, 185.13373174360424 -147.44378269263512, 169.96985531515037 -131.53199907271812 M226.3395562977128 -190.88520942039548 C211.30828787696453 -174.87932420073324, 199.47670179058804 -159.79424479479914, 173.37019383863057 -128.8225773735962 M226.9430830335369 -190.0871990135091 C209.1025500962524 -169.03642819220684, 192.74238310754504 -149.71456749514616, 174.3664188041878 -129.68385329729946 M233.52825049091607 -192.0743555613722 C220.68322216842324 -175.81040732698503, 206.88715838551883 -161.64760809988547, 178.59907005529493 -130.2395139168331 M231.45462794741974 -189.81840676106668 C220.60041878623622 -175.84653712206605, 207.97636984882377 -162.27328030872172, 178.34207040019925 -128.49311952796148 M238.75819016226987 -192.07372824715094 C226.47901299107207 -179.15797721413918, 216.32620224654497 -165.88833105622922, 183.65641844969895 -125.66972432821021 M239.11673366063116 -190.70729137623806 C216.13235145738795 -165.71090462162545, 193.9127907551597 -141.46199924540772, 182.2486235981938 -127.61835726654269 M243.0322002854538 -192.89489457249542 C229.9045735212348 -176.41022655685646, 215.52740113270607 -159.07106136362086, 186.84677714394184 -124.63013206428266 M243.12276244867203 -191.75042935904813 C233.8919834832751 -178.729292493331, 221.725725171847 -163.74292934608, 187.37839791997334 -125.43342090938096 M247.97515344406264 -191.48925989890498 C232.64843506107832 -171.15392332560924, 213.7558849213806 -154.34920809489478, 192.68187092494955 -123.66251459448324 M250.11900141058976 -192.31862475490607 C229.79659120815694 -169.17762915334117, 208.7320654165639 -146.720750988963, 190.62510784540606 -124.2207958534198 M255.5144356490082 -194.10575144806475 C239.9092041266279 -171.79090657758437, 222.0841242355073 -154.18850057591456, 195.87602775066074 -122.7990491430979 M254.34763545283684 -191.8506194962718 C241.52500039678276 -175.7727489077804, 227.29779355164325 -160.30452584758805, 195.70180172285242 -124.24252856621051 M260.8411386353172 -192.92701873790477 C242.884197197206 -169.4794341791022, 224.05975870192708 -149.74975075164502, 199.17591749868956 -125.00561410831745 M261.10186907921684 -192.04307022429452 C240.83773778697758 -169.0190844520753, 220.48470005636275 -146.3118054956657, 200.12083630962007 -124.16637253751853 M267.8472580205481 -191.57138542077843 C242.47603999061758 -163.5126489528684, 218.76604863017045 -137.90423248592387, 205.7516912566376 -121.19155040574107 M266.9093572384623 -193.42943368276045 C243.29168338062897 -166.33741077507096, 221.28309367119599 -139.7537072148179, 204.9904042017586 -122.613438460401 M271.56258540824007 -192.42799851930215 C249.4654921011327 -166.82586172782317, 226.9925935906606 -139.16071374516278, 208.73059523673598 -123.30936267334482 M272.3843597690974 -193.5282887057177 C254.4526912892267 -171.61026581991888, 237.9634094522887 -152.5324538673794, 208.83152263428562 -122.11487437377002 M278.2780883463286 -191.81824139965346 C258.8946444158248 -173.35293912833777, 239.9312858916089 -151.09177661375622, 215.67288459547697 -119.91041838574002 M277.10888772336983 -192.8092625653764 C252.97570529209747 -164.97418571648228, 229.1142987063872 -137.77098315594196, 215.08493916925173 -120.29959955314008 M283.22424761316256 -192.26308791342603 C265.72472173078023 -176.36095928180376, 254.16060570606427 -157.99467872655697, 218.4122218498553 -121.84464000672077 M283.1028203520165 -193.2632905122237 C259.3742719316598 -166.54729979287166, 239.12817064926261 -141.74665793616475, 219.30780611879294 -120.6123788425081 M289.5406127795628 -194.63540097193203 C263.82598420608497 -164.21774106223904, 237.5683467042297 -132.6248291003362, 223.15196614947268 -118.51743794966524 M287.8407657659529 -193.727732315208 C266.72982954226205 -168.01880900327922, 243.662758501639 -142.11886759346493, 223.92540119868798 -120.09795526845842 M294.2780115369469 -191.6321371425314 C275.880160445645 -175.25850989403506, 259.5432689315493 -154.0832640889136, 228.00053115135887 -120.91328848997395 M293.1595786144035 -193.09856675229557 C272.11097034096395 -169.39008587668835, 252.68068549493833 -146.0335310082388, 228.96271033475784 -118.41204259735919 M299.2848541510253 -191.53794577790987 C283.81677552262084 -176.710356998314, 270.06679845479687 -164.06290672306747, 231.66814308842183 -119.27536174385585 M297.4001467902395 -192.7508874615544 C281.3459927452364 -173.78325962494114, 263.0623097217838 -153.5670150608377, 233.89561877024954 -119.13659829564611 M303.5685632213779 -192.64109977392644 C286.62942132828147 -172.13710896908714, 265.91502957846706 -150.89621744193713, 240.1095362309874 -118.22160161883757 M303.85193682322915 -193.25690995611328 C279.0284605682904 -163.376769053143, 253.7016422083445 -135.54209749053402, 237.79967102927017 -118.2458757125549 M307.07895771869335 -191.04687133056217 C290.79864534549836 -172.13552049812458, 273.3534366066051 -155.2795413213612, 241.65991936340646 -119.55510633277909 M308.1437184054874 -192.90374974317595 C285.2208328222381 -167.8690986367641, 263.1840861314699 -141.6377378408238, 243.75010546895237 -118.62831232283254 M314.4824386653763 -190.9819065397293 C288.6957090442028 -163.05970453560877, 263.8010122083049 -133.90492785683298, 247.3499518049965 -116.98130219574033 M314.0341216134547 -191.13684538340868 C289.0886655062265 -164.52342694593136, 264.93695035105566 -134.6505187306275, 249.06519397105353 -116.50858182242924 M318.20547553385603 -191.83396667584492 C299.28757845665416 -172.48349057717292, 284.59120706237934 -154.6316169682006, 251.64442041621902 -118.19651428301847 M317.46659916761683 -191.83830807363472 C294.31825623794066 -164.37312496988304, 269.58545617517683 -135.6582898849316, 252.73694891733385 -116.05029710433745 M322.01401865707766 -191.97721375424828 C304.3785579981859 -169.90775554192444, 284.7664676246287 -150.237629729067, 259.8823019881415 -117.97713809273881 M324.18522087603094 -191.0503388439815 C309.7977457960591 -175.1663037614444, 297.0511056903277 -160.16057229890615, 259.28142831866614 -116.25744117709907 M327.7290672204435 -189.20959945607189 C313.46898444254043 -173.40233442686988, 297.0753168424396 -156.1356998037079, 261.69628122292596 -115.84360811607044 M328.7012417065705 -191.31085327242445 C308.6970658879774 -167.94767655343298, 290.5515330114911 -146.451037216771, 264.0902696929936 -115.9714840481813 M334.56545540165007 -188.44060704030568 C310.7341791484279 -164.82990303364147, 286.1111998465232 -136.16503909946007, 267.6014886413446 -114.41027499721505 M332.73148794257645 -189.46924348746583 C319.641545281513 -176.2369162283841, 306.7782350125382 -159.8202160320804, 268.9293180597233 -116.59650065088533 M337.7914975391103 -188.04465400563043 C319.9811079249074 -170.59911951007444, 300.6077149969015 -148.69451674554867, 272.113359359186 -115.6696562889627 M338.8650715507314 -189.31117301040646 C314.9297228461704 -163.3928719524451, 291.4422393965509 -137.0893437547338, 274.4982670833557 -116.29984530010968 M341.7447656842959 -189.79048806808674 C326.82297909784484 -172.34007890525618, 310.86844281325534 -155.62946530151132, 277.4010439990725 -114.55037713658193 M342.35018806741095 -189.38478303478126 C323.7158427290672 -168.79441687499278, 306.59126477402907 -147.93029020076997, 280.09128572452136 -115.93826249042372 M348.2990985730863 -190.10490151133638 C324.72082195899105 -160.40712702769648, 301.0611407779604 -136.2756144238681, 284.7467953369794 -117.89908194726682 M347.43106111179645 -188.76940110838223 C330.42147973625435 -168.16138442587433, 310.8255849982323 -146.89736329817148, 285.14816332653663 -116.63000026258315 M352.2926930228371 -189.0809433199551 C336.1996461061816 -171.08642379075505, 325.0643773212706 -156.37825502349258, 289.52196736772066 -114.58173227926153 M351.35976387471345 -188.47303292820297 C331.25969232663607 -161.98027318444161, 307.5744749807746 -136.99368891903097, 288.96412901199756 -115.71195500274571 M355.2485365220596 -187.9520236165879 C333.87709389960133 -160.34908331532947, 308.0396072867722 -133.61566175548822, 296.9083931607869 -115.1631996715504 M357.1513373740754 -187.76400807399048 C345.2536085550675 -173.36427669269148, 331.4936914437272 -159.43986595713736, 294.8214724461821 -116.27596776446467 M361.2809670034093 -187.0282627366847 C341.45881698771507 -160.3430962683074, 320.59984543095237 -136.59813086181668, 299.06822641533705 -117.17495801117947 M361.79106146548736 -186.34403350741295 C347.68134322938596 -172.5437146447063, 335.9329479546091 -158.03385616337042, 301.31433567552347 -116.72444112615301 M367.0384502177626 -185.8656563200353 C345.3833003712157 -164.14782084617835, 326.5036388777888 -140.61499854982887, 305.7745823853297 -117.28153474876314 M365.0766540956476 -186.36537223916196 C350.4894791942123 -167.08722342463847, 335.9430645879267 -150.22518434131038, 306.58190726144704 -116.42874344654196 M370.8305180652399 -185.69985711424394 C347.09853394695483 -157.25776630304836, 322.0908701818804 -129.33309623275684, 313.1689373893852 -118.26338452701664 M369.8647213155192 -184.43874480321395 C350.43186560369736 -159.04219460948892, 328.7732584804545 -135.81025271566642, 312.18700251907023 -117.56392359410202 M376.1159953134478 -181.773408467074 C354.47083236109296 -161.12469614554877, 339.15973084559187 -142.31919008051895, 317.62672229873976 -117.49537523767314 M375.0057959384327 -184.26696731070984 C357.3532852279138 -161.2241152490539, 337.49439780456333 -141.59844957696123, 317.96360361327504 -118.12116503651987 M379.74917232341346 -181.3610424935258 C359.3386559117342 -157.6522575891065, 337.1293185585687 -131.9880679552647, 323.2048186655511 -118.59381081524087 M380.1198786520238 -182.9124126055234 C366.49158672118654 -166.79653295490763, 354.10355909219726 -153.03756036232906, 322.8921621222511 -118.2086243530051 M384.4790243798765 -179.85628503430956 C364.96443384042306 -159.213330114381, 342.65025522478106 -135.5737780660736, 330.21110430384454 -116.58681233667612 M383.8715327069808 -180.8114374807534 C371.82015859787055 -168.10082156682404, 360.90959967665617 -155.7694431974382, 327.644680828554 -118.48219385660877 M388.2506167227655 -180.0147936828839 C376.8761104906155 -167.25574427225837, 363.6771798093259 -151.97861852469703, 333.22830849042424 -119.44167262643754 M387.8306298813744 -180.4280186045655 C376.23242457957207 -166.48535394973774, 364.2555093683827 -152.55704107878128, 335.274675838852 -117.80181354136421 M393.92211288414666 -179.0774803521836 C378.6262595048688 -165.88882449381725, 368.1168360603917 -152.19762405518168, 339.96409825503866 -119.64471679617552 M391.37886016873375 -179.37063925870675 C373.32648350488387 -157.9482788310507, 354.1427404024738 -134.75174164736447, 340.5598794651125 -119.65205256548622 M395.8754871426996 -177.44524990686705 C375.945065916802 -156.72012290126642, 357.2091224381308 -136.86867564397403, 345.0397192806909 -119.8997586718537 M395.6369928991734 -176.59866684486025 C375.3677102037747 -156.3744596214205, 355.5005706210756 -133.13477056455312, 346.6628586176249 -120.25431844228468 M400.34071451720655 -176.34193431464064 C390.4823646724248 -163.40540041335538, 380.2893767333932 -151.54294963269984, 350.4255744990339 -122.9276615158276 M400.08417697585554 -175.3692994192134 C384.90221175856 -159.367414923048, 370.96513882516564 -141.91246747814134, 353.0792310028604 -120.10586040299984 M405.7732006527497 -173.46872773503142 C386.2548830557635 -151.83662189585735, 369.6374099299967 -132.64304334156785, 358.796776238046 -122.61398700116816 M404.60872742885635 -173.8680311267781 C386.8384766018548 -156.17998531017383, 371.0002398976048 -136.00292201937657, 358.6718411191735 -122.65989644550169 M409.33846406564516 -173.67789833114105 C392.1906008195224 -154.44702265977705, 371.8455837357777 -134.82464932247868, 363.958640979575 -121.4812593102103 M408.1118934424426 -172.49123986876955 C396.19931687503293 -158.4966948915894, 382.04153008654407 -142.43528788653927, 363.8634197934737 -122.70699866659983 M413.0994887919846 -172.15612496034777 C398.9694152677042 -154.71723884867689, 386.5538129602267 -141.6179273173422, 370.3000776031224 -125.2489972241503 M410.881623538068 -169.79353651373592 C398.04040565365847 -155.88975002045737, 384.4825164862144 -139.5195197718278, 371.80241751403963 -125.22309179822707 M415.8906137409994 -169.4150374857749 C405.25864288654674 -155.70900887017638, 393.69748997626874 -144.5294170179326, 378.0598072732945 -125.35171771889087 M414.4876768778221 -167.89235407449962 C403.9561443885471 -155.04501253187294, 393.43045239845816 -142.79445565897805, 378.21612367762634 -125.7561329416306 M418.9710084014584 -165.22864101976546 C412.07838129879565 -158.6025211291071, 402.1914268675541 -148.19243873285754, 384.54310584088796 -128.64633104356275 M418.1377492765616 -166.2157297861776 C406.57371833347884 -152.80782721054692, 394.45222688281456 -138.22614756872505, 384.6912706946303 -128.32235750179763 M422.3747846892732 -161.30291147797146 C409.81950038220134 -150.62107259640632, 399.9427605022992 -139.9259864925738, 390.0142059198129 -130.36229885206393 M420.0043841863392 -162.67247628619657 C414.2257249884536 -155.07632482631138, 408.2503099898462 -148.52990565469608, 391.51823654938835 -130.01691318102607 M423.62395193358816 -160.74574455550302 C419.0914003608334 -154.25273294488773, 413.4852338472742 -148.3163836947872, 401.3289463048599 -132.30471520304798 M423.8627331265486 -160.6319078834341 C417.22236185139946 -152.82079725128526, 410.2092013722829 -144.4422342338427, 400.54482787166927 -132.0520311302528 M423.7180393177061 -157.25289944373878 C420.70924598738617 -147.20446155576843, 411.33548913947925 -140.80901181523654, 406.7476661296018 -136.6515911051219 M424.7355626490545 -155.29480254456888 C418.6968795258552 -149.83395994747204, 413.8684818947758 -143.44244645194553, 409.1660612293671 -136.10014970567292" style="stroke: none; stroke-width: 0.5px; fill: none;"></path><path d="M240.40621965389553 -189.9504034880414 C266.54815840595336 -192.63205310371504, 307.0809208600557 -191.86190416431612, 334.782981888808 -189.04120255536876 C362.48504291756035 -186.2205009464214, 392.7463298956515 -180.03630618440513, 406.61858582640946 -173.02619383435723 C420.4908417571674 -166.01608148430932, 424.37214988535726 -155.1172064459663, 418.01651747335563 -146.9805284550814 C411.660885061354 -138.84385046419652, 391.8833735972193 -129.3583724974337, 368.4847913543998 -124.2061258890478 C345.08620911158033 -119.0538792806619, 307.3971910595715 -115.68469360546678, 277.6250240164387 -116.06704880476605 C247.8528569733059 -116.44940400406531, 211.84883842096156 -121.03072978663823, 189.851789095603 -126.50025708484345 C167.85473977024446 -131.96978438304868, 149.66090411493946 -140.97683579370465, 145.64272806428744 -148.88421259399738 C141.62455201363542 -156.7915893942901, 147.48089778152024 -166.86458409047876, 165.74273279169083 -173.94451788659975 C184.0045678018614 -181.02445168272075, 237.84733863547694 -188.30075680005697, 255.21373812531095 -191.3638153707234 C272.58013761514496 -194.4268739413898, 269.3937727595551 -192.91195134409895, 269.94112973069485 -192.3228693105983 M314.3731445124407 -191.67024484927882 C342.09835767486913 -190.6289286670159, 375.678176745995 -183.94140081617894, 393.4834161248997 -177.51669774297463 C411.28865550380436 -171.09199466977032, 422.71423295225236 -161.0852159175892, 421.20458078586887 -153.12202641005288 C419.6949286194854 -145.15883690251655, 404.8211522416518 -135.6352884784321, 384.4255031265989 -129.73756069775658 C364.02985401154604 -123.83983291708105, 328.12751214498314 -118.79964731670682, 298.8306860955515 -117.73565972599975 C269.5338600461199 -116.67167213529268, 233.220396877161 -119.09967060876191, 208.6445468300093 -123.35363515351419 C184.0686967828576 -127.60759969826647, 160.43413473015568 -135.79428865893263, 151.37558581264125 -143.25944699451344 C142.31703689512682 -150.72460533009425, 142.72078618774498 -160.47996907173797, 154.29325332492266 -168.14458516699906 C165.86572046210034 -175.80920126226016, 194.16852118162132 -185.35457311033358, 220.8103886357074 -189.24714356607993 C247.45225608979348 -193.13971402182628, 298.79532502098016 -191.19058708098413, 314.14445804943915 -191.50000790147715 C329.49359107789815 -191.80942872197016, 313.3337407913366 -191.7018014180247, 312.9051868064613 -191.10366848903809" style="stroke: rgb(0, 0, 0); stroke-width: 1px; fill: none;"></path></g>
<text text-anchor="middle" x="283" y="-150.3" font-family="The Tinos" font-size="14.00" fill="#000000">p-value</text>
</g>
</g>
</g><g id="svg-pan-zoom-controls" transform="translate(945 308) scale(0.75)" class="svg-pan-zoom-control"><g id="svg-pan-zoom-zoom-in" transform="translate(30.5 5) scale(0.015)" class="svg-pan-zoom-control"><rect x="0" y="0" width="1500" height="1400" class="svg-pan-zoom-control-background"></rect><path d="M1280 576v128q0 26 -19 45t-45 19h-320v320q0 26 -19 45t-45 19h-128q-26 0 -45 -19t-19 -45v-320h-320q-26 0 -45 -19t-19 -45v-128q0 -26 19 -45t45 -19h320v-320q0 -26 19 -45t45 -19h128q26 0 45 19t19 45v320h320q26 0 45 19t19 45zM1536 1120v-960 q0 -119 -84.5 -203.5t-203.5 -84.5h-960q-119 0 -203.5 84.5t-84.5 203.5v960q0 119 84.5 203.5t203.5 84.5h960q119 0 203.5 -84.5t84.5 -203.5z" class="svg-pan-zoom-control-element"></path></g><g id="svg-pan-zoom-reset-pan-zoom" transform="translate(5 35) scale(0.4)" class="svg-pan-zoom-control"><rect x="2" y="2" width="182" height="58" class="svg-pan-zoom-control-background"></rect><path d="M33.051,20.632c-0.742-0.406-1.854-0.609-3.338-0.609h-7.969v9.281h7.769c1.543,0,2.701-0.188,3.473-0.562c1.365-0.656,2.048-1.953,2.048-3.891C35.032,22.757,34.372,21.351,33.051,20.632z" class="svg-pan-zoom-control-element"></path><path d="M170.231,0.5H15.847C7.102,0.5,0.5,5.708,0.5,11.84v38.861C0.5,56.833,7.102,61.5,15.847,61.5h154.384c8.745,0,15.269-4.667,15.269-10.798V11.84C185.5,5.708,178.976,0.5,170.231,0.5z M42.837,48.569h-7.969c-0.219-0.766-0.375-1.383-0.469-1.852c-0.188-0.969-0.289-1.961-0.305-2.977l-0.047-3.211c-0.03-2.203-0.41-3.672-1.142-4.406c-0.732-0.734-2.103-1.102-4.113-1.102h-7.05v13.547h-7.055V14.022h16.524c2.361,0.047,4.178,0.344,5.45,0.891c1.272,0.547,2.351,1.352,3.234,2.414c0.731,0.875,1.31,1.844,1.737,2.906s0.64,2.273,0.64,3.633c0,1.641-0.414,3.254-1.242,4.84s-2.195,2.707-4.102,3.363c1.594,0.641,2.723,1.551,3.387,2.73s0.996,2.98,0.996,5.402v2.32c0,1.578,0.063,2.648,0.19,3.211c0.19,0.891,0.635,1.547,1.333,1.969V48.569z M75.579,48.569h-26.18V14.022h25.336v6.117H56.454v7.336h16.781v6H56.454v8.883h19.125V48.569z M104.497,46.331c-2.44,2.086-5.887,3.129-10.34,3.129c-4.548,0-8.125-1.027-10.731-3.082s-3.909-4.879-3.909-8.473h6.891c0.224,1.578,0.662,2.758,1.316,3.539c1.196,1.422,3.246,2.133,6.15,2.133c1.739,0,3.151-0.188,4.236-0.562c2.058-0.719,3.087-2.055,3.087-4.008c0-1.141-0.504-2.023-1.512-2.648c-1.008-0.609-2.607-1.148-4.796-1.617l-3.74-0.82c-3.676-0.812-6.201-1.695-7.576-2.648c-2.328-1.594-3.492-4.086-3.492-7.477c0-3.094,1.139-5.664,3.417-7.711s5.623-3.07,10.036-3.07c3.685,0,6.829,0.965,9.431,2.895c2.602,1.93,3.966,4.73,4.093,8.402h-6.938c-0.128-2.078-1.057-3.555-2.787-4.43c-1.154-0.578-2.587-0.867-4.301-0.867c-1.907,0-3.428,0.375-4.565,1.125c-1.138,0.75-1.706,1.797-1.706,3.141c0,1.234,0.561,2.156,1.682,2.766c0.721,0.406,2.25,0.883,4.589,1.43l6.063,1.43c2.657,0.625,4.648,1.461,5.975,2.508c2.059,1.625,3.089,3.977,3.089,7.055C108.157,41.624,106.937,44.245,104.497,46.331z M139.61,48.569h-26.18V14.022h25.336v6.117h-18.281v7.336h16.781v6h-16.781v8.883h19.125V48.569z M170.337,20.14h-10.336v28.43h-7.266V20.14h-10.383v-6.117h27.984V20.14z" class="svg-pan-zoom-control-element"></path></g><g id="svg-pan-zoom-zoom-out" transform="translate(30.5 70) scale(0.015)" class="svg-pan-zoom-control"><rect x="0" y="0" width="1500" height="1400" class="svg-pan-zoom-control-background"></rect><path d="M1280 576v128q0 26 -19 45t-45 19h-896q-26 0 -45 -19t-19 -45v-128q0 -26 19 -45t45 -19h896q26 0 45 19t19 45zM1536 1120v-960q0 -119 -84.5 -203.5t-203.5 -84.5h-960q-119 0 -203.5 84.5t-84.5 203.5v960q0 119 84.5 203.5t203.5 84.5h960q119 0 203.5 -84.5 t84.5 -203.5z" class="svg-pan-zoom-control-element"></path></g></g></svg>